<?xml version="1.0" encoding="utf-8"?>
<!-- Generator: Adobe Illustrator 18.1.1, SVG Export Plug-In . SVG Version: 6.00 Build 0)  -->
<svg version="1.1" id="Layer_1" xmlns="http://www.w3.org/2000/svg" xmlns:xlink="http://www.w3.org/1999/xlink" x="0px" y="0px"
	 viewBox="-1.5 51.3 614.9 656.2" enable-background="new -1.5 51.3 614.9 656.2" xml:space="preserve">
<g>
	<path fill="none" stroke="#CC0000" stroke-width="3" stroke-miterlimit="10" d="M242,158.9C123.1,205,62.4,338.5,108.5,457.5
		c26.7,70.4,87.4,121.4,155.4,140.8l-12.1,29.1c-2.4,4.9,0,9.7,4.9,12.1c2.4,0,4.9,0,7.2,0c2.4,0,4.9-2.4,4.9-4.9l14.6-31.6
		c41.2,7.2,82.5,4.9,123.8-12.1c38.8-14.6,72.8-41.2,97-72.8l31.6,14.6c2.4,0,4.9,0,7.2,0c2.4,0,4.9-2.4,4.9-4.9
		c2.4-4.9,0-9.7-4.9-12.1l-26.6-12.1c38.8-60.7,51-138.4,24.2-211.2C494.5,171.1,361,112.9,242,158.9z M409.5,569.2l-9.7-29.1
		c-2.4-4.9-7.2-7.2-12.1-4.9c-4.9,2.4-7.2,7.3-4.9,12.1l9.7,29.1c-104.4,34-216-17-259.8-116.5l29.1-9.7c4.9-2.4,7.2-7.2,4.9-12.1
		c-2.4-4.9-7.2-7.2-12.1-4.9l-29.1,9.7c-34-104.4,17-216,116.5-259.8l9.7,29.1c2.4,4.9,7.2,7.2,12.1,4.9c4.9-2.4,7.2-7.2,4.9-12.1
		l-9.7-29.1c104.4-34,216,17,259.8,116.5l-29.1,9.7c-4.9,2.4-7.2,7.2-4.9,12.1c2.4,4.9,7.2,7.2,12.1,4.9l29.1-9.7
		C560,411.4,509,525.5,409.5,569.2z"/>
	<path fill="none" stroke="#CC0000" stroke-width="3" stroke-miterlimit="10" d="M453.2,314.3l-106.8,41.2
		c-4.9-7.2-12.1-9.7-21.9-9.7l-34-87.3c-2.4-4.9-7.2-7.2-12.1-4.9c-4.9,2.4-7.2,7.2-4.9,12.1l34,87.4c-9.7,7.2-12.1,19.4-7.2,31.6
		c4.9,14.6,21.9,21.9,36.5,17c12.1-4.9,17-14.6,17-26.7l106.8-41.2c4.9-2.4,7.2-7.2,4.9-12.1C462.9,316.7,458.1,311.9,453.2,314.3z
		 M327.1,382.2c-4.9,2.4-9.7,0-12.1-4.9c-2.4-4.9,0-9.7,4.9-12.1c4.9-2.4,9.7,0,12.1,4.9C334.3,375,331.8,379.9,327.1,382.2z"/>
	<path fill="none" stroke="#CC0000" stroke-width="3" stroke-miterlimit="10" d="M103.7,200.2c-36.5-17-80.1,0-97,36.5
		s0,80.1,36.5,97l9.7,4.9L111,205L103.7,200.2z M43.1,309.4c-21.9-14.6-29.1-41.2-19.4-65.6c9.7-24.2,36.5-36.5,60.7-29.1
		L43.1,309.4z"/>
	<path fill="none" stroke="#CC0000" stroke-width="3" stroke-miterlimit="10" d="M465.3,59.4c-36.5-17-80.1,0-97,36.5l-4.9,9.7
		l133.5,58.2l4.9-9.7C518.8,120.1,504.2,76.4,465.3,59.4z M489.7,139.6l-97.1-43.7c14.6-21.9,41.2-29.1,65.6-19.4
		C482.3,88.5,494.5,115.2,489.7,139.6z"/>
	<path fill="none" stroke="#CC0000" stroke-width="3" stroke-miterlimit="10" d="M225,642c-2.4-2.4-7.2,0-9.7,2.4
		c-2.4,2.4-4.9,7.2-2.4,9.7l17,46.1c2.4,4.9,7.2,7.2,12.1,4.9l46.1-17c4.9-2.4,7.2-4.9,7.2-9.7c0-4.9-2.4-7.2-4.9-9.7L225,642z
		 M244.5,683.2l-4.9-14.6l19.4,9.7L244.5,683.2z"/>
	<path fill="none" stroke="#CC0000" stroke-width="3" stroke-miterlimit="10" d="M586.7,501.3c-4.9,0-7.2,2.4-9.7,4.9l-29.1,63.1
		c-2.4,2.4,0,7.2,2.4,9.7c2.4,2.5,7.2,4.9,9.7,2.4l46.1-17c4.9-2.4,7.2-7.2,4.9-12.1L594.1,506C594.1,503.6,591.6,501.3,586.7,501.3
		z M591.6,549.7l-14.6,4.9l9.7-19.4L591.6,549.7z"/>
</g>
</svg>
