<?xml version="1.0" encoding="utf-8"?>
<!-- Generator: Adobe Illustrator 18.1.0, SVG Export Plug-In . SVG Version: 6.00 Build 0)  -->
<svg version="1.1" id="Capa_1" xmlns="http://www.w3.org/2000/svg" xmlns:xlink="http://www.w3.org/1999/xlink" x="0px" y="0px"
	 viewBox="30 74.8 525.1 526.4" enable-background="new 30 74.8 525.1 526.4" xml:space="preserve">
<g>
	<g id="banknote">
		<path fill="#FFFFFF" d="M545.5,248.9L380.9,84.4c-8.1-8.1-20-11.4-31.2-8.7c-5.9,1.4-11.1,4.5-15.4,8.7c-3.7,3.7-6.5,8.3-8.1,13.5
			c-7.4,24.1-20.3,45.2-39.4,64.2c-25.5,25.5-58.6,44.8-93.8,65.1c-37.2,21.6-75.7,44-107.3,75.4c-26.8,26.8-45,56.7-55.7,91.4
			c-3.6,11.7-0.4,24.3,8.1,33l164.5,164.5c8.1,8.1,20,11.4,31.2,8.7c5.9-1.5,11.1-4.5,15.4-8.7c3.7-3.7,6.5-8.3,8.1-13.5
			c7.4-24.1,20.3-45.2,39.4-64.2c25.5-25.5,58.6-44.7,93.8-65.1c37.2-21.6,75.7-44,107.3-75.5c26.8-26.8,45-56.7,55.7-91.4
			C557.2,270.2,554,257.5,545.5,248.9z M226,568.3c-54.5-54.5-110-110-164.5-164.5C108.3,252.4,310.9,259,357.6,107.7
			c54.5,54.5,110,110,164.6,164.5C475.4,423.5,272.8,416.9,226,568.3z"/>
		<path fill="#FFFFFF" d="M350.4,319.9c-5.4-4.5-10.8-7.5-16.2-9s-10.8-2.1-16.3-1.8c-5.4,0.4-11,1.7-16.5,3.8
			c-5.6,2.1-11.1,4.5-16.7,7.2c-8.8-10.2-17.7-20.2-26.5-29.5c4-3.6,7.9-5.4,11.6-5.6c3.7-0.2,7.3,0.3,10.7,1.1
			c3.4,0.9,6.6,1.6,9.6,2.2s5.6-0.1,7.8-1.9c2.4-2,3.7-4.7,3.9-8c0.2-3.3-1.1-6.4-3.8-9.5c-3.4-4-7.6-6.4-12.6-7.3
			c-5-0.9-10-0.8-15.3,0.4c-5.2,1.1-10.2,3.2-14.9,5.9c-4.7,2.7-8.5,5.6-11.2,8.3c-1.1-1.1-2.1-2-3.2-3c-1.1-1.1-2.7-1.7-4.4-1.7
			c-1.8,0-3.3,0.8-4.5,2.2c-1.1,1.4-1.8,3-1.5,4.7c0.2,1.8,0.9,3.1,2.1,4.2c1.1,0.9,2.1,1.8,3.2,2.7c-4.2,5-7.7,10.7-10.4,16.6
			s-4.4,11.9-5,17.5c-0.6,5.7,0,11.1,1.8,15.9c1.8,5,5,9.1,9.7,13.1c7.8,6.5,16.9,9.2,27.4,8.6c10.5-0.6,21.9-3.8,34.1-10.3
			c9.7,11.2,19.5,22.4,29.2,32.7c-4.2,3.4-7.7,5.5-10.9,6.1c-3.2,0.7-6,0.6-8.6-0.2c-2.6-0.8-5-1.9-7.2-3.4
			c-2.2-1.5-4.3-2.8-6.5-3.9s-4.3-1.7-6.5-1.7c-2.2,0-4.6,1.1-7.3,3.3c-2.7,2.4-4.1,5-4.1,8.1c0,3.1,1.4,6.2,4.2,9.3
			c2.8,3.2,6.5,5.7,10.8,7.9c4.4,2.1,9.4,3.4,14.9,3.8c5.5,0.4,11.2-0.4,17.3-2.7c6.1-2.2,12.1-6.3,18.1-12.2c2.8,2.8,5.7,5.5,8.7,8
			c1.2,1.1,2.7,1.6,4.5,1.4c1.8-0.1,3.3-0.9,4.4-2.3c1.2-1.5,1.8-3.1,1.5-4.9c-0.2-1.8-0.9-3.1-2-4c-2.9-2.3-5.7-4.8-8.7-7.3
			c5-6,8.8-12.4,11.8-18.8c2.9-6.4,4.7-12.5,5.2-18.1c0.6-5.7-0.1-10.8-1.9-15.5C358.4,327.8,355.1,323.7,350.4,319.9z M258.4,331
			c-4.7,0.2-8.8-1.3-12.3-4.8c-1.5-1.4-2.6-3.2-3.2-5.3c-0.7-2.1-0.9-4.3-0.6-6.9c0.3-2.5,1-5,2.2-7.6s3-5.2,5.3-7.7
			c8.3,8.3,16.6,17.4,25,26.8C268.6,329,263,330.8,258.4,331z M336,364c-1.5,2.7-3.2,5.1-5.1,7.3c-9.2-9.3-18.5-19.5-27.7-30.1
			c2.4-1.1,4.9-2.1,7.5-3.3c2.7-1.1,5.3-1.9,8-2.3c2.7-0.4,5.4-0.3,8.1,0.4c2.7,0.7,5.2,2.1,7.5,4.4c2.3,2.3,3.8,4.7,4.3,7.3
			c0.6,2.7,0.7,5.3,0.3,8S337.5,361.2,336,364z"/>
		<path fill="#FFFFFF" d="M270.7,439.6L270.7,439.6c-10.3,7.9-20.3,16.2-29.6,25.6c-8.9,8.9-17,18.3-24.1,28l-11.3,15.4l0,0
			c-2,3.2-1.7,7.5,1.1,10.3c3.2,3.2,8.5,3.2,11.7,0c0.5-0.5,0.9-1.1,1.2-1.7l10.5-14.4c6.5-8.9,14.1-17.7,22.4-26
			c9.2-9.2,17.8-16.4,28.2-24.2l0,0c0.3-0.3,0.6-0.4,0.8-0.7c3.2-3.2,3.2-8.5,0-11.7C278.7,437.1,273.9,437.1,270.7,439.6z"/>
		<path fill="#FFFFFF" d="M331,201.7c-8.6,8.6-18,16.4-27.6,23.7c-0.7,0.4-1.3,0.8-1.9,1.4c-3.3,3.3-3.3,8.5,0,11.8
			c3.2,3.2,8.2,3.3,11.5,0.3h0.1c10.3-7.9,20.3-16.3,29.6-25.6c8.9-8.9,17-18.3,24.1-28l11.2-15.4l0,0c2.8-3.3,2.7-8.1-0.4-11.2
			c-3.3-3.3-8.5-3.3-11.8,0c-0.6,0.6-1.1,1.3-1.4,2l-11,14.9C346.8,184.6,339.3,193.3,331,201.7z"/>
	</g>
</g>
</svg>
