<?xml version="1.0" encoding="utf-8"?>
<!-- Generator: Adobe Illustrator 18.1.1, SVG Export Plug-In . SVG Version: 6.00 Build 0)  -->
<svg version="1.1" id="Слой_1" xmlns="http://www.w3.org/2000/svg" xmlns:xlink="http://www.w3.org/1999/xlink" x="0px" y="0px"
	 viewBox="-15.2 151.1 640.7 640.7" enable-background="new -15.2 151.1 640.7 640.7" xml:space="preserve">
<circle fill="none" stroke="#FFFFFF" stroke-width="40" stroke-miterlimit="10" cx="305.2" cy="471.5" r="296.4"/>
<g>
	<path fill="#FFFFFF" d="M283.7,592c8.8,0,17-1.2,24.6-3.6c7.5-2.5,14-6.5,19.6-12.2c5.6-5.7,9.9-13.2,13-22.5
		c3.1-9.3,4.6-20.8,4.6-34.4c0-11.4-1.5-21.2-4.6-29.7c-3.1-8.5-7.5-15.4-13.3-21s-12.7-9.8-20.6-12.5c-7.9-2.8-16.9-4.1-26.9-4.1
		c-7.4,0-13.8,0.3-19.3,0.9c-5.4,0.5-10.2,1.3-14.3,2.3c-4.2,1-7.7,1.9-10.8,3c-3.1,1.1-6,2.3-8.6,3.3l-10.3-2.9l13.9-152.6h144
		l2.1,65.1h-18.1l-1.7-12.9c-0.4-3.1-1.1-5.7-1.8-7.9c-0.8-2.1-2-4-3.6-5.5c-1.6-1.5-4-2.6-6.9-3.2c-2.9-0.8-6.5-1.1-11-1.1h-83.8
		l-8.3,94.7c4.4-1.5,10.6-3.1,18.9-4.6c8.3-1.5,18.7-2.4,31.4-2.4c13.9,0,26.8,1.9,38.8,5.7s22.4,9.4,31.2,17
		c8.8,7.6,15.8,17,20.7,28.5c4.9,11.5,7.5,24.8,7.5,39.9c0,14.6-2.4,27.9-7.1,40c-4.7,12.1-11.5,22.4-20.4,31.1
		c-8.9,8.6-19.8,15.3-32.7,19.9c-12.9,4.7-27.6,7.1-44,7.1c-16,0-29.3-1.4-39.7-4.1c-10.5-2.8-18.8-6.2-25-10.4s-10.5-8.9-13.1-14
		c-2.6-5.1-3.8-10.1-3.8-14.8c0-8,2.3-14.3,6.6-18.8s11.3-6.8,20.5-6.8c0,6.2,1.1,11.9,3.2,17.3c2.1,5.4,5.4,10,9.6,13.8
		c4.3,3.9,9.6,6.9,16.2,9.1C267.5,590.9,275.1,592,283.7,592z"/>
</g>
</svg>
