<?xml version="1.0" encoding="utf-8"?>
<!-- Generator: Adobe Illustrator 18.1.1, SVG Export Plug-In . SVG Version: 6.00 Build 0)  -->
<svg version="1.1" id="Capa_1" xmlns="http://www.w3.org/2000/svg" xmlns:xlink="http://www.w3.org/1999/xlink" x="0px" y="0px"
	 viewBox="0 90 612 612" enable-background="new 0 90 612 612" xml:space="preserve">
<g>
	<g id="like">
		<path fill="#FFFFFF" d="M557.8,290.3c-23.9-6.3-80.1-6.2-162.3-8.4c3.9-17.9,4.8-34.1,4.8-62.8c0-68.6-50-129.1-94.2-129.1
			c-31.2,0-57,25.5-57.4,56.9c-0.4,38.5-12.3,105-76.5,138.8c-4.7,2.5-18.2,9.1-20.1,10l1,0.9c-10-8.7-24-15.3-38.3-15.3H57.4
			C25.7,281.3,0,307,0,338.6v306C0,676.3,25.7,702,57.4,702h57.4c22.8,0,41.8-13.8,51-33c0.2,0.1,0.6,0.2,0.9,0.2
			c1.3,0.3,2.8,0.7,4.6,1.2c0.3,0.1,0.5,0.1,0.9,0.2c11,2.7,32.2,7.8,77.6,18.2c9.7,2.2,61,13.2,114.2,13.2h104.6
			c31.9,0,54.8-12.3,68.5-36.9c0.2-0.4,4.6-9,8.2-20.6c2.7-8.7,3.7-21.1,0.4-33.7c20.5-14.1,27.2-35.5,31.5-49.3
			c7.2-22.8,5-39.9,0-52.2c11.6-10.9,21.4-27.5,25.6-52.9c2.6-15.7-0.2-31.9-7.4-45.4c10.8-12.2,15.8-27.5,16.3-41.6l0.2-4
			c0.1-2.5,0.2-4.1,0.2-9.6C612,331.8,595.3,301,557.8,290.3z M133.9,644.6c0,10.6-8.5,19.1-19.1,19.1H57.4
			c-10.6,0-19.1-8.5-19.1-19.1v-306c0-10.6,8.5-19.1,19.1-19.1h57.4c10.6,0,19.1,8.5,19.1,19.1V644.6z M573.3,368
			c-0.4,9.4-4.3,28-37.8,28c-28.7,0-38.3,0-38.3,0c-5.3,0-9.6,4.3-9.6,9.6s4.3,9.6,9.6,9.6c0,0,8.4,0,37.1,0
			c28.7,0,32.5,23.8,30.6,35.3c-2.4,14.3-9.1,41.2-41.4,41.2c-32.3,0-45.4,0-45.4,0c-5.3,0-9.6,4.3-9.6,9.6c0,5.3,4.3,9.6,9.6,9.6
			c0,0,22.7,0,37.7,0c32.3,0,29.4,24.6,24.8,39.3c-6.1,19.3-9.8,37.2-50.5,37.2c-13.8,0-31.2,0-31.2,0c-5.3,0-9.6,4.3-9.6,9.6
			c0,5.3,4.3,9.6,9.6,9.6c0,0,13.3,0,30,0c20.9,0,21.9,19.8,19.7,26.9c-2.4,7.8-5.2,13.5-5.3,13.8c-5.8,10.4-15.1,16.7-34.8,16.7
			H363.9c-52.5,0-104.6-11.9-106-12.2c-79.4-18.3-83.6-19.7-88.6-21.1c0,0-16.2-2.7-16.2-16.8L153,349.4c0-9,5.7-17.1,15.2-19.9
			c1.2-0.5,2.8-1,3.9-1.4c87.4-36.2,114-115.5,114.8-180.7c0.1-9.2,7.2-19.1,19.1-19.1c20.2,0,56,40.6,56,90.8
			c0,45.3-1.8,53.2-17.7,100.4c191.3,0,189.9,2.8,206.8,7.2c20.9,6,22.7,23.3,22.7,29.3C573.8,362.5,573.6,361.6,573.3,368z"/>
		<path fill="#FFFFFF" d="M86.1,587.3c-15.8,0-28.7,12.9-28.7,28.7s12.9,28.7,28.7,28.7s28.7-12.9,28.7-28.7S101.9,587.3,86.1,587.3
			z M86.1,625.5c-5.3,0-9.6-4.3-9.6-9.6s4.3-9.6,9.6-9.6s9.6,4.3,9.6,9.6S91.3,625.5,86.1,625.5z"/>
	</g>
</g>
</svg>
