<?xml version="1.0" encoding="utf-8"?>
<!-- Generator: Adobe Illustrator 18.1.1, SVG Export Plug-In . SVG Version: 6.00 Build 0)  -->
<svg version="1.1" id="Capa_1" xmlns="http://www.w3.org/2000/svg" xmlns:xlink="http://www.w3.org/1999/xlink" x="0px" y="0px"
	 viewBox="22 224 566.4 399.2" enable-background="new 22 224 566.4 399.2" xml:space="preserve">
<g>
	<path fill="#FFFFFF" d="M485.9,224H124.6L22,360.9l283.2,262.4l283.2-262.4L485.9,224z M413.2,370.8L305.3,582.9l-107-212.1H413.2
		L413.2,370.8z M208.4,348.2l97-97l97,97H208.4z M332.5,246.6h131.1l-37,94.1L332.5,246.6z M185.3,339.4l-30.9-92.7H278L185.3,339.4
		z M173.1,370.8L267,557L65.9,370.8H173.1z M438.5,370.8h106.1L344,556.6L438.5,370.8z M448,348.2l35.4-89.9l67.5,89.9H448z
		 M132.2,251.5l32.3,96.7H59.7L132.2,251.5z"/>
</g>
</svg>
