<?xml version="1.0" encoding="utf-8"?>
<!-- Generator: Adobe Illustrator 18.1.1, SVG Export Plug-In . SVG Version: 6.00 Build 0)  -->
<svg version="1.1" id="Capa_1" xmlns="http://www.w3.org/2000/svg" xmlns:xlink="http://www.w3.org/1999/xlink" x="0px" y="0px"
	 viewBox="0 195.2 612 401.6" enable-background="new 0 195.2 612 401.6" xml:space="preserve">
<g>
	<path id="mail" fill="#FFFFFF" d="M535.5,195.2h-459C34.3,195.2,0,229.5,0,271.7v248.6c0,42.2,34.3,76.5,76.5,76.5h459
		c42.2,0,76.5-34.3,76.5-76.5V271.7C612,229.5,577.7,195.2,535.5,195.2z M38.3,295.6L172.1,396L38.3,496.4V295.6z M573.8,520.3
		c0,21.1-17.2,38.3-38.3,38.3h-459c-21.1,0-38.3-17.1-38.3-38.3L188,408l83.5,62.7c10.2,7.6,22.3,11.5,34.4,11.5
		c12.1,0,24.2-3.8,34.4-11.5L424,408L573.8,520.3L573.8,520.3z M573.8,496.4L439.9,396l133.9-100.4V496.4z M328.9,455.3
		c-6.7,5-14.6,7.6-22.9,7.6c-8.3,0-16.3-2.7-22.9-7.6L204,396L188,384L38.3,271.7v0c0-21.1,17.2-38.3,38.3-38.3h459
		c21.1,0,38.3,17.2,38.3,38.3L328.9,455.3z"/>
</g>
</svg>
