<?xml version="1.0" encoding="utf-8"?>
<!-- Generator: Adobe Illustrator 18.1.1, SVG Export Plug-In . SVG Version: 6.00 Build 0)  -->
<svg version="1.1" id="Capa_1" xmlns="http://www.w3.org/2000/svg" xmlns:xlink="http://www.w3.org/1999/xlink" x="0px" y="0px"
	 viewBox="-171 304.1 268.8 185" enable-background="new -171 304.1 268.8 185" xml:space="preserve">
<g>
	<path fill="#CC0000" d="M94.2,387.7l-80-80c-4.9-4.9-12.8-4.9-17.7,0c-4.9,4.9-4.9,12.8,0,17.7l58.7,58.7h-213.7
		c-6.9,0-12.5,5.6-12.5,12.5c0,6.9,5.6,12.5,12.5,12.5H55.2l-58.7,58.7c-4.9,4.9-4.9,12.8,0,17.7c2.4,2.4,5.6,3.7,8.8,3.7
		s6.4-1.2,8.8-3.7l80-80C99.1,400.5,99.1,392.6,94.2,387.7z"/>
</g>
</svg>
