<?xml version="1.0" encoding="utf-8"?>
<!-- Generator: Adobe Illustrator 18.1.0, SVG Export Plug-In . SVG Version: 6.00 Build 0)  -->
<svg version="1.1" id="Layer_1" xmlns="http://www.w3.org/2000/svg" xmlns:xlink="http://www.w3.org/1999/xlink" x="0px" y="0px"
	 viewBox="0 83.2 595.3 582.5" enable-background="new 0 83.2 595.3 582.5" xml:space="preserve">
<polygon fill="#A7A9AC" points="500,124.7 165,124.7 165,665.6 595.1,665.6 595.1,218.2 "/>
<path fill="#ED1C24" d="M478.5,103.9c0,31.7,0,63.8,0,70.2c6.4,0,39.2,0,70.9,0L478.5,103.9L478.5,103.9z"/>
<path fill="#F1F2F2" d="M463.8,97.9c-120.3,0-309,0-318.4,0c0,14,0,520.6,0,534.5c14,0,402.9,0,416.8,0c0-10.6,0-293.9,0-443.6
	h-98.5V97.9L463.8,97.9z"/>
<path d="M130.3,83.2v564h446.3V180.5l-98.8-97.3H130.3L130.3,83.2L130.3,83.2z M562.3,632.4c-14,0-402.9,0-416.8,0
	c0-14,0-520.6,0-534.5c9.8,0,198,0,318.4,0v90.9h98.5C562.3,338.6,562.3,621.9,562.3,632.4L562.3,632.4L562.3,632.4z M478.5,103.9
	l70.9,70.2c-32.1,0-64.5,0-70.9,0C478.5,167.7,478.5,135.6,478.5,103.9L478.5,103.9z"/>
<path fill="#A7A9AC" d="M439.3,307.3V143.2H145c0,39.2,0,99.2,0,164.1H439.3L439.3,307.3z"/>
<path fill="#ED1C24" d="M14.9,273.7c14,0,378.4,0,392.3,0c0-12.4,0-122.2,0-135.1c-14,0-378.4,0-392.3,0
	C14.9,151.5,14.9,261.2,14.9,273.7L14.9,273.7z"/>
<path d="M0.2,124.3v164.5h421.8V124.3h-7.2H0.2L0.2,124.3L0.2,124.3z M407.2,273.7c-14,0-378.4,0-392.3,0c0-12.4,0-122.2,0-135.1
	c14,0,378.4,0,392.3,0C407.2,151.5,407.2,261.2,407.2,273.7L407.2,273.7z"/>
<path fill="#FFFFFF" d="M93.4,251.1v-89.8h29c10.9,0,18.1,0.4,21.5,1.5c5.3,1.5,9.4,4.1,12.8,8.7c3.4,4.5,5.3,10.2,5.3,17.4
	c0,5.7-1.1,10.2-3,14s-4.5,6.8-7.5,8.7c-3,1.9-6,3.4-9.4,4.1c-4.1,0.8-10.6,1.1-18.9,1.1h-11.7v34L93.4,251.1L93.4,251.1L93.4,251.1
	z M111.5,176.7v25.7h9.8c7.2,0,12.1-0.4,14.3-1.5c2.3-0.8,4.1-2.3,5.7-4.5c1.5-1.9,1.9-4.1,1.9-7.2c0-3.4-1.1-6-3-7.9
	c-1.9-1.9-4.5-3.4-7.2-4.1c-2.3-0.4-6.4-0.8-13.2-0.8L111.5,176.7L111.5,176.7z"/>
<path fill="#FFFFFF" d="M176.7,161.3h32.8c7.5,0,13.2,0.8,17,1.9c5.3,1.5,9.8,4.1,13.6,8.3c3.8,3.8,6.4,8.7,8.7,14.7
	c1.9,5.7,3,12.8,3,21.1c0,7.5-0.8,13.6-2.6,19.2c-2.3,6.4-5.3,11.7-9.4,15.8c-3,3-7.5,5.3-12.8,7.2c-4.1,1.1-9.4,1.9-15.8,1.9h-34
	v-90.2H176.7L176.7,161.3z M195.2,176.7V236h13.6c4.9,0,8.7-0.4,10.9-0.8c3-0.8,5.3-1.9,7.2-3.8s3.4-4.5,4.5-8.7
	c1.1-4.1,1.9-9.4,1.9-16.2s-0.8-12.1-1.9-15.8c-1.1-3.8-3-6.8-5.3-8.7c-2.3-2.3-4.9-3.4-8.3-4.1c-2.6-0.4-7.5-0.8-14.7-0.8
	L195.2,176.7L195.2,176.7z"/>
<polygon fill="#FFFFFF" points="267.3,251.1 267.3,161.3 328.8,161.3 328.8,176.7 285.4,176.7 285.4,197.9 322.7,197.9 322.7,213 
	285.4,213 285.4,251.1 "/>
<path fill="#ED1C2E" stroke="#ED1C2E" stroke-width="0.5197" stroke-miterlimit="2.6131" d="M292.5,483.1
	c-31.7,23.8-53.6,57.3-44.9,62.6l-7.5-3.8C236,536.2,245.8,508,292.5,483.1L292.5,483.1L292.5,483.1L292.5,483.1z"/>
<path fill="#ED1C2E" d="M524.9,469.9v0.8h-2.3v6h-1.1v-6h-2.3v-0.8H524.9L524.9,469.9L524.9,469.9L524.9,469.9L524.9,469.9
	L524.9,469.9z M531.3,476.6l-0.4-4.1c0-0.4,0-1.1,0-1.9l0,0c0,0.8-0.4,1.5-0.8,1.9l-1.5,3.8h-0.8l-1.5-4.1c0-0.4-0.4-1.1-0.4-1.9
	l0,0c0,0.8,0,1.1,0,1.9l-0.4,4.1h-1.1l0.4-6.8h1.5l1.5,3.8c0,0.4,0.4,1.1,0.4,1.9l0,0c0-0.8,0.4-1.1,0.4-1.9l1.5-3.8h1.5l0.4,6.8
	h-0.8V476.6L531.3,476.6L531.3,476.6z"/>
<path fill="#ED1C2E" d="M530.2,456.3c9.4-19.6-30.2-26.4-83.7-20.4c-9.4-5.3-18.5-11.3-26.8-18.1c-20.7-17-35.8-45.3-45.3-73.9
	c4.1-23.8,4.1-44.1,4.5-66c-1.9,10.2-3.4,26.8-9.1,50.5c-7.2-27.9-8.7-53.6-4.5-66.4c1.1-3,3.4-6,4.1-6.8c4.1,1.9,9.1,6.8,10.2,17.4
	c3.8-19.2-5.7-18.5-8.3-18.5h-6c-3.4,0-6,2.6-7.5,7.9c-4.9,18.1-2.6,50.5,7.5,83.4c-6.4,21.9-15.8,48.3-31.7,80
	c-42.3,84.9-72.8,124.5-93.2,116.2l7.2,3.8c13.6,6.8,37-11.3,73.6-75.1c34.7-12.4,80.7-21.5,120.7-25.7
	c39.6,21.1,84.9,28.3,87.1,14.7c-10.2,4.9-39.6-1.9-69.4-16.2C500.4,440.4,531,444.2,530.2,456.3L530.2,456.3L530.2,456.3z
	 M321.6,469.9c6.4-10.9,13.2-23.4,20.4-37.3c14.7-28.3,23.4-50.9,28.3-70.9c9.4,24.5,23,47.5,41.5,63.4c5.7,4.9,12.1,9.4,18.9,13.6
	C395.9,443.8,356.7,454,321.6,469.9L321.6,469.9z"/>
<path fill="none" stroke="#ED1C2E" stroke-width="0.5197" stroke-miterlimit="2.6131" d="M530.2,456.3c9.4-19.6-30.2-26.4-83.7-20.4
	c-9.4-5.3-18.5-11.3-26.8-18.1c-20.7-17-35.8-45.3-45.3-73.9c4.1-23.8,4.1-44.1,4.5-66c-1.9,10.2-3.4,26.8-9.1,50.5
	c-7.2-27.9-8.7-53.6-4.5-66.4c1.1-3,3.4-6,4.1-6.8c4.1,1.9,9.1,6.8,10.2,17.4c3.8-19.2-5.7-18.5-8.3-18.5h-6c-3.4,0-6,2.6-7.5,7.9
	c-4.9,18.1-2.6,50.5,7.5,83.4c-6.4,21.9-15.8,48.3-31.7,80c-42.3,84.9-72.8,124.5-93.2,116.2l7.2,3.8c13.6,6.8,37-11.3,73.6-75.1
	c34.7-12.4,80.7-21.5,120.7-25.7c39.6,21.1,84.9,28.3,87.1,14.7c-10.2,4.9-39.6-1.9-69.4-16.2C500.4,440.4,531,444.2,530.2,456.3
	 M321.6,469.9c6.4-10.9,13.2-23.4,20.4-37.3c14.7-28.3,23.4-50.9,28.3-70.9c9.4,24.5,23,47.5,41.5,63.4c5.7,4.9,12.1,9.4,18.9,13.6
	C395.9,443.8,356.7,454,321.6,469.9L321.6,469.9z"/>
<path d="M194.1,574.3l-7.5,35.8h-17.7l29-129.4h20.7l27.5,129.4h-17.7l-7.5-35.8H194.1L194.1,574.3L194.1,574.3L194.1,574.3
	L194.1,574.3L194.1,574.3z M219,560l-6-30.9c-1.5-8.7-3.4-20-4.9-29.4h-0.8c-1.5,9.4-3.4,21.1-4.9,29.4l-6,30.9H219L219,560L219,560
	L219,560z"/>
<path d="M315.6,477.4V586c0,7.2,0.4,17.7,0.8,24.1h-15.5l-1.1-11.3H299c-3,6.8-10.2,12.8-19.6,12.8c-17,0-27.9-18.9-27.9-47.9
	c0-32.8,14-48.3,28.7-48.3c7.5,0,13.2,3.4,16.6,10.6h0.4v-48.7L315.6,477.4L315.6,477.4L315.6,477.4L315.6,477.4L315.6,477.4
	L315.6,477.4z M297.5,552.5c0-1.9,0-3.8-0.4-6c-0.8-8.3-5.7-15.8-12.1-15.8c-10.9,0-15.1,15.8-15.1,33.2c0,18.9,4.9,32.4,14.3,32.4
	c4.1,0,9.4-2.3,12.4-13.2c0.4-1.5,0.8-3.8,0.8-6L297.5,552.5L297.5,552.5L297.5,552.5L297.5,552.5z"/>
<path d="M358.6,611.7c-18.5,0-32.1-15.8-32.1-47.9c0-33.6,15.8-48.3,32.8-48.3c18.5,0,31.7,16.6,31.7,47.9
	C391,600.4,372.5,611.7,358.6,611.7L358.6,611.7L358.6,611.7L358.6,611.7L358.6,611.7L358.6,611.7L358.6,611.7z M358.9,597.4
	c11.3,0,13.6-19.6,13.6-34c0-14-2.3-34-14-34s-14,20-14,34C344.6,579.3,347.2,597.4,358.9,597.4L358.9,597.4L358.9,597.4
	L358.9,597.4L358.9,597.4z"/>
<path d="M401.9,477.4h18.1v50.2h0.4c4.9-8.3,11.3-12.1,19.6-12.1c15.8,0,25.7,17.7,25.7,46.4c0,33.2-13.6,49.4-29,49.4
	c-9.1,0-14.3-4.9-18.5-13.2h-0.8l-1.1,11.7h-15.5c0.4-6.4,0.8-17,0.8-24.1L401.9,477.4L401.9,477.4L401.9,477.4L401.9,477.4
	L401.9,477.4L401.9,477.4z M420.1,577c0,2.3,0.4,4.1,0.8,5.7c3,11.3,8.3,13.6,12.1,13.6c10.6,0,14.7-14.3,14.7-33.2
	c0-17.7-4.1-32.4-14.7-32.4c-6,0-10.9,7.2-12.1,14c-0.4,1.9-0.8,4.1-0.8,6V577L420.1,577L420.1,577L420.1,577z"/>
<path d="M490.6,567.2c0,23.8,10.6,29.8,21.1,29.8c6.8,0,12.1-1.5,16.2-3.4l2.6,13.2c-5.7,2.6-14,4.5-22.3,4.5
	c-23.4,0-35.8-17.7-35.8-46.4c0-30.6,14-49.4,33.2-49.4c19.2,0,28.3,18.5,28.3,41.9c0,4.5,0,7.5-0.4,9.8L490.6,567.2L490.6,567.2
	L490.6,567.2L490.6,567.2L490.6,567.2L490.6,567.2z M517.4,554.4c0.4-16.2-5.7-24.9-12.8-24.9c-9.1,0-13.6,13.2-14,24.9H517.4
	L517.4,554.4L517.4,554.4L517.4,554.4z"/>
<path fill="#A7A9AC" d="M562.3,205.8c0-6,0-11.7,0-17.4H477v17.4H562.3L562.3,205.8z"/>
</svg>
