<?xml version="1.0" encoding="utf-8"?>
<!-- Generator: Adobe Illustrator 18.1.1, SVG Export Plug-In . SVG Version: 6.00 Build 0)  -->
<svg version="1.1" id="Layer_1" xmlns="http://www.w3.org/2000/svg" xmlns:xlink="http://www.w3.org/1999/xlink" x="0px" y="0px"
	 viewBox="194 -10.2 999.9 812.4" enable-background="new 194 -10.2 999.9 812.4" xml:space="preserve">
<path fill="#FFFFFF" d="M194,427.3V83.6c0-26,9.1-48.2,27.3-66.4s40.4-27.3,66.4-27.3h468.7c26,0,48.2,9.1,66.4,27.3
	s27.3,40.4,27.3,66.4V146h125c33.9,0,59.9,13.7,78.1,41l125,187.5c10.4,15.6,15.6,33.2,15.6,52.7v187.5c0,26-9.1,48.2-27.3,66.4
	s-40.4,27.3-66.4,27.3H1065c-7.8,27.3-22.8,49.8-44.9,67.4c-22.1,17.6-47.5,26.4-76.2,26.4c-28.6,0-54-8.8-76.2-26.4
	c-22.1-17.6-37.1-40-44.9-67.4H658.8c-7.8,27.3-22.8,49.8-44.9,67.4s-47.5,26.4-76.2,26.4c-28.6,0-54-8.8-76.2-26.4
	c-22.1-17.6-37.1-40-44.9-67.4h-35.2c-26,0-48.2-9.1-66.4-27.3c-18.2-18.2-27.3-40.4-27.3-66.4V521c-26,0-48.2-9.1-66.4-27.3
	S194,453.3,194,427.3L194,427.3z M256.5,427.3c0,9.1,2.9,16.6,8.8,22.5c5.9,5.9,13.3,8.8,22.5,8.8h468.7c9.1,0,16.6-2.9,22.5-8.8
	c5.9-5.9,8.8-13.3,8.8-22.5V83.6c0-9.1-2.9-16.6-8.8-22.5c-5.9-5.9-13.3-8.8-22.5-8.8H287.7c-9.1,0-16.6,2.9-22.5,8.8
	c-5.9,5.9-8.8,13.3-8.8,22.5L256.5,427.3L256.5,427.3z M350.2,614.8c0,9.1,2.9,16.6,8.8,22.5c5.9,5.9,13.3,8.8,22.5,8.8h35.2
	c7.8-27.3,22.8-49.8,44.9-67.4c22.1-17.6,47.5-26.4,76.2-26.4c28.6,0,54,8.8,76.2,26.4s37.1,40,44.9,67.4h164.1
	c7.8-27.3,22.8-49.8,44.9-67.4s47.5-26.4,76.2-26.4s54,8.8,76.2,26.4c22.1,17.6,37.1,40,44.9,67.4h35.2c9.1,0,16.6-2.9,22.5-8.8
	c5.9-5.9,8.8-13.3,8.8-22.5V427.3c0-6.5-2-12.4-5.9-17.6l-125-187.5c-5.2-9.1-13.7-13.7-25.4-13.7h-125v218.7
	c0,26-9.1,48.2-27.3,66.4S782.5,521,756.5,521H350.2L350.2,614.8L350.2,614.8z M475.2,677.3c0,16.9,6.2,31.6,18.6,43.9
	c12.4,12.4,27,18.6,43.9,18.6s31.6-6.2,43.9-18.6s18.6-27,18.6-43.9s-6.2-31.6-18.6-43.9s-27-18.6-43.9-18.6s-31.6,6.2-43.9,18.6
	C481.4,645.7,475.2,660.3,475.2,677.3z M881.5,677.3c0,16.9,6.2,31.6,18.6,43.9s27,18.6,43.9,18.6c16.9,0,31.6-6.2,43.9-18.6
	s18.6-27,18.6-43.9s-6.2-31.6-18.6-43.9s-27-18.6-43.9-18.6c-16.9,0-31.6,6.2-43.9,18.6S881.5,660.3,881.5,677.3z M881.5,458.5V271
	c0-9.1,2.9-16.6,8.8-22.5s13.3-8.8,22.5-8.8H944c11.7,0,20.2,4.6,25.4,13.7l93.7,140.6c3.9,5.2,5.9,11.1,5.9,17.6v46.9
	c0,9.1-2.9,16.6-8.8,22.5c-5.9,5.9-13.3,8.8-22.5,8.8h-125c-9.1,0-16.6-2.9-22.5-8.8C884.4,475.1,881.5,467.6,881.5,458.5
	L881.5,458.5z M912.7,458.5h125v-46.9L944,271h-31.2V458.5z"/>
</svg>
