<?xml version="1.0" encoding="utf-8"?>
<!-- Generator: Adobe Illustrator 18.1.1, SVG Export Plug-In . SVG Version: 6.00 Build 0)  -->
<svg version="1.1" id="Layer_1" xmlns="http://www.w3.org/2000/svg" xmlns:xlink="http://www.w3.org/1999/xlink" x="0px" y="0px"
	 viewBox="289.4 431.7 6.9 11.1" enable-background="new 289.4 431.7 6.9 11.1" xml:space="preserve">
<g enable-background="new    ">
	<path fill="#0071CE" d="M296.2,437.5l-5.2,5.2c-0.1,0.1-0.2,0.1-0.3,0.1s-0.2,0-0.3-0.1l-0.6-0.6c-0.1-0.1-0.1-0.2-0.1-0.3
		c0-0.1,0-0.2,0.1-0.3l4.4-4.4l-4.4-4.4c-0.1-0.1-0.1-0.2-0.1-0.3c0-0.1,0-0.2,0.1-0.3l0.6-0.6c0.1-0.1,0.2-0.1,0.3-0.1
		s0.2,0,0.3,0.1l5.2,5.2c0.1,0.1,0.1,0.2,0.1,0.3S296.3,437.4,296.2,437.5z"/>
</g>
</svg>
