<?xml version="1.0" encoding="utf-8"?>
<!-- Generator: Adobe Illustrator 18.1.1, SVG Export Plug-In . SVG Version: 6.00 Build 0)  -->
<svg version="1.1" id="Layer_1" xmlns="http://www.w3.org/2000/svg" xmlns:xlink="http://www.w3.org/1999/xlink" x="0px" y="0px"
	 viewBox="0 0 8.4 4.9" enable-background="new 0 0 8.4 4.9" xml:space="preserve">
<g>
	<path fill="#0071CE" d="M8.3,0.9L4.4,4.8c0,0.1-0.1,0.1-0.2,0.1S4,4.8,4,4.8L0.1,0.9C0,0.8,0,0.8,0,0.7c0-0.1,0-0.1,0.1-0.2
		l0.4-0.4C0.6,0,0.6,0,0.7,0c0.1,0,0.1,0,0.2,0.1l3.3,3.3l3.3-3.3C7.5,0,7.6,0,7.7,0c0.1,0,0.1,0,0.2,0.1l0.4,0.4
		c0,0.1,0.1,0.1,0.1,0.2C8.4,0.8,8.3,0.8,8.3,0.9z"/>
</g>
</svg>
