<?xml version="1.0" encoding="utf-8"?>
<!-- Generator: Adobe Illustrator 18.1.1, SVG Export Plug-In . SVG Version: 6.00 Build 0)  -->
<svg version="1.1" id="Layer_1" xmlns="http://www.w3.org/2000/svg" xmlns:xlink="http://www.w3.org/1999/xlink" x="0px" y="0px"
	 viewBox="0 0 49 61" enable-background="new 0 0 49 61" xml:space="preserve">
<g>
	<path fill="#B7D3EA" d="M48.4,61c-9.5,0-21.5-8.1-21.5-17.2c0-0.1,0.1-0.2,0.2-0.2c0.1,0,0.2,0.1,0.2,0.2c0,4.1,2.6,8.4,7.1,11.7
		c4.2,3.1,9.5,5,13.9,5c0.1,0,0.2,0.1,0.2,0.2S48.5,61,48.4,61z"/>
	<path fill="#B7D3EA" d="M27.2,55.9c-6.6,0-11.7-7.4-11.7-13.7c0-0.1,0.1-0.2,0.2-0.2S16,42,16,42.1c0,3,1.2,6.4,3.3,9
		c2.2,2.8,5,4.3,7.9,4.3c0.1,0,0.2,0.1,0.2,0.2S27.4,55.9,27.2,55.9z"/>
	<path fill="#B7D3EA" d="M37,45.9c-3.7,0-6.9-1.4-9-4.2c-2-2.5-3.1-6.1-3.1-10.1c0-0.1,0.1-0.2,0.2-0.2c0.1,0,0.2,0.1,0.2,0.2
		c0,6.9,3.6,13.8,11.7,13.8c0.1,0,0.2,0.1,0.2,0.2S37.1,45.9,37,45.9z"/>
	<g opacity="0.8">
		<path fill="#E9A650" d="M7,18.2C9.1,26,19.2,33,24.7,31.5c5.5-1.4,10.8-12.5,8.8-20.3C31.4,3.3,23.8-1.5,16.5,0.4
			C9.2,2.3,5,10.3,7,18.2z"/>
		<path fill="#E9A650" d="M24,35.1c0.7,1.5,1-0.4,2.2-1c1.2-0.5,2.8,0.5,2.2-1c-0.7-1.5-2.2-2.3-3.4-1.7C23.7,32,23.3,33.6,24,35.1z
			"/>
		<path fill="#E9A650" d="M22.3,34.9c0.2,1.6,1.1-0.1,2.4-0.3c1.3-0.2,2.6,1.3,2.4-0.3c-0.2-1.6-1.4-2.8-2.7-2.7
			C23,31.8,22.1,33.2,22.3,34.9z"/>
		<path fill="#FFFFFF" d="M27.5,6.2c-0.1-0.5-0.6-0.7-1-0.6l-2.6,0.7c-0.5,0.1-1.2,0.3-0.6,1c0.6,0.7,3.3,4.3,3.8,4.9
			c0.5,0.6,0.6,0.8,1.1,0.7l1.5-0.4c0.5-0.1,0.7-0.6,0.6-1.1L27.5,6.2z"/>
	</g>
	<g opacity="0.8">
		<path fill="#EB0029" d="M0.7,32.3c2.1,6.1,10.5,11.1,14.8,9.6c4.3-1.5,7.9-10.5,5.8-16.7c-2.1-6.1-8.4-9.5-14.1-7.6
			C1.5,19.6-1.4,26.2,0.7,32.3z"/>
		<path fill="#EB0029" d="M15.1,44.9c0.6,1.2,0.7-0.4,1.7-0.9c0.9-0.5,2.3,0.3,1.7-0.9c-0.6-1.2-1.9-1.7-2.8-1.2
			C14.7,42.4,14.5,43.7,15.1,44.9z"/>
		<path fill="#EB0029" d="M13.8,44.7c0.3,1.3,0.8-0.2,1.9-0.4c1-0.2,2.1,0.9,1.9-0.4c-0.3-1.3-1.3-2.2-2.3-2
			C14.2,42.2,13.5,43.5,13.8,44.7z"/>
		<path fill="#F7F8F8" d="M16.3,21.6c-0.1-0.4-0.5-0.6-0.9-0.5l-2.1,0.7c-0.4,0.1-0.7,0.6-0.4,0.9s2.9,3.3,3.3,3.7
			c0.4,0.4,0.5,0.6,0.9,0.5l1.2-0.4c0.4-0.1,0.5-0.6,0.4-0.9L16.3,21.6z"/>
	</g>
	<g opacity="0.8">
		<path fill="#0071CE" d="M16.8,19.1c-2.5,9.4,3.8,22.6,10.4,24.4c6.5,1.8,18.7-6.5,21.2-15.9c2.5-9.4-2.5-19-11.2-21.3
			C28.4,3.9,19.3,9.7,16.8,19.1z"/>
		<path fill="#0071CE" d="M24.3,46.9c-0.2,2,1.3,0.1,2.8,0.3c1.6,0.2,2.6,2.2,2.8,0.3c0.2-2-0.9-3.7-2.5-3.8
			C25.9,43.5,24.5,44.9,24.3,46.9z"/>
		<path fill="#0071CE" d="M22.7,45.6c-0.8,1.8,1.2,0.5,2.6,1.1c1.4,0.6,1.9,2.9,2.6,1.1c0.8-1.8,0.2-3.8-1.2-4.4
			C25.3,42.8,23.5,43.8,22.7,45.6z"/>
		<path fill="#F7F8F8" d="M45.1,18.9c0,0,0.1-0.9-0.7-1.2l-3.2-0.9c-0.5-0.1-1.3,0.1-1.2,0.7c0.1,0.6,1,7.2,1,7.2s0.1,1,0.7,1.2
			l1.8,0.5c0.5,0.1,1.1-0.1,1.2-0.6L45.1,18.9z"/>
	</g>
</g>
</svg>
