<?xml version="1.0" encoding="utf-8"?>
<!-- Generator: Adobe Illustrator 18.1.1, SVG Export Plug-In . SVG Version: 6.00 Build 0)  -->
<svg version="1.1" id="Layer_1" xmlns="http://www.w3.org/2000/svg" xmlns:xlink="http://www.w3.org/1999/xlink" x="0px" y="0px"
	 viewBox="0 0 51.1 53.3" enable-background="new 0 0 51.1 53.3" xml:space="preserve">
<g>
	<path fill-rule="evenodd" clip-rule="evenodd" fill="#EB9A30" d="M6.9,35.2H0.4l-0.1,0.3c4.5,1.1,8.2,3.6,9.9,8.3l-1.4-7.3
		C8.5,35.6,7.8,35.3,6.9,35.2z"/>
	<path fill-rule="evenodd" clip-rule="evenodd" fill="#293E84" d="M14.6,35.5H19l-6.4,15.8l-4.3,0L4.9,38.7c2.4,1,4.5,3.1,5.3,5.4
		l0.4,2.2L14.6,35.5 M18.1,51.3h4.1l2.6-15.8h-4.1L18.1,51.3 M37,35.8c-0.8-0.3-2.1-0.7-3.7-0.7c-4,0-6.9,2.1-6.9,5.2
		c0,2.3,2,3.5,3.6,4.3c1.6,0.8,2.1,1.3,2.1,2c0,1.1-1.3,1.5-2.4,1.5c-1.6,0-2.5-0.2-3.8-0.8l-0.5-0.3l-0.6,3.5
		c1,0.4,2.7,0.8,4.6,0.8c4.3,0,7.1-2.1,7.1-5.4c0-1.8-1.1-3.2-3.4-4.3c-1.4-0.7-2.3-1.2-2.3-2c0-0.7,0.7-1.4,2.3-1.4
		c1.3,0,2.3,0.3,3.1,0.6l0.4,0.2L37,35.8 M47.5,35.5l3.3,15.8H47c0,0-0.4-1.8-0.5-2.4c-0.6,0-4.8,0-5.2,0c-0.2,0.4-0.9,2.4-0.9,2.4
		h-4.3l6.1-14.5c0.4-1,1.2-1.3,2.1-1.3H47.5 M45.8,45.7c-0.2-0.8-0.9-4.6-0.9-4.6l-0.3-1.4c-0.2,0.6-0.6,1.5-0.5,1.5
		c0,0-1.3,3.5-1.6,4.4C43.2,45.7,45.2,45.7,45.8,45.7z"/>
</g>
<g>
	<path fill="#ED9631" d="M25.5,27.5c2.7,2.5,6.3,4,10.3,4c8.4,0,15.3-6.8,15.3-15.3c0-8.4-6.8-15.3-15.3-15.3c-3.9,0-7.5,1.5-10.3,4
		c-3.1,2.8-5,6.8-5,11.3C20.5,20.7,22.4,24.7,25.5,27.5"/>
	<path fill="#ED9631" d="M49,24.7c0-0.3,0.2-0.5,0.5-0.5c0.3,0,0.5,0.2,0.5,0.5s-0.2,0.5-0.5,0.5C49.2,25.2,49,25,49,24.7
		 M49.5,25.1c0.2,0,0.4-0.2,0.4-0.4s-0.2-0.4-0.4-0.4c-0.2,0-0.4,0.2-0.4,0.4S49.3,25.1,49.5,25.1 M49.5,24.9h-0.1v-0.4h0.2
		c0,0,0.1,0,0.1,0c0,0,0.1,0.1,0.1,0.1c0,0,0,0.1-0.1,0.1l0.1,0.2h-0.1l-0.1-0.2h-0.1V24.9z M49.5,24.7L49.5,24.7c0.1,0,0.1,0,0.1,0
		c0,0,0,0,0-0.1c0,0,0,0,0,0c0,0,0,0-0.1,0h-0.1V24.7z"/>
	<path fill="#BD202D" d="M30.5,14.6c-0.1-0.5-0.1-1.1-0.3-1.6h-9.4c0.1-0.6,0.3-1.1,0.4-1.6h8.5c-0.2-0.6-0.4-1.1-0.6-1.6h-7.2
		c0.3-0.6,0.6-1.1,0.9-1.6h5.4c-0.4-0.6-0.7-1.1-1.2-1.6H24c0.5-0.6,1-1.1,1.5-1.6c-2.7-2.5-6.3-4-10.3-4C6.8,0.9,0,7.8,0,16.2
		s6.8,15.3,15.3,15.3c3.9,0,7.5-1.5,10.3-4c0.6-0.5,1.1-1,1.5-1.6H24c-0.4-0.5-0.8-1.1-1.2-1.6h5.4c0.3-0.5,0.6-1.1,0.9-1.6h-7.2
		c-0.2-0.5-0.5-1.1-0.7-1.6h8.5c0.2-0.5,0.3-1.1,0.4-1.6c0.1-0.5,0.2-1.1,0.3-1.6c0.1-0.5,0.1-1.1,0.1-1.6
		C30.6,15.7,30.5,15.1,30.5,14.6"/>
	<path fill="#FFFFFF" d="M49,19.7c0-0.3,0.2-0.5,0.5-0.5c0.3,0,0.5,0.2,0.5,0.5s-0.2,0.5-0.5,0.5C49.2,20.2,49,20,49,19.7
		 M49.5,20.1c0.2,0,0.4-0.2,0.4-0.4c0-0.2-0.2-0.4-0.4-0.4c-0.2,0-0.4,0.2-0.4,0.4C49.1,20,49.3,20.1,49.5,20.1 M49.5,20h-0.1v-0.4
		h0.2c0,0,0.1,0,0.1,0c0,0,0.1,0.1,0.1,0.1c0,0,0,0.1-0.1,0.1l0.1,0.2h-0.1l-0.1-0.2h-0.1V20z M49.5,19.7L49.5,19.7
		c0.1,0,0.1,0,0.1,0c0,0,0,0,0,0c0,0,0,0,0,0c0,0,0,0-0.1,0h-0.1V19.7z"/>
	<path fill="#25265D" d="M20.3,20.6c-0.5,0.1-0.9,0.2-1.3,0.2c-0.8,0-1.3-0.5-1.3-1.4c0-0.2,0-0.4,0-0.6l0.1-0.6l0.1-0.5l0.7-4.3
		h1.6l-0.2,0.9h1L20.9,16h-1l-0.4,2.6c0,0.1,0,0.2,0,0.3c0,0.3,0.2,0.5,0.6,0.5c0.2,0,0.3,0,0.5-0.1L20.3,20.6"/>
	<path fill="#25265D" d="M25.5,20.6c-0.6,0.2-1.1,0.3-1.7,0.3c-1.8,0-2.8-1-2.8-2.8c0-2.2,1.2-3.8,2.9-3.8c1.4,0,2.2,0.9,2.2,2.3
		c0,0.5-0.1,0.9-0.2,1.6h-3.3c0,0.1,0,0.1,0,0.2c0,0.7,0.5,1.1,1.5,1.1c0.6,0,1.1-0.1,1.7-0.4L25.5,20.6 M24.5,16.8
		c0-0.1,0-0.2,0-0.3c0-0.5-0.3-0.8-0.8-0.8c-0.5,0-0.9,0.4-1.1,1.1L24.5,16.8z"/>
	<polygon fill="#25265D" points="7.7,20.7 6,20.7 7,14.7 4.9,20.7 3.7,20.7 3.6,14.8 2.6,20.7 1,20.7 2.3,12.9 4.7,12.9 4.7,17.7 
		6.3,12.9 9,12.9 	"/>
	<path fill="#25265D" d="M11.7,17.9c-0.2,0-0.2,0-0.3,0c-0.9,0-1.4,0.4-1.4,1c0,0.4,0.2,0.6,0.6,0.6C11.3,19.5,11.6,18.8,11.7,17.9
		 M13,20.7h-1.4l0-0.7c-0.4,0.5-0.9,0.8-1.7,0.8c-0.8,0-1.5-0.7-1.5-1.7c0-0.3,0.1-0.6,0.1-0.8c0.3-1,1.2-1.6,2.7-1.6
		c0.2,0,0.5,0,0.7,0c0.1-0.2,0.1-0.3,0.1-0.4c0-0.4-0.3-0.5-1.1-0.5c-0.5,0-1,0.1-1.4,0.2L9.3,16l-0.1,0l0.2-1.4
		c0.8-0.2,1.3-0.3,1.9-0.3c1.4,0,2.2,0.6,2.2,1.8c0,0.3,0,0.5-0.1,1.2l-0.3,2.2L13.1,20l0,0.3l0,0.2L13,20.7z"/>
	<path fill="#25265D" d="M33.4,14.5c0.5,0,0.9,0.1,1.5,0.4l0.3-1.7C35,13.1,35,13.1,34.8,13l-0.7-0.2c-0.2-0.1-0.5-0.1-0.7-0.1
		c-0.8,0-1.3,0-1.8,0.3c-0.3,0.2-0.6,0.4-1,0.8l-0.2-0.1l-1.7,1.2l0.1-0.7H27l-1,6.3h1.7l0.6-3.4c0,0,0.2-0.5,0.3-0.6
		c0.3-0.4,0.6-0.4,0.9-0.4c0,0,0.1,0,0.1,0c0,0.4-0.1,0.8-0.1,1.2c0,2.1,1.2,3.3,3,3.3c0.5,0,0.9-0.1,1.5-0.2l0.3-1.8
		c-0.6,0.3-1,0.4-1.4,0.4c-1,0-1.5-0.7-1.5-1.9C31.3,15.6,32.2,14.5,33.4,14.5"/>
	<path fill="#25265D" d="M47.4,12.9l-0.4,2.2c-0.4-0.6-0.9-0.9-1.5-0.9c-0.9,0-1.7,0.5-2.2,1.4l0,0l-1.1-0.6l0.1-0.7h-1.8l-1,6.3
		h1.7l0.5-3.4c0,0,0.4-0.5,0.5-0.6c0.2-0.3,0.5-0.4,0.7-0.4c-0.2,0.5-0.3,1.2-0.3,1.9c0,1.6,0.8,2.6,2,2.6c0.6,0,1.1-0.2,1.5-0.7
		l-0.1,0.6h1.6l1.3-7.7H47.4 M45.4,19.2c-0.6,0-0.8-0.4-0.8-1.2c0-1.2,0.5-2.1,1.3-2.1c0.6,0,0.9,0.4,0.9,1.2
		C46.7,18.3,46.2,19.2,45.4,19.2"/>
	<path fill="#25265D" d="M37.8,17.9c-0.2,0-0.2,0-0.3,0c-0.9,0-1.4,0.4-1.4,1c0,0.4,0.2,0.6,0.6,0.6C37.4,19.5,37.8,18.8,37.8,17.9
		 M39.1,20.7h-1.4l0-0.7c-0.4,0.5-0.9,0.8-1.7,0.8c-0.8,0-1.5-0.7-1.5-1.7c0-1.5,1.1-2.4,2.9-2.4c0.2,0,0.5,0,0.7,0
		c0.1-0.2,0.1-0.3,0.1-0.4c0-0.4-0.3-0.5-1.1-0.5c-0.5,0-1,0.1-1.4,0.2L35.4,16l-0.1,0l0.2-1.4c0.8-0.2,1.3-0.3,1.9-0.3
		c1.4,0,2.2,0.6,2.2,1.8c0,0.3,0,0.5-0.1,1.2l-0.3,2.2L39.2,20l0,0.3l0,0.2L39.1,20.7z"/>
	<path fill-rule="evenodd" clip-rule="evenodd" fill="#25265D" d="M16.4,15.7c0.3,0,0.8,0,1.2,0.1l0.2-1.5c-0.5-0.1-1.1-0.1-1.5-0.1
		c-1.9,0-2.5,1-2.5,2.2c0,0.8,0.4,1.3,1.2,1.7c0.7,0.3,0.8,0.4,0.8,0.7c0,0.4-0.3,0.6-1,0.6c-0.5,0-1-0.1-1.5-0.2l-0.2,1.4l0,0
		l0.3,0.1c0.1,0,0.2,0,0.4,0.1c0.4,0,0.7,0.1,0.9,0.1c1.8,0,2.6-0.7,2.6-2.1c0-0.9-0.4-1.4-1.2-1.8c-0.7-0.3-0.8-0.4-0.8-0.7
		C15.6,16,15.9,15.7,16.4,15.7"/>
	<g>
		<path fill="#FFFFFF" d="M35.6,12.7l-0.3,1.7c-0.6-0.3-1-0.4-1.5-0.4c-1.2,0-2.1,1.2-2.1,2.9c0,1.2,0.6,1.9,1.5,1.9
			c0.4,0,0.9-0.1,1.4-0.4l-0.3,1.8c-0.6,0.2-1,0.2-1.5,0.2c-1.8,0-2.9-1.3-2.9-3.3c0-2.8,1.5-4.7,3.7-4.7c0.3,0,0.5,0,0.7,0.1
			l0.7,0.2C35.4,12.6,35.5,12.6,35.6,12.7"/>
		<path fill="#FFFFFF" d="M30.3,13.9c0,0-0.1,0-0.2,0c-0.5,0-0.9,0.3-1.4,1l0.1-1h-1.5l-1,6.3h1.7c0.6-3.9,0.8-4.5,1.5-4.5
			c0.1,0,0.1,0,0.1,0C29.9,14.9,30.1,14.4,30.3,13.9L30.3,13.9"/>
		<path fill="#FFFFFF" d="M20.8,20.1c-0.5,0.1-0.8,0.2-1.2,0.2c-0.8,0-1.3-0.5-1.3-1.4c0-0.2,0-0.4,0-0.6l0.1-0.6l0.1-0.5l0.7-4.3
			h1.6l-0.2,0.9h0.8l-0.2,1.5h-0.8L20,18.1c0,0.1,0,0.2,0,0.3c0,0.3,0.2,0.5,0.6,0.5c0.2,0,0.3,0,0.4-0.1L20.8,20.1"/>
		<path fill="#FFFFFF" d="M14.4,15.9c0,0.8,0.4,1.3,1.3,1.8c0.7,0.3,0.8,0.4,0.8,0.7c0,0.4-0.3,0.6-0.9,0.6c-0.5,0-1-0.1-1.5-0.2
			l-0.2,1.5l0.1,0l0.3,0.1c0.1,0,0.2,0,0.4,0.1c0.4,0,0.7,0.1,0.9,0.1c1.7,0,2.6-0.7,2.6-2.1c0-0.9-0.3-1.4-1.2-1.8
			c-0.7-0.3-0.8-0.4-0.8-0.7c0-0.3,0.3-0.5,0.8-0.5c0.3,0,0.8,0,1.2,0.1l0.2-1.5c-0.4-0.1-1.1-0.1-1.5-0.1
			C15,13.8,14.4,14.7,14.4,15.9"/>
		<path fill="#FFFFFF" d="M48.3,20.2h-1.6l0.1-0.6c-0.5,0.5-0.9,0.7-1.5,0.7c-1.2,0-2-1-2-2.6c0-2.1,1.2-3.9,2.7-3.9
			c0.6,0,1.1,0.3,1.6,0.9l0.4-2.2h1.6L48.3,20.2 M45.9,18.7c0.8,0,1.3-0.9,1.3-2.1c0-0.8-0.3-1.2-0.9-1.2c-0.8,0-1.3,0.9-1.3,2.1
			C45,18.3,45.3,18.7,45.9,18.7"/>
		<path fill="#FFFFFF" d="M25.8,20.1c-0.6,0.2-1.1,0.3-1.7,0.3c-1.9,0-2.8-1-2.8-2.8c0-2.2,1.2-3.8,2.9-3.8c1.4,0,2.2,0.9,2.2,2.3
			c0,0.5-0.1,0.9-0.2,1.6h-3.3c0,0.1,0,0.1,0,0.2c0,0.7,0.5,1.1,1.5,1.1c0.6,0,1.1-0.1,1.7-0.4L25.8,20.1 M24.9,16.3
			c0-0.1,0-0.2,0-0.3c0-0.5-0.3-0.8-0.8-0.8c-0.5,0-0.9,0.4-1.1,1.1L24.9,16.3z"/>
		<polygon fill="#FFFFFF" points="8.1,20.2 6.4,20.2 7.4,14.3 5.3,20.2 4.1,20.2 4,14.3 3,20.2 1.5,20.2 2.8,12.5 5.1,12.5 
			5.2,17.3 6.8,12.5 9.4,12.5 		"/>
		<path fill="#FFFFFF" d="M12.2,17.4c-0.2,0-0.3,0-0.4,0c-0.9,0-1.4,0.3-1.4,1c0,0.4,0.2,0.6,0.6,0.6C11.7,19,12.2,18.3,12.2,17.4
			 M13.4,20.2H12l0-0.7c-0.4,0.5-1,0.8-1.7,0.8c-0.9,0-1.5-0.7-1.5-1.7c0-1.5,1.1-2.4,2.9-2.4c0.2,0,0.4,0,0.7,0
			c0.1-0.2,0.1-0.3,0.1-0.4c0-0.4-0.3-0.6-1.1-0.6c-0.5,0-1,0.1-1.4,0.2l-0.2,0.1l-0.1,0l0.2-1.4c0.8-0.2,1.4-0.3,2-0.3
			c1.4,0,2.2,0.6,2.2,1.8c0,0.3,0,0.5-0.1,1.2l-0.3,2.2l-0.1,0.4l0,0.3l0,0.2L13.4,20.2z"/>
		<path fill="#FFFFFF" d="M38.3,17.4c-0.2,0-0.3,0-0.4,0c-0.9,0-1.4,0.3-1.4,1c0,0.4,0.2,0.6,0.6,0.6C37.8,19,38.3,18.3,38.3,17.4
			 M39.5,20.2h-1.4l0-0.7c-0.4,0.5-1,0.8-1.7,0.8c-0.9,0-1.5-0.7-1.5-1.7c0-1.5,1.1-2.4,2.9-2.4c0.2,0,0.4,0,0.7,0
			c0.1-0.2,0.1-0.3,0.1-0.4c0-0.4-0.3-0.6-1.1-0.6c-0.5,0-1,0.1-1.4,0.2l-0.2,0.1l-0.1,0l0.2-1.4c0.8-0.2,1.4-0.3,2-0.3
			c1.4,0,2.2,0.6,2.2,1.8c0,0.3,0,0.5-0.1,1.2l-0.3,2.2l-0.1,0.4l0,0.3l0,0.2L39.5,20.2z"/>
		<path fill="#FFFFFF" d="M44,13.9c-0.1,0-0.1,0-0.2,0c-0.5,0-0.9,0.3-1.4,1l0.1-1h-1.5l-1,6.3h1.7c0.6-3.9,0.8-4.5,1.5-4.5
			c0.1,0,0,0,0.1,0C43.5,14.9,43.7,14.4,44,13.9L44,13.9"/>
	</g>
</g>
</svg>
