<?xml version="1.0" encoding="utf-8"?>
<!-- Generator: Adobe Illustrator 18.1.1, SVG Export Plug-In . SVG Version: 6.00 Build 0)  -->
<svg version="1.1" id="Layer_1" xmlns="http://www.w3.org/2000/svg" xmlns:xlink="http://www.w3.org/1999/xlink" x="0px" y="0px"
	 viewBox="296.5 35 19 128" enable-background="new 296.5 35 19 128" xml:space="preserve">
<path fill="#FFFFFF" stroke="#0071CE" stroke-miterlimit="10" d="M315,51.5c0,1.3-1,2.3-2.3,2.3h-13.4c-1.3,0-2.3-1-2.3-2.3V38.1
	c0-1.3,1-2.3,2.3-2.3h13.4c1.3,0,2.3,1,2.3,2.3C315,38.1,315,51.5,315,51.5z"/>
<g>
	<path fill="#0071CE" d="M310.6,43.4l-4.4,4.4l-0.8,0.8c-0.1,0.1-0.3,0.2-0.4,0.2s-0.4,0-0.5-0.1l-0.8-0.8l-2.2-2.2
		c-0.1-0.1-0.2-0.3-0.2-0.4s0.1-0.3,0.2-0.4l0.8-0.8c0.1-0.2,0.2-0.3,0.4-0.3c0.2,0,0.3,0.1,0.4,0.2l1.8,1.8l4-4
		c0.1-0.1,0.3-0.2,0.4-0.2c0.1,0,0.3,0.1,0.4,0.2l0.8,0.8c0.1,0.1,0.2,0.3,0.2,0.4C310.7,43.1,310.7,43.3,310.6,43.4z"/>
</g>
<path fill="#FFFFFF" stroke="#A4A298" stroke-miterlimit="10" d="M315,160.5c0,1.3-1,2.3-2.3,2.3h-13.4c-1.3,0-2.3-1-2.3-2.3v-13.4
	c0-1.3,1-2.3,2.3-2.3h13.4c1.3,0,2.3,1,2.3,2.3C315,147.1,315,160.5,315,160.5z"/>
</svg>
