<?xml version="1.0" encoding="utf-8"?>
<!-- Generator: Adobe Illustrator 18.1.1, SVG Export Plug-In . SVG Version: 6.00 Build 0)  -->
<svg version="1.1" id="Layer_1" xmlns="http://www.w3.org/2000/svg" xmlns:xlink="http://www.w3.org/1999/xlink" x="0px" y="0px"
	 viewBox="0 0 16.3 19" enable-background="new 0 0 16.3 19" xml:space="preserve">
<g>
	<path fill="#0071CE" d="M16.3,6.8V18c0,0.6-0.5,1-1,1H1c-0.6,0-1-0.5-1-1V1c0-0.6,0.5-1,1-1h8.5v5.8c0,0.6,0.5,1,1,1H16.3z
		 M12.2,8.5c0-0.2-0.1-0.3-0.3-0.3H4.4c-0.2,0-0.3,0.1-0.3,0.3v0.7c0,0.2,0.1,0.3,0.3,0.3h7.5c0.2,0,0.3-0.1,0.3-0.3V8.5z
		 M12.2,11.2c0-0.2-0.1-0.3-0.3-0.3H4.4c-0.2,0-0.3,0.1-0.3,0.3v0.7c0,0.2,0.1,0.3,0.3,0.3h7.5c0.2,0,0.3-0.1,0.3-0.3V11.2z
		 M12.2,13.9c0-0.2-0.1-0.3-0.3-0.3H4.4c-0.2,0-0.3,0.1-0.3,0.3v0.7c0,0.2,0.1,0.3,0.3,0.3h7.5c0.2,0,0.3-0.1,0.3-0.3V13.9z
		 M15.9,5.4h-5v-5c0.1,0.1,0.3,0.2,0.4,0.3L15.6,5C15.7,5.2,15.8,5.3,15.9,5.4z"/>
</g>
</svg>
