<?xml version="1.0" encoding="utf-8"?>
<!-- Generator: Adobe Illustrator 18.1.1, SVG Export Plug-In . SVG Version: 6.00 Build 0)  -->
<svg version="1.1" id="Layer_1" xmlns="http://www.w3.org/2000/svg" xmlns:xlink="http://www.w3.org/1999/xlink" x="0px" y="0px"
	 viewBox="0 0 35 34.9" enable-background="new 0 0 35 34.9" xml:space="preserve">
<g>
	<path fill="#A4A298" d="M12,6.6H6.6v4.1C6.2,11,6,11,5.8,10.8L0.2,5.9C0.1,5.8,0,5.6,0,5.5c0-0.2,0.1-0.3,0.2-0.4l5.6-5
		C6-0.1,6.2,0,6.6,0.2v4.1H12c0.3,0,0.6,0.1,0.8,0.3c0.2,0.2,0.3,0.5,0.3,0.8c0,0.3-0.1,0.6-0.3,0.8C12.6,6.5,12.3,6.6,12,6.6z
		 M30.6,35H17.5c-0.5,0-1.1-0.4-1.8-1.2c-0.7-0.8-1.3-1.7-1.8-2.8c-0.5-1.1-0.8-1.9-0.8-2.6c0-0.5-0.2-1.5-0.6-2.8
		c-0.4-1.3-0.7-2.8-1.1-4.5c-0.4-1.7-0.5-3.3-0.5-4.7v-1.1c0-0.6,0.2-1.1,0.6-1.6c0.4-0.4,0.9-0.6,1.6-0.6c0.5,0,0.9,0.2,1.3,0.5
		c0.4,0.3,0.6,0.7,0.8,1.1c0.1-0.6,0.1-1.2,0.1-1.6c0-1.3,0-2.6,0.1-3.8c0-1.2,0.1-2.6,0.3-4.2c0.1-1.5,0.4-2.8,0.7-3.7
		C16.7,0.5,17,0,17.5,0c1,0,1.6,0.5,1.9,1.6c0.2,1,0.3,3.4,0.3,7.2c0,0.8,0.1,1.6,0.2,2.2c0.1,0.6,0.3,1.1,0.5,1.3
		c0.2,0.3,0.4,0.5,0.6,0.6c0.2,0.1,0.4,0.2,0.5,0.2h0.2c0-0.6,0.2-1.1,0.6-1.6c0.4-0.4,0.9-0.6,1.6-0.6c1.5,0,2.2,1.5,2.2,4.4
		c0-0.6,0.2-1.1,0.6-1.6c0.4-0.4,0.9-0.6,1.6-0.6s1.1,0.2,1.6,0.6c0.4,0.4,0.6,0.9,0.6,1.6v2.2c0-0.6,0.2-1.1,0.6-1.6
		c0.4-0.4,0.9-0.6,1.6-0.6c0.6,0,1.1,0.2,1.6,0.6c0.4,0.4,0.6,0.9,0.6,1.6v9.8c0,1-0.1,2-0.3,2.8c-0.2,0.8-0.4,1.5-0.6,2
		c-0.2,0.5-0.5,1-0.9,1.4c-0.3,0.4-0.6,0.7-0.9,0.8c-0.3,0.2-0.6,0.3-0.9,0.4S31,35,30.9,35C30.8,35,30.7,35,30.6,35z M29.2,10.8
		C29,11,28.8,11,28.4,10.7V6.6H23c-0.3,0-0.6-0.1-0.8-0.3C22,6,21.9,5.8,21.9,5.5c0-0.3,0.1-0.6,0.3-0.8c0.2-0.2,0.5-0.3,0.8-0.3
		h5.5V0.2C28.8,0,29-0.1,29.2,0.1l5.6,5C34.9,5.2,35,5.3,35,5.5c0,0.2-0.1,0.3-0.2,0.4L29.2,10.8z"/>
</g>
</svg>
