<?xml version="1.0" encoding="utf-8"?>
<!-- Generator: Adobe Illustrator 18.1.1, SVG Export Plug-In . SVG Version: 6.00 Build 0)  -->
<svg version="1.1" id="Layer_1" xmlns="http://www.w3.org/2000/svg" xmlns:xlink="http://www.w3.org/1999/xlink" x="0px" y="0px"
	 viewBox="0 0 25 24.8" enable-background="new 0 0 25 24.8" xml:space="preserve">
<g opacity="0.35">
	
		<image overflow="visible" opacity="0.1" width="155" height="154" xlink:href="ED7C750F.png"  transform="matrix(0.24 0 0 0.24 -6 -6)">
	</image>
	<g>
		<path fill="#E8AB57" d="M25,22.8c0,1.1-0.1,2-0.3,2l0,0C11.1,24.8,0,13.7,0,0l0,0c0,0,0.9,0,2,0h21c1.1,0,2,0.9,2,2V22.8z"/>
	</g>
</g>
<polygon fill="#E8AB57" points="15,4.8 17,7.7 20.5,8.8 18.3,11.6 18.4,15.2 15,14 11.6,15.2 11.7,11.6 9.5,8.8 13,7.7 "/>
</svg>
