<?xml version="1.0" encoding="utf-8"?>
<!-- Generator: Adobe Illustrator 18.1.1, SVG Export Plug-In . SVG Version: 6.00 Build 0)  -->
<svg version="1.1" id="Layer_1" xmlns="http://www.w3.org/2000/svg" xmlns:xlink="http://www.w3.org/1999/xlink" x="0px" y="0px"
	 viewBox="0 0 12.9 12.9" enable-background="new 0 0 12.9 12.9" xml:space="preserve">
<g>
	<path fill="#0071CE" d="M6.4,12.9C2.9,12.9,0,10,0,6.4S2.9,0,6.4,0s6.4,2.9,6.4,6.4S10,12.9,6.4,12.9z M8.6,9.1
		c0-0.2-0.1-0.3-0.3-0.3H7.5V4.6c0-0.2-0.1-0.3-0.3-0.3H4.6c-0.2,0-0.3,0.1-0.3,0.3v1.3c0,0.2,0.1,0.3,0.3,0.3h0.8v2.7H4.6
		C4.4,8.8,4.3,9,4.3,9.1v1.3c0,0.2,0.1,0.3,0.3,0.3h3.8c0.2,0,0.3-0.1,0.3-0.3V9.1z M7.5,1.6c0-0.2-0.1-0.3-0.3-0.3H5.6
		c-0.2,0-0.3,0.1-0.3,0.3v1.3c0,0.2,0.1,0.3,0.3,0.3h1.6c0.2,0,0.3-0.1,0.3-0.3V1.6z"/>
</g>
</svg>
