<?xml version="1.0" encoding="utf-8"?>
<!-- Generator: Adobe Illustrator 18.1.1, SVG Export Plug-In . SVG Version: 6.00 Build 0)  -->
<svg version="1.1" id="Layer_1" xmlns="http://www.w3.org/2000/svg" xmlns:xlink="http://www.w3.org/1999/xlink" x="0px" y="0px"
	 viewBox="0 147.3 605.1 493.9" enable-background="new 0 147.3 605.1 493.9" xml:space="preserve">
<g enable-background="new    ">
	<path fill="#0071CE" d="M234.6,641.2H111.1C49.8,641.2,0,591.4,0,530.1V258.4C0,197,49.8,147.3,111.1,147.3h123.5
		c6.6,0,12.3,5.8,12.3,12.3c0,10.8,5,37-12.3,37H111.1c-34,0-61.7,27.8-61.7,61.7v271.7c0,34,27.8,61.7,61.7,61.7h111.1
		c9.6,0,24.7-1.9,24.7,12.3C247,615,252,641.2,234.6,641.2z M597.7,411.6L387.8,621.5c-4.6,4.6-10.8,7.3-17.4,7.3
		c-13.5,0-24.7-11.2-24.7-24.7V493H172.9c-13.5,0-24.7-11.2-24.7-24.7V320.1c0-13.5,11.2-24.7,24.7-24.7h172.9V184.3
		c0-13.5,11.2-24.7,24.7-24.7c6.6,0,12.7,2.7,17.4,7.3l209.9,209.9c4.6,4.6,7.3,10.8,7.3,17.4C605.1,400.8,602.4,407,597.7,411.6z"
		/>
</g>
</svg>
