<?xml version="1.0" encoding="utf-8"?>
<!-- Generator: Adobe Illustrator 18.1.1, SVG Export Plug-In . SVG Version: 6.00 Build 0)  -->
<svg version="1.1" id="Layer_1" xmlns="http://www.w3.org/2000/svg" xmlns:xlink="http://www.w3.org/1999/xlink" x="0px" y="0px"
	 viewBox="0 0 171.1 20" enable-background="new 0 0 171.1 20" xml:space="preserve">
<g>
	<g>
		<path fill="#2B71B8" d="M55.7,11.5c-0.3-0.6-0.6-1.1-1-1.5c0.4-0.4,0.7-0.9,1-1.5c0.4-0.8,0.6-1.7,0.6-2.7c0-1.4-0.3-2.5-0.8-3.4
			c-0.3-0.6-0.7-1-1.2-1.4c-0.7-0.5-1.4-0.7-2.1-0.9C51.5,0,50.8,0,50.3,0h-7l0,0c-0.5,0-0.9,0-1.4,0c-0.3,0-0.8,0.1-1.3,0.4
			c-0.4,0.2-0.7,0.6-0.9,1c-0.3,0.6-0.3,1-0.4,1.4c0,0.4,0,0.7,0,1.2c0,1.8,0,6.9,0,7.9c0,1.6,0,3.3,0,4.1c0,0.5,0,0.9,0,1.4
			c0,0.3,0.1,0.8,0.4,1.3c0.2,0.4,0.6,0.7,1,0.9c0.6,0.3,1,0.3,1.4,0.4c0.4,0,0.7,0,1.2,0l0,0h7c0.7,0,1.6,0,2.6-0.3
			c0.5-0.1,1-0.4,1.4-0.7c0.5-0.3,0.9-0.8,1.2-1.4c0.5-0.9,0.8-2,0.8-3.4C56.3,13.2,56,12.3,55.7,11.5z M50.3,4c0.6,0,1.1,0,1.4,0.1
			c0.1,0,0.2,0.1,0.3,0.1c0,0,0,0,0,0c0.1,0.2,0.3,0.7,0.3,1.5c0,0.4-0.1,0.7-0.2,1c-0.1,0.3-0.3,0.5-0.5,0.7
			c-0.2,0.2-0.4,0.3-0.8,0.4C50.4,8,49.9,8,49.3,8l0,0c-1.7,0-4.1,0-6,0c0-1.5,0-3.1,0-4H50.3z M52,15.7C52,15.7,52,15.7,52,15.7
			c-0.1,0.1-0.3,0.2-0.6,0.2C51.1,16,50.7,16,50.3,16h-7c0-0.9,0-2.5,0-4l0,0l0,0c0.2,0,0.4,0,0.6,0c1.8,0,3.9,0,5.4,0
			c0.6,0,1.1,0,1.5,0.1c0.4,0.1,0.6,0.2,0.8,0.4c0.2,0.2,0.4,0.4,0.5,0.7c0.1,0.3,0.2,0.6,0.2,1C52.3,15.1,52.1,15.5,52,15.7z"/>
		<path fill="#2B71B8" d="M35.6,2.9c-0.4-1.1-1.3-1.9-2.2-2.3C32.5,0.2,31.6,0,30.7,0c-0.8,0-1.8,0-2.9,0c-1,0-2,0-2.9,0
			c-0.9,0-1.8,0.2-2.7,0.6c-0.9,0.4-1.7,1.2-2.2,2.3C19.5,4.4,19,6.7,19,10c0,3.3,0.5,5.6,1.1,7.1c0.4,1.1,1.3,1.9,2.2,2.3
			c0.9,0.4,1.8,0.6,2.7,0.6h0.7H30h0.7c0.9,0,1.8-0.2,2.7-0.6c0.9-0.4,1.7-1.2,2.2-2.3c0.6-1.5,1.1-3.7,1.1-7.1
			C36.7,6.7,36.2,4.4,35.6,2.9z M31.9,15.6c0,0.1-0.1,0.1-0.3,0.3c-0.2,0.1-0.5,0.2-0.9,0.2h-5l0,0H25c-0.4,0-0.7-0.1-0.9-0.2
			c-0.2-0.1-0.2-0.2-0.3-0.3C23.4,14.6,23,12.9,23,10c0-2.9,0.5-4.6,0.8-5.6c0-0.1,0.1-0.1,0.3-0.3C24.3,4.1,24.6,4,25,4
			c0.2,0,0.5,0,0.8,0c1.4,0,2.9,0,4.2,0c0.3,0,0.5,0,0.7,0c0.4,0,0.7,0.1,0.9,0.2c0.2,0.1,0.2,0.2,0.3,0.3c0.4,0.9,0.8,2.7,0.8,5.6
			C32.7,12.9,32.3,14.6,31.9,15.6z"/>
		<path fill="#2B71B8" d="M75.3,2.9c-0.4-1.1-1.3-1.9-2.2-2.3C72.2,0.2,71.3,0,70.4,0c-0.8,0-1.8,0-2.9,0c-1,0-2,0-2.9,0
			c-0.9,0-1.8,0.2-2.7,0.6c-0.9,0.4-1.7,1.2-2.2,2.3c-0.6,1.5-1.1,3.7-1.1,7.1c0,3.3,0.5,5.6,1.1,7.1c0.4,1.1,1.3,1.9,2.2,2.3
			c0.9,0.4,1.8,0.6,2.7,0.6h0.7h4.2h0.8c0.9,0,1.8-0.2,2.7-0.6c0.9-0.4,1.7-1.2,2.2-2.3c0.6-1.5,1.1-3.7,1.1-7.1
			C76.4,6.7,75.9,4.4,75.3,2.9z M71.6,15.6c0,0.1-0.1,0.1-0.3,0.3c-0.2,0.1-0.5,0.2-0.9,0.2h-5l0,0h-0.7c-0.4,0-0.7-0.1-0.9-0.2
			c-0.2-0.1-0.2-0.2-0.3-0.3c-0.4-0.9-0.8-2.7-0.8-5.6c0-2.9,0.5-4.6,0.8-5.6c0-0.1,0.1-0.1,0.3-0.3C64,4.1,64.3,4,64.7,4
			c0.2,0,0.5,0,0.8,0c1.4,0,2.9,0,4.2,0c0.3,0,0.5,0,0.8,0c0.4,0,0.7,0.1,0.9,0.2c0.2,0.1,0.2,0.2,0.3,0.3c0.4,0.9,0.8,2.7,0.8,5.6
			C72.4,12.9,71.9,14.6,71.6,15.6z"/>
		<path fill="#2B71B8" d="M9.6,14.5c0,0,0.1,0,0.1,0l2.8,5.5H17l-3.4-6.5c0.1,0,0.1-0.1,0.2-0.1c0.9-0.5,1.8-1.3,2.4-2.4
			c0.6-1.1,1-2.5,1-4c0-1.8-0.4-3.3-1-4.4c-0.5-1.1-1.5-1.8-2.4-2.1C13,0.1,12.1,0,11.3,0C9.2,0,5.9,0,4,0C3.5,0,3.1,0,2.6,0
			c-0.3,0-0.8,0.1-1.3,0.4c-0.4,0.2-0.7,0.6-0.9,1C0.1,2,0.1,2.5,0,2.8C0,3.2,0,3.6,0,4c0,2,0,16,0,16h4c0,0,0-2.5,0-5.5h5.2
			C9.3,14.5,9.4,14.5,9.6,14.5z M4,4c1.9,0,5.2,0,7.3,0c0.4,0,0.9,0.1,1.1,0.2c0.3,0.1,0.3,0.2,0.3,0.3C13,5,13.2,5.7,13.2,7
			c0,1-0.2,1.6-0.4,2c-0.4,0.6-0.9,1-1.5,1.2c-0.6,0.2-1.4,0.3-1.7,0.3c-0.1,0-0.1,0-0.2,0c0,0,0,0,0,0c0,0,0,0,0,0l0,0l-0.1,0H4
			C4,7.5,4,4.8,4,4z"/>
	</g>
	<path fill="#EA1D2D" d="M93.9,13.9c-1.1-1.5-2.5-2.9-3.7-3.9c0,0,0,0,0,0c0.6-0.5,1.4-1.2,2.1-1.9c0.7-0.7,1.4-1.6,2-2.5
		c0.6-0.9,1-1.9,1-3.2V1.8c0-1-0.8-1.8-1.8-1.8h-1c-0.7,0-1.2,0.5-1.2,1.2c0,0.8,0,1.6-0.5,2.3c-0.1,0.1-0.1,0.2-0.2,0.3
		c-0.7,1-2,2.2-3,3.1c-0.5,0.4-1,0.8-1.3,1.1c0,0,0,0,0,0c-0.2,0-0.5,0-0.8,0c-0.6,0-1.4,0-2.1,0c0-2.4,0-4.6,0-6.2
		c0-1-0.8-1.8-1.8-1.8h-0.4c-1,0-1.8,0.8-1.8,1.8c0,3.9,0,12.6,0,16.4c0,1,0.8,1.8,1.8,1.8h0.4c1,0,1.8-0.8,1.8-1.8
		c0-1.5,0-3.8,0-6.2c0.7,0,1.5,0,2.1,0c0.3,0,0.6,0,0.8,0c0.6,0.4,1.7,1.3,2.7,2.2c0.7,0.7,1.4,1.4,1.8,2c0.5,0.6,0.6,1.2,0.6,1.3
		v0.6c0,1,0.8,1.8,1.8,1.8h0.4c1,0,1.8-0.8,1.8-1.8v-0.6C95.2,16.1,94.6,14.9,93.9,13.9z M130,8.2C129.4,8,128.9,8,128.5,8h-5.4
		c-0.5,0-1-0.1-1.3-0.2c-0.3-0.1-0.3-0.2-0.3-0.2c-0.2-0.3-0.3-0.8-0.4-1.6c0-0.8,0.2-1.3,0.4-1.6c0,0,0-0.1,0.3-0.2
		c0.3-0.1,0.8-0.2,1.3-0.2c2.1,0,5.4,0,7.7,0c1,0,1.8-0.8,1.8-1.8V0c0,0-6.8,0-9.6,0c-0.3,0-0.7,0-1.1,0.1c-1,0.1-2,0.4-2.8,1
		c-1,0.7-1.6,1.8-1.8,3c0,0,0,0.1,0,0.1c-0.3,1.2-0.3,2.4,0,3.6c0,0.1,0.1,0.2,0.1,0.4c0.3,1,0.8,1.9,1.5,2.6
		c0.9,0.8,2.1,1.1,3.3,1.2c0.3,0,0.6,0,0.8,0h4.7c0.7,0,1.3,0.3,1.5,0.9c0.2,0.7,0.2,1.4,0,2.1c-0.1,0.3-0.1,0.4-0.2,0.6
		c-0.1,0.2-0.4,0.4-0.7,0.4c-1.9,0-5.9,0-8.7,0c-1,0-1.8,0.8-1.8,1.8v0.4c0,1,0.8,1.8,1.8,1.8c2.8,0,6.8,0,8.7,0c0.4,0,1,0,1.5-0.2
		c0.6-0.2,1.2-0.5,1.7-1c0.9-0.9,1.8-2.5,1.8-4.8c0-2.3-0.9-3.9-1.8-4.8C131.1,8.6,130.5,8.3,130,8.2z M147.8,8.2
		C147.3,8,146.8,8,146.3,8h-5.4c-0.5,0-1-0.1-1.3-0.2c-0.3-0.1-0.3-0.2-0.3-0.2C139.1,7.3,139,6.8,139,6c0-0.8,0.2-1.3,0.4-1.6
		c0,0,0.1-0.1,0.3-0.2c0.3-0.1,0.8-0.2,1.3-0.2c2.1,0,5.4,0,7.7,0c1,0,1.8-0.8,1.8-1.8V0c-2.1,0-6.8,0-9.6,0c-0.3,0-0.7,0-1.1,0.1
		c-1,0.1-2,0.4-2.8,1c-1,0.7-1.6,1.8-1.8,3c0,0,0,0.1,0,0.1c-0.3,1.2-0.3,2.4,0,3.6c0,0.1,0.1,0.2,0.1,0.4c0.3,1,0.8,1.9,1.5,2.6
		c0.9,0.8,2.1,1.1,3.3,1.2c0.3,0,0.6,0,0.8,0h4.7c0.7,0,1.3,0.3,1.5,0.9c0.2,0.7,0.2,1.4,0,2.1c-0.1,0.3-0.1,0.4-0.2,0.6
		c-0.1,0.2-0.4,0.4-0.7,0.4c-1.9,0-5.9,0-8.7,0c-1,0-1.8,0.8-1.8,1.8v0.4c0,1,0.8,1.8,1.8,1.8c2.8,0,6.8,0,8.7,0c0.4,0,1,0,1.5-0.2
		c0.6-0.2,1.2-0.5,1.7-1c0.9-0.9,1.8-2.5,1.8-4.8c0-2.3-0.9-3.9-1.8-4.8C149,8.6,148.4,8.3,147.8,8.2z M112.9,2.3
		c-0.6-0.9-1.5-1.5-2.4-1.8c-0.7-0.3-1.5-0.4-2.2-0.5v0c0,0,0,0,0,0c-0.8,0-1.5,0-2.2,0c-0.6,0-1.1,0-1.8,0c0,0,0,0,0,0
		c-0.7,0-1.5,0.2-2.2,0.5c-0.9,0.3-1.7,0.9-2.4,1.8c-1.1,1.6-2.2,4.2-2.2,8.1c0,3.6,0,6.1,0,7.7c0,1,0.8,1.8,1.8,1.8h0.4
		c1,0,1.8-0.8,1.8-1.8c0-0.8,0-1.9,0-3.3h9.5c0,1.4,0,2.5,0,3.3c0,1,0.8,1.8,1.8,1.8h0.4c1,0,1.8-0.8,1.8-1.8c0-1.6,0-4.2,0-7.8
		C115.1,6.5,114,3.9,112.9,2.3z M111.1,10.8h-9.5c0-0.1,0-0.3,0-0.4c0-3.1,0.9-4.9,1.5-5.8c0.1-0.1,0.3-0.3,0.5-0.4
		c0.3-0.1,0.7-0.2,1.1-0.2c1.2,0,2.3,0,3.2,0c0.4,0,0.9,0.1,1.1,0.2c0.3,0.1,0.4,0.2,0.5,0.4c0.6,1,1.5,2.7,1.5,5.8
		C111.1,10.5,111.1,10.7,111.1,10.8z M171.1,10.4c0-3.8-1.1-6.5-2.2-8c-0.6-0.9-1.5-1.5-2.4-1.8c-0.7-0.3-1.5-0.4-2.2-0.5
		c0,0,0,0,0,0c-1.3,0-2.6,0-3.6,0c0,0,0,0,0,0c-0.1,0-0.2,0-0.4,0c0,0,0,0,0,0c-0.7,0-1.5,0.2-2.2,0.5c-0.9,0.3-1.7,0.9-2.4,1.8
		c-1.1,1.6-2.2,4.2-2.2,8.1c0,3.6,0,6.1,0,7.7c0,1,0.8,1.8,1.8,1.8h0.4c1,0,1.8-0.8,1.8-1.8c0-0.8,0-1.9,0-3.3h9.5
		c0,1.4,0,2.5,0,3.3c0,1,0.8,1.8,1.8,1.8h0.4c1,0,1.8-0.8,1.8-1.8C171.1,16.5,171.1,13.9,171.1,10.4z M167.2,10.8h-9.5
		c0-0.1,0-0.3,0-0.4c0-3.1,0.8-4.9,1.5-5.8c0.1-0.1,0.3-0.3,0.5-0.4c0.3-0.1,0.7-0.2,1.1-0.2c0,0,0.1,0,0.1,0c0.9,0,1.9,0,3.1,0
		c0.4,0,0.8,0.1,1.1,0.2c0.3,0.1,0.4,0.2,0.5,0.4c0.6,1,1.5,2.7,1.5,5.8C167.2,10.5,167.2,10.7,167.2,10.8z"/>
</g>
</svg>
