<?xml version="1.0" encoding="utf-8"?>
<!-- Generator: Adobe Illustrator 18.1.1, SVG Export Plug-In . SVG Version: 6.00 Build 0)  -->
<svg version="1.1" id="Layer_1" xmlns="http://www.w3.org/2000/svg" xmlns:xlink="http://www.w3.org/1999/xlink" x="0px" y="0px"
	 viewBox="0 0 92.1 11.7" enable-background="new 0 0 92.1 11.7" xml:space="preserve">
<g>
	<path fill="#0071CE" d="M4.2,6.9H1.5v4.6H0V0.2h3.8C5,0.2,6,0.4,6.7,1c0.7,0.6,1,1.4,1,2.5c0,0.7-0.2,1.3-0.6,1.9
		C6.8,6,6.3,6.3,5.6,6.6l2.7,4.8v0.1H6.6L4.2,6.9z M1.5,5.7h2.3c0.7,0,1.3-0.2,1.8-0.6C6,4.7,6.3,4.2,6.3,3.6C6.3,2.9,6,2.3,5.6,2
		c-0.4-0.4-1-0.6-1.8-0.6H1.5V5.7z"/>
	<path fill="#0071CE" d="M18.6,6.2c0,1.1-0.2,2.1-0.6,2.9c-0.4,0.8-0.9,1.5-1.6,1.9S15,11.7,14,11.7c-0.9,0-1.7-0.2-2.4-0.7
		c-0.7-0.4-1.2-1.1-1.6-1.9C9.7,8.3,9.5,7.4,9.5,6.3V5.5c0-1.1,0.2-2.1,0.6-2.9c0.4-0.8,0.9-1.5,1.6-1.9S13.1,0,14,0
		c0.9,0,1.7,0.2,2.4,0.7c0.7,0.4,1.2,1.1,1.6,1.9s0.6,1.8,0.6,2.9V6.2z M17.1,5.5c0-1.3-0.3-2.4-0.8-3.1C15.8,1.6,15,1.3,14,1.3
		c-0.9,0-1.7,0.4-2.2,1.1c-0.5,0.7-0.8,1.7-0.8,3v0.8c0,1.3,0.3,2.3,0.8,3.1c0.5,0.7,1.3,1.1,2.3,1.1c1,0,1.7-0.4,2.3-1.1
		c0.5-0.7,0.8-1.7,0.8-3V5.5z"/>
	<path fill="#0071CE" d="M20.9,11.5V0.2h3.7c1.2,0,2.2,0.3,2.8,0.8c0.6,0.5,0.9,1.3,0.9,2.3c0,0.5-0.2,1-0.5,1.4
		c-0.3,0.4-0.7,0.7-1.2,0.9c0.6,0.2,1.1,0.5,1.5,1c0.4,0.5,0.5,1.1,0.5,1.7c0,1-0.3,1.8-1,2.4c-0.7,0.6-1.6,0.9-2.8,0.9H20.9z
		 M22.4,5h2.3c0.7,0,1.2-0.2,1.6-0.5c0.4-0.3,0.6-0.8,0.6-1.3c0-0.6-0.2-1.1-0.5-1.4c-0.4-0.3-0.9-0.4-1.7-0.4h-2.2V5z M22.4,6.2
		v4.1h2.5c0.7,0,1.2-0.2,1.7-0.5c0.4-0.4,0.6-0.9,0.6-1.5c0-1.4-0.7-2.1-2.2-2.1H22.4z"/>
	<path fill="#0071CE" d="M39.6,6.2c0,1.1-0.2,2.1-0.6,2.9c-0.4,0.8-0.9,1.5-1.6,1.9s-1.5,0.7-2.4,0.7c-0.9,0-1.7-0.2-2.4-0.7
		c-0.7-0.4-1.2-1.1-1.6-1.9c-0.4-0.8-0.6-1.8-0.6-2.8V5.5c0-1.1,0.2-2.1,0.6-2.9c0.4-0.8,0.9-1.5,1.6-1.9S34.1,0,35,0
		c0.9,0,1.7,0.2,2.4,0.7c0.7,0.4,1.2,1.1,1.6,1.9s0.6,1.8,0.6,2.9V6.2z M38.1,5.5c0-1.3-0.3-2.4-0.8-3.1C36.7,1.6,36,1.3,35,1.3
		c-0.9,0-1.7,0.4-2.2,1.1c-0.5,0.7-0.8,1.7-0.8,3v0.8c0,1.3,0.3,2.3,0.8,3.1c0.5,0.7,1.3,1.1,2.3,1.1c1,0,1.7-0.4,2.3-1.1
		c0.5-0.7,0.8-1.7,0.8-3V5.5z"/>
	<path fill="#EB0029" d="M41.8,11.5V0.2h3.7c1.2,0,2.2,0.3,2.8,0.8c0.6,0.5,0.9,1.3,0.9,2.3c0,0.5-0.2,1-0.5,1.4
		c-0.3,0.4-0.7,0.7-1.2,0.9c0.6,0.2,1.1,0.5,1.5,1c0.4,0.5,0.5,1.1,0.5,1.7c0,1-0.3,1.8-1,2.4c-0.7,0.6-1.6,0.9-2.8,0.9H41.8z
		 M43.3,5h2.3c0.7,0,1.2-0.2,1.6-0.5c0.4-0.3,0.6-0.8,0.6-1.3c0-0.6-0.2-1.1-0.5-1.4c-0.4-0.3-0.9-0.4-1.7-0.4h-2.2V5z M43.3,6.2
		v4.1h2.5c0.7,0,1.2-0.2,1.7-0.5c0.4-0.4,0.6-0.9,0.6-1.5c0-1.4-0.7-2.1-2.2-2.1H43.3z"/>
	<path fill="#EB0029" d="M60.5,6.2c0,1.1-0.2,2.1-0.6,2.9c-0.4,0.8-0.9,1.5-1.6,1.9s-1.5,0.7-2.4,0.7c-0.9,0-1.7-0.2-2.4-0.7
		c-0.7-0.4-1.2-1.1-1.6-1.9c-0.4-0.8-0.6-1.8-0.6-2.8V5.5c0-1.1,0.2-2.1,0.6-2.9c0.4-0.8,0.9-1.5,1.6-1.9S55.1,0,56,0
		c0.9,0,1.7,0.2,2.4,0.7c0.7,0.4,1.2,1.1,1.6,1.9s0.6,1.8,0.6,2.9V6.2z M59,5.5c0-1.3-0.3-2.4-0.8-3.1c-0.5-0.7-1.3-1.1-2.3-1.1
		c-0.9,0-1.7,0.4-2.2,1.1c-0.5,0.7-0.8,1.7-0.8,3v0.8c0,1.3,0.3,2.3,0.8,3.1c0.5,0.7,1.3,1.1,2.3,1.1c1,0,1.7-0.4,2.3-1.1
		c0.5-0.7,0.8-1.7,0.8-3V5.5z"/>
	<path fill="#EB0029" d="M71.5,11.5H70l-5.7-8.8v8.8h-1.5V0.2h1.5L70,9V0.2h1.5V11.5z"/>
	<path fill="#EB0029" d="M82.2,0.2v7.7c0,1.1-0.3,2-1,2.6c-0.7,0.7-1.6,1.1-2.7,1.1l-0.4,0c-1.2,0-2.2-0.3-3-1
		C74.3,10,74,9.1,74,7.9V0.2h1.5v7.7c0,0.8,0.2,1.5,0.7,1.9c0.5,0.5,1.1,0.7,1.9,0.7c0.8,0,1.5-0.2,1.9-0.7c0.5-0.5,0.7-1.1,0.7-1.9
		V0.2H82.2z"/>
	<path fill="#EB0029" d="M87.9,6.5c-1.3-0.4-2.2-0.8-2.8-1.4s-0.9-1.2-0.9-2c0-0.9,0.4-1.6,1.1-2.2C86,0.3,86.9,0,88.1,0
		c0.8,0,1.5,0.2,2.1,0.5c0.6,0.3,1.1,0.7,1.4,1.3s0.5,1.1,0.5,1.7h-1.5c0-0.7-0.2-1.2-0.7-1.6s-1.1-0.6-1.9-0.6
		c-0.7,0-1.3,0.2-1.7,0.5s-0.6,0.8-0.6,1.4c0,0.5,0.2,0.9,0.6,1.2c0.4,0.3,1.1,0.6,2,0.9C89.3,5.4,90,5.7,90.6,6
		c0.5,0.3,0.9,0.7,1.2,1.1c0.3,0.4,0.4,0.9,0.4,1.5c0,0.9-0.4,1.7-1.1,2.2s-1.7,0.8-2.9,0.8c-0.8,0-1.5-0.2-2.2-0.4
		c-0.7-0.3-1.2-0.7-1.6-1.2c-0.4-0.5-0.6-1.1-0.6-1.8h1.5c0,0.7,0.3,1.2,0.8,1.6s1.2,0.6,2,0.6c0.8,0,1.4-0.2,1.8-0.5
		c0.4-0.3,0.6-0.8,0.6-1.3c0-0.6-0.2-1-0.6-1.3S88.9,6.8,87.9,6.5z"/>
</g>
</svg>
