<?xml version="1.0" encoding="utf-8"?>
<!-- Generator: Adobe Illustrator 18.1.1, SVG Export Plug-In . SVG Version: 6.00 Build 0)  -->
<svg version="1.1" id="Layer_1" xmlns="http://www.w3.org/2000/svg" xmlns:xlink="http://www.w3.org/1999/xlink" x="0px" y="0px"
	 viewBox="0 0 50 45.2" enable-background="new 0 0 50 45.2" xml:space="preserve">
<g>
	<g>
		<path fill-rule="evenodd" clip-rule="evenodd" fill="#EA1D2D" d="M48.5,37.1c0.9,0,1.5-0.8,1.5-1.7v-6.3c0-0.9-0.6-1.7-1.5-1.7
			c-0.9,0-1.5,0.8-1.5,1.7v6.3C47,36.4,47.6,37.1,48.5,37.1z M28.6,37.2c0.9,0,1.5-0.8,1.5-1.7v-6.3c0-0.9-0.6-1.7-1.5-1.7
			c-0.9,0-1.5,0.8-1.5,1.7v6.3C27.1,36.4,27.7,37.2,28.6,37.2z M46,39V28.2H31.1V39c0,0.5,0.7,1.2,1.2,1.2h1.8v3.3
			c0,0.9,0.7,1.7,1.6,1.7c0.9,0,1.4-0.7,1.4-1.7v-3.3h3v3.3c0,0.9,0.6,1.7,1.5,1.7c0.9,0,1.5-0.8,1.5-1.7v-3.3h1.8
			C45.4,40.2,46,39.5,46,39z M31.2,27.2h7.4H46c0-2.4-1.6-4.5-3.9-5.5l1.3-2.2c0,0,0.1-0.1,0-0.2c-0.1-0.1-0.2,0-0.2,0l-1.3,2.1
			c-1-0.4-2.1-0.6-3.3-0.6c-1.2,0-2.3,0.2-3.3,0.6L34,19.3c0,0-0.1-0.1-0.2,0c-0.1,0.1-0.1,0.2-0.1,0.2l1.3,2.2
			C32.7,22.8,31.2,24.8,31.2,27.2z M35.1,23.3h1v1h-1V23.3z M41,23.3h1v1h-1V23.3z"/>
	</g>
	<g>
		<path fill-rule="evenodd" clip-rule="evenodd" fill="#EA1D2D" d="M22.9,21.4c-1.6-1.1-3.4-2.5-3.7-5c-0.4-3.2,1-5.2,2.9-6.5
			C21,8.1,19,6.8,16.2,7c-1.6,0.1-3.1,1.3-4.5,1.3c-1.4,0-2.7-1.1-4-1.2C3.2,6.5,0.3,10.7,0,14.9v1.5c0.6,5.4,2.9,10.7,7,12.5h0.7
			c1.7-0.4,2.6-1.2,4.3-1.2c1.9,0,3.4,1.6,5.5,1c1.5-0.4,2.4-1.9,3.2-3.1C21.7,24.3,22.4,23,22.9,21.4z M16.8,0
			c-3.1,0.8-5.4,2.8-5.3,6.6C15.1,6.6,17,4,17.1,0H16.8z"/>
	</g>
</g>
</svg>
