<?xml version="1.0" encoding="utf-8"?>
<!-- Generator: Adobe Illustrator 18.1.1, SVG Export Plug-In . SVG Version: 6.00 Build 0)  -->
<svg version="1.1" id="Layer_1" xmlns="http://www.w3.org/2000/svg" xmlns:xlink="http://www.w3.org/1999/xlink" x="0px" y="0px"
	 viewBox="0 0 31.3 50" enable-background="new 0 0 31.3 50" xml:space="preserve">
<path fill-rule="evenodd" clip-rule="evenodd" fill="#EA1D2D" d="M27.1,41.7H4.2V6.3h22.9V41.7z M15.6,47.9c-1.2,0-2.2-1-2.2-2.2
	c0-1.2,1-2.2,2.2-2.2c1.2,0,2.2,1,2.2,2.2C17.9,46.9,16.9,47.9,15.6,47.9z M25.6,0H5.7C2.6,0,0,2.6,0,5.7v38.5C0,47.4,2.6,50,5.7,50
	h19.9c3.1,0,5.7-2.6,5.7-5.7V5.7C31.3,2.6,28.7,0,25.6,0z M10.4,2.6c0-0.3,0.2-0.5,0.5-0.5h9.4c0.3,0,0.5,0.2,0.5,0.5v1
	c0,0.3-0.2,0.5-0.5,0.5h-9.4c-0.3,0-0.5-0.2-0.5-0.5V2.6z"/>
</svg>
