<?xml version="1.0" encoding="utf-8"?>
<!-- Generator: Adobe Illustrator 18.1.1, SVG Export Plug-In . SVG Version: 6.00 Build 0)  -->
<svg version="1.1" id="Layer_1" xmlns="http://www.w3.org/2000/svg" xmlns:xlink="http://www.w3.org/1999/xlink" x="0px" y="0px"
	 viewBox="0 0 50 42.3" enable-background="new 0 0 50 42.3" xml:space="preserve">
<path fill-rule="evenodd" clip-rule="evenodd" fill="#EA1D2D" d="M0,5.9v30.5c0,4,2,5.9,5.9,5.9h34.3c4,0,5.9-2,5.9-5.9v-3.7h0.2
	c2.2,0,3.7-1.4,3.7-3.7v-6.4c0-2.1-1.3-3.4-3.4-3.4H28.8c-3.2,0-5.8,3.4-5.8,6.6V26c0,0.5,0.1,1,0.2,1.5c-1.3-1.1-2.1-2.7-2.1-4.4
	c0-3.2,2.6-5.8,5.8-5.8h17.8c0.6,0,1.1,0.1,1.5,0.3V5.9c0-4-2-5.9-5.9-5.9H5.9C2,0,0,2,0,5.9z M3.8,5.8c0-1.1,0.9-1.9,1.9-1.9h34.6
	c1.1,0,1.9,0.9,1.9,1.9c0,1.1-0.9,1.9-1.9,1.9H5.8C4.7,7.7,3.8,6.8,3.8,5.8z M26.9,27.9c0-1.6,1.3-2.9,2.9-2.9
	c1.6,0,2.9,1.3,2.9,2.9c0,1.6-1.3,2.9-2.9,2.9C28.2,30.8,26.9,29.5,26.9,27.9z"/>
</svg>
