<?xml version="1.0" encoding="utf-8"?>
<!-- Generator: Adobe Illustrator 18.1.1, SVG Export Plug-In . SVG Version: 6.00 Build 0)  -->
<svg version="1.1" id="Layer_1" xmlns="http://www.w3.org/2000/svg" xmlns:xlink="http://www.w3.org/1999/xlink" x="0px" y="0px"
	 viewBox="0 0 15.2 15" enable-background="new 0 0 15.2 15" xml:space="preserve">
<g>
	<path fill="#0071CE" d="M15.1,14c0,0.3-0.1,0.5-0.3,0.7c-0.2,0.2-0.4,0.3-0.7,0.3c-0.3,0-0.5-0.1-0.7-0.3l-2.9-2.9
		C9.4,12.6,8.1,13,6.7,13c-0.9,0-1.7-0.2-2.5-0.5c-0.8-0.3-1.5-0.8-2.1-1.4C1.4,10.6,1,9.9,0.6,9.1C0.3,8.3,0.1,7.5,0.1,6.6
		s0.2-1.7,0.5-2.5S1.4,2.6,2,2s1.3-1,2.1-1.4c0.8-0.3,1.7-0.5,2.5-0.5c0.9,0,1.7,0.2,2.5,0.5C10,1,10.7,1.4,11.3,2
		c0.6,0.6,1.1,1.3,1.4,2.1s0.5,1.6,0.5,2.5c0,1.4-0.4,2.7-1.3,3.9l2.9,2.9C15,13.5,15.1,13.7,15.1,14z M9,2.6C8.3,2.2,7.5,2,6.7,2
		S5,2.2,4.3,2.6S3,3.6,2.6,4.3S2,5.7,2,6.6s0.2,1.6,0.6,2.3c0.4,0.7,1,1.3,1.7,1.7C5,11,5.8,11.2,6.7,11.2S8.3,11,9,10.6
		c0.7-0.4,1.3-1,1.7-1.7c0.4-0.7,0.6-1.5,0.6-2.3S11.1,5,10.7,4.3C10.3,3.6,9.7,3,9,2.6z"/>
</g>
</svg>
