<svg xmlns="http://www.w3.org/2000/svg" width="470.223" height="470.223" viewBox="0 0 470.223 470.223"><path d="M25.804 222.216c.42.42 1.09.995 1.98 1.693 23.14-61.287 78.04-116.94 78.04-116.94-25.82 30.943-39.16 97.173-44.84 134.036 25.743 8.625 61.23 10.738 92.375-20.693 53.798-54.296-8.196-124.246 86.31-186.85 0 0-121.48-33.432-198.995 44.79-77.524 78.23-21.64 137.25-14.87 143.963zM412.684 283.387s84.207-93.722 48.884-198.03C426.253-18.95 348.472 4.66 339.444 7.71c-.564.19-1.387.536-2.4 1.014 44.476 48.1 69.72 122.084 69.72 122.084-16.14-36.93-69.413-78.47-99.85-100.033-19.222 19.173-36.98 49.974-22.78 91.886 24.52 72.4 114.8 48.205 128.55 160.727zM369.68 354.675c-7.534-26.076-25.97-56.476-69.537-64.23-75.256-13.397-97.556 77.37-202.782 35.21 0 0 41.55 118.946 149.97 138.254 108.42 19.306 125.21-60.227 126.885-69.606.104-.594.2-1.464.268-2.592-63.57 15.797-140.568 2.267-140.568 2.267 40.13 3.65 102.2-23.02 135.766-39.305z"/></svg>