<svg id="Layer_1" data-name="Layer 1" xmlns="http://www.w3.org/2000/svg" viewBox="0 0 761.23 450.77"><defs><style>.cls-1{fill:#3eb5f1}</style></defs><title>Knauf_logo [преобразованный]</title><path class="cls-1" d="M611.45 450.77l53.07-355.52h96.71l-6.55 41.44h-35.62l-7.28 58.16h34.18l-5.82 41.44h-34.9l-31.99 214.48h-61.8zM389.67 96.7l-82.85 264.64h58.16l13.09-53.07h19.6l-2.18 53.07h52.38L459.5 96.69h-69.83zm16 170.86h-21.06l32-119.24zM504.58 96.25l-32 219.29s-9.49 51.87 62.53 50.17c61.8-1.46 67.61-48.71 67.61-48.71l32.73-221.75H583.1l-32 215.21s1.45 16-13.09 15.27-10.91-11.63-10.91-11.63l32.72-217.39zM156.32 362.07h49.44l18.9-118.51 8 116.33 58.16.73 38.54-262.47h-49.45l-16.72 101.79-7.27-101.79h-58.89l-40.71 263.92zM81.43 362.07h58.16L123.6 223.21l48.71-123.6h-52.35l-36.35 98.88L109.79 0H54.53L0 362.8h55.98l18.91-112.69 6.54 111.96z"/></svg>