<svg width="16" height="20" viewBox="0 0 16 20" xmlns="http://www.w3.org/2000/svg"><title>P + -</title><g fill="#000" fill-rule="evenodd"><path d="M5.035 8.55V3.2h3.05c.45 0 .884.033 1.3.1.417.067.784.196 1.1.388.317.19.57.462.763.812.192.35.287.808.287 1.375S11.44 6.9 11.248 7.25a2.11 2.11 0 0 1-.763.813c-.316.19-.683.32-1.1.387-.416.067-.85.1-1.3.1h-3.05zM1.11.15V20h3.925v-8.4H9.16c1.117 0 2.067-.162 2.85-.487.784-.326 1.42-.755 1.913-1.288a4.93 4.93 0 0 0 1.075-1.837 6.79 6.79 0 0 0 .337-2.113 6.75 6.75 0 0 0-.337-2.125 4.946 4.946 0 0 0-1.075-1.825c-.492-.533-1.13-.962-1.913-1.288C11.227.312 10.277.15 9.16.15H1.11z"/><path d="M0 13v3.05h13V13H0z"/></g></svg>