<?xml version="1.0" encoding="utf-8"?>
<!-- Generator: Adobe Illustrator 18.1.1, SVG Export Plug-In . SVG Version: 6.00 Build 0)  -->
<svg version="1.1" id="Capa_1" xmlns="http://www.w3.org/2000/svg" xmlns:xlink="http://www.w3.org/1999/xlink" x="0px" y="0px"
	 viewBox="-265 357.5 79.5 79.5" enable-background="new -265 357.5 79.5 79.5" xml:space="preserve">
<g>
	<path fill="#FFFFFF" d="M-210,362.7c-2.5-2.1-4.3-1.6-6.8,2.9c-1.7,3-4.3,3.3-5.9,3.2l0-0.6c1.9-0.9,3.2-2.8,3.2-5.1
		c0-3.2-2.6-5.7-5.7-5.7c-3.1,0-5.7,2.5-5.7,5.7c0,2.2,1.3,4.1,3.2,5.1l0,0.6c-1.6,0.1-4.3-0.3-5.9-3.2c-2.5-4.5-4.3-5-6.8-2.9
		c-2.5,2.1-12.5,13.9-24.6,12.9c0,0,2.4,5.5,9,4.2c0,0,3.5,3.6,9.2,1.1c0,0,3,2.7,7.6,0.2c0,0,3.5,2.7,7.2,0.4c0,0,2.1,1.5,4.4,1.1
		l0.1,13.7c-0.3-0.1-0.5-0.1-0.8-0.2c0,0-4.1-0.9-8.4-2.1c-4.1-1.1-8.7-2.8-9.3-3.7c0.1-0.1,0.1-0.1,0.3-0.2c0.4-0.2,1-0.4,1.7-0.5
		c1.5-0.3,3.6-0.5,5.6-0.6c4.1-0.1,4.8,0,4.9,0c0-0.1,2.4,0.3,3-2.1c0,0,0-0.1,0-0.2c-0.1-1.7-1.4-1.7-2.5-1.9
		c-1.7-0.2-0.8-0.1-3.1-0.1c-3.8,0.3-15.3-0.7-16.8,5.4c0,0.2,0,0.3,0,0.4c0.5,5.3,11.5,7.6,19.4,9.2c-2.7,1.9-4.1,4.3-4.7,7.4
		c-0.3,3.3,2.4,6.5,8.5,10c-4.6,3.3-7.7,6.4-7.5,10.1c0.4,3,3.1,7.1,8.4,9.7c0,0,0,0,0,0l0,0c0,0,0,0,0,0c0,0-3.7-5.6-3.9-8.7
		c-0.2-1.8,0.8-4.5,5.3-7.7l0.1,11.3h0c0,1,0.8,1.7,1.7,1.7c0.9,0,1.7-0.8,1.7-1.7h0l0.1-11c4.1,3.1,5.1,5.6,4.8,7.4
		c-0.2,3.1-3.9,8.7-3.9,8.7s0,0,0,0c0,0,0,0,0,0c5.3-2.6,8-6.6,8.4-9.7c0.2-3.7-2.8-6.8-7.4-10.1c6.1-3.5,8.8-6.7,8.5-10
		c-0.6-3.1-2-5.5-4.7-7.4c8-1.6,19-3.9,19.4-9.2c0-0.1,0-0.3,0-0.4c-1.5-6.1-13-5.2-16.8-5.4c-2.3,0-1.4-0.1-3.1,0.1
		c-1.1,0.2-2.3,0.3-2.5,1.9c0,0.1,0,0.2,0,0.2c0.7,2.4,3,2,3,2.1c0.1,0,0.8-0.2,4.9,0c2.1,0.1,4.1,0.2,5.6,0.6
		c0.8,0.2,1.4,0.4,1.7,0.5c0.1,0.1,0.2,0.1,0.3,0.2c-0.7,0.9-5.2,2.7-9.3,3.8c-4.3,1.2-8.4,2.1-8.4,2.1c-0.1,0-0.2,0-0.3,0.1
		l0.2-13.6c2.3,0.4,4.5-1.1,4.5-1.1c3.7,2.3,7.2-0.4,7.2-0.4c4.7,2.4,7.6-0.2,7.6-0.2c5.7,2.5,9.2-1.1,9.2-1.1c6.6,1.2,9-4.2,9-4.2
		C-197.6,376.6-207.5,364.7-210,362.7z M-232.7,408.2c0.1-1.2-0.3-4.1,5.3-6.1l0.1,11.3c-1.1-0.7-2.2-1.4-3.4-2.1
		C-232.1,410.4-232.8,409.1-232.7,408.2z M-220.4,411.3c-1,0.6-2,1.2-2.9,1.8l0.1-10.9c5.2,2.1,4.8,4.8,4.9,6
		C-218.2,409.1-218.9,410.4-220.4,411.3z"/>
</g>
</svg>
