<?xml version="1.0" encoding="utf-8"?>
<!-- Generator: Adobe Illustrator 18.1.1, SVG Export Plug-In . SVG Version: 6.00 Build 0)  -->
<svg version="1.1" id="Capa_1" xmlns="http://www.w3.org/2000/svg" xmlns:xlink="http://www.w3.org/1999/xlink" x="0px" y="0px"
	 viewBox="-11 144.7 415 505.3" enable-background="new -11 144.7 415 505.3" xml:space="preserve">
<g>
	<path fill="#FFFFFF" d="M276.9,144.7c0,0-14.3,0-28.6,41.9c0,0-52.1,9.2-41.9,73.5c-16.3,56.2-79.6,34.7-113.3,107.2
		C59.4,439.8,75.7,503.1,87,529.7c1.3,13.8-32,25.8-14,76.1c22.8,63.8,166.1,49.2,170.2,15.3c0,0-96.7,20.6-138.4-14.8
		c0,0-16.8-16.3-6.6-38.8c5.1-9.2,102.6,13.8,144-4.6c0,0,10.7-20.4-23-20.4c0,0,5.1-10.7,9.2-23c4.1-12.3,5.1,46.5,44.9,46.5
		c0,0,22.5,2.6,17.9-17.9c0,0,16.3-19.4-14.3-19.4c0,0-11.9-40.5-2.4-107.2c1.4-34,35.4-31.3,35.4-81s-10.2-66.7-10.2-66.7
		s27.8-9.4,33.7-37.3c0.8-3.6,0.8-15.7-7.8-15.8c0,0-14.3-29.9-42.2-29.9C283.3,190.7,288.1,151.2,276.9,144.7z"/>
</g>
</svg>
