<?xml version="1.0" encoding="utf-8"?>
<!-- Generator: Adobe Illustrator 18.1.1, SVG Export Plug-In . SVG Version: 6.00 Build 0)  -->
<svg version="1.1" id="Capa_1" xmlns="http://www.w3.org/2000/svg" xmlns:xlink="http://www.w3.org/1999/xlink" x="0px" y="0px"
	 viewBox="-227 319.3 155.7 155.7" enable-background="new -227 319.3 155.7 155.7" xml:space="preserve">
<g>
	<g id="_x33_50._Repeat">
		<g>
			<path fill="#FF5C11" d="M-184.3,440.8c-12.8-10.3-20.9-26-20.9-43.7c0-26.1,17.9-48,42.1-54.2v-14.4c-32,6.5-56.1,34.8-56.1,68.7
				c0,21,9.2,39.7,23.8,52.6C-184.2,460.2-177.2,446.2-184.3,440.8z M-103.4,344c-7.2-6.5-17.7,4-10.8,9.2
				c12.9,10.3,21.1,26.1,21.1,43.8c0,26.1-17.9,48-42.1,54.2v14.4c32-6.5,56.1-34.8,56.1-68.7C-79.1,375.9-88.5,356.9-103.4,344z
				 M-157,355l22.8-13.7c3.3-2,3.3-5.2,0-7.2l-23-13.9c-3.3-2-6-0.5-6,3.4l0.1,28C-163,355.4-160.3,357-157,355z M-141.1,439.3
				l-23,13.9c-3.3,2-3.3,5.2,0,7.2l22.8,13.7c3.3,2,6,0.5,6-3.4l0.1-28C-135.1,438.8-137.8,437.3-141.1,439.3z"/>
		</g>
	</g>
</g>
</svg>
