<?xml version="1.0" encoding="utf-8"?>
<!-- Generator: Adobe Illustrator 18.1.0, SVG Export Plug-In . SVG Version: 6.00 Build 0)  -->
<svg version="1.1"  xmlns="http://www.w3.org/2000/svg" xmlns:xlink="http://www.w3.org/1999/xlink" x="0px" y="0px"
	 viewBox="31.9 78 344.1 495.6" enable-background="new 31.9 78 344.1 495.6" xml:space="preserve">
<path d="M31.9,338.4h49.7V88.6c17.7-4.2,36.7-7,57-8.4c20.3-1.4,40.5-2.1,60.6-2.1c21.5,0,42.6,2.1,63.3,6.3
	c20.8,4.2,39.2,11.9,55.3,23.1c16.1,11.2,29,26.4,38.8,45.5c9.8,19.1,14.7,43.6,14.7,73.5c0,29.4-5,53.9-15,73.5
	c-10,19.6-23.3,35.5-39.9,47.6c-16.6,12.1-35.5,20.8-56.7,25.9c-21.2,5.1-42.8,7.9-64.7,8.4l-55.3,0.7v49.7H256v43.4H139.8v98H81.7
	v-98H31.9v-43.4h49.7v-50.4H31.9V338.4z M200.6,127c-12.1,0-23.7,0.3-34.6,1c-11,0.7-19.7,1.8-26.2,3.2v203H193c14,0,28-1.4,42-4.2
	c14-2.8,26.6-8.2,37.8-16.1c11.2-7.9,20.3-18.8,27.3-32.5c7-13.8,10.3-31.8,9.8-54.2c0.5-19.1-2.2-35.1-8-48
	c-5.8-12.8-13.8-23.1-23.8-30.8c-10-7.7-21.7-13.2-35-16.4C229.7,128.7,215.6,127,200.6,127z"/>
</svg>
