<?xml version="1.0" encoding="utf-8"?>
<!-- Generator: Adobe Illustrator 18.1.1, SVG Export Plug-In . SVG Version: 6.00 Build 0)  -->
<svg version="1.1" id="Capa_1" xmlns="http://www.w3.org/2000/svg" xmlns:xlink="http://www.w3.org/1999/xlink" x="0px" y="0px"
	 viewBox="0 0 612 792" enable-background="new 0 0 612 792" xml:space="preserve">
<g>
	<g>
		<g>
			<path fill="#FFFFFF" d="M573.7,128.2H38.2C17.1,128.2,0,145.4,0,166.5v344.2C0,531.9,17.1,549,38.2,549h191.2
				c-0.1,27.7-1.2,63.6-11.7,76.5h-7.7c-10.4,0-18.8,8.6-18.8,19.1c0,10.5,8.4,19.1,18.8,19.1h191.8c10.4,0,18.9-8.6,18.9-19.1
				c0-10.5-8.5-19.1-18.8-19.1h-7.7c-10.5-12.9-11.6-48.8-11.7-76.5h191.2c21.1,0,38.2-17.1,38.2-38.2V166.5
				C612,145.4,594.9,128.2,573.7,128.2z M573.7,472.5H38.2v-306h535.5V472.5z"/>
		</g>
	</g>
</g>
</svg>
