<?xml version="1.0" encoding="utf-8"?>
<!-- Generator: Adobe Illustrator 18.1.1, SVG Export Plug-In . SVG Version: 6.00 Build 0)  -->
<svg version="1.1" id="Capa_1" xmlns="http://www.w3.org/2000/svg" xmlns:xlink="http://www.w3.org/1999/xlink" x="0px" y="0px"
	 viewBox="-33 125.8 543.2 543.2" enable-background="new -33 125.8 543.2 543.2" xml:space="preserve">
<g>
	<path fill="#FFFFFF" d="M501.6,127.6H110.9c-4.7,0-8.5,3.8-8.5,8.5v34.1H39c-2.5,0-4.8,1.1-6.4,2.9c-1.6,1.9-2.4,4.3-2,6.8
		l3.3,24.5h-58.3c-2.7,0-5.2,1.3-6.8,3.4c-1.6,2.1-2.1,4.9-1.4,7.5L97.3,661c1.1,3.7,4.5,6.2,8.2,6.2c0.8,0,396.1,0,396.1,0
		c4.7,0,8.5-3.8,8.5-8.5V136.2C510.2,131.4,506.4,127.6,501.6,127.6z M102.4,187.4v395.8L48.8,187.4H102.4L102.4,187.4z M36.2,221.6
		l42.6,315l-91.9-315H36.2z M493.1,650.1H119.4V144.7h373.7L493.1,650.1L493.1,650.1L493.1,650.1z M268.9,212.2H133.1v-38.4h135.8
		L268.9,212.2L268.9,212.2z M480.3,212.2H344.5v-38.4h135.8L480.3,212.2L480.3,212.2z M277.7,193c0-15.8,12.8-28.6,28.6-28.6
		c15.8,0,28.6,12.8,28.6,28.6c0,15.8-12.8,28.6-28.6,28.6C290.5,221.6,277.7,208.8,277.7,193z M460.2,401.3H344.5V271.4h115.7
		L460.2,401.3L460.2,401.3z M289.2,290.5H147v-14.2h142.2V290.5z M147,330.9h142.2v14.2H147V330.9z M148.6,386.8h142.2v14.2H148.6
		V386.8z M147,443.1h313.2v14.2H147V443.1z M147,499.4h313.2v14.2H147V499.4z M147,554.9h313.2v14.2H147V554.9z"/>
</g>
</svg>
