<?xml version="1.0" encoding="utf-8"?>
<!-- Generator: Adobe Illustrator 18.1.1, SVG Export Plug-In . SVG Version: 6.00 Build 0)  -->
<svg version="1.1" id="Capa_1" xmlns="http://www.w3.org/2000/svg" xmlns:xlink="http://www.w3.org/1999/xlink" x="0px" y="0px"
	 viewBox="-56 148.2 497.8 497.8" enable-background="new -56 148.2 497.8 497.8" xml:space="preserve">
<g>
	<g>
		<path fill="#FFFFFF" d="M127.4,482.5l4.5-22.8c8.7-44.3,31.3-104.6,90.1-140.4l22.6-13.8l-139.2-85.1
			c-16.7-10.2-35.8-15.6-55.3-15.6c-37.3,0-71.2,19-90.6,50.7C-71,305.4-55.2,370.8-5.3,401.4L127.4,482.5z M-12.8,272.4
			c13.5-22.1,37.1-35.3,63-35.3c13.5,0,26.8,3.8,38.4,10.8l95.5,58.4c-46,36.6-68.1,86.6-78.7,124.7l-93.8-57.4
			C-23.1,352.5-34.1,307-12.8,272.4z"/>
		<path fill="#FFFFFF" d="M393.3,401.5l-124.4-76.1l-2.3,1c-14.5,6.2-27,13.9-38,22.6L348.4,422c4.5,2.8,6,8.7,3.2,13.2
			c-1.8,3-5,4.6-8.2,4.6c-1.7,0-3.4-0.4-5-1.4c0,0-122.9-75.9-123.7-77.5c-43.9,42.9-56.2,101.4-59.6,129.4l-0.4,3.1l132.7,81.1
			c15.9,9.8,34.2,14.9,52.8,14.9c35.7,0,68-18.1,86.6-48.5C456.1,493.2,441,430.7,393.3,401.5z"/>
	</g>
</g>
</svg>
