<?xml version="1.0" encoding="utf-8"?>
<!-- Generator: Adobe Illustrator 18.1.0, SVG Export Plug-In . SVG Version: 6.00 Build 0)  -->
<svg version="1.1" id="Capa_1" xmlns="http://www.w3.org/2000/svg" xmlns:xlink="http://www.w3.org/1999/xlink" x="0px" y="0px"
	 viewBox="67 56.1 729.8 729.8" enable-background="new 67 56.1 729.8 729.8" xml:space="preserve">
<g>
	<g>
		<g>
			<path fill="#F77575" d="M656.2,278.1c0-6.3,5.1-11.4,11.4-11.4s11.4,5.1,11.4,11.4v437.5c0,19.3-7.9,36.9-20.7,49.7
				c-12.7,12.7-30.3,20.7-49.7,20.7H255.2c-19.3,0-36.9-7.9-49.7-20.7c-12.7-12.7-20.7-30.3-20.7-49.7V278.1
				c0-6.3,5.1-11.4,11.4-11.4c6.3,0,11.4,5.1,11.4,11.4v437.5c0,13,5.4,24.9,14,33.5c8.6,8.6,20.5,14,33.5,14h353.5
				c13,0,24.9-5.4,33.5-14c8.6-8.6,14-20.5,14-33.5L656.2,278.1L656.2,278.1z"/>
			<path fill="#F77575" d="M346.9,686.1c0,6.3-5.1,11.4-11.4,11.4s-11.4-5.1-11.4-11.4V281c0-6.3,5.1-11.4,11.4-11.4
				s11.4,5.1,11.4,11.4V686.1z"/>
			<path fill="#F77575" d="M443.3,686.1c0,6.3-5.1,11.4-11.4,11.4s-11.4-5.1-11.4-11.4V281c0-6.3,5.1-11.4,11.4-11.4
				s11.4,5.1,11.4,11.4V686.1z"/>
			<path fill="#F77575" d="M539.8,686.1c0,6.3-5.1,11.4-11.4,11.4c-6.3,0-11.4-5.1-11.4-11.4V281c0-6.3,5.1-11.4,11.4-11.4
				c6.3,0,11.4,5.1,11.4,11.4V686.1L539.8,686.1z"/>
			<path fill="#F77575" d="M340.2,126.4c0,6.3-5.1,11.4-11.4,11.4c-6.3,0-11.4-5.1-11.4-11.4c0-19.4,7.9-36.9,20.6-49.7
				c12.7-12.7,30.3-20.6,49.7-20.6h88.4c19.3,0,36.9,7.9,49.7,20.7c12.7,12.7,20.7,30.4,20.7,49.7c0,6.3-5.1,11.4-11.4,11.4
				s-11.4-5.1-11.4-11.4c0-13-5.4-24.9-14-33.5c-8.6-8.6-20.5-14-33.5-14h-88.4c-13,0-24.9,5.4-33.5,14
				C345.6,101.5,340.2,113.3,340.2,126.4z"/>
			<path fill="#F77575" d="M166.8,159.2h530.3c11.2,0,21.4,4.6,28.8,12l0,0c7.4,7.4,12,17.6,12,28.8v29.5c0,6.3-5.1,11.4-11.4,11.4
				h-0.3H137.3c-6.3,0-11.4-5.1-11.4-11.4v-0.3V200c0-11.2,4.6-21.4,12-28.8l0,0C145.4,163.7,155.6,159.2,166.8,159.2L166.8,159.2z
				 M697.1,182H166.8c-5,0-9.5,2-12.7,5.3l0,0c-3.3,3.2-5.3,7.7-5.3,12.7v18.1h566.4V200c0-5-2-9.5-5.3-12.7l0,0
				C706.5,184,702,182,697.1,182z"/>
		</g>
	</g>
</g>
</svg>
