<?xml version="1.0" encoding="utf-8"?>
<!-- Generator: Adobe Illustrator 18.1.1, SVG Export Plug-In . SVG Version: 6.00 Build 0)  -->
<svg version="1.1" id="Capa_1" xmlns="http://www.w3.org/2000/svg" xmlns:xlink="http://www.w3.org/1999/xlink" x="0px" y="0px"
	 viewBox="-250 342.1 109.9 109.9" enable-background="new -250 342.1 109.9 109.9" xml:space="preserve">
<g>
	<path fill="#FFFFFF" d="M-143.3,357.2h-103.4c-1.8,0-3.3,1.5-3.3,3.3v57.3c0,0,0,0,0,0v2.9c0,1.1,0.9,1.9,1.9,1.9h42.3
		c-0.2,3.8-1,11.3-4.9,13c0,0-1.5,1.4,2.7,1.4h7.3h10h7.3c4.2,0,2.7-1.4,2.7-1.4c-3.9-1.7-4.7-9.2-4.9-13h43.6
		c1.1,0,1.9-0.9,1.9-1.9v-2.8c0,0,0-0.1,0-0.1v-57.3C-140.1,358.6-141.6,357.2-143.3,357.2z M-197.1,421.9c0-0.9,0.7-1.6,1.6-1.6
		c0.9,0,1.6,0.7,1.6,1.6s-0.7,1.6-1.6,1.6C-196.4,423.5-197.1,422.8-197.1,421.9z M-143.3,418.1h-103.4v-57.4c0-0.3,0.2-0.5,0.5-0.5
		h102.5c0.3,0,0.5,0.2,0.5,0.5V418.1z"/>
</g>
</svg>
