<?xml version="1.0" encoding="utf-8"?>
<!-- Generator: Adobe Illustrator 18.1.1, SVG Export Plug-In . SVG Version: 6.00 Build 0)  -->
<svg version="1.1" id="Capa_1" xmlns="http://www.w3.org/2000/svg" xmlns:xlink="http://www.w3.org/1999/xlink" x="0px" y="0px"
	 viewBox="-124 0 892 792" enable-background="new -124 0 892 792" xml:space="preserve">
<g>
	<g>
		<path fill="#FFFFFF" d="M611.7,572.9c1.3,9.9-1.7,18.6-9.1,25.9l-86.2,85.5c-3.9,4.3-9,8-15.2,11c-6.3,3-12.4,5-18.5,5.8
			c-0.4,0-1.7,0.1-3.9,0.3c-2.2,0.2-5,0.3-8.4,0.3c-8.2,0-21.5-1.4-39.8-4.2c-18.4-2.8-40.8-9.7-67.4-20.7s-56.7-27.5-90.4-49.6
			c-33.7-22-69.5-52.3-107.5-90.7c-30.2-29.8-55.3-58.3-75.2-85.5s-35.8-52.4-47.9-75.5S21,331.4,15,312.7
			c-6-18.8-10.2-35-12.3-48.6c-2.2-13.6-3-24.3-2.6-32.1s0.6-12.1,0.6-13c0.9-6,2.8-12.2,5.8-18.5s6.7-11.3,11-15.2l86.2-86.2
			c6-6,13-9.1,20.7-9.1c5.6,0,10.6,1.6,14.9,4.9c4.3,3.2,8,7.2,11,12l69.3,131.5c3.9,6.9,5,14.5,3.2,22.7c-1.7,8.2-5.4,15.1-11,20.7
			l-31.7,31.7c-0.9,0.9-1.6,2.3-2.3,4.2c-0.6,1.9-1,3.6-1,4.9c1.7,9.1,5.6,19.4,11.7,31.1c5.2,10.4,13.2,23,24,37.9
			s26.1,32.1,46,51.5c19.4,19.9,36.7,35.3,51.8,46.3c15.1,11,27.8,19.1,37.9,24.3c10.1,5.2,17.9,8.3,23.3,9.4l8.1,1.6
			c0.9,0,2.3-0.3,4.2-1c1.9-0.6,3.3-1.4,4.2-2.3l36.9-37.6c7.8-6.9,16.8-10.4,27.2-10.4c7.3,0,13.2,1.3,17.5,3.9h0.6l125,73.9
			C604.6,557.1,610,564.2,611.7,572.9z"/>
	</g>
</g>
</svg>
