<?xml version="1.0" encoding="utf-8"?>
<!-- Generator: Adobe Illustrator 18.1.1, SVG Export Plug-In . SVG Version: 6.00 Build 0)  -->
<svg version="1.1" id="Capa_1" xmlns="http://www.w3.org/2000/svg" xmlns:xlink="http://www.w3.org/1999/xlink" x="0px" y="0px"
	 viewBox="0 0 612 792" enable-background="new 0 0 612 792" xml:space="preserve">
<g>
	<path fill="#FFFFFF" d="M306,389.3c68,0,123.2-67,123.2-149.7C429.2,157,411.1,90,306,90s-123.2,67-123.2,149.7
		C182.8,322.3,238,389.3,306,389.3z"/>
	<path fill="#FFFFFF" d="M73.3,617.8C73.3,612.8,73.2,616.4,73.3,617.8L73.3,617.8z"/>
	<path fill="#FFFFFF" d="M538.7,621.7C538.8,620.4,538.7,612.2,538.7,621.7L538.7,621.7z"/>
	<path fill="#FFFFFF" d="M538.4,611.8c-2.3-144-21.1-185-165-211c0,0-20.3,25.8-67.5,25.8s-67.5-25.8-67.5-25.8
		C96.2,426.5,76.3,466.9,73.6,607.1c-0.2,11.4-0.3,12-0.4,10.7c0,2.5,0,7.1,0,15.1c0,0,34.3,69.1,232.7,69.1
		c198.4,0,232.7-69.1,232.7-69.1c0-5.2,0-8.7,0-11.2C538.7,622.6,538.6,621,538.4,611.8z"/>
</g>
</svg>
