<?xml version="1.0" encoding="utf-8"?>
<!-- Generator: Adobe Illustrator 18.1.1, SVG Export Plug-In . SVG Version: 6.00 Build 0)  -->
<svg version="1.1" id="Capa_1" xmlns="http://www.w3.org/2000/svg" xmlns:xlink="http://www.w3.org/1999/xlink" x="0px" y="0px"
	 viewBox="139 -49.5 890.5 890.5" enable-background="new 139 -49.5 890.5 890.5" xml:space="preserve">
<g>
	<g>
		<path fill="#FFFFFF" d="M347.1,131.1l355-96.9l-18.8-38c-12.3-24.7-42.3-34.9-67-22.6L298.5,131.1H347.1z"/>
		<path fill="#FFFFFF" d="M812.3,37c-4.4,0-8.8,0.6-13.2,1.8l-83.4,22.8L461,131.1h289.1h126l-15.6-57.2
			C854.5,51.6,834.3,37,812.3,37z"/>
		<path fill="#FFFFFF" d="M928.2,166.1h-11.4h-15.5h-15.5H767.5H332.8h-57h-48h-8.9h-29.8c-15.8,0-29.9,7.3-39.1,18.8
			c-4.2,5.3-7.4,11.4-9.2,18.1c-1.1,4.2-1.8,8.6-1.8,13.1v6v57v494.1c0,27.6,22.4,50,50,50h739.1c27.6,0,50-22.4,50-50V633.7H681.4
			c-46.9,0-85-38.1-85-85v-45.8v-15.5v-15.5v-34.4c0-23,9.2-43.9,24.1-59.2c13.2-13.6,30.9-22.8,50.7-25.1c3.3-0.4,6.7-0.6,10.1-0.6
			h255.2H952h15.5h10.6V216.1C978.2,188.5,955.8,166.1,928.2,166.1z"/>
		<path fill="#FFFFFF" d="M1013.2,400.4c-5-4.6-10.9-8.1-17.5-10.4c-5.1-1.7-10.5-2.7-16.2-2.7h-1.3h-1h-15.5h-55.9H681.4
			c-27.6,0-50,22.4-50,50v24.9v15.5v15.5v55.4c0,27.6,22.4,50,50,50h296.8h1.3c5.7,0,11.1-1,16.2-2.7c6.6-2.2,12.5-5.8,17.5-10.4
			c10-9.1,16.3-22.3,16.3-36.9V437.3C1029.5,422.7,1023.2,409.5,1013.2,400.4z M785.8,502.9c0,13.8-11.2,25-25,25h-16.6
			c-13.8,0-25-11.2-25-25v-16.6c0-8,3.7-15.1,9.6-19.6c4.3-3.3,9.6-5.4,15.4-5.4h4.2h12.4c13.8,0,25,11.2,25,25V502.9L785.8,502.9z"
			/>
	</g>
</g>
</svg>
