<?xml version="1.0" encoding="utf-8"?>
<!-- Generator: Adobe Illustrator 18.1.1, SVG Export Plug-In . SVG Version: 6.00 Build 0)  -->
<svg version="1.1" id="Layer_1" xmlns="http://www.w3.org/2000/svg" xmlns:xlink="http://www.w3.org/1999/xlink" x="0px" y="0px"
	 viewBox="285.5 379.5 41 31" enable-background="new 285.5 379.5 41 31" xml:space="preserve">
<g>
	<g>
		<path fill="#FBB03C" d="M288,405h36c1.1,0,2-0.9,2-2v-21c0-1.1-0.9-2-2-2h-27.2c-0.5,0-1,0.2-1.4,0.6l-8.8,8.8
			c-0.4,0.4-0.6,0.9-0.6,1.4V403C286,404.1,286.9,405,288,405z"/>
		<path fill="#FFFFFF" d="M324,405.5h-36c-1.4,0-2.5-1.1-2.5-2.5v-12.2c0-0.6,0.3-1.3,0.7-1.8l8.8-8.8c0.5-0.5,1.1-0.7,1.8-0.7H324
			c1.4,0,2.5,1.1,2.5,2.5v21C326.5,404.4,325.4,405.5,324,405.5z M296.8,380.5c-0.4,0-0.8,0.2-1,0.5l-8.8,8.8
			c-0.3,0.3-0.5,0.7-0.5,1V403c0,0.8,0.7,1.5,1.5,1.5h36c0.8,0,1.5-0.7,1.5-1.5v-21c0-0.8-0.7-1.5-1.5-1.5H296.8z"/>
	</g>
	<g>
		<circle fill="#FBB03C" cx="296" cy="405" r="5"/>
		<path fill="#FFFFFF" d="M296,410.5c-3,0-5.5-2.5-5.5-5.5s2.5-5.5,5.5-5.5s5.5,2.5,5.5,5.5S299,410.5,296,410.5z M296,400.5
			c-2.5,0-4.5,2-4.5,4.5s2,4.5,4.5,4.5s4.5-2,4.5-4.5S298.5,400.5,296,400.5z"/>
	</g>
	<g>
		<circle fill="#FBB03C" cx="316" cy="405" r="5"/>
		<path fill="#FFFFFF" d="M316,410.5c-3,0-5.5-2.5-5.5-5.5s2.5-5.5,5.5-5.5s5.5,2.5,5.5,5.5S319,410.5,316,410.5z M316,400.5
			c-2.5,0-4.5,2-4.5,4.5s2,4.5,4.5,4.5s4.5-2,4.5-4.5S318.5,400.5,316,400.5z"/>
	</g>
	<g>
		<path fill="#F79421" d="M308,385.4l1.5,3c0.2,0.3,0.5,0.6,0.8,0.6l3.2,0.5c0.9,0.1,1.3,1.3,0.6,1.9l-2.4,2.3
			c-0.3,0.3-0.4,0.6-0.3,1l0.6,3.2c0.2,0.9-0.8,1.6-1.6,1.2l-2.9-1.6c-0.3-0.2-0.7-0.2-1,0l-2.9,1.5c-0.8,0.4-1.8-0.3-1.6-1.2
			l0.6-3.2c0.1-0.4-0.1-0.7-0.3-1l-2.4-2.3c-0.7-0.6-0.4-1.7,0.6-1.8l3.3-0.5c0.4-0.1,0.7-0.3,0.8-0.6l1.5-2.9
			C306.4,384.6,307.6,384.6,308,385.4z"/>
		<path fill="#FFFFFF" d="M310.9,399.7c-0.2,0-0.5-0.1-0.7-0.2l-2.9-1.6c-0.2-0.1-0.4-0.1-0.5,0l-2.9,1.5c-0.7,0.3-1.5,0.1-2-0.5
			c-0.3-0.4-0.4-0.8-0.3-1.3l0.6-3.2c0-0.2,0-0.3-0.2-0.6l-2.4-2.3c-0.5-0.4-0.7-1-0.5-1.6c0.2-0.6,0.7-1,1.4-1.1l3.3-0.5
			c0.2-0.1,0.4-0.2,0.4-0.3l1.5-3c0.2-0.6,0.7-1,1.4-1c0.6,0,1.1,0.3,1.4,0.9l1.5,3c0.1,0.2,0.3,0.3,0.4,0.3l3.3,0.5
			c0.6,0.1,1.1,0.5,1.3,1.1c0.2,0.6,0,1.2-0.5,1.6l-2.4,2.3c-0.2,0.2-0.2,0.3-0.2,0.5l0.6,3.2c0.1,0.4,0,0.9-0.3,1.3
			C311.9,399.5,311.4,399.7,310.9,399.7z M307,396.9c0.3,0,0.5,0.1,0.8,0.2l2.9,1.6c0.2,0.1,0.6,0,0.8-0.2c0.1-0.1,0.2-0.2,0.1-0.5
			l-0.6-3.2c-0.1-0.5,0-1,0.4-1.4l2.4-2.3c0.3-0.2,0.2-0.5,0.2-0.6c-0.1-0.2-0.2-0.4-0.5-0.4l-3.2-0.5c0,0,0,0,0,0
			c-0.5,0-0.9-0.5-1.1-0.8l-1.5-3.1c-0.1-0.2-0.3-0.3-0.5-0.3c-0.1,0-0.4,0-0.5,0.3l-1.5,3c-0.1,0.4-0.5,0.7-1.1,0.9l-3.3,0.5
			c-0.3,0-0.5,0.2-0.5,0.4c-0.1,0.2,0,0.4,0.2,0.6l2.5,2.4c0.2,0.3,0.5,0.8,0.4,1.4l-0.6,3.2c0,0.2,0,0.4,0.1,0.5
			c0.2,0.2,0.5,0.3,0.8,0.2l2.9-1.5C306.5,396.9,306.7,396.9,307,396.9z"/>
	</g>
	<path fill="#FFFFFF" d="M293.5,391H286v-1h7.5c0.8,0,1.5-0.7,1.5-1.5V380h1v8.5C296,389.9,294.9,391,293.5,391z"/>
</g>
</svg>
