<?xml version="1.0" encoding="utf-8"?>
<!-- Generator: Adobe Illustrator 18.1.1, SVG Export Plug-In . SVG Version: 6.00 Build 0)  -->
<svg version="1.1" id="Layer_1" xmlns="http://www.w3.org/2000/svg" xmlns:xlink="http://www.w3.org/1999/xlink" x="0px" y="0px"
	 viewBox="0 0 41 31.1" enable-background="new 0 0 41 31.1" xml:space="preserve">
<path fill="#FFFFFF" d="M2.5,25.5h36c1.1,0,2-0.9,2-2v-21c0-1.1-0.9-2-2-2H11.3c-0.5,0-1,0.2-1.4,0.6L1.1,9.9
	c-0.4,0.4-0.6,0.9-0.6,1.4v12.2C0.5,24.6,1.4,25.5,2.5,25.5z"/>
<path fill="#BDCCD4" d="M38.5,0H11.3c-0.5,0-1.1,0.2-1.5,0.5L9.5,0.8L0.7,9.6C0.3,10,0,10.7,0,11.3v12.2C0,24.9,1.1,26,2.5,26h36
	c1.4,0,2.5-1.1,2.5-2.5v-21C41,1.1,39.9,0,38.5,0z M9.5,2.2V9c0,0.8-0.7,1.5-1.5,1.5H1.3c0.1-0.1,0.1-0.2,0.2-0.2L9.5,2.2z M40,23.5
	c0,0.8-0.7,1.5-1.5,1.5h-36C1.7,25,1,24.3,1,23.5v-12h7c1.4,0,2.5-1.1,2.5-2.5V1.2C10.7,1.1,11,1,11.3,1h27.2C39.3,1,40,1.7,40,2.5
	V23.5z"/>
<g>
	<circle fill="#FFFFFF" cx="10.5" cy="25.5" r="5"/>
	<path fill="#BDCCD4" d="M10.5,31c-3,0-5.5-2.5-5.5-5.5S7.5,20,10.5,20s5.5,2.5,5.5,5.5S13.5,31,10.5,31z M10.5,21C8,21,6,23,6,25.5
		S8,30,10.5,30s4.5-2,4.5-4.5S13,21,10.5,21z"/>
</g>
<g>
	<circle fill="#FFFFFF" cx="30.5" cy="25.5" r="5"/>
	<path fill="#BDCCD4" d="M30.5,31c-3,0-5.5-2.5-5.5-5.5s2.5-5.5,5.5-5.5s5.5,2.5,5.5,5.5S33.5,31,30.5,31z M30.5,21
		C28,21,26,23,26,25.5s2,4.5,4.5,4.5s4.5-2,4.5-4.5S33,21,30.5,21z"/>
</g>
<path fill="#BDCCD4" d="M25.4,20.2c-0.3,0-0.5-0.1-0.8-0.2l-2.9-1.5c-0.2-0.1-0.4-0.1-0.6,0L18.3,20c-0.7,0.4-1.5,0.2-2-0.4
	c-0.3-0.4-0.4-0.8-0.4-1.3l0.6-3.2c0-0.2,0-0.4-0.2-0.5L14,12.2c-0.4-0.4-0.6-1.1-0.4-1.7c0.2-0.6,0.7-1,1.3-1.1L18.1,9
	c0.2,0,0.4-0.2,0.5-0.3l1.5-2.9c0.3-0.6,0.8-0.9,1.4-0.9s1.2,0.3,1.4,0.9l1.5,2.9C24.5,8.8,24.7,9,24.9,9l3.3,0.5
	c0.6,0.1,1.1,0.5,1.3,1.1s0,1.2-0.4,1.7l-2.4,2.3c-0.1,0.1-0.2,0.3-0.2,0.5l0.6,3.2c0.1,0.5,0,0.9-0.4,1.3
	C26.4,20,25.9,20.2,25.4,20.2z M21.5,17.4c0.3,0,0.5,0.1,0.8,0.2l2.9,1.5c0.3,0.1,0.6,0.1,0.8-0.2c0.1-0.1,0.2-0.3,0.1-0.5l-0.6-3.2
	c-0.1-0.5,0.1-1.1,0.5-1.4l2.4-2.3c0.2-0.2,0.2-0.4,0.2-0.6c-0.1-0.2-0.3-0.4-0.5-0.4L24.7,10c-0.5-0.1-1-0.4-1.2-0.9L22,6.2
	c-0.2-0.4-0.9-0.4-1.1,0l-1.5,2.9c-0.2,0.5-0.7,0.8-1.2,0.9L15,10.5c-0.2,0-0.4,0.2-0.5,0.4s0,0.5,0.2,0.6l2.4,2.3
	c0.4,0.4,0.6,0.9,0.5,1.4l-0.6,3.2c0,0.2,0,0.4,0.1,0.5c0.2,0.2,0.5,0.3,0.8,0.2l2.9-1.5C21,17.5,21.2,17.4,21.5,17.4z"/>
</svg>
