<?xml version="1.0" encoding="utf-8"?>
<!-- Generator: Adobe Illustrator 18.1.1, SVG Export Plug-In . SVG Version: 6.00 Build 0)  -->
<svg version="1.1" xmlns="http://www.w3.org/2000/svg" xmlns:xlink="http://www.w3.org/1999/xlink" x="0px" y="0px"
	 viewBox="0 0 16 16" enable-background="new 0 0 16 16" xml:space="preserve">
<g>
	<path fill="#3A3D48" d="M15,13h-2v0.1c0.3,0.1,0.5,0.3,0.7,0.5c0.2,0.3,0.3,0.5,0.3,0.9c0,0.4-0.1,0.8-0.4,1.1
		c-0.3,0.3-0.6,0.4-1.1,0.4c-0.4,0-0.8-0.1-1.1-0.4c-0.3-0.3-0.4-0.6-0.4-1.1c0-0.3,0.1-0.6,0.3-0.9c0.2-0.3,0.4-0.4,0.7-0.5V13H7
		v0.1c0.3,0.1,0.5,0.3,0.7,0.5C7.9,13.9,8,14.2,8,14.5c0,0.4-0.1,0.8-0.4,1.1C7.3,15.9,6.9,16,6.5,16c-0.4,0-0.8-0.1-1.1-0.4
		C5.1,15.3,5,14.9,5,14.5c0-0.3,0.1-0.6,0.3-0.9c0.2-0.3,0.4-0.4,0.7-0.5V13H4c-0.3,0-0.5-0.1-0.7-0.3C3.1,12.5,3,12.3,3,12V2
		c0-0.3-0.1-0.5-0.3-0.7C2.5,1.1,2.3,1,2,1H0.5C0.4,1,0.2,1,0.1,0.9C0,0.8,0,0.6,0,0.5c0-0.1,0-0.3,0.1-0.4C0.2,0,0.4,0,0.5,0H2
		c0.6,0,1,0.2,1.4,0.6C3.8,1,4,1.4,4,2v1h11c0.3,0,0.5,0.1,0.7,0.3C15.9,3.5,16,3.7,16,4v8c0,0.3-0.1,0.5-0.3,0.7
		C15.5,12.9,15.3,13,15,13z M5,4H4v1h1V4z M5,6H4v1h1V6z M5,8H4v1h1V8z M5,10H4v1h1V10z M7,4H6v1h1V4z M7,6H6v1h1V6z M7,8H6v1h1V8z
		 M7,10H6v1h1V10z M9,4H8v1h1V4z M9,6H8v1h1V6z M9,8H8v1h1V8z M9,10H8v1h1V10z M11,4h-1v1h1V4z M11,6h-1v1h1V6z M11,8h-1v1h1V8z
		 M11,10h-1v1h1V10z M13,4h-1v1h1V4z M13,6h-1v1h1V6z M13,8h-1v1h1V8z M13,10h-1v1h1V10z M15,4h-1v1h1V4z M15,6h-1v1h1V6z M15,8h-1
		v1h1V8z M15,10h-1v1h1V10z"/>
</g>
</svg>
