<?xml version="1.0" encoding="utf-8"?>
<!-- Generator: Adobe Illustrator 18.1.1, SVG Export Plug-In . SVG Version: 6.00 Build 0)  -->
<svg version="1.1" id="Layer_1" xmlns="http://www.w3.org/2000/svg" xmlns:xlink="http://www.w3.org/1999/xlink" x="0px" y="0px"
	 viewBox="0 0 20 20" enable-background="new 0 0 20 20" xml:space="preserve">
<g opacity="0.5">
	<path fill="#3A3D48" d="M12,9h7c0.6,0,1-0.4,1-1V1c0-0.6-0.4-1-1-1h-7c-0.6,0-1,0.4-1,1v7C11,8.6,11.4,9,12,9z"/>
</g>
<g opacity="0.5">
	<path fill="#3A3D48" d="M19,20h-7c-0.6,0-1-0.4-1-1v-7c0-0.6,0.4-1,1-1h7c0.6,0,1,0.4,1,1v7C20,19.6,19.6,20,19,20z"/>
</g>
<g opacity="0.5">
	<path fill="#3A3D48" d="M1,20h7c0.6,0,1-0.4,1-1v-7c0-0.6-0.4-1-1-1H1c-0.6,0-1,0.4-1,1v7C0,19.6,0.4,20,1,20z"/>
</g>
<g opacity="0.5">
	<path fill="#3A3D48" d="M8,0H1C0.4,0,0,0.4,0,1v7c0,0.6,0.4,1,1,1h7c0.6,0,1-0.4,1-1V1C9,0.4,8.6,0,8,0z"/>
</g>
</svg>
