<?xml version="1.0" encoding="utf-8"?>
<!-- Generator: Adobe Illustrator 18.1.0, SVG Export Plug-In . SVG Version: 6.00 Build 0)  -->
<svg version="1.1" id="Слой_1" xmlns="http://www.w3.org/2000/svg" xmlns:xlink="http://www.w3.org/1999/xlink" x="0px" y="0px"
	 viewBox="0 0 41 31" enable-background="new 0 0 41 31" xml:space="preserve">
<path fill="#FFFFFF" stroke="#BCCBD2" stroke-linecap="round" stroke-linejoin="round" stroke-miterlimit="10" d="M2.5,25.5h36
	c1.1,0,2-0.9,2-2v-21c0-1.1-0.9-2-2-2H11.3c-0.5,0-1,0.2-1.4,0.6L1.1,9.9c-0.4,0.4-0.6,0.9-0.6,1.4v12.2C0.5,24.6,1.4,25.5,2.5,25.5
	z"/>
<circle fill="#FFFFFF" stroke="#BCCBD2" stroke-linecap="round" stroke-linejoin="round" stroke-miterlimit="10" cx="10.5" cy="25.5" r="5"/>
<circle fill="#FFFFFF" stroke="#BCCBD2" stroke-linecap="round" stroke-linejoin="round" stroke-miterlimit="10" cx="30.5" cy="25.5" r="5"/>
<path fill="none" stroke="#BCCBD2" stroke-miterlimit="10" d="M22.5,5.9L24,8.9c0.2,0.3,0.5,0.6,0.8,0.6L28,10
	c0.9,0.1,1.3,1.3,0.6,1.9l-2.4,2.3c-0.3,0.3-0.4,0.6-0.3,1l0.6,3.2c0.2,0.9-0.8,1.6-1.6,1.2L22,18c-0.3-0.2-0.7-0.2-1,0l-2.9,1.5
	c-0.8,0.4-1.8-0.3-1.6-1.2l0.6-3.2c0.1-0.4-0.1-0.7-0.3-1l-2.4-2.3C13.7,11.2,14,10.1,15,10l3.3-0.5c0.4-0.1,0.7-0.3,0.8-0.6
	l1.5-2.9C20.9,5.1,22.1,5.1,22.5,5.9z"/>
<path fill="none" stroke="#BCCBD2" stroke-miterlimit="10" d="M0.5,11H8c1.1,0,2-0.9,2-2V0.5"/>
</svg>
