<svg id="Layer_1" data-name="Layer 1" xmlns="http://www.w3.org/2000/svg" viewBox="0 0 761.23 450.77"><defs><style>.cls-1{fill:#3eb5f1;}</style></defs><title>Knauf_logo [преобразованный]</title><polygon class="cls-1" points="611.45 450.77 664.52 95.25 761.23 95.25 754.68 136.69 719.06 136.69 711.78 194.85 745.96 194.85 740.14 236.29 705.24 236.29 673.25 450.77 611.45 450.77"/><path class="cls-1" d="M430,168.95L347.15,433.59h58.16l13.09-53.07H438l-2.18,53.07H488.2l11.63-264.65H430Zm16,170.86H424.94l32-119.24Z" transform="translate(-40.33 -72.25)"/><path class="cls-1" d="M544.91,168.5l-32,219.29s-9.49,51.87,62.53,50.17c61.8-1.46,67.61-48.71,67.61-48.71L675.78,167.5H623.43l-32,215.21s1.45,16-13.09,15.27-10.91-11.63-10.91-11.63l32.72-217.39Z" transform="translate(-40.33 -72.25)"/><polygon class="cls-1" points="156.32 362.07 205.76 362.07 224.66 243.56 232.66 359.89 290.82 360.62 329.36 98.15 279.91 98.15 263.19 199.94 255.92 98.15 197.03 98.15 156.32 362.07"/><polygon class="cls-1" points="81.43 362.07 139.59 362.07 123.6 223.21 172.31 99.61 119.96 99.61 83.61 198.49 109.79 0 54.53 0 0 362.8 55.98 362.8 74.89 250.11 81.43 362.07"/></svg>