<?xml version="1.0" encoding="UTF-8" standalone="no"?>
<svg width="16px" height="20px" viewBox="0 0 16 20" version="1.1" xmlns="http://www.w3.org/2000/svg" xmlns:xlink="http://www.w3.org/1999/xlink" xmlns:sketch="http://www.bohemiancoding.com/sketch/ns">
    <!-- Generator: Sketch 3.4.3 (16044) - http://www.bohemiancoding.com/sketch -->
    <g stroke="none" stroke-width="1" fill="none" fill-rule="evenodd" sketch:type="MSPage">
        <g id="P-+--" sketch:type="MSLayerGroup" fill="#000000">
            <path d="M5.03537988,8.55 L5.03537988,3.2 L8.08537988,3.2 C8.53538213,3.2 8.96871113,3.233333 9.38537988,3.3 C9.80204863,3.366667 10.1687116,3.49583237 10.4853799,3.6875 C10.8020481,3.87916763 11.0562123,4.14999825 11.2478799,4.5 C11.4395475,4.85000175 11.5353799,5.3083305 11.5353799,5.875 C11.5353799,6.4416695 11.4395475,6.89999825 11.2478799,7.25 C11.0562123,7.60000175 10.8020481,7.87083237 10.4853799,8.0625 C10.1687116,8.25416763 9.80204863,8.383333 9.38537988,8.45 C8.96871113,8.516667 8.53538213,8.55 8.08537988,8.55 L5.03537988,8.55 Z M1.11037988,0.15 L1.11037988,12 L1.11037988,20.0000004 L5.03537983,20.0000004 L5.03537988,11.6 L9.16037988,11.6 C10.2770521,11.6 11.2270426,11.4375016 12.0103799,11.1125 C12.7937171,10.7874984 13.4312108,10.358336 13.9228799,9.825 C14.414549,9.291664 14.7728788,8.67917012 14.9978799,7.9875 C15.222881,7.29582987 15.3353799,6.59167025 15.3353799,5.875 C15.3353799,5.141663 15.222881,4.43333675 14.9978799,3.75 C14.7728788,3.06666325 14.414549,2.458336 13.9228799,1.925 C13.4312108,1.391664 12.7937171,0.962501625 12.0103799,0.6375 C11.2270426,0.312498375 10.2770521,0.15 9.16037988,0.15 L1.11037988,0.15 Z" id="P" sketch:type="MSShapeGroup"></path>
            <path d="M0,13 L0,16.05 L13,16.05 L13,13 L0,13 Z" id="-" sketch:type="MSShapeGroup"></path>
        </g>
    </g>
</svg>