<svg xmlns="http://www.w3.org/2000/svg" xmlns:xlink="http://www.w3.org/1999/xlink" preserveAspectRatio="xMidYMid" width="24" height="19" viewBox="0 0 24 19">
  <defs>
    <style>
      .cls-1 {
        fill: blue;
        fill-rule: evenodd;
      }
    </style>
  </defs>
  <path d="M21.458,19.000 L2.708,19.000 C1.329,19.000 -0.000,17.409 -0.000,16.030 L-0.000,5.410 C-0.000,4.031 1.329,3.000 2.708,3.000 L7.588,3.000 C7.811,2.000 8.646,-0.000 10.708,-0.000 L13.458,-0.000 C14.372,-0.000 15.116,0.331 15.671,0.894 C16.312,1.546 16.529,2.000 16.601,3.000 L21.458,3.000 C22.837,3.000 24.000,4.031 24.000,5.410 L24.000,16.030 C24.000,17.409 22.837,19.000 21.458,19.000 ZM23.000,5.410 C23.000,4.583 22.285,4.000 21.458,4.000 L15.633,4.000 L15.638,3.448 C15.638,3.436 15.642,2.264 14.953,1.569 C14.590,1.201 14.101,1.000 13.458,1.000 L10.708,1.000 C8.701,1.000 8.533,3.385 8.528,3.486 L8.498,4.000 L2.708,4.000 C1.881,4.000 1.000,4.583 1.000,5.410 L1.000,16.030 C1.000,16.857 1.881,18.000 2.708,18.000 L21.458,18.000 C22.285,18.000 23.000,16.857 23.000,16.030 L23.000,5.410 ZM12.083,16.014 C9.165,16.014 6.791,13.640 6.791,10.722 C6.791,7.804 9.165,5.430 12.083,5.430 C15.001,5.430 17.375,7.804 17.375,10.722 C17.375,13.640 15.001,16.014 12.083,16.014 ZM12.083,6.431 C9.717,6.431 7.791,8.356 7.791,10.722 C7.791,13.089 9.717,15.014 12.083,15.014 C14.449,15.014 16.375,13.089 16.375,10.722 C16.375,8.356 14.449,6.431 12.083,6.431 Z" class="cls-1"/>
</svg>
