<svg xmlns="http://www.w3.org/2000/svg" xmlns:xlink="http://www.w3.org/1999/xlink" preserveAspectRatio="xMidYMid" width="24" height="16" viewBox="0 0 24 16">
  <defs>
    <style>
      .cls-1 {
        fill: blue;
        fill-rule: evenodd;
      }
    </style>
  </defs>
  <path d="M21.500,16.000 L2.500,16.000 C1.119,16.000 -0.000,14.880 -0.000,13.500 L-0.000,2.500 C-0.000,1.119 1.119,-0.000 2.500,-0.000 L21.500,-0.000 C22.881,-0.000 24.000,1.119 24.000,2.500 L24.000,13.500 C24.000,14.880 22.881,16.000 21.500,16.000 ZM23.000,2.500 C23.000,1.671 22.328,1.000 21.500,1.000 L2.500,1.000 C1.672,1.000 1.000,1.671 1.000,2.500 L1.000,13.500 C1.000,14.328 1.672,15.000 2.500,15.000 L21.500,15.000 C22.328,15.000 23.000,14.328 23.000,13.500 L23.000,2.500 ZM8.547,3.218 L17.156,8.196 L8.540,13.164 L8.547,3.218 ZM15.156,8.194 L9.545,4.951 L9.542,11.431 L15.156,8.194 Z" class="cls-1"/>
</svg>
