<svg xmlns="http://www.w3.org/2000/svg" xmlns:xlink="http://www.w3.org/1999/xlink" preserveAspectRatio="xMidYMid" width="229" height="82" viewBox="0 0 229 82">
  <defs>
    <style>
      .cls-1 {
        fill: #e2e2e2;
        fill-rule: evenodd;
      }
    </style>
  </defs>
  <path d="M223.468,55.253 L223.468,26.466 L229.000,26.466 L229.000,55.253 L223.468,55.253 ZM206.008,55.901 C197.243,55.901 191.115,49.858 191.115,40.881 C191.115,31.947 197.413,25.818 206.179,25.818 C211.497,25.818 214.698,28.059 216.519,30.048 L212.671,33.951 C211.572,32.605 209.522,30.911 206.136,30.911 C200.519,30.911 196.817,35.443 196.817,40.967 C196.817,45.413 199.412,50.808 206.094,50.808 C210.008,50.808 213.582,49.081 214.178,44.679 L206.860,44.679 L206.860,39.845 L219.880,39.845 L219.880,40.579 C219.880,43.860 219.370,47.226 217.284,50.290 C213.923,55.210 209.029,55.901 206.008,55.901 ZM171.322,26.466 L187.066,26.466 L187.066,31.300 L176.854,31.300 L176.854,37.731 L186.640,37.731 L186.640,42.564 L176.854,42.564 L176.854,50.419 L187.066,50.419 L187.066,55.253 L171.322,55.253 L171.322,26.466 ZM158.287,37.515 L150.500,55.253 L148.968,55.253 L141.521,37.515 L138.628,55.253 L133.011,55.253 L138.288,26.466 L142.117,26.466 L149.819,44.766 L157.861,26.466 L161.691,26.466 L166.457,55.253 L160.840,55.253 L158.287,37.515 ZM125.364,55.253 L119.832,55.253 L119.832,31.300 L113.450,31.300 L113.450,26.466 L131.747,26.466 L131.747,31.300 L125.364,31.300 L125.364,55.253 ZM103.407,37.515 C105.619,38.292 107.705,39.069 109.152,40.406 C110.428,41.572 111.577,43.514 111.577,46.449 C111.577,52.060 107.577,55.901 101.705,55.901 C96.567,55.901 93.522,52.781 92.002,50.585 L95.547,46.990 C96.910,49.777 99.498,50.808 101.492,50.808 C104.003,50.808 105.875,49.253 105.875,46.837 C105.875,45.801 105.534,44.981 104.769,44.247 C103.705,43.255 102.003,42.694 100.385,42.133 C98.897,41.615 97.109,40.924 95.663,39.629 C94.727,38.810 93.408,37.213 93.408,34.278 C93.408,30.049 96.215,25.818 102.514,25.818 C104.299,25.818 107.654,26.162 110.546,29.174 L107.251,32.516 C105.690,30.747 103.962,30.566 103.024,30.566 C100.046,30.566 99.110,32.465 99.110,33.933 C99.110,34.623 99.323,35.270 100.004,35.874 C100.683,36.522 101.620,36.867 103.407,37.515 ZM73.921,30.008 L73.919,30.025 C73.916,30.068 73.907,30.124 73.898,30.182 C73.894,30.212 73.889,30.242 73.885,30.272 L73.841,30.564 C73.834,30.604 73.828,30.644 73.822,30.685 C73.814,30.736 73.807,30.787 73.799,30.838 L73.656,31.544 L73.481,32.242 C73.448,32.358 73.412,32.475 73.375,32.598 C73.355,32.664 73.335,32.729 73.316,32.795 L73.312,32.807 C73.277,32.935 73.229,33.068 73.179,33.209 C73.165,33.247 73.151,33.286 73.138,33.324 C73.123,33.366 73.107,33.409 73.092,33.452 C73.044,33.588 72.998,33.718 72.947,33.835 L72.934,33.866 C72.691,34.499 72.367,35.166 71.941,35.908 C71.601,36.508 71.183,37.115 70.666,37.766 L70.443,38.040 C70.401,38.092 70.361,38.141 70.326,38.178 L69.919,38.629 L69.909,38.641 C69.881,38.673 69.842,38.712 69.801,38.754 C69.780,38.775 69.758,38.796 69.738,38.817 L69.337,39.219 L68.917,39.599 C68.897,39.617 68.877,39.636 68.857,39.654 C68.812,39.695 68.769,39.733 68.734,39.761 L68.265,40.144 L68.252,40.155 C68.230,40.174 68.203,40.195 68.174,40.217 C68.155,40.231 68.134,40.246 68.113,40.262 L67.596,40.641 C67.573,40.657 67.549,40.673 67.526,40.689 C67.507,40.701 67.489,40.713 67.470,40.725 C67.438,40.746 67.406,40.767 67.375,40.788 C67.314,40.828 67.253,40.868 67.192,40.908 C67.094,40.973 67.001,41.034 66.909,41.093 L66.834,41.136 L66.279,41.461 L65.935,41.638 C65.877,41.667 65.820,41.697 65.762,41.727 C65.647,41.787 65.538,41.843 65.429,41.895 L64.644,42.246 L64.634,42.250 C64.612,42.261 64.585,42.271 64.553,42.284 L64.409,42.340 C64.306,42.379 64.203,42.419 64.100,42.459 C63.843,42.560 63.600,42.655 63.354,42.732 L62.785,42.925 L62.772,42.929 C62.721,42.948 62.661,42.965 62.595,42.984 L61.705,43.245 L61.155,43.383 C61.081,43.401 61.007,43.419 60.933,43.438 C60.823,43.466 60.713,43.493 60.602,43.520 L60.039,43.638 C59.981,43.650 59.924,43.662 59.866,43.675 C59.863,43.676 59.859,43.676 59.855,43.677 C59.727,43.704 59.606,43.730 59.491,43.751 L58.501,43.920 L58.457,43.922 L58.457,43.922 L58.367,43.926 L58.338,43.943 L58.307,43.947 C58.270,43.951 58.236,43.957 58.212,43.962 L58.126,43.978 C58.078,43.987 58.030,43.996 57.985,44.005 L57.925,44.020 C57.827,44.043 57.716,44.069 57.602,44.104 C57.499,44.132 57.403,44.165 57.319,44.194 L57.249,44.218 L57.151,44.256 L57.064,44.289 C57.000,44.314 56.934,44.341 56.863,44.374 C56.844,44.383 56.824,44.392 56.804,44.401 C56.770,44.416 56.736,44.431 56.703,44.446 L56.532,44.533 L56.297,44.660 L56.196,44.720 C56.089,44.785 55.987,44.851 55.863,44.937 C55.765,45.005 55.663,45.081 55.547,45.173 C55.336,45.341 55.139,45.524 54.958,45.716 C54.551,46.150 54.232,46.629 54.010,47.141 C53.881,47.439 53.788,47.748 53.732,48.058 C53.676,48.365 53.661,48.679 53.686,48.992 L53.651,49.156 L53.667,49.186 L52.708,49.186 L52.706,49.182 L52.702,49.182 L48.981,42.646 L48.542,41.875 L48.110,41.115 L48.042,40.995 L48.109,40.878 C49.303,40.863 50.538,40.755 51.874,40.550 L52.141,40.510 L52.253,40.491 L52.252,40.487 C52.256,40.486 52.261,40.486 52.265,40.485 L52.406,40.461 C52.524,40.441 52.641,40.421 52.759,40.402 C52.829,40.391 52.900,40.380 52.970,40.368 L53.039,40.357 L53.526,40.256 C53.576,40.245 53.625,40.234 53.675,40.224 C53.795,40.200 53.919,40.175 54.056,40.141 L54.061,40.140 C54.227,40.102 54.399,40.062 54.563,40.027 C54.652,40.008 54.736,39.986 54.817,39.966 L55.362,39.827 C55.460,39.805 55.552,39.779 55.643,39.754 L56.157,39.612 L56.167,39.609 C56.736,39.443 57.484,39.219 58.220,38.952 C58.480,38.863 58.733,38.767 58.978,38.673 C59.056,38.643 59.134,38.613 59.214,38.583 C59.305,38.549 59.393,38.512 59.478,38.477 C59.502,38.467 59.526,38.456 59.549,38.446 C59.602,38.424 59.655,38.401 59.707,38.380 L59.945,38.283 C60.008,38.257 60.066,38.231 60.116,38.208 C60.143,38.196 60.169,38.184 60.199,38.170 L60.657,37.966 L60.658,37.966 L60.663,37.964 L61.128,37.739 C61.251,37.682 61.362,37.623 61.469,37.566 C61.510,37.545 61.550,37.523 61.590,37.502 L61.600,37.497 C61.628,37.482 61.657,37.467 61.686,37.452 C61.699,37.445 61.713,37.437 61.727,37.430 C61.833,37.376 61.942,37.319 62.053,37.251 L62.458,37.019 L62.490,37.000 C62.617,36.918 62.744,36.838 62.871,36.759 L62.904,36.738 C62.933,36.720 62.962,36.702 62.990,36.683 L63.410,36.389 L63.407,36.382 L63.902,36.018 L63.939,35.982 C63.975,35.947 64.012,35.912 64.047,35.879 C64.083,35.846 64.119,35.813 64.155,35.781 L64.467,35.488 C64.516,35.442 64.557,35.397 64.591,35.361 C64.603,35.348 64.616,35.334 64.630,35.320 L64.811,35.133 L64.938,34.988 C65.320,34.557 65.666,34.087 65.967,33.591 C66.562,32.611 66.976,31.539 67.198,30.403 C67.415,29.286 67.434,28.158 67.254,27.049 C67.084,26.008 66.742,25.008 66.234,24.075 L66.207,23.931 L66.098,23.838 L65.901,23.510 L65.867,23.455 C65.857,23.439 65.849,23.426 65.841,23.415 L65.779,23.330 C65.759,23.301 65.739,23.273 65.720,23.243 L65.482,22.912 C65.440,22.851 65.399,22.801 65.365,22.762 C65.356,22.750 65.346,22.739 65.337,22.728 L65.330,22.719 C65.292,22.674 65.255,22.628 65.218,22.582 L65.209,22.570 C64.859,22.150 64.466,21.758 64.040,21.403 C63.182,20.690 62.210,20.142 61.148,19.775 C60.156,19.432 59.123,19.259 58.078,19.259 C57.989,19.259 57.900,19.260 57.811,19.263 C56.646,19.296 55.503,19.543 54.418,19.995 L54.231,20.072 L54.206,20.081 L54.202,20.073 L53.612,20.376 L53.505,20.433 C53.386,20.497 53.278,20.554 53.174,20.606 L52.729,20.870 C52.716,20.877 52.702,20.885 52.689,20.893 L52.706,20.832 L52.939,19.881 C52.958,19.802 52.980,19.711 52.999,19.615 L53.113,19.047 C53.180,18.746 53.225,18.449 53.269,18.163 C53.286,18.057 53.302,17.951 53.320,17.845 L53.343,17.697 C53.354,17.628 53.363,17.565 53.369,17.504 L53.463,16.636 L53.465,16.612 C53.476,16.467 53.484,16.323 53.491,16.183 C53.494,16.121 53.497,16.058 53.501,15.994 L53.517,15.692 L53.521,15.615 C53.522,15.601 53.523,15.588 53.523,15.577 L53.524,14.772 L53.524,14.751 C53.520,14.616 53.513,14.485 53.506,14.358 C53.502,14.291 53.499,14.223 53.496,14.156 L54.057,13.928 C54.075,13.921 54.094,13.914 54.113,13.908 C54.133,13.901 54.153,13.894 54.173,13.887 L54.707,13.702 C55.444,13.471 56.164,13.296 56.849,13.182 C57.586,13.067 58.330,13.002 59.060,12.991 L59.111,12.991 C59.820,12.991 60.549,13.041 61.280,13.140 L61.975,13.257 L62.667,13.408 C62.717,13.421 62.768,13.435 62.819,13.449 C62.856,13.460 62.893,13.470 62.926,13.478 L63.206,13.554 C63.233,13.561 63.258,13.568 63.284,13.575 C63.344,13.591 63.401,13.606 63.444,13.621 L64.018,13.809 L64.033,13.813 C64.071,13.825 64.118,13.843 64.169,13.863 C64.201,13.875 64.233,13.888 64.265,13.899 L64.534,14.003 C64.567,14.016 64.599,14.028 64.632,14.040 C64.687,14.061 64.739,14.080 64.786,14.100 L65.440,14.386 L66.074,14.704 C66.177,14.760 66.279,14.819 66.388,14.880 C66.449,14.915 66.511,14.950 66.573,14.985 L66.584,14.990 C66.697,15.052 66.814,15.126 66.938,15.205 C66.973,15.228 67.009,15.250 67.045,15.273 C67.085,15.299 67.126,15.324 67.167,15.350 C67.286,15.425 67.398,15.495 67.497,15.569 L67.519,15.585 C68.766,16.442 69.872,17.487 70.807,18.690 L71.156,19.152 C71.239,19.273 71.321,19.394 71.403,19.516 L71.476,19.624 C71.497,19.656 71.519,19.688 71.541,19.720 C71.572,19.765 71.601,19.807 71.621,19.842 L72.006,20.477 L72.348,21.114 L72.354,21.125 C72.383,21.176 72.412,21.239 72.443,21.306 L72.719,21.889 C72.737,21.930 72.757,21.977 72.777,22.028 C72.792,22.064 72.807,22.101 72.822,22.137 C72.848,22.200 72.874,22.264 72.901,22.327 C72.950,22.446 72.996,22.559 73.040,22.671 C73.299,23.369 73.518,24.108 73.690,24.868 C73.844,25.605 73.950,26.369 74.005,27.137 C74.050,27.879 74.042,28.647 73.981,29.421 L73.921,30.008 ZM52.263,41.500 L52.254,41.663 L52.283,41.504 C52.277,41.503 52.270,41.502 52.263,41.500 ZM53.607,33.647 L53.620,33.789 C53.628,33.869 53.640,33.941 53.649,33.999 C53.652,34.017 53.655,34.034 53.658,34.052 L53.663,34.083 C53.683,34.180 53.700,34.260 53.719,34.333 L53.735,34.390 C53.750,34.450 53.768,34.517 53.793,34.590 C53.813,34.652 53.840,34.733 53.873,34.818 C53.907,34.906 53.941,34.986 53.968,35.046 C54.028,35.180 54.095,35.314 54.181,35.467 L54.189,35.481 C54.225,35.543 54.262,35.603 54.300,35.664 L54.348,35.738 C54.377,35.781 54.405,35.824 54.436,35.868 C54.530,36.000 54.619,36.116 54.707,36.221 C54.806,36.339 54.905,36.450 55.003,36.548 C55.197,36.748 55.415,36.939 55.648,37.116 C55.755,37.198 55.869,37.278 55.992,37.360 L56.000,37.364 C56.055,37.400 56.110,37.435 56.166,37.470 L56.358,37.582 L56.591,37.705 L56.730,37.772 C56.772,37.792 56.814,37.812 56.856,37.831 C56.460,37.958 56.083,38.070 55.763,38.163 L55.250,38.305 C55.171,38.327 55.096,38.348 55.026,38.363 L54.458,38.508 C54.387,38.526 54.319,38.543 54.255,38.556 C54.079,38.594 53.902,38.635 53.731,38.675 L53.712,38.679 C53.602,38.707 53.496,38.728 53.383,38.751 C53.330,38.762 53.276,38.773 53.223,38.784 L52.842,38.866 L52.734,38.884 C52.664,38.896 52.595,38.907 52.525,38.918 C52.402,38.938 52.279,38.958 52.160,38.979 L52.017,39.003 L52.003,39.006 C51.974,39.010 51.945,39.016 51.917,39.024 L51.653,39.064 C50.716,39.208 49.832,39.301 48.980,39.346 L52.702,32.808 L52.706,32.808 L52.708,32.805 L53.641,32.805 C53.639,32.817 53.637,32.829 53.635,32.841 C53.630,32.875 53.625,32.910 53.622,32.944 C53.608,33.050 53.603,33.148 53.599,33.227 L53.598,33.297 C53.596,33.365 53.595,33.449 53.601,33.540 L53.607,33.647 ZM51.849,31.302 L51.847,31.305 L42.526,31.305 L42.459,31.188 C43.043,30.133 43.570,28.990 44.062,27.717 L44.161,27.462 L44.202,27.356 L44.198,27.354 C44.199,27.350 44.200,27.346 44.202,27.342 L44.252,27.205 C44.293,27.091 44.336,26.978 44.379,26.865 C44.404,26.797 44.430,26.730 44.454,26.663 L44.480,26.597 L44.637,26.118 C44.653,26.069 44.669,26.020 44.685,25.972 C44.724,25.854 44.764,25.732 44.804,25.596 C44.855,25.431 44.906,25.259 44.959,25.094 C44.987,25.006 45.011,24.922 45.034,24.841 L45.189,24.291 C45.219,24.193 45.244,24.096 45.266,24.008 L45.402,23.485 L45.405,23.475 C45.548,22.892 45.730,22.124 45.871,21.344 C45.925,21.071 45.969,20.800 46.011,20.538 C46.025,20.455 46.039,20.371 46.052,20.285 C46.069,20.188 46.081,20.094 46.093,20.001 C46.096,19.975 46.100,19.948 46.103,19.922 C46.111,19.865 46.118,19.807 46.126,19.752 L46.162,19.493 C46.171,19.426 46.178,19.362 46.183,19.307 C46.186,19.278 46.189,19.248 46.193,19.214 L46.247,18.709 L46.248,18.704 L46.288,18.183 C46.301,18.046 46.307,17.919 46.312,17.795 C46.314,17.750 46.316,17.704 46.318,17.658 L46.318,17.647 C46.320,17.614 46.321,17.582 46.322,17.550 C46.323,17.534 46.324,17.518 46.325,17.503 C46.331,17.382 46.337,17.258 46.335,17.126 L46.339,16.636 L46.338,16.617 C46.332,16.464 46.327,16.313 46.323,16.161 L46.322,16.121 C46.321,16.087 46.320,16.052 46.318,16.019 L46.290,15.678 L46.277,15.504 L46.270,15.504 L46.207,14.885 L46.194,14.835 C46.182,14.786 46.171,14.737 46.160,14.689 C46.150,14.640 46.140,14.592 46.131,14.544 L46.036,14.125 C46.021,14.058 46.004,13.999 45.990,13.952 C45.985,13.934 45.979,13.916 45.974,13.898 L45.905,13.644 L45.845,13.460 C45.667,12.910 45.440,12.370 45.167,11.858 C44.628,10.845 43.919,9.946 43.060,9.183 C42.215,8.434 41.261,7.853 40.224,7.457 C39.251,7.085 38.227,6.887 37.177,6.865 L37.171,6.863 L36.915,6.864 L36.907,6.866 L36.526,6.875 L36.462,6.878 C36.444,6.879 36.429,6.880 36.416,6.881 L36.311,6.893 C36.276,6.897 36.242,6.899 36.207,6.901 L35.806,6.945 C35.732,6.952 35.670,6.963 35.619,6.972 C35.604,6.975 35.591,6.977 35.576,6.980 L35.565,6.982 C35.508,6.992 35.450,7.002 35.392,7.011 L35.376,7.014 C34.844,7.111 34.312,7.260 33.797,7.457 C32.759,7.853 31.805,8.434 30.961,9.183 C30.102,9.945 29.394,10.845 28.854,11.858 C28.300,12.898 27.939,14.025 27.783,15.205 L27.755,15.408 L27.751,15.434 L27.742,15.434 L27.705,16.104 L27.701,16.225 C27.696,16.362 27.690,16.485 27.683,16.602 L27.682,16.629 L27.686,17.125 C27.685,17.141 27.685,17.157 27.685,17.172 L27.642,17.127 L26.945,16.445 C26.887,16.389 26.822,16.325 26.749,16.262 L26.321,15.877 C26.098,15.668 25.868,15.480 25.645,15.298 C25.563,15.230 25.480,15.162 25.398,15.094 L25.283,15.000 C25.231,14.956 25.181,14.917 25.132,14.881 L24.437,14.364 L24.418,14.350 C24.300,14.268 24.181,14.189 24.065,14.114 C24.014,14.080 23.962,14.045 23.909,14.010 L23.595,13.802 C23.584,13.795 23.573,13.788 23.564,13.782 L22.877,13.378 L22.859,13.368 C22.742,13.304 22.626,13.244 22.514,13.187 C22.455,13.156 22.395,13.126 22.336,13.095 L22.422,12.488 C22.426,12.468 22.429,12.449 22.433,12.428 C22.438,12.407 22.442,12.387 22.446,12.366 L22.554,11.804 C22.725,11.041 22.937,10.321 23.182,9.663 C23.451,8.957 23.769,8.271 24.124,7.624 C24.485,6.987 24.901,6.356 25.362,5.750 L25.808,5.198 L26.284,4.666 C26.320,4.627 26.357,4.590 26.395,4.552 C26.422,4.525 26.449,4.497 26.472,4.473 L26.678,4.264 C26.697,4.245 26.715,4.226 26.734,4.207 C26.778,4.163 26.819,4.121 26.854,4.089 L27.301,3.679 L27.313,3.668 C27.341,3.641 27.381,3.608 27.423,3.573 C27.449,3.551 27.476,3.530 27.502,3.507 L27.725,3.322 C27.752,3.300 27.779,3.277 27.806,3.255 C27.851,3.217 27.893,3.181 27.934,3.150 L28.505,2.719 L29.094,2.320 C29.193,2.258 29.293,2.198 29.399,2.134 C29.460,2.097 29.521,2.060 29.583,2.023 L29.593,2.016 C29.702,1.947 29.824,1.881 29.953,1.812 C29.991,1.792 30.028,1.772 30.065,1.752 C30.107,1.729 30.149,1.707 30.191,1.684 C30.315,1.617 30.431,1.553 30.543,1.503 L30.568,1.492 C31.923,0.825 33.369,0.376 34.863,0.157 L35.432,0.081 C35.578,0.068 35.723,0.057 35.869,0.046 L35.996,0.035 C36.034,0.033 36.072,0.030 36.110,0.027 C36.163,0.022 36.214,0.018 36.254,0.017 L36.989,-0.003 L37.020,-0.004 L37.704,0.015 L37.716,0.015 C37.774,0.015 37.842,0.021 37.914,0.027 L38.551,0.077 C38.595,0.080 38.645,0.088 38.699,0.095 C38.737,0.100 38.776,0.105 38.815,0.110 C38.882,0.119 38.949,0.127 39.016,0.136 C39.142,0.152 39.261,0.167 39.379,0.185 C40.104,0.306 40.844,0.484 41.579,0.713 C42.287,0.947 42.992,1.235 43.675,1.570 C44.330,1.903 44.982,2.294 45.613,2.733 L46.084,3.080 L46.098,3.090 C46.133,3.115 46.176,3.150 46.222,3.187 C46.245,3.206 46.269,3.226 46.292,3.245 L46.519,3.429 C46.550,3.454 46.581,3.480 46.613,3.505 C46.652,3.537 46.692,3.569 46.732,3.602 L47.263,4.080 L47.771,4.583 C47.855,4.672 47.938,4.762 48.025,4.857 C48.071,4.906 48.116,4.956 48.161,5.005 L48.170,5.015 C48.261,5.109 48.351,5.218 48.446,5.332 C48.472,5.363 48.497,5.395 48.524,5.426 C48.552,5.461 48.581,5.495 48.610,5.530 C48.703,5.641 48.790,5.746 48.865,5.849 L48.885,5.876 C49.303,6.406 49.711,7.024 50.132,7.769 C50.474,8.368 50.784,9.039 51.080,9.818 L51.202,10.149 C51.226,10.213 51.248,10.273 51.263,10.324 L51.445,10.906 L51.449,10.920 C51.463,10.962 51.477,11.015 51.491,11.072 C51.499,11.101 51.507,11.130 51.514,11.159 L51.657,11.712 L51.772,12.271 C51.777,12.298 51.783,12.325 51.788,12.351 C51.801,12.411 51.813,12.468 51.818,12.513 L51.912,13.116 L51.914,13.134 C51.919,13.162 51.923,13.196 51.927,13.233 C51.930,13.257 51.933,13.283 51.935,13.309 L52.001,13.952 C52.003,13.981 52.005,14.010 52.006,14.038 C52.007,14.061 52.008,14.083 52.009,14.106 C52.011,14.144 52.013,14.182 52.016,14.220 C52.019,14.294 52.023,14.367 52.027,14.441 C52.034,14.560 52.039,14.671 52.042,14.782 L52.042,14.869 L52.042,15.520 L52.021,15.910 C52.017,15.975 52.014,16.040 52.011,16.106 C52.004,16.237 51.998,16.361 51.989,16.483 L51.895,17.348 L51.894,17.358 C51.891,17.383 51.887,17.412 51.882,17.446 L51.858,17.601 C51.839,17.711 51.823,17.821 51.806,17.930 C51.763,18.207 51.722,18.469 51.666,18.724 L51.546,19.320 L51.543,19.333 C51.533,19.388 51.517,19.450 51.501,19.517 L51.278,20.428 L51.121,20.981 C51.099,21.055 51.079,21.129 51.057,21.203 C51.026,21.314 50.995,21.425 50.961,21.535 L50.781,22.088 C50.763,22.145 50.744,22.203 50.726,22.260 C50.725,22.263 50.724,22.266 50.723,22.270 C50.682,22.396 50.644,22.515 50.604,22.627 L50.248,23.594 L50.238,23.615 L50.189,23.721 L50.189,23.740 L50.179,23.765 C50.164,23.799 50.153,23.832 50.144,23.856 L50.115,23.939 C50.099,23.985 50.082,24.032 50.068,24.078 L50.050,24.137 C50.021,24.234 49.988,24.345 49.960,24.462 C49.933,24.567 49.913,24.668 49.896,24.757 L49.881,24.828 L49.864,24.935 L49.849,25.028 C49.838,25.098 49.829,25.169 49.822,25.246 C49.819,25.267 49.817,25.289 49.815,25.310 C49.811,25.348 49.807,25.386 49.803,25.423 L49.792,25.617 L49.783,25.901 L49.784,26.005 C49.786,26.132 49.791,26.254 49.802,26.406 C49.811,26.526 49.825,26.654 49.845,26.796 L49.845,26.801 C49.884,27.071 49.941,27.336 50.015,27.591 C50.182,28.166 50.432,28.685 50.757,29.136 C50.948,29.398 51.165,29.635 51.401,29.839 C51.631,30.037 51.885,30.204 52.158,30.337 L52.281,30.462 L52.330,30.462 L51.852,31.302 L51.849,31.302 ZM23.097,15.267 C23.151,15.303 23.205,15.339 23.259,15.375 C23.368,15.446 23.471,15.514 23.570,15.582 L24.261,16.097 L24.270,16.104 C24.290,16.118 24.312,16.136 24.338,16.158 L24.459,16.257 C24.544,16.327 24.629,16.397 24.715,16.468 C24.929,16.643 25.133,16.810 25.322,16.987 L25.770,17.390 L25.781,17.399 C25.822,17.435 25.867,17.479 25.916,17.527 L26.583,18.179 L26.977,18.593 C27.029,18.649 27.081,18.705 27.134,18.760 C27.213,18.843 27.292,18.926 27.370,19.011 L27.752,19.446 C27.792,19.491 27.831,19.536 27.871,19.580 C27.873,19.583 27.876,19.586 27.878,19.588 C27.966,19.687 28.048,19.780 28.123,19.871 L28.750,20.642 L28.786,20.696 L28.839,20.778 L28.869,20.796 L28.881,20.812 C28.905,20.843 28.926,20.870 28.943,20.889 L29.002,20.959 C29.032,20.996 29.063,21.033 29.094,21.067 L29.136,21.113 C29.204,21.187 29.282,21.271 29.368,21.354 C29.445,21.430 29.520,21.498 29.588,21.558 L29.642,21.606 L29.725,21.674 L29.725,21.675 L29.796,21.734 C29.849,21.779 29.906,21.822 29.968,21.868 C29.986,21.880 30.003,21.893 30.020,21.906 C30.050,21.928 30.080,21.950 30.110,21.972 L30.270,22.079 L30.496,22.221 L30.598,22.280 C30.707,22.342 30.814,22.399 30.949,22.465 C31.056,22.516 31.172,22.568 31.304,22.622 L31.309,22.624 C31.558,22.725 31.813,22.807 32.068,22.870 C32.468,22.968 32.869,23.018 33.256,23.018 C33.423,23.018 33.592,23.009 33.758,22.990 C34.077,22.954 34.387,22.882 34.680,22.777 C34.967,22.672 35.239,22.532 35.492,22.356 L35.631,22.315 L35.668,22.257 L36.155,23.112 L36.153,23.115 L36.155,23.118 L32.434,29.654 L31.995,30.426 L31.563,31.185 L31.563,31.186 L31.494,31.305 L31.361,31.305 C30.752,30.265 30.040,29.230 29.198,28.162 L29.030,27.948 L28.960,27.859 L28.956,27.862 C28.954,27.858 28.950,27.854 28.947,27.850 L28.856,27.739 C28.780,27.645 28.704,27.551 28.628,27.456 C28.584,27.401 28.539,27.345 28.494,27.289 L28.451,27.235 L28.121,26.858 C28.087,26.819 28.053,26.781 28.020,26.743 C27.939,26.649 27.855,26.553 27.759,26.450 C27.642,26.322 27.520,26.189 27.407,26.062 C27.346,25.993 27.286,25.930 27.228,25.870 L26.837,25.459 C26.767,25.383 26.698,25.313 26.634,25.249 L26.255,24.869 L26.248,24.862 C25.822,24.445 25.257,23.900 24.662,23.387 C24.455,23.203 24.246,23.029 24.044,22.861 C23.979,22.807 23.914,22.753 23.849,22.698 C23.773,22.635 23.699,22.576 23.626,22.520 C23.606,22.504 23.584,22.487 23.563,22.471 C23.518,22.436 23.473,22.401 23.429,22.367 L23.226,22.205 C23.174,22.164 23.123,22.127 23.078,22.094 C23.055,22.077 23.031,22.060 23.008,22.042 L22.600,21.738 L22.596,21.735 L22.171,21.439 C22.061,21.360 21.955,21.292 21.852,21.225 C21.814,21.201 21.776,21.176 21.738,21.151 L21.729,21.145 C21.701,21.128 21.675,21.111 21.647,21.093 L21.647,21.092 C21.635,21.084 21.621,21.076 21.608,21.067 C21.509,21.002 21.405,20.934 21.292,20.870 L20.892,20.631 L20.859,20.613 C20.726,20.542 20.594,20.470 20.463,20.398 L20.428,20.379 C20.397,20.363 20.368,20.347 20.338,20.332 L20.033,20.185 L19.878,20.110 L19.875,20.116 L19.315,19.863 L19.266,19.848 C19.217,19.834 19.169,19.820 19.123,19.805 C19.077,19.790 19.031,19.775 18.986,19.758 L18.580,19.632 C18.515,19.611 18.457,19.598 18.410,19.586 C18.392,19.582 18.374,19.578 18.356,19.573 L18.104,19.507 L17.917,19.467 C17.358,19.348 16.784,19.279 16.210,19.262 C16.121,19.260 16.031,19.259 15.942,19.259 C14.898,19.259 13.865,19.432 12.872,19.775 C11.811,20.143 10.838,20.690 9.981,21.403 C9.177,22.072 8.496,22.871 7.953,23.782 L7.854,23.868 L7.823,24.011 L7.635,24.361 L7.606,24.416 C7.597,24.433 7.591,24.447 7.585,24.459 L7.542,24.559 C7.528,24.591 7.513,24.623 7.498,24.654 L7.334,25.028 C7.303,25.096 7.282,25.157 7.264,25.206 C7.259,25.220 7.254,25.234 7.249,25.247 L7.246,25.258 C7.225,25.313 7.205,25.369 7.184,25.425 L7.178,25.440 C6.995,25.956 6.857,26.497 6.767,27.049 C6.587,28.159 6.605,29.287 6.823,30.403 C7.044,31.538 7.458,32.610 8.053,33.591 C8.664,34.598 9.447,35.478 10.375,36.205 L10.535,36.332 L10.556,36.348 L10.550,36.356 L11.104,36.722 L11.206,36.787 C11.321,36.860 11.423,36.927 11.519,36.992 L11.967,37.251 C11.980,37.259 11.993,37.267 12.007,37.275 L11.946,37.290 L11.017,37.561 C10.940,37.584 10.852,37.609 10.761,37.642 L10.218,37.825 C9.929,37.917 9.653,38.025 9.386,38.129 C9.288,38.168 9.188,38.207 9.088,38.245 L8.951,38.298 C8.887,38.322 8.829,38.346 8.773,38.372 L7.985,38.723 L7.964,38.734 C7.834,38.796 7.707,38.862 7.585,38.925 C7.530,38.953 7.475,38.982 7.418,39.011 L7.083,39.183 C7.071,39.189 7.060,39.194 7.050,39.200 L6.363,39.601 L6.345,39.612 C6.231,39.682 6.123,39.755 6.018,39.824 C5.963,39.861 5.906,39.898 5.851,39.934 L5.376,39.556 C5.360,39.543 5.345,39.529 5.329,39.515 C5.314,39.502 5.298,39.488 5.283,39.474 L4.857,39.098 C4.292,38.566 3.782,38.020 3.343,37.476 C2.875,36.886 2.448,36.265 2.074,35.629 C1.709,34.993 1.379,34.312 1.091,33.605 L0.844,32.937 L0.627,32.253 C0.613,32.202 0.600,32.151 0.586,32.099 C0.576,32.061 0.566,32.024 0.557,31.990 L0.481,31.706 C0.475,31.679 0.468,31.653 0.461,31.627 C0.444,31.566 0.429,31.509 0.420,31.463 L0.293,30.865 L0.290,30.850 C0.281,30.811 0.273,30.760 0.264,30.706 C0.259,30.672 0.253,30.637 0.247,30.603 L0.201,30.315 C0.195,30.280 0.190,30.245 0.184,30.210 C0.174,30.152 0.164,30.096 0.158,30.046 L0.076,29.328 L0.030,28.611 C0.027,28.493 0.025,28.375 0.023,28.249 C0.022,28.177 0.021,28.106 0.020,28.033 L0.020,28.021 C0.015,27.891 0.020,27.751 0.026,27.603 C0.027,27.560 0.028,27.517 0.029,27.474 C0.032,27.426 0.033,27.378 0.035,27.329 C0.039,27.187 0.043,27.053 0.057,26.930 L0.059,26.902 C0.168,25.379 0.507,23.885 1.067,22.462 L1.287,21.924 C1.348,21.791 1.411,21.658 1.474,21.526 L1.530,21.406 C1.547,21.372 1.563,21.336 1.579,21.301 C1.602,21.252 1.624,21.206 1.643,21.170 L1.994,20.515 L2.366,19.896 L2.372,19.885 C2.402,19.835 2.440,19.777 2.481,19.716 L2.843,19.182 C2.868,19.146 2.898,19.105 2.931,19.063 C2.955,19.031 2.979,18.999 3.002,18.968 C3.044,18.913 3.085,18.859 3.125,18.804 C3.202,18.701 3.275,18.604 3.349,18.510 C3.815,17.933 4.337,17.372 4.900,16.841 C5.453,16.336 6.052,15.861 6.680,15.429 C7.292,15.019 7.951,14.642 8.642,14.308 L9.173,14.067 L9.189,14.060 C9.228,14.042 9.279,14.022 9.334,14.001 C9.362,13.990 9.390,13.978 9.418,13.967 L9.689,13.860 C9.726,13.845 9.763,13.831 9.800,13.816 C9.848,13.797 9.896,13.778 9.944,13.760 L10.618,13.532 L11.300,13.337 C11.418,13.307 11.535,13.280 11.660,13.251 C11.725,13.236 11.790,13.221 11.856,13.205 L11.868,13.203 C11.995,13.170 12.132,13.145 12.277,13.119 C12.317,13.112 12.356,13.105 12.396,13.097 C12.440,13.090 12.484,13.082 12.528,13.074 C12.670,13.048 12.803,13.023 12.928,13.010 L12.962,13.005 C13.605,12.905 14.313,12.856 15.126,12.856 L15.214,12.857 C15.892,12.857 16.615,12.919 17.424,13.048 L17.769,13.106 C17.835,13.117 17.897,13.128 17.948,13.140 L18.535,13.272 L18.551,13.275 C18.592,13.283 18.645,13.298 18.700,13.314 C18.729,13.322 18.758,13.330 18.787,13.338 L19.330,13.489 L19.865,13.667 C19.891,13.676 19.916,13.684 19.942,13.693 C19.999,13.711 20.054,13.730 20.095,13.747 L20.657,13.967 L20.672,13.973 C20.700,13.983 20.731,13.996 20.764,14.011 C20.786,14.021 20.809,14.031 20.832,14.042 L21.415,14.307 C21.441,14.319 21.466,14.332 21.491,14.345 C21.511,14.355 21.531,14.365 21.551,14.376 C21.584,14.393 21.618,14.410 21.651,14.427 C21.716,14.461 21.780,14.495 21.845,14.528 C21.950,14.581 22.049,14.632 22.144,14.684 L22.219,14.728 L22.774,15.054 L23.097,15.267 ZM0.100,51.983 L0.101,51.966 C0.105,51.922 0.113,51.867 0.122,51.809 C0.127,51.779 0.132,51.749 0.136,51.718 L0.180,51.426 C0.187,51.386 0.193,51.346 0.199,51.306 C0.206,51.255 0.213,51.204 0.222,51.153 L0.364,50.446 L0.539,49.749 C0.573,49.632 0.608,49.515 0.646,49.392 C0.665,49.327 0.685,49.261 0.705,49.196 L0.708,49.183 C0.744,49.056 0.792,48.923 0.842,48.782 C0.855,48.744 0.869,48.705 0.883,48.667 C0.898,48.625 0.913,48.582 0.929,48.540 C0.977,48.402 1.023,48.273 1.074,48.156 L1.087,48.124 C1.330,47.492 1.654,46.825 2.080,46.082 C2.420,45.483 2.837,44.876 3.355,44.225 L3.577,43.951 C3.620,43.899 3.660,43.850 3.695,43.812 L4.101,43.361 L4.111,43.350 C4.140,43.317 4.179,43.278 4.220,43.237 C4.241,43.216 4.262,43.195 4.283,43.173 L4.683,42.772 L5.104,42.391 C5.124,42.373 5.144,42.355 5.164,42.337 C5.209,42.296 5.252,42.257 5.287,42.229 L5.755,41.846 L5.769,41.835 C5.791,41.816 5.818,41.796 5.847,41.774 C5.866,41.759 5.887,41.744 5.908,41.728 L6.425,41.349 C6.448,41.333 6.472,41.317 6.496,41.301 C6.514,41.289 6.533,41.277 6.551,41.265 C6.583,41.245 6.614,41.223 6.646,41.202 C6.707,41.163 6.768,41.123 6.829,41.082 C6.926,41.018 7.019,40.956 7.112,40.898 L7.187,40.854 L7.742,40.529 L8.086,40.353 C8.144,40.324 8.201,40.294 8.259,40.264 C8.374,40.204 8.483,40.147 8.591,40.095 L9.376,39.745 L9.387,39.740 C9.409,39.730 9.435,39.719 9.467,39.707 L9.612,39.651 C9.714,39.612 9.817,39.572 9.920,39.531 C10.178,39.431 10.421,39.336 10.667,39.258 L11.235,39.066 L11.248,39.061 C11.299,39.043 11.361,39.025 11.426,39.006 L12.315,38.746 L12.866,38.608 C12.939,38.590 13.012,38.571 13.085,38.553 C13.197,38.525 13.307,38.497 13.419,38.471 L13.981,38.353 C14.039,38.340 14.098,38.328 14.156,38.316 C14.159,38.315 14.162,38.314 14.166,38.314 C14.294,38.286 14.415,38.260 14.530,38.239 L15.522,38.070 L15.562,38.068 L15.651,38.064 L15.678,38.049 L15.714,38.044 C15.751,38.039 15.784,38.033 15.809,38.029 L15.895,38.013 C15.942,38.004 15.990,37.995 16.036,37.985 L16.096,37.971 C16.194,37.948 16.304,37.921 16.418,37.887 C16.522,37.858 16.619,37.825 16.704,37.796 L16.771,37.773 L16.870,37.735 L16.957,37.701 C17.021,37.677 17.086,37.649 17.158,37.617 C17.177,37.608 17.197,37.599 17.216,37.590 C17.250,37.575 17.284,37.560 17.318,37.544 L17.488,37.457 L17.723,37.330 L17.825,37.270 C17.933,37.205 18.034,37.139 18.158,37.054 C18.256,36.986 18.357,36.910 18.469,36.821 L18.473,36.818 C18.684,36.649 18.882,36.467 19.063,36.274 C19.470,35.840 19.789,35.361 20.011,34.850 C20.140,34.551 20.233,34.243 20.289,33.933 C20.344,33.625 20.360,33.312 20.335,32.998 L20.370,32.832 L20.355,32.805 L21.312,32.805 L21.314,32.808 L21.318,32.808 L25.039,39.344 L25.478,40.116 L25.910,40.875 L25.979,40.995 L25.979,40.996 L25.912,41.113 C24.717,41.128 23.482,41.236 22.146,41.440 L21.880,41.481 L21.768,41.499 L21.768,41.503 C21.765,41.504 21.761,41.504 21.757,41.505 L21.614,41.530 C21.497,41.550 21.379,41.569 21.261,41.588 C21.191,41.600 21.120,41.611 21.050,41.623 L20.982,41.633 L20.495,41.735 C20.445,41.746 20.396,41.755 20.347,41.765 C20.226,41.790 20.102,41.816 19.965,41.849 L19.959,41.851 C19.793,41.889 19.621,41.929 19.458,41.964 C19.368,41.983 19.285,42.004 19.203,42.025 L18.659,42.163 C18.559,42.186 18.464,42.212 18.378,42.237 L17.863,42.379 L17.854,42.382 C17.284,42.548 16.537,42.772 15.800,43.038 C15.540,43.127 15.287,43.224 15.042,43.318 C14.964,43.348 14.886,43.378 14.806,43.408 C14.715,43.442 14.628,43.479 14.544,43.514 C14.519,43.524 14.495,43.535 14.471,43.544 C14.418,43.567 14.365,43.589 14.314,43.610 L14.075,43.708 C14.013,43.733 13.956,43.759 13.906,43.782 C13.879,43.794 13.853,43.806 13.826,43.818 L13.364,44.024 L13.363,44.024 L13.358,44.027 L12.893,44.252 C12.770,44.308 12.659,44.368 12.551,44.425 C12.511,44.446 12.470,44.467 12.431,44.488 L12.420,44.493 C12.392,44.509 12.363,44.523 12.335,44.539 C12.321,44.546 12.307,44.553 12.293,44.560 C12.187,44.615 12.078,44.672 11.967,44.739 L11.563,44.971 L11.531,44.991 C11.404,45.073 11.277,45.153 11.150,45.232 L11.117,45.253 C11.087,45.271 11.058,45.290 11.031,45.308 L10.610,45.602 L10.614,45.608 L10.118,45.973 L10.081,46.008 C10.045,46.044 10.009,46.079 9.974,46.112 C9.938,46.145 9.902,46.177 9.865,46.209 L9.554,46.503 C9.504,46.550 9.463,46.594 9.430,46.629 C9.417,46.643 9.404,46.657 9.391,46.670 L9.209,46.858 L9.083,47.002 C8.701,47.433 8.354,47.904 8.053,48.399 C7.459,49.379 7.045,50.452 6.823,51.588 C6.605,52.704 6.587,53.832 6.767,54.942 C6.936,55.983 7.279,56.984 7.787,57.917 L7.816,58.063 L7.923,58.154 L8.119,58.480 L8.153,58.536 C8.163,58.552 8.172,58.564 8.180,58.575 L8.242,58.661 C8.262,58.689 8.282,58.719 8.301,58.748 L8.539,59.078 C8.581,59.140 8.622,59.189 8.655,59.229 C8.665,59.240 8.674,59.251 8.683,59.263 L8.690,59.271 C8.728,59.317 8.765,59.363 8.802,59.409 L8.812,59.421 C9.162,59.840 9.555,60.233 9.981,60.588 C10.838,61.301 11.811,61.848 12.873,62.215 C13.865,62.558 14.898,62.732 15.942,62.732 C16.031,62.732 16.121,62.731 16.210,62.728 C17.375,62.695 18.517,62.448 19.603,61.996 L19.812,61.910 L19.817,61.918 L20.409,61.614 L20.515,61.558 C20.635,61.493 20.744,61.436 20.846,61.384 L21.291,61.121 C21.305,61.113 21.318,61.105 21.332,61.098 L21.315,61.159 L21.081,62.111 C21.062,62.190 21.040,62.280 21.022,62.376 L20.908,62.943 C20.841,63.244 20.795,63.540 20.751,63.827 C20.735,63.933 20.718,64.040 20.701,64.146 L20.678,64.294 C20.666,64.362 20.658,64.425 20.652,64.486 L20.558,65.355 L20.556,65.378 C20.545,65.524 20.537,65.668 20.530,65.808 C20.527,65.870 20.524,65.932 20.520,65.996 L20.500,66.376 C20.499,66.390 20.498,66.402 20.497,66.414 L20.496,67.218 L20.497,67.240 C20.500,67.375 20.507,67.506 20.514,67.634 C20.518,67.700 20.521,67.768 20.525,67.835 L19.964,68.063 C19.945,68.070 19.926,68.076 19.907,68.082 C19.888,68.090 19.867,68.096 19.848,68.104 L19.314,68.289 C18.577,68.520 17.856,68.694 17.172,68.808 C16.434,68.924 15.691,68.988 14.960,68.999 L14.910,68.999 C14.201,68.999 13.471,68.949 12.741,68.850 L12.046,68.734 L11.354,68.582 C11.303,68.570 11.252,68.555 11.201,68.541 C11.165,68.531 11.128,68.521 11.095,68.512 L10.814,68.437 C10.788,68.429 10.762,68.423 10.736,68.416 C10.676,68.400 10.620,68.385 10.576,68.370 L10.002,68.182 L9.987,68.177 C9.950,68.166 9.902,68.147 9.852,68.128 C9.819,68.115 9.787,68.103 9.755,68.091 L9.487,67.988 C9.453,67.975 9.420,67.963 9.388,67.950 C9.333,67.930 9.281,67.910 9.235,67.891 L8.581,67.604 L7.946,67.286 C7.843,67.230 7.741,67.172 7.633,67.111 C7.571,67.075 7.510,67.041 7.448,67.006 L7.437,67.000 C7.323,66.939 7.207,66.864 7.083,66.786 C7.047,66.763 7.011,66.740 6.975,66.718 C6.935,66.692 6.894,66.666 6.853,66.641 C6.734,66.566 6.622,66.495 6.524,66.422 L6.502,66.406 C5.255,65.548 4.149,64.504 3.214,63.300 L2.865,62.838 C2.781,62.717 2.698,62.594 2.615,62.472 L2.544,62.366 C2.523,62.334 2.501,62.302 2.480,62.270 C2.449,62.226 2.420,62.184 2.400,62.149 L2.015,61.513 L1.672,60.876 L1.666,60.866 C1.638,60.814 1.609,60.752 1.577,60.685 L1.301,60.101 C1.283,60.061 1.264,60.013 1.243,59.963 C1.228,59.926 1.213,59.890 1.198,59.854 C1.172,59.790 1.146,59.726 1.119,59.662 C1.070,59.544 1.024,59.432 0.980,59.320 C0.721,58.622 0.503,57.883 0.331,57.123 C0.177,56.385 0.071,55.621 0.016,54.853 C-0.029,54.111 -0.021,53.343 0.039,52.570 L0.100,51.983 ZM20.414,48.344 L20.400,48.201 C20.393,48.121 20.381,48.049 20.371,47.992 C20.368,47.974 20.365,47.956 20.363,47.939 L20.357,47.908 C20.338,47.810 20.320,47.731 20.301,47.657 L20.286,47.599 C20.270,47.540 20.252,47.473 20.228,47.401 C20.207,47.338 20.180,47.257 20.147,47.173 C20.114,47.084 20.079,47.005 20.052,46.945 C19.993,46.811 19.926,46.677 19.840,46.523 L19.832,46.510 C19.796,46.448 19.758,46.387 19.721,46.326 L19.672,46.252 C19.644,46.210 19.615,46.167 19.584,46.123 C19.490,45.991 19.402,45.875 19.313,45.769 C19.215,45.652 19.115,45.542 19.018,45.443 C18.823,45.243 18.606,45.052 18.373,44.874 C18.265,44.793 18.152,44.713 18.028,44.631 L18.009,44.619 C17.958,44.586 17.906,44.553 17.854,44.521 L17.663,44.409 L17.430,44.286 L17.288,44.218 C17.247,44.198 17.205,44.178 17.164,44.160 C17.561,44.033 17.938,43.921 18.258,43.828 L18.771,43.686 C18.848,43.664 18.924,43.643 18.995,43.627 L19.562,43.483 C19.634,43.465 19.701,43.448 19.766,43.434 C19.941,43.396 20.117,43.355 20.288,43.316 L20.308,43.311 C20.419,43.284 20.526,43.263 20.639,43.239 C20.692,43.228 20.745,43.217 20.798,43.206 L21.179,43.125 L21.287,43.106 C21.356,43.095 21.426,43.084 21.495,43.072 C21.618,43.053 21.741,43.033 21.861,43.011 L22.004,42.987 L22.017,42.985 C22.046,42.981 22.075,42.975 22.103,42.967 L22.368,42.927 C23.305,42.782 24.188,42.689 25.040,42.645 L21.318,49.182 L21.315,49.182 L21.313,49.186 L20.380,49.186 C20.382,49.174 20.383,49.162 20.385,49.150 C20.390,49.116 20.395,49.081 20.399,49.046 C20.412,48.941 20.417,48.842 20.421,48.763 L20.423,48.694 C20.424,48.626 20.425,48.542 20.420,48.451 L20.414,48.344 ZM24.410,25.442 L24.398,25.284 C24.394,25.238 24.390,25.191 24.385,25.146 C24.692,25.431 24.976,25.706 25.215,25.940 L25.593,26.320 C25.650,26.377 25.706,26.432 25.755,26.486 L26.163,26.914 C26.213,26.967 26.261,27.017 26.305,27.067 C26.428,27.205 26.554,27.342 26.675,27.476 L26.682,27.483 C26.760,27.566 26.832,27.649 26.908,27.736 C26.944,27.777 26.980,27.819 27.016,27.860 L27.276,28.154 L27.346,28.239 C27.390,28.294 27.434,28.349 27.478,28.404 C27.557,28.502 27.636,28.601 27.714,28.696 L27.806,28.810 L27.814,28.820 C27.833,28.844 27.853,28.867 27.874,28.888 L28.040,29.099 C28.630,29.849 29.153,30.579 29.617,31.305 L22.174,31.305 L22.172,31.302 L22.168,31.302 L21.701,30.483 C21.712,30.478 21.723,30.474 21.734,30.470 C21.766,30.457 21.798,30.444 21.830,30.430 C21.920,30.391 21.998,30.352 22.083,30.308 L22.144,30.274 C22.203,30.241 22.275,30.201 22.349,30.150 L22.438,30.091 L22.553,30.008 C22.617,29.962 22.672,29.916 22.716,29.879 C22.730,29.867 22.744,29.856 22.758,29.844 L22.782,29.823 C22.855,29.758 22.914,29.703 22.968,29.650 L23.008,29.608 C23.051,29.564 23.100,29.514 23.149,29.457 C23.193,29.407 23.248,29.343 23.304,29.272 C23.363,29.199 23.413,29.128 23.451,29.074 C23.535,28.957 23.618,28.826 23.705,28.677 L23.712,28.664 C23.747,28.600 23.781,28.537 23.814,28.473 L23.852,28.395 C23.875,28.349 23.897,28.302 23.920,28.252 C23.985,28.104 24.040,27.968 24.085,27.838 C24.136,27.692 24.181,27.549 24.217,27.415 C24.290,27.144 24.345,26.858 24.380,26.564 C24.395,26.428 24.407,26.289 24.415,26.139 L24.415,26.129 C24.418,26.064 24.421,25.998 24.422,25.932 L24.422,25.708 L24.410,25.442 ZM35.688,59.699 C35.679,59.691 35.670,59.683 35.660,59.676 C35.634,59.654 35.606,59.632 35.579,59.612 C35.501,59.551 35.425,59.501 35.348,59.451 L35.290,59.414 C35.232,59.379 35.161,59.336 35.080,59.296 L34.986,59.248 L34.858,59.188 C34.785,59.154 34.718,59.129 34.664,59.109 C34.648,59.103 34.631,59.096 34.615,59.090 L34.586,59.079 C34.495,59.048 34.417,59.024 34.344,59.003 L34.286,58.988 C34.228,58.972 34.162,58.955 34.088,58.940 C34.025,58.926 33.941,58.909 33.853,58.896 C33.762,58.881 33.676,58.872 33.611,58.866 C33.469,58.851 33.316,58.843 33.145,58.842 L33.130,58.842 C33.059,58.843 32.988,58.845 32.916,58.848 L32.831,58.853 C32.780,58.857 32.729,58.860 32.675,58.865 C32.516,58.882 32.372,58.902 32.239,58.927 C32.090,58.955 31.945,58.987 31.812,59.023 C31.544,59.094 31.272,59.189 31.003,59.306 C30.880,59.359 30.756,59.418 30.624,59.487 L30.614,59.492 C30.557,59.522 30.499,59.553 30.443,59.584 L30.251,59.696 L30.030,59.840 L29.898,59.931 C29.862,59.957 29.825,59.983 29.790,60.010 C29.880,59.598 29.972,59.211 30.052,58.883 L30.188,58.362 C30.208,58.283 30.228,58.206 30.250,58.136 L30.411,57.564 C30.431,57.493 30.450,57.426 30.470,57.362 C30.526,57.187 30.581,57.009 30.634,56.833 L30.637,56.824 C30.669,56.714 30.703,56.609 30.740,56.499 C30.757,56.447 30.775,56.394 30.792,56.342 L30.913,55.966 L30.951,55.862 C30.976,55.796 31.001,55.729 31.026,55.663 C31.070,55.545 31.115,55.427 31.157,55.311 L31.208,55.173 L31.213,55.160 C31.224,55.131 31.234,55.102 31.241,55.073 L31.338,54.823 C31.683,53.929 32.046,53.105 32.433,52.334 L36.155,58.872 L36.153,58.875 L36.155,58.879 L35.688,59.699 ZM22.172,50.689 L22.174,50.685 L31.494,50.685 L31.561,50.803 C30.977,51.858 30.450,53.001 29.959,54.274 L29.860,54.529 L29.819,54.635 L29.823,54.637 C29.821,54.642 29.820,54.646 29.818,54.651 L29.768,54.786 C29.727,54.900 29.684,55.013 29.642,55.126 C29.616,55.194 29.591,55.261 29.566,55.328 L29.541,55.394 L29.384,55.872 C29.368,55.922 29.352,55.971 29.336,56.019 C29.296,56.138 29.255,56.261 29.217,56.394 C29.166,56.561 29.114,56.734 29.062,56.896 C29.033,56.985 29.009,57.069 28.987,57.150 L28.832,57.699 C28.802,57.798 28.777,57.894 28.754,57.983 L28.618,58.505 L28.616,58.515 C28.473,59.098 28.291,59.867 28.150,60.646 C28.096,60.920 28.051,61.192 28.009,61.454 C27.996,61.537 27.982,61.620 27.968,61.705 C27.952,61.803 27.939,61.897 27.928,61.989 C27.924,62.016 27.921,62.043 27.917,62.069 C27.910,62.127 27.902,62.184 27.895,62.239 L27.859,62.498 C27.850,62.565 27.843,62.628 27.838,62.684 C27.835,62.713 27.832,62.743 27.828,62.777 L27.773,63.282 L27.772,63.286 L27.732,63.808 C27.719,63.945 27.714,64.072 27.709,64.195 C27.707,64.241 27.705,64.287 27.703,64.333 L27.702,64.344 C27.701,64.376 27.700,64.408 27.698,64.441 C27.697,64.456 27.697,64.472 27.696,64.488 C27.690,64.608 27.683,64.733 27.686,64.864 L27.682,65.355 L27.682,65.374 C27.688,65.526 27.693,65.678 27.698,65.829 L27.698,65.838 C27.698,65.849 27.699,65.860 27.699,65.871 C27.700,65.904 27.701,65.938 27.703,65.971 L27.731,66.313 L27.744,66.487 L27.751,66.486 L27.814,67.105 L27.826,67.156 C27.839,67.205 27.850,67.254 27.860,67.301 C27.871,67.350 27.881,67.399 27.890,67.447 L27.985,67.867 C28.000,67.933 28.017,67.991 28.031,68.039 C28.036,68.057 28.041,68.075 28.046,68.093 L28.115,68.347 L28.176,68.530 C28.353,69.081 28.581,69.620 28.854,70.133 C29.393,71.145 30.102,72.045 30.961,72.807 C31.805,73.556 32.759,74.138 33.797,74.534 C34.770,74.905 35.794,75.105 36.844,75.125 L36.850,75.128 L37.110,75.127 L37.117,75.124 L37.494,75.115 L37.558,75.113 C37.576,75.112 37.591,75.111 37.604,75.110 L37.710,75.097 C37.744,75.094 37.779,75.091 37.813,75.089 L38.215,75.046 C38.288,75.039 38.350,75.028 38.401,75.018 C38.415,75.016 38.429,75.013 38.444,75.011 L38.456,75.009 C38.513,74.999 38.571,74.989 38.629,74.979 L38.644,74.977 C39.177,74.880 39.708,74.731 40.224,74.534 C41.262,74.137 42.216,73.556 43.060,72.807 C43.918,72.046 44.627,71.146 45.167,70.133 C45.721,69.093 46.081,67.965 46.238,66.786 L46.266,66.583 L46.270,66.556 L46.279,66.556 L46.316,65.887 L46.320,65.765 C46.324,65.629 46.330,65.506 46.337,65.388 L46.339,65.361 L46.335,64.865 C46.335,64.849 46.335,64.833 46.335,64.818 L46.379,64.864 L47.075,65.544 C47.133,65.601 47.198,65.665 47.271,65.729 L47.700,66.114 C47.923,66.322 48.153,66.511 48.375,66.692 C48.458,66.760 48.540,66.828 48.622,66.896 L48.737,66.991 C48.790,67.036 48.840,67.074 48.889,67.110 L49.584,67.627 L49.602,67.640 C49.720,67.722 49.840,67.801 49.955,67.877 C50.007,67.911 50.059,67.945 50.112,67.980 L50.427,68.189 C50.437,68.196 50.447,68.203 50.456,68.209 L51.143,68.613 L51.162,68.623 C51.279,68.687 51.395,68.747 51.508,68.804 C51.567,68.835 51.626,68.865 51.684,68.896 L51.598,69.502 C51.595,69.522 51.591,69.542 51.587,69.562 C51.583,69.583 51.579,69.604 51.575,69.625 L51.466,70.187 C51.295,70.949 51.084,71.669 50.839,72.327 C50.569,73.033 50.252,73.719 49.896,74.366 C49.536,75.004 49.120,75.635 48.659,76.241 L48.213,76.793 L47.737,77.324 C47.701,77.363 47.663,77.401 47.626,77.439 C47.599,77.466 47.572,77.493 47.548,77.518 L47.343,77.726 C47.324,77.745 47.305,77.765 47.286,77.784 C47.243,77.828 47.202,77.870 47.167,77.901 L46.719,78.312 L46.708,78.323 C46.680,78.350 46.640,78.383 46.598,78.417 C46.571,78.439 46.545,78.461 46.518,78.483 L46.296,78.668 C46.269,78.691 46.242,78.713 46.214,78.736 C46.169,78.774 46.127,78.809 46.087,78.840 L45.515,79.272 L44.927,79.670 C44.827,79.732 44.727,79.793 44.621,79.856 C44.560,79.893 44.499,79.931 44.438,79.968 L44.428,79.974 C44.318,80.044 44.197,80.109 44.068,80.178 C44.031,80.199 43.993,80.219 43.955,80.239 C43.913,80.262 43.871,80.284 43.829,80.307 C43.706,80.374 43.589,80.438 43.477,80.487 L43.453,80.499 C42.097,81.165 40.652,81.614 39.157,81.834 L38.588,81.909 C38.444,81.923 38.298,81.933 38.154,81.945 L38.025,81.955 C37.987,81.958 37.949,81.961 37.911,81.964 C37.857,81.969 37.807,81.973 37.767,81.974 L37.032,81.993 L36.995,81.994 L36.317,81.976 L36.305,81.976 C36.247,81.975 36.179,81.970 36.107,81.964 L35.470,81.914 C35.426,81.910 35.376,81.904 35.322,81.896 C35.284,81.891 35.245,81.886 35.206,81.881 C35.138,81.872 35.070,81.863 35.002,81.854 C34.877,81.838 34.758,81.823 34.641,81.805 C33.916,81.684 33.176,81.507 32.441,81.278 C31.734,81.044 31.029,80.756 30.346,80.420 C29.690,80.088 29.038,79.697 28.408,79.258 L27.936,78.910 L27.922,78.900 C27.887,78.875 27.845,78.841 27.799,78.804 C27.776,78.784 27.753,78.765 27.729,78.746 L27.504,78.563 C27.472,78.537 27.440,78.512 27.409,78.486 C27.369,78.454 27.328,78.421 27.289,78.388 L26.757,77.910 L26.249,77.408 C26.166,77.319 26.083,77.229 25.996,77.134 C25.951,77.084 25.905,77.035 25.859,76.986 L25.851,76.976 C25.760,76.881 25.670,76.773 25.575,76.659 C25.549,76.627 25.523,76.596 25.497,76.564 C25.468,76.530 25.439,76.495 25.410,76.461 C25.317,76.349 25.230,76.245 25.156,76.141 L25.136,76.115 C24.717,75.584 24.309,74.966 23.889,74.221 C23.547,73.623 23.237,72.952 22.941,72.173 L22.818,71.841 C22.794,71.777 22.772,71.717 22.758,71.667 L22.576,71.085 L22.571,71.070 C22.557,71.029 22.544,70.975 22.529,70.918 C22.522,70.889 22.514,70.860 22.506,70.831 L22.364,70.278 L22.249,69.719 C22.244,69.693 22.238,69.666 22.232,69.639 C22.220,69.579 22.208,69.522 22.202,69.478 L22.109,68.874 L22.106,68.857 C22.101,68.828 22.097,68.794 22.093,68.758 C22.090,68.734 22.088,68.709 22.085,68.683 L22.020,68.038 C22.018,68.010 22.016,67.980 22.015,67.952 C22.013,67.929 22.012,67.906 22.011,67.883 C22.009,67.846 22.007,67.808 22.005,67.770 C22.002,67.697 21.998,67.624 21.994,67.551 C21.987,67.432 21.981,67.320 21.978,67.208 L21.978,67.121 L21.978,66.471 L22.000,66.081 C22.003,66.016 22.007,65.951 22.010,65.886 C22.017,65.754 22.023,65.629 22.032,65.508 L22.126,64.643 L22.127,64.631 C22.129,64.607 22.133,64.578 22.139,64.544 L22.163,64.389 C22.181,64.279 22.198,64.169 22.215,64.060 C22.258,63.783 22.299,63.521 22.355,63.267 L22.475,62.670 L22.478,62.657 C22.488,62.604 22.503,62.541 22.519,62.475 L22.742,61.562 L22.899,61.010 C22.921,60.935 22.942,60.862 22.963,60.788 C22.994,60.676 23.026,60.566 23.059,60.455 L23.239,59.902 C23.258,59.845 23.277,59.788 23.295,59.730 C23.296,59.727 23.297,59.723 23.298,59.721 C23.339,59.595 23.377,59.475 23.417,59.364 L23.773,58.397 L23.783,58.375 L23.783,58.374 L23.832,58.270 L23.832,58.251 L23.842,58.226 C23.857,58.191 23.868,58.159 23.877,58.134 L23.906,58.051 C23.922,58.005 23.938,57.958 23.953,57.914 L23.972,57.852 C24.001,57.755 24.033,57.645 24.060,57.529 C24.088,57.423 24.107,57.323 24.125,57.234 L24.139,57.162 L24.156,57.056 L24.171,56.963 C24.182,56.893 24.192,56.822 24.199,56.745 C24.201,56.723 24.204,56.702 24.206,56.679 C24.210,56.642 24.214,56.605 24.217,56.568 L24.228,56.374 L24.238,56.090 L24.237,55.985 C24.235,55.858 24.230,55.736 24.218,55.584 C24.210,55.464 24.195,55.336 24.176,55.194 L24.175,55.189 C24.136,54.920 24.079,54.655 24.006,54.399 C23.839,53.825 23.589,53.306 23.263,52.855 C23.073,52.592 22.856,52.356 22.619,52.152 C22.390,51.954 22.136,51.786 21.863,51.653 L21.739,51.528 L21.691,51.528 L22.168,50.689 L22.172,50.689 ZM38.332,22.292 C38.342,22.300 38.351,22.308 38.361,22.315 C38.387,22.336 38.414,22.358 38.441,22.379 C38.527,22.444 38.610,22.499 38.673,22.540 L38.731,22.576 C38.788,22.611 38.860,22.655 38.940,22.695 L39.034,22.743 L39.163,22.803 C39.234,22.836 39.302,22.861 39.355,22.881 C39.372,22.888 39.389,22.894 39.405,22.901 L39.435,22.911 C39.527,22.943 39.604,22.967 39.676,22.987 L39.733,23.003 C39.792,23.018 39.858,23.036 39.932,23.051 C40.024,23.071 40.097,23.084 40.167,23.095 C40.259,23.110 40.344,23.119 40.410,23.125 C40.553,23.140 40.701,23.148 40.875,23.149 L40.891,23.149 C40.962,23.148 41.033,23.146 41.103,23.143 L41.191,23.137 C41.241,23.134 41.292,23.130 41.346,23.125 C41.505,23.109 41.648,23.089 41.782,23.063 C41.932,23.036 42.076,23.003 42.209,22.968 C42.477,22.896 42.748,22.801 43.017,22.685 C43.141,22.631 43.265,22.572 43.397,22.504 L43.412,22.496 C43.467,22.466 43.523,22.437 43.578,22.406 L43.769,22.294 L43.991,22.151 L44.122,22.059 C44.159,22.033 44.196,22.007 44.231,21.981 C44.141,22.393 44.048,22.780 43.968,23.107 L43.833,23.628 C43.812,23.708 43.792,23.785 43.771,23.855 L43.609,24.427 C43.589,24.498 43.571,24.565 43.550,24.628 C43.493,24.807 43.439,24.986 43.386,25.158 L43.384,25.167 C43.352,25.277 43.317,25.381 43.280,25.492 C43.263,25.544 43.246,25.596 43.228,25.649 L43.108,26.024 L43.069,26.129 C43.045,26.195 43.020,26.261 42.995,26.328 C42.950,26.446 42.906,26.564 42.863,26.680 L42.813,26.818 L42.808,26.829 C42.797,26.859 42.787,26.888 42.779,26.918 L42.683,27.168 C42.338,28.061 41.975,28.885 41.587,29.655 L37.866,23.118 L37.868,23.115 L37.866,23.112 L38.332,22.292 ZM49.610,56.549 L49.623,56.711 C49.626,56.756 49.630,56.801 49.635,56.845 C49.329,56.560 49.045,56.285 48.805,56.051 L48.428,55.671 C48.370,55.614 48.315,55.558 48.265,55.504 L47.858,55.076 C47.807,55.023 47.759,54.973 47.715,54.923 C47.590,54.782 47.460,54.640 47.345,54.515 L47.339,54.508 C47.261,54.425 47.189,54.342 47.113,54.254 C47.077,54.213 47.041,54.172 47.005,54.131 L46.744,53.837 L46.675,53.751 C46.631,53.697 46.587,53.641 46.543,53.587 C46.464,53.488 46.385,53.390 46.307,53.294 L46.214,53.181 L46.208,53.172 C46.188,53.147 46.167,53.122 46.144,53.099 L45.981,52.892 C45.390,52.142 44.868,51.411 44.404,50.685 L51.847,50.685 L51.849,50.689 L51.853,50.689 L52.319,51.508 C52.308,51.512 52.297,51.516 52.286,51.521 C52.254,51.533 52.222,51.547 52.191,51.560 C52.094,51.602 52.007,51.647 51.938,51.683 L51.877,51.716 C51.819,51.749 51.746,51.790 51.671,51.840 L51.583,51.899 L51.468,51.982 C51.404,52.029 51.348,52.075 51.305,52.112 C51.291,52.123 51.277,52.135 51.263,52.146 L51.239,52.167 C51.166,52.232 51.106,52.288 51.053,52.341 L51.012,52.383 C50.970,52.427 50.921,52.476 50.871,52.534 C50.809,52.605 50.761,52.663 50.716,52.719 C50.658,52.792 50.607,52.862 50.569,52.916 C50.485,53.035 50.404,53.162 50.316,53.313 L50.308,53.327 C50.273,53.391 50.240,53.454 50.206,53.517 L50.168,53.596 C50.146,53.643 50.123,53.689 50.101,53.738 C50.035,53.887 49.981,54.023 49.935,54.153 C49.884,54.298 49.839,54.441 49.804,54.575 C49.731,54.846 49.676,55.133 49.641,55.427 C49.625,55.563 49.614,55.702 49.606,55.851 L49.605,55.861 C49.603,55.927 49.600,55.993 49.598,56.058 L49.598,56.283 L49.610,56.549 ZM50.924,66.723 C50.870,66.687 50.816,66.652 50.762,66.616 C50.653,66.545 50.550,66.477 50.451,66.408 L49.760,65.893 L49.750,65.887 C49.730,65.872 49.708,65.855 49.681,65.832 L49.562,65.734 C49.477,65.663 49.391,65.593 49.306,65.523 C49.091,65.347 48.888,65.181 48.699,65.004 L48.250,64.600 L48.240,64.592 C48.199,64.555 48.153,64.510 48.104,64.463 L47.437,63.812 L47.044,63.397 C46.991,63.341 46.938,63.286 46.886,63.230 C46.807,63.147 46.728,63.064 46.651,62.979 L46.268,62.545 C46.229,62.500 46.189,62.455 46.150,62.410 L46.150,62.409 L46.149,62.409 C46.146,62.406 46.145,62.404 46.142,62.402 C46.055,62.303 45.972,62.210 45.898,62.120 L45.339,61.433 L45.254,61.328 L45.235,61.298 L45.182,61.212 L45.152,61.195 L45.139,61.178 C45.116,61.147 45.094,61.121 45.077,61.101 L45.020,61.033 C44.989,60.996 44.958,60.959 44.927,60.924 L44.884,60.876 C44.815,60.803 44.738,60.719 44.652,60.637 C44.576,60.560 44.500,60.493 44.433,60.433 L44.378,60.384 L44.296,60.316 L44.225,60.257 C44.171,60.212 44.115,60.168 44.052,60.123 C44.035,60.110 44.017,60.097 44.000,60.085 C43.970,60.062 43.940,60.040 43.910,60.019 L43.750,59.911 L43.524,59.769 L43.423,59.711 C43.314,59.648 43.207,59.592 43.071,59.526 C42.964,59.474 42.848,59.423 42.717,59.368 L42.712,59.366 C42.463,59.266 42.207,59.183 41.953,59.120 C41.552,59.022 41.152,58.973 40.765,58.973 C40.598,58.973 40.429,58.982 40.263,59.000 C39.944,59.036 39.633,59.108 39.340,59.214 C39.054,59.318 38.781,59.460 38.529,59.635 L38.390,59.676 L38.352,59.733 L37.866,58.879 L37.868,58.876 L37.866,58.872 L41.586,52.336 L42.026,51.565 L42.458,50.805 L42.527,50.685 L42.660,50.685 C43.269,51.726 43.981,52.760 44.822,53.829 L44.990,54.042 L45.062,54.132 L45.065,54.129 C45.067,54.132 45.069,54.134 45.071,54.136 L45.164,54.251 C45.241,54.345 45.317,54.440 45.392,54.534 C45.437,54.590 45.482,54.646 45.526,54.701 L45.570,54.756 L45.900,55.133 C45.934,55.171 45.967,55.210 46.001,55.248 C46.082,55.341 46.166,55.438 46.262,55.541 C46.372,55.662 46.497,55.798 46.613,55.929 C46.674,55.997 46.735,56.060 46.792,56.121 L47.183,56.531 C47.253,56.607 47.323,56.678 47.387,56.741 L47.765,57.122 L47.773,57.129 C48.199,57.546 48.764,58.091 49.359,58.604 C49.566,58.788 49.775,58.962 49.977,59.130 C50.042,59.184 50.106,59.238 50.172,59.292 C50.247,59.355 50.321,59.414 50.395,59.471 L50.458,59.520 C50.503,59.555 50.548,59.590 50.592,59.624 L50.794,59.785 C50.847,59.827 50.898,59.864 50.943,59.897 C50.967,59.915 50.990,59.931 51.017,59.952 L51.421,60.252 L51.424,60.255 L51.850,60.551 C51.960,60.631 52.067,60.699 52.169,60.766 C52.207,60.790 52.245,60.815 52.283,60.839 L52.292,60.845 C52.319,60.862 52.346,60.880 52.373,60.898 C52.386,60.906 52.399,60.915 52.412,60.923 C52.512,60.989 52.615,61.057 52.729,61.121 L53.129,61.360 L53.162,61.378 C53.295,61.449 53.427,61.521 53.558,61.592 L53.565,61.596 C53.575,61.601 53.584,61.606 53.593,61.611 C53.623,61.628 53.653,61.644 53.682,61.659 L54.145,61.882 L54.148,61.875 L54.706,62.128 L54.756,62.142 C54.804,62.157 54.851,62.171 54.897,62.186 C54.944,62.200 54.989,62.216 55.035,62.232 L55.441,62.358 C55.505,62.379 55.564,62.393 55.611,62.404 C55.629,62.409 55.647,62.413 55.665,62.418 L55.916,62.484 L56.104,62.523 C56.662,62.643 57.237,62.712 57.811,62.729 C57.899,62.731 57.989,62.733 58.078,62.733 C59.122,62.733 60.155,62.558 61.148,62.215 C62.210,61.848 63.183,61.300 64.040,60.587 C64.846,59.917 65.529,59.115 66.072,58.201 L66.168,58.114 L66.197,57.980 L66.385,57.630 L66.415,57.574 C66.424,57.557 66.429,57.544 66.435,57.531 L66.478,57.432 C66.493,57.400 66.508,57.368 66.523,57.337 L66.686,56.963 C66.718,56.895 66.739,56.834 66.757,56.784 C66.761,56.771 66.766,56.757 66.771,56.743 L66.775,56.733 C66.795,56.677 66.816,56.621 66.837,56.566 L66.842,56.551 C67.025,56.034 67.164,55.493 67.254,54.942 C67.434,53.832 67.415,52.703 67.198,51.587 C66.977,50.453 66.562,49.380 65.967,48.400 C65.356,47.393 64.574,46.512 63.646,45.786 L63.486,45.659 L63.465,45.643 L63.470,45.634 L62.916,45.267 L62.815,45.203 C62.701,45.131 62.598,45.065 62.502,44.999 L62.054,44.740 C62.041,44.732 62.027,44.724 62.014,44.716 L62.074,44.700 L63.004,44.429 C63.081,44.407 63.168,44.381 63.260,44.349 L63.802,44.165 C64.092,44.074 64.367,43.966 64.634,43.861 C64.733,43.823 64.832,43.784 64.932,43.746 L65.070,43.692 C65.134,43.668 65.192,43.644 65.247,43.619 L66.036,43.267 L66.057,43.257 C66.186,43.194 66.313,43.129 66.435,43.066 C66.491,43.037 66.546,43.009 66.602,42.979 L66.938,42.807 C66.949,42.802 66.959,42.797 66.967,42.792 L67.658,42.389 L67.676,42.379 C67.789,42.308 67.898,42.236 68.003,42.166 C68.058,42.130 68.114,42.093 68.170,42.056 L68.645,42.435 C68.660,42.449 68.675,42.461 68.691,42.475 C68.707,42.489 68.722,42.503 68.738,42.517 L69.163,42.893 C69.729,43.425 70.238,43.970 70.677,44.515 C71.145,45.105 71.572,45.726 71.947,46.362 C72.311,46.998 72.642,47.679 72.929,48.386 L73.177,49.054 L73.393,49.738 C73.408,49.788 73.421,49.840 73.435,49.891 C73.445,49.929 73.454,49.967 73.463,50.000 L73.539,50.285 C73.546,50.311 73.553,50.338 73.560,50.363 C73.576,50.424 73.592,50.481 73.601,50.527 L73.727,51.125 L73.731,51.141 C73.740,51.179 73.748,51.231 73.757,51.285 C73.762,51.319 73.768,51.354 73.773,51.388 L73.820,51.676 C73.825,51.711 73.831,51.745 73.837,51.780 C73.847,51.838 73.856,51.894 73.863,51.945 L73.945,52.663 L73.991,53.379 C73.994,53.498 73.996,53.616 73.997,53.741 C73.998,53.813 73.999,53.885 74.001,53.957 L74.001,53.970 C74.005,54.100 74.001,54.240 73.995,54.388 C73.994,54.431 73.992,54.474 73.991,54.516 C73.989,54.564 73.987,54.613 73.986,54.661 C73.981,54.803 73.977,54.937 73.964,55.061 L73.961,55.088 C73.853,56.612 73.513,58.106 72.954,59.529 L72.733,60.066 C72.672,60.200 72.610,60.332 72.547,60.463 L72.491,60.584 C72.474,60.619 72.458,60.654 72.441,60.689 C72.419,60.738 72.397,60.785 72.378,60.820 L72.027,61.475 L71.655,62.095 L71.648,62.105 C71.619,62.156 71.580,62.213 71.539,62.274 L71.178,62.808 C71.153,62.845 71.122,62.885 71.089,62.928 C71.066,62.959 71.042,62.991 71.018,63.023 C70.977,63.077 70.936,63.132 70.895,63.186 C70.818,63.290 70.746,63.386 70.671,63.481 C70.205,64.058 69.684,64.619 69.121,65.150 C68.567,65.654 67.969,66.129 67.340,66.562 C66.729,66.972 66.069,67.349 65.379,67.682 L64.847,67.923 L64.832,67.930 C64.793,67.949 64.742,67.969 64.687,67.990 C64.659,68.001 64.631,68.012 64.603,68.023 L64.332,68.131 C64.294,68.145 64.257,68.160 64.219,68.175 C64.172,68.194 64.125,68.213 64.077,68.230 L63.403,68.459 L62.720,68.654 C62.603,68.683 62.485,68.710 62.360,68.739 C62.295,68.754 62.230,68.770 62.165,68.785 L62.152,68.788 C62.026,68.821 61.889,68.845 61.744,68.871 C61.704,68.879 61.664,68.886 61.624,68.893 C61.580,68.901 61.536,68.909 61.493,68.917 C61.351,68.943 61.218,68.967 61.092,68.981 L61.059,68.985 C60.416,69.086 59.707,69.134 58.895,69.134 L58.807,69.134 C58.128,69.134 57.405,69.072 56.596,68.943 L56.252,68.884 C56.186,68.873 56.123,68.863 56.073,68.850 L55.485,68.719 L55.470,68.715 C55.428,68.707 55.376,68.692 55.320,68.677 C55.291,68.669 55.262,68.661 55.233,68.653 L54.690,68.502 L54.155,68.324 C54.130,68.315 54.105,68.306 54.079,68.298 C54.022,68.279 53.967,68.261 53.925,68.243 L53.364,68.023 L53.348,68.017 C53.321,68.007 53.290,67.994 53.257,67.980 C53.235,67.970 53.212,67.960 53.188,67.949 L52.605,67.684 C52.580,67.672 52.555,67.659 52.529,67.646 C52.509,67.636 52.489,67.625 52.469,67.615 C52.436,67.597 52.403,67.580 52.370,67.563 C52.306,67.529 52.241,67.496 52.177,67.463 C52.072,67.410 51.973,67.359 51.876,67.306 L51.802,67.262 L51.247,66.937 L50.924,66.723 Z" class="cls-1"/>
</svg>
