<svg xmlns="http://www.w3.org/2000/svg" xmlns:xlink="http://www.w3.org/1999/xlink" preserveAspectRatio="xMidYMid" width="19" height="14" viewBox="0 0 19 14">
  <defs>
    <style>
      .cls-1 {
        fill: #121315;
        fill-rule: evenodd;
      }
    </style>
  </defs>
  <path d="M17.021,14.000 L1.979,14.000 C0.886,14.000 0.000,12.881 0.000,11.500 L0.000,2.500 C0.000,1.119 0.886,-0.000 1.979,-0.000 L17.021,-0.000 C18.114,-0.000 19.000,1.119 19.000,2.500 L19.000,11.500 C19.000,12.881 18.114,14.000 17.021,14.000 ZM0.792,11.500 C0.792,12.328 1.323,13.000 1.979,13.000 L17.021,13.000 C17.677,13.000 18.208,12.328 18.208,11.500 L18.208,2.500 C18.208,2.290 18.173,2.091 18.111,1.909 L9.662,8.533 L0.986,1.727 C0.874,1.956 0.792,2.211 0.792,2.500 L0.792,11.500 ZM17.021,1.000 L1.979,1.000 C1.863,1.000 1.757,1.044 1.651,1.084 L9.662,7.193 L17.554,1.178 C17.392,1.073 17.216,1.000 17.021,1.000 Z" class="cls-1"/>
</svg>
