<?xml version="1.0" encoding="utf-8"?>
<!-- Generator: Adobe Illustrator 18.1.1, SVG Export Plug-In . SVG Version: 6.00 Build 0)  -->
<svg version="1.1" id="Layer_1" xmlns="http://www.w3.org/2000/svg" xmlns:xlink="http://www.w3.org/1999/xlink" x="0px" y="0px"
	 viewBox="0 0 43 28" enable-background="new 0 0 43 28" xml:space="preserve">
<g>
	<path fill="#00A99D" d="M36.9,6.4h-25c-2.8,0-5,2.2-5,5v4c0,2.8,2.2,5,5,5h25c2.8,0,5-2.2,5-5v-4C41.9,8.6,39.6,6.4,36.9,6.4z"/>
</g>
<g>
	<g>
		<circle fill="#FFFFFF" cx="14.4" cy="13.4" r="12.5"/>
	</g>
	<g>
		<path fill="#FFFFFF" d="M14.4,23.4c-5.5,0-10-4.5-10-10s4.5-10,10-10s10,4.5,10,10S19.9,23.4,14.4,23.4z"/>
		<path fill="#00A99D" d="M14.4,3.9c5.2,0,9.5,4.3,9.5,9.5s-4.3,9.5-9.5,9.5s-9.5-4.3-9.5-9.5S9.1,3.9,14.4,3.9 M14.4,2.9
			C8.6,2.9,3.9,7.6,3.9,13.4s4.7,10.5,10.5,10.5c5.8,0,10.5-4.7,10.5-10.5S20.2,2.9,14.4,2.9L14.4,2.9z"/>
	</g>
	<rect x="15.9" y="10.4" fill="#00A99D" width="1" height="6"/>
	<rect x="13.9" y="10.4" fill="#00A99D" width="1" height="6"/>
	<rect x="11.9" y="10.4" fill="#00A99D" width="1" height="6"/>
</g>
</svg>
