<?xml version="1.0" encoding="utf-8"?>
<!-- Generator: Adobe Illustrator 18.1.0, SVG Export Plug-In . SVG Version: 6.00 Build 0)  -->
<svg version="1.1" id="Слой_1" xmlns="http://www.w3.org/2000/svg" xmlns:xlink="http://www.w3.org/1999/xlink" x="0px" y="0px"
	 viewBox="0 0 157.4 91.9" enable-background="new 0 0 157.4 91.9" xml:space="preserve">
<g>
	<path fill="#17191D" d="M55.1,0.3l-23,34.4c-4,6.3-4,16.4,0,22.7l23,34.4H27.8L3.6,55.6c-3.4-5.1-3.4-13.9,0-19.3L27.8,0l27.3,0
		V0.3z"/>
	<path fill="#17191D" d="M28.7,90.4L5.1,54.7C2,49.9,2,42,5.1,37.3L28.7,1.9h23.6L30.9,33.8c-4.7,7-4.7,17.7,0,24.3l21.4,32.2H28.7"
		/>
</g>
<g>
	<path fill="#FFFFFF" d="M61.4,1.8L38.8,35.1c-4,6.1-4,15.9,0,22l22.6,33.3H34.5L10.7,55.3c-3.4-4.9-3.4-13.4,0-18.6L34.5,1.5h26.9
		V1.8z"/>
	<path fill="#FFFFFF" d="M35.4,88.9L12.2,54.4c-3.1-4.6-3.1-12.2,0-16.8L35.4,3.4h23.2L37.6,34.2c-4.6,6.7-4.6,17.1,0,23.5
		l21.1,31.2H35.4 M33.3,91.9h30.5c0,0,0-0.3,0-0.9L40,56.2c-3.7-5.5-3.7-14.7,0-20.2L63.9,0.9c0-0.3,0-0.9,0-0.9L33.3,0
		c0,0,0,0.3,0,0.9L9.5,35.7c-3.7,5.5-3.7,14.7,0,20.2L33.3,91C33.3,91.6,33.3,91.9,33.3,91.9L33.3,91.9z"/>
</g>
<g opacity="0.6">
	<path fill="#FFFFFF" d="M95.3,1.8l-18.9,33c-3.7,6.1-3.7,16.5,0,22.6l18.9,33H73L53.2,55.9c-3.1-5.2-3.1-14.4,0-19.5L73,1.8H95.3z"
		/>
	<path fill="#FFFFFF" d="M73.6,88.9L54.1,55.3c-2.7-4.9-2.7-13.1,0-18L73.6,3.7h18.9L74.9,34.2c-4,6.7-4,17.4,0,24.1l17.7,30.5
		L73.6,88.9 M71.5,91.9h26c0,0,0-0.3,0-0.9L77.6,56.5c-3.4-5.8-3.4-15.3,0-21.1L97.5,0.9c0-0.3,0-0.9,0-0.9l-26,0c0,0,0,0.3,0,0.9
		L51.6,35.4c-3.4,5.8-3.4,15.3,0,21.1L71.5,91C71.5,91.6,71.5,91.9,71.5,91.9L71.5,91.9z"/>
</g>
<g opacity="0.4">
	<path fill="#FFFFFF" d="M125.9,1.8l-15.6,32.7c-3.1,6.4-3.1,16.8,0,23.5l15.6,32.7h-18L91.7,56.8c-2.7-5.5-2.7-15.3,0-20.8
		l16.2-33.9h18V1.8z"/>
	<path fill="#FFFFFF" d="M109.1,88.9l-15.6-33c-2.4-5.2-2.4-14.1,0-19.5l15.6-33h14.7l-14.4,30.5c-3.4,7-3.4,17.7,0,24.7l14.4,30.5
		h-14.7 M106.6,91.9H128c0,0,0-0.3,0-0.9l-16.2-33.9c-2.7-6.1-2.7-15.9,0-22L128,0.9c0-0.3,0-0.9,0-0.9l-21.4,0c0,0,0,0.3,0,0.9
		L90.4,34.8c-2.7,6.1-2.7,15.9,0,22L106.6,91C106.6,91.6,106.6,91.9,106.6,91.9L106.6,91.9z"/>
</g>
<g opacity="0.2">
	<path fill="#FFFFFF" d="M147.6,1.8l-11.9,32.4c-2.4,6.7-2.4,17.4,0,23.8l11.9,32.4h-13.4l-12.5-33.3c-2.1-5.8-2.1-15.9,0-21.7
		l12.5-33.3h13.4V1.8z"/>
	<path fill="#FFFFFF" d="M135,88.9l-12.2-32.4c-2.1-5.5-2.1-15.3,0-20.8L135,3.4h10.4l-11.3,30.2c-2.7,7-2.7,18,0,25l11.3,30.2H135
		 M132.6,91.9h16.8c0,0,0-0.3,0-0.9l-12.5-33.6c-2.4-6.4-2.4-16.5,0-22.9l12.5-33.6c0-0.3,0-0.9,0-0.9l-16.8,0c0,0,0,0.3,0,0.9
		l-12.5,33.6c-2.4,6.4-2.4,16.5,0,22.9L132.6,91C132.6,91.6,132.6,91.9,132.6,91.9L132.6,91.9z"/>
</g>
</svg>
