<?xml version="1.0" encoding="utf-8"?>
<!-- Generator: Adobe Illustrator 18.1.0, SVG Export Plug-In . SVG Version: 6.00 Build 0)  -->
<svg version="1.1" id="Слой_1" xmlns="http://www.w3.org/2000/svg" xmlns:xlink="http://www.w3.org/1999/xlink" x="0px" y="0px"
	 viewBox="0 0 157.4 91.9" enable-background="new 0 0 157.4 91.9" xml:space="preserve">
<g>
	<path fill="#50A596" d="M94.3,91.6l23-34.4c4-6.3,4-16.4,0-22.7L94.3,0h27.3l24.2,36.3c3.4,5.1,3.4,13.9,0,19.3l-24.2,36.3H94.3
		V91.6z"/>
	<path fill="#50A596" d="M120.7,1.6l23.6,35.7c3.1,4.7,3.1,12.6,0,17.4L120.7,90H97.1l21.4-31.9c4.7-7,4.7-17.7,0-24.3L97.1,1.6
		H120.7"/>
</g>
<g>
	<path fill="#FFFFFF" d="M88,90.1l22.6-33.3c4-6.1,4-15.9,0-22L88,1.5h26.9l23.8,35.1c3.4,4.9,3.4,13.4,0,18.6l-23.8,35.1H88V90.1z"
		/>
	<path fill="#FFFFFF" d="M113.9,3.1l23.2,34.5c3.1,4.6,3.1,12.2,0,16.8l-23.2,34.2H90.7l21.1-30.9c4.6-6.7,4.6-17.1,0-23.5L90.7,3.1
		H113.9 M116.1,0H85.5c0,0,0,0.3,0,0.9l23.8,34.8c3.7,5.5,3.7,14.7,0,20.2L85.5,91c0,0.3,0,0.9,0,0.9h30.5c0,0,0-0.3,0-0.9
		l23.8-34.8c3.7-5.5,3.7-14.7,0-20.2L116.1,0.9C116.1,0.3,116.1,0,116.1,0L116.1,0z"/>
</g>
<g opacity="0.6">
	<path fill="#FFFFFF" d="M54.1,90.1l18.9-33c3.7-6.1,3.7-16.5,0-22.6l-18.9-33h22.3L96.2,36c3.1,5.2,3.1,14.4,0,19.5L76.4,90.1H54.1
		z"/>
	<path fill="#FFFFFF" d="M75.8,3.1l19.5,33.6c2.7,4.9,2.7,13.1,0,18L75.8,88.3H56.8l17.7-30.5c4-6.7,4-17.4,0-24.1L56.8,3.1
		L75.8,3.1 M77.9,0h-26c0,0,0,0.3,0,0.9l19.9,34.5c3.4,5.8,3.4,15.3,0,21.1L51.9,91c0,0.3,0,0.9,0,0.9h26c0,0,0-0.3,0-0.9l19.9-34.5
		c3.4-5.8,3.4-15.3,0-21.1L77.9,0.9C77.9,0.3,77.9,0,77.9,0L77.9,0z"/>
</g>
<g opacity="0.4">
	<path fill="#FFFFFF" d="M23.5,90.1l15.6-32.7c3.1-6.4,3.1-16.8,0-23.5L23.5,1.2h18l16.2,33.9c2.7,5.5,2.7,15.3,0,20.8L41.5,89.8
		h-18V90.1z"/>
	<path fill="#FFFFFF" d="M40.3,3.1l15.6,33c2.4,5.2,2.4,14.1,0,19.5l-15.6,33H25.7L40,58c3.4-7,3.4-17.7,0-24.7L25.7,2.7h14.7
		 M42.8,0H21.4c0,0,0,0.3,0,0.9l16.2,33.9c2.7,6.1,2.7,15.9,0,22L21.4,91c0,0.3,0,0.9,0,0.9h21.4c0,0,0-0.3,0-0.9L59,57.1
		c2.7-6.1,2.7-15.9,0-22L42.8,0.9C42.8,0.3,42.8,0,42.8,0L42.8,0z"/>
</g>
<g opacity="0.2">
	<path fill="#FFFFFF" d="M1.8,90.1l11.9-32.4c2.4-6.7,2.4-17.4,0-23.8L1.8,1.5h13.4l12.5,33.3c2.1,5.8,2.1,15.9,0,21.7L15.3,89.8
		H1.8V90.1z"/>
	<path fill="#FFFFFF" d="M14.4,3.1l12.2,32.4c2.1,5.5,2.1,15.3,0,20.8L14.4,88.6H4l11.3-30.2c2.7-7,2.7-18,0-25L4,3.1H14.4 M16.8,0
		H0c0,0,0,0.3,0,0.9l12.5,33.6c2.4,6.4,2.4,16.5,0,22.9L0,91c0,0.3,0,0.9,0,0.9h16.8c0,0,0-0.3,0-0.9l12.5-33.6
		c2.4-6.4,2.4-16.5,0-22.9L16.8,0.9C16.8,0.3,16.8,0,16.8,0L16.8,0z"/>
</g>
</svg>
