<?xml version="1.0" encoding="utf-8"?>
<!-- Generator: Adobe Illustrator 18.1.0, SVG Export Plug-In . SVG Version: 6.00 Build 0)  -->
<svg version="1.1" id="Слой_1" xmlns="http://www.w3.org/2000/svg" xmlns:xlink="http://www.w3.org/1999/xlink" x="0px" y="0px"
	 viewBox="0 0 190.8 40" enable-background="new 0 0 190.8 40" xml:space="preserve">
<g>
	<path fill="#17191D" d="M9.3,34.5L1.5,23c-1.1-1.6-1.1-4.4,0-6.1L9.3,5.5h8.8l-7.4,10.9c-1.3,2-1.3,5.2,0,7.2l7.4,10.9H9.3z"/>
	<path fill="#FFFFFF" d="M17.1,6l-6.9,10.1c-1.5,2.2-1.5,5.6,0,7.7L17.1,34H9.5L1.9,22.7c-1-1.5-1-4,0-5.5L9.5,6H17.1 M18.8,5h-10
		c0,0,0,0.1,0,0.2L1.1,16.7c-1.2,1.8-1.2,4.8,0,6.6l7.8,11.4c0,0.1,0,0.2,0,0.2h10c0,0,0-0.1,0-0.2l-7.8-11.4
		c-1.2-1.8-1.2-4.8,0-6.6l7.8-11.4C18.8,5.1,18.8,5,18.8,5L18.8,5z"/>
</g>
<g>
	<path fill="#17191D" d="M11.6,0l177.5,0c1,0,1.8,0.9,1.8,2v36c0,1.1-0.8,2-1.8,2H11.6c-1,0-1.8-0.9-1.8-2V2C9.8,0.9,10.6,0,11.6,0z
		"/>
</g>
<g>
	<path fill="#FFFFFF" d="M12.3,34.5L4.5,23c-1.1-1.6-1.1-4.4,0-6.1l7.8-11.5h8.8l-7.4,10.9c-1.3,2-1.3,5.2,0,7.2l7.4,10.9H12.3z"/>
	<path fill="#FFFFFF" d="M20.1,6l-6.9,10.1c-1.5,2.2-1.5,5.6,0,7.7L20.1,34h-7.6L4.9,22.7c-1-1.5-1-4,0-5.5L12.5,6H20.1 M21.8,5h-10
		c0,0,0,0.1,0,0.2L4.1,16.7c-1.2,1.8-1.2,4.8,0,6.6l7.8,11.4c0,0.1,0,0.2,0,0.2h10c0,0,0-0.1,0-0.2l-7.8-11.4
		c-1.2-1.8-1.2-4.8,0-6.6l7.8-11.4C21.8,5.1,21.8,5,21.8,5L21.8,5z"/>
</g>
<g opacity="0.6">
	<path fill="#FFFFFF" d="M24.8,34.5l-6.5-11.3c-1-1.7-1-4.7,0-6.4l6.5-11.3h7.3l-6.2,10.8c-1.2,2-1.2,5.4,0,7.4l6.2,10.8H24.8z"/>
	<path fill="#FFFFFF" d="M31.2,6l-5.8,10c-1.3,2.2-1.3,5.7,0,7.9l5.8,10h-6.2l-6.4-11c-0.9-1.6-0.9-4.3,0-5.9l6.4-11H31.2 M32.8,5
		h-8.5c0,0,0,0.1,0,0.2l-6.5,11.3c-1.1,1.9-1.1,5,0,6.9l6.5,11.3c0,0.1,0,0.2,0,0.2h8.5c0,0,0-0.1,0-0.2l-6.5-11.3
		c-1.1-1.9-1.1-5,0-6.9l6.5-11.3C32.8,5.1,32.8,5,32.8,5L32.8,5z"/>
</g>
<g opacity="0.4">
	<path fill="#FFFFFF" d="M36.3,34.5L31,23.4c-0.9-1.8-0.9-5,0-6.8l5.3-11.1h5.9l-5.1,10.7c-1,2.1-1,5.5,0,7.7l5.1,10.7H36.3z"/>
	<path fill="#FFFFFF" d="M41.4,6l-4.7,10c-1.1,2.3-1.1,5.8,0,8.1l4.7,10h-4.8l-5.1-10.8c-0.8-1.7-0.8-4.6,0-6.4L36.6,6H41.4 M42.8,5
		h-7c0,0,0,0.1,0,0.2l-5.3,11.1c-0.9,2-0.9,5.2,0,7.2l5.3,11.1c0,0.1,0,0.2,0,0.2h7c0,0,0-0.1,0-0.2l-5.3-11.1c-0.9-2-0.9-5.2,0-7.2
		l5.3-11.1C42.8,5.1,42.8,5,42.8,5L42.8,5z"/>
</g>
<g opacity="0.2">
	<path fill="#FFFFFF" d="M44.8,34.5l-4.1-10.9c-0.7-1.9-0.7-5.2,0-7.1l4.1-10.9h4.4l-3.9,10.6c-0.8,2.2-0.8,5.7,0,7.8l3.9,10.6H44.8
		z"/>
	<path fill="#FFFFFF" d="M48.5,6l-3.7,9.9c-0.9,2.3-0.9,5.9,0,8.2l3.7,9.9h-3.4l-4-10.6c-0.7-1.8-0.7-5,0-6.8l4-10.6H48.5 M49.8,5
		h-5.5c0,0,0,0.1,0,0.2l-4.1,11c-0.8,2.1-0.8,5.4,0,7.5l4.1,11c0,0.1,0,0.2,0,0.2h5.5c0,0,0-0.1,0-0.2l-4.1-11
		c-0.8-2.1-0.8-5.4,0-7.5l4.1-11C49.8,5.1,49.8,5,49.8,5L49.8,5z"/>
</g>
</svg>
