<?xml version="1.0" encoding="utf-8"?>
<!-- Generator: Adobe Illustrator 18.1.1, SVG Export Plug-In . SVG Version: 6.00 Build 0)  -->
<svg version="1.1" id="Layer_1" xmlns="http://www.w3.org/2000/svg" xmlns:xlink="http://www.w3.org/1999/xlink" x="0px" y="0px"
	 viewBox="0 0 30 40.4" enable-background="new 0 0 30 40.4" xml:space="preserve">
<g>
	<polygon opacity="0.5" fill="#00A99D" points="2.5,40 5,37 7.5,40 10,37 12.5,40 15,37 17.5,40 20,37 22.5,40 25,37 27.5,40 30,37 
		30,10 20,0 0,0 0,37 	"/>
	<polygon fill="#00A99D" points="30,10 20,10 20,0 	"/>
	<polygon opacity="0.15" fill="#00A99D" points="20,10 30,10 30,20 	"/>
	<path fill="#00A99D" d="M0,10h5c2.8,0,5,2.2,5,5v0c0,2.8-2.2,5-5,5H0V10z"/>
	<path fill="#00A99D" d="M0,5L0,5c2.8,0,5,2.2,5,5v0c0,2.8-2.2,5-5,5h0V5z"/>
</g>
</svg>
