<?xml version="1.0" encoding="utf-8"?>
<!-- Generator: Adobe Illustrator 18.1.0, SVG Export Plug-In . SVG Version: 6.00 Build 0)  -->
<svg version="1.1" xmlns="http://www.w3.org/2000/svg" xmlns:xlink="http://www.w3.org/1999/xlink" x="0px" y="0px"
	 viewBox="0 0 40.9 55.2" enable-background="new 0 0 40.9 55.2" xml:space="preserve">
<g id="Слой_2" display="none">
</g>
<g id="Слой_1">
	<g>
		<g>
			<g>
				<path fill="#00A99D" d="M10.9,44.2c0.2,1.8,0.2,3.5,0.1,5.4c-0.3,7.9-0.8,1.1-0.3-1.3c0.4-1.3,0.9-2.6,1.6-3.7
					c0.6-2.1,1.8-2.7,3.4-1.9c-0.8,1.1-1.6,2.1-2.4,3.2c2-1.2,2.7-1,2,0.7c-0.1,0.3,0.4,0.7,0.6,0.4c0.7-0.8,1.4-1.6,2.1-2.5
					c0.6-0.7,1.5-2.9,0.8-0.9c-0.1,0.3,0.3,0.6,0.6,0.4c6.7-5,13.8-9.4,21.3-13.3c0.4-0.2,0-0.9-0.4-0.6c-3.7,1.9-7.4,4-11,6.2
					c-2,1.3-4,2.6-6,3.9c-0.9,0.6-3.8,3.8-3.1,1.6c0.1-0.3-0.4-0.7-0.6-0.4c-0.7,0.8-1.4,1.6-2.1,2.5c-1,1.2-1.4,2.5-0.9,0.4
					c0.1-0.3-0.2-0.6-0.5-0.5c-2.1,0.7-3.3,1.6-4,3.7c-0.1,0.4,0.4,0.6,0.7,0.3c1.4-1.9,5.9-5.5,3.5-7.9c-0.1-0.1-0.3-0.2-0.5-0.1
					c-4.9,3.7-7.3,9.1-5.7,15.1c0.1,0.3,0.6,0.4,0.7,0c0.8-3.6,1-7.1,0.7-10.8C11.6,43.7,10.9,43.7,10.9,44.2L10.9,44.2z"/>
			</g>
		</g>
		<g>
			<g>
				<path fill="#00A99D" d="M14.6,51.2c2.3-2.4,4.9-4.7,7.6-6.6c0.4-0.3,0-0.9-0.4-0.6c-2.8,2-5.4,4.3-7.7,6.8
					C13.7,51.1,14.2,51.6,14.6,51.2L14.6,51.2z"/>
			</g>
		</g>
		<path fill="#00A99D" d="M28.8,22.7l3.5-7.1l0.2-0.4l-0.2,0.2l-3.5,2.3l3-6c-0.1-0.3-0.1-0.6-0.2-0.9l-2.9,1.9L31,8.2
			c-0.2-0.6-0.3-1.1-0.5-1.7l-1.7,1.1L30,5.3c-0.4-0.9-0.8-1.8-1.3-2.5l-2.2,1.4l0.8-3.1C27.2,1,27.1,1,27,0.9l-2,2.6l-2-2.6
			C22.9,1,22.8,1,22.7,1.1l0.8,3.1l-2.2-1.4c-0.5,0.7-0.9,1.5-1.3,2.5l1.2,2.4l-1.7-1.1c-0.2,0.5-0.4,1.1-0.5,1.7l2.2,4.5l-2.9-1.9
			c-0.1,0.3-0.1,0.6-0.2,0.9l3,6l-3.5-2.3l-0.2-0.2l0.2,0.4l3.5,7.1l-3.8-2.5l3.8,7.5l-3.5-2.3l-0.3-0.2l0.3,0.6L25,40.2l7.2-14.4
			l0.3-0.6l-0.3,0.2l-3.5,2.3l3.8-7.5L28.8,22.7z"/>
		<path opacity="0.15" fill="#00A99D" d="M23.7,19.6c-0.4,0.5-1.2,0.2-1.1-0.4l0.8-5.6l0.1-0.5l-0.2,0.2l-1.2,1.6
			c-0.4,0.5-1.2,0.2-1.1-0.4l0.5-3.8c-0.6-0.2-0.5-0.2-1.1-0.4l0,0c-0.4,0.5-1.2,0.2-1.1-0.4l0.3-2.5c0-0.2,0-0.3-0.1-0.4
			c-0.1-0.2-0.3-0.4-0.4-0.6c-0.2-0.3-0.7-0.3-1,0l-0.8,1l0.3-2.4c0-0.2,0-0.4-0.2-0.5c-0.5-0.5-0.9-1-1.4-1.3
			C16,2.7,15.6,2.7,15.4,3l-1.2,1.6l-0.3-3.1c-0.1,0-0.2-0.1-0.4-0.1l-0.8,2.4c-0.1,0.4-0.6,0.5-0.9,0.3l-2-1.4
			C9.8,2.7,9.7,2.8,9.7,2.9l1.7,2.7L9.4,5C9.1,4.9,8.8,5.1,8.7,5.5C8.6,6.1,8.5,6.7,8.4,7.4c0,0.2,0.1,0.4,0.2,0.5l1.7,1.7L9.1,9.3
			C8.7,9.1,8.4,9.4,8.4,9.8c0,0.2,0,0.5,0,0.7c0,0.2,0.1,0.3,0.2,0.4l1.8,1.8c0.4,0.4,0,1.2-0.6,1l0,0c-0.3,0.5-0.3,0.5-0.6,1
			l2.8,2.7c0.4,0.4,0,1.2-0.6,1L9.5,18l-0.3-0.1l0.3,0.3l4,4c0.4,0.4,0,1.2-0.6,1l0,0c-0.6-0.2-1,0.6-0.6,1l2.8,2.7
			c0.4,0.4,0,1.2-0.6,1l-1.9-0.5l-0.3-0.1l0.5,0.5l10.6,10.5c0.4,0.3,0.9,0.1,1-0.3l2-14.8l0.1-0.7l-0.2,0.3l-1.2,1.5
			c-0.4,0.5-1.2,0.2-1.1-0.4l0.5-3.8C24.8,19.4,24,19.1,23.7,19.6L23.7,19.6z"/>
		<path opacity="0.25" fill="#FFFFFF" d="M26.2,24.6l1.2-6.3l0.1-0.4l-0.1,0.1l-1.2,2.1l1-5.4c0-0.3,0-0.5-0.1-0.8l-1,1.7l0.7-4
			c-0.1-0.5-0.1-1-0.2-1.5l-0.6,1l0.4-2.2c-0.1-0.8-0.3-1.6-0.4-2.2l-0.7,1.3l0.3-2.7c0-0.1-0.1-0.1-0.1-0.2L25,7.5l-0.7-2.3
			c0,0.1-0.1,0.1-0.1,0.2l0.3,2.7l-0.7-1.3c-0.2,0.6-0.3,1.4-0.4,2.2l0.4,2.2l-0.6-1c-0.1,0.5-0.1,1-0.2,1.5l0.7,4l-1-1.7
			c0,0.3,0,0.5-0.1,0.8l1,5.4l-1.2-2.1l-0.1-0.1l0.1,0.4l1.2,6.3l-1.2-2.2l1.2,6.7L22.6,27l-0.1-0.2l0.1,0.5L25,40.2l2.4-12.8
			l0.1-0.5L27.4,27l-1.2,2.1l1.2-6.7L26.2,24.6z"/>
		<path opacity="0.25" fill="#FFFFFF" d="M25.2,22.3l0.2-7.3l0-0.4l0,0.2l-0.2,2.4l0.2-6.2c0-0.3,0-0.6,0-0.9l-0.2,2l0.1-4.6
			c0-0.6,0-1.2,0-1.7l-0.1,1.2l0.1-2.5c0-1-0.1-1.8-0.1-2.6l-0.1,1.5l0.1-3.1c0-0.1,0-0.1,0-0.2L25,2.7L24.9,0c0,0.1,0,0.1,0,0.2
			l0.1,3.1l-0.1-1.5c0,0.7-0.1,1.6-0.1,2.6l0.1,2.5l-0.1-1.2c0,0.5,0,1.1,0,1.7l0.1,4.6l-0.2-2c0,0.3,0,0.6,0,0.9l0.2,6.2l-0.2-2.4
			l0-0.2l0,0.4l0.2,7.3l-0.2-2.6l0.2,7.7L24.5,25l0-0.2l0,0.6L25,40.2l0.5-14.7l0-0.6l0,0.2l-0.2,2.4l0.2-7.7L25.2,22.3z"/>
		<g>
			<circle fill="none" stroke="#00A99D" stroke-miterlimit="10" cx="8" cy="32.7" r="2.5"/>
			<g>
				
					<circle fill="none" stroke="#00A99D" stroke-linecap="round" stroke-miterlimit="10" stroke-dasharray="0,2.0166" cx="8" cy="32.7" r="4.5"/>
			</g>
			<circle fill="none" stroke="#00A99D" stroke-miterlimit="10" cx="8" cy="32.7" r="6"/>
			<circle fill="none" stroke="#00A99D" stroke-miterlimit="10" cx="8" cy="32.7" r="7.5"/>
		</g>
	</g>
</g>
</svg>
