<?xml version="1.0" encoding="utf-8"?>
<!-- Generator: Adobe Illustrator 18.1.0, SVG Export Plug-In . SVG Version: 6.00 Build 0)  -->
<svg version="1.1" id="Слой_1" xmlns="http://www.w3.org/2000/svg" xmlns:xlink="http://www.w3.org/1999/xlink" x="0px" y="0px"
	 viewBox="0 0 40 40" enable-background="new 0 0 40 40" xml:space="preserve">
<g>
	<path opacity="0.5" fill="#50A596" d="M15,0L0,15v10h5c0,2.8,2.2,5,5,5s5-2.2,5-5h10c0,2.8,2.2,5,5,5s5-2.2,5-5h5V0H15z"/>
	<path fill="#50A596" d="M0,15h12c1.7,0,3-1.3,3-3V0L0,15z"/>
	<path fill="#50A596" d="M2.5,22.5H0v-5h2.5C3.9,17.5,5,18.6,5,20v0C5,21.4,3.9,22.5,2.5,22.5z"/>
	<path opacity="0.25" fill="#50A596" d="M35.5,35H4.5C2,35,0,37,0,39.5V40h40v-0.5C40,37,38,35,35.5,35z"/>
</g>
</svg>
