<?xml version="1.0" encoding="utf-8"?>
<!-- Generator: Adobe Illustrator 18.1.1, SVG Export Plug-In . SVG Version: 6.00 Build 0)  -->
<svg version="1.1" id="Layer_1" xmlns="http://www.w3.org/2000/svg" xmlns:xlink="http://www.w3.org/1999/xlink" x="0px" y="0px"
	 viewBox="0 0 40 40" enable-background="new 0 0 40 40" xml:space="preserve">
<g>
	<path fill="#EB0029" d="M27.8,38.4C25.3,39.5,22.7,40,20,40s-5.3-0.5-7.8-1.6c-2.5-1.1-4.6-2.5-6.4-4.3c-1.8-1.8-3.2-3.9-4.3-6.4
		C0.5,25.3,0,22.7,0,20s0.5-5.3,1.6-7.8c1.1-2.5,2.5-4.6,4.3-6.4c1.8-1.8,3.9-3.2,6.4-4.3S17.3,0,20,0s5.3,0.5,7.8,1.6
		c2.5,1.1,4.6,2.5,6.4,4.3c1.8,1.8,3.2,3.9,4.3,6.4c1.1,2.5,1.6,5.1,1.6,7.8s-0.5,5.3-1.6,7.8c-1.1,2.5-2.5,4.6-4.3,6.4
		C32.4,35.9,30.2,37.4,27.8,38.4z M29.6,13.8c0.2-0.3,0.4-0.6,0.4-0.9c0-0.3-0.1-0.6-0.4-0.9l-1.7-1.7c-0.3-0.2-0.6-0.4-0.9-0.4
		c-0.3,0-0.6,0.1-0.9,0.4L20,16.6l-6.2-6.2c-0.2-0.2-0.5-0.4-0.9-0.4c-0.3,0-0.6,0.1-0.9,0.4l-1.7,1.7c-0.2,0.2-0.4,0.5-0.4,0.9
		c0,0.3,0.1,0.6,0.4,0.9l6.2,6.2l-6.2,6.2c-0.2,0.3-0.4,0.6-0.4,0.9c0,0.3,0.1,0.6,0.4,0.9l1.7,1.7c0.2,0.2,0.5,0.4,0.9,0.4
		c0.3,0,0.6-0.1,0.9-0.4l6.2-6.2l6.2,6.2c0.3,0.2,0.6,0.4,0.9,0.4c0.3,0,0.6-0.1,0.9-0.4l1.7-1.7c0.2-0.2,0.4-0.5,0.4-0.9
		c0-0.3-0.1-0.6-0.4-0.9L23.4,20L29.6,13.8z"/>
</g>
</svg>
