<?xml version="1.0" encoding="utf-8"?>
<!-- Generator: Adobe Illustrator 18.1.1, SVG Export Plug-In . SVG Version: 6.00 Build 0)  -->
<svg version="1.1" id="Layer_1" xmlns="http://www.w3.org/2000/svg" xmlns:xlink="http://www.w3.org/1999/xlink" x="0px" y="0px"
	 viewBox="0 0 330 40" enable-background="new 0 0 330 40" xml:space="preserve">
<g>
	<path fill="#00A99D" d="M310.8,34.5l7.4-10.9c1.3-2,1.3-5.2,0-7.2l-7.4-10.9h8.8l7.8,11.5c1.1,1.6,1.1,4.4,0,6.1l-7.8,11.5H310.8z"
		/>
	<path fill="#FFFFFF" d="M319.3,6l7.6,11.3c1,1.5,1,4,0,5.5L319.3,34h-7.6l6.9-10.1c1.5-2.2,1.5-5.6,0-7.7L311.7,6H319.3 M320,5h-10
		c0,0,0,0.1,0,0.3l7.8,11.4c1.2,1.8,1.2,4.8,0,6.6L310,34.8c0,0.1,0,0.3,0,0.3h10c0,0,0-0.1,0-0.3l7.8-11.4c1.2-1.8,1.2-4.8,0-6.6
		L320,5.3C320,5.1,320,5,320,5L320,5z"/>
</g>
<g>
	<path fill="#00A99D" d="M316.3,40H2.7C1.2,40,0,39.1,0,38V2c0-1.1,1.2-2,2.7-2h313.5c1.5,0,2.7,0.9,2.7,2v36
		C319,39.1,317.8,40,316.3,40z"/>
</g>
<g>
	<path fill="#FFFFFF" d="M307.8,34.5l7.4-10.9c1.3-2,1.3-5.2,0-7.2l-7.4-10.9h8.8l7.8,11.5c1.1,1.6,1.1,4.4,0,6.1l-7.8,11.5H307.8z"
		/>
	<path fill="#FFFFFF" d="M316.3,6l7.6,11.3c1,1.5,1,4,0,5.5L316.3,34h-7.6l6.9-10.1c1.5-2.2,1.5-5.6,0-7.7L308.7,6H316.3 M317,5h-10
		c0,0,0,0.1,0,0.3l7.8,11.4c1.2,1.8,1.2,4.8,0,6.6L307,34.8c0,0.1,0,0.3,0,0.3h10c0,0,0-0.1,0-0.3l7.8-11.4c1.2-1.8,1.2-4.8,0-6.6
		L317,5.3C317,5.1,317,5,317,5L317,5z"/>
</g>
<g opacity="0.6">
	<path fill="#FFFFFF" d="M296.7,34.5l6.2-10.8c1.2-2,1.2-5.4,0-7.4l-6.2-10.8h7.3l6.5,11.3c1,1.7,1,4.7,0,6.4l-6.5,11.3H296.7z"/>
	<path fill="#FFFFFF" d="M303.8,6l6.4,11c0.9,1.6,0.9,4.3,0,5.9l-6.4,11h-6.2l5.8-10c1.3-2.2,1.3-5.7,0-7.9l-5.8-10H303.8 M304.5,5
		H296c0,0,0,0.1,0,0.3l6.5,11.3c1.1,1.9,1.1,5,0,6.9L296,34.8c0,0.1,0,0.3,0,0.3h8.5c0,0,0-0.1,0-0.3l6.5-11.3c1.1-1.9,1.1-5,0-6.9
		l-6.5-11.3C304.5,5.1,304.5,5,304.5,5L304.5,5z"/>
</g>
<g opacity="0.4">
	<path fill="#FFFFFF" d="M286.7,34.5l5.1-10.7c1-2.1,1-5.5,0-7.7l-5.1-10.7h5.9l5.3,11.1c0.9,1.8,0.9,5,0,6.8l-5.3,11.1H286.7z"/>
	<path fill="#FFFFFF" d="M292.2,6l5.1,10.8c0.8,1.7,0.8,4.6,0,6.4L292.2,34h-4.8l4.7-10c1.1-2.3,1.1-5.8,0-8.1l-4.7-10H292.2 M293,5
		h-7c0,0,0,0.1,0,0.3l5.3,11.1c0.9,2,0.9,5.2,0,7.2L286,34.8c0,0.1,0,0.3,0,0.3h7c0,0,0-0.1,0-0.3l5.3-11.1c0.9-2,0.9-5.2,0-7.2
		L293,5.3C293,5.1,293,5,293,5L293,5z"/>
</g>
<g opacity="0.2">
	<path fill="#FFFFFF" d="M279.6,34.5l3.9-10.6c0.8-2.2,0.8-5.7,0-7.8l-3.9-10.6h4.4l4.1,10.9c0.7,1.9,0.7,5.2,0,7.1l-4.1,10.9H279.6
		z"/>
	<path fill="#FFFFFF" d="M283.7,6l4,10.6c0.7,1.8,0.7,5,0,6.8l-4,10.6h-3.4l3.7-9.9c0.9-2.3,0.9-5.9,0-8.2L280.3,6H283.7 M284.5,5
		H279c0,0,0,0.1,0,0.3l4.1,11c0.8,2.1,0.8,5.4,0,7.5l-4.1,11c0,0.1,0,0.3,0,0.3h5.5c0,0,0-0.1,0-0.3l4.1-11c0.8-2.1,0.8-5.4,0-7.5
		l-4.1-11C284.5,5.1,284.5,5,284.5,5L284.5,5z"/>
</g>
</svg>
