<?xml version="1.0" encoding="utf-8"?>
<!-- Generator: Adobe Illustrator 18.1.0, SVG Export Plug-In . SVG Version: 6.00 Build 0)  -->
<svg version="1.1" id="Слой_1" xmlns="http://www.w3.org/2000/svg" xmlns:xlink="http://www.w3.org/1999/xlink" x="0px" y="0px"
	 viewBox="0 0 20 20" enable-background="new 0 0 20 20" xml:space="preserve">
<g>
	<path fill="#50A596" d="M10,1c5,0,9,4,9,9s-4,9-9,9s-9-4-9-9S5,1,10,1 M10,0C4.5,0,0,4.5,0,10s4.5,10,10,10s10-4.5,10-10
		S15.5,0,10,0L10,0z"/>
</g>
<g>
	<path fill="#50A596" d="M10.1,11.9H9.2V9.7c0.4-0.2,0.8-0.4,1.1-0.6s0.5-0.5,0.7-0.7c0.2-0.3,0.3-0.5,0.4-0.8
		c0.1-0.3,0.1-0.6,0.1-0.9c0-0.3,0-0.5-0.1-0.7c-0.1-0.2-0.2-0.4-0.3-0.5c-0.1-0.1-0.3-0.3-0.5-0.3C10.4,5,10.2,5,9.9,5
		C9.6,5,9.3,5,9.1,5.1C8.9,5.2,8.7,5.3,8.6,5.5S8.4,5.9,8.3,6.1C8.3,6.3,8.2,6.6,8.2,6.8c-0.2,0-0.3,0-0.5-0.1
		c-0.1,0-0.3-0.1-0.4-0.2C7.3,6.5,7.2,6.4,7.1,6.3C7,6.2,7,6,7,5.9c0-0.2,0.1-0.5,0.2-0.7C7.3,5,7.4,4.8,7.7,4.7s0.5-0.3,0.9-0.3
		c0.3-0.1,0.8-0.1,1.2-0.1c0.5,0,0.9,0.1,1.3,0.2s0.7,0.3,1,0.5s0.5,0.5,0.7,0.8C12.9,6.1,13,6.5,13,6.9c0,0.4-0.1,0.8-0.2,1.1
		c-0.1,0.3-0.3,0.6-0.6,0.9c-0.2,0.3-0.5,0.5-0.9,0.7c-0.4,0.2-0.8,0.4-1.2,0.6V11.9z M8.7,14c0-0.2,0-0.4,0.1-0.5
		c0-0.1,0.1-0.2,0.2-0.3s0.2-0.1,0.3-0.2C9.4,13,9.5,13,9.7,13c0.1,0,0.2,0,0.4,0.1c0.1,0,0.2,0.1,0.3,0.2s0.2,0.2,0.2,0.3
		c0.1,0.1,0.1,0.3,0.1,0.5c0,0.2,0,0.3-0.1,0.5c-0.1,0.1-0.1,0.2-0.2,0.3S10.1,14.9,10,15C9.9,15,9.8,15,9.7,15
		c-0.1,0-0.3,0-0.4-0.1c-0.1,0-0.2-0.1-0.3-0.2s-0.2-0.2-0.2-0.3S8.7,14.2,8.7,14z"/>
</g>
</svg>
