<?xml version="1.0" encoding="utf-8"?>
<!-- Generator: Adobe Illustrator 18.1.1, SVG Export Plug-In . SVG Version: 6.00 Build 0)  -->
<svg version="1.1" id="Layer_1" xmlns="http://www.w3.org/2000/svg" xmlns:xlink="http://www.w3.org/1999/xlink" x="0px" y="0px"
	 viewBox="0 0 40 40" enable-background="new 0 0 40 40" xml:space="preserve">
<g>
	<path fill="#00A99D" d="M27.8,38.4C25.3,39.5,22.7,40,20,40c-2.7,0-5.3-0.5-7.8-1.6c-2.5-1.1-4.6-2.5-6.4-4.3
		c-1.8-1.8-3.2-3.9-4.3-6.4C0.5,25.3,0,22.7,0,20s0.5-5.3,1.6-7.8s2.5-4.6,4.3-6.4c1.8-1.8,3.9-3.2,6.4-4.3C14.7,0.5,17.3,0,20,0
		c2.7,0,5.3,0.5,7.8,1.6c2.5,1.1,4.6,2.5,6.4,4.3c1.8,1.8,3.2,3.9,4.3,6.4S40,17.3,40,20s-0.5,5.3-1.6,7.8c-1.1,2.5-2.5,4.6-4.3,6.4
		C32.4,35.9,30.2,37.4,27.8,38.4z M32.5,15.1c0-0.7-0.3-1.3-0.8-1.9s-1.1-0.8-1.9-0.8c-0.7,0-1.3,0.3-1.8,0.8L17.5,23.8l-5.5-5.5
		c-0.5-0.5-1.1-0.8-1.8-0.8c-0.7,0-1.3,0.3-1.9,0.8c-0.5,0.5-0.8,1.1-0.8,1.9s0.3,1.3,0.8,1.8l7.3,7.3c0.5,0.5,1.2,0.8,2,0.8
		c0.8,0,1.4-0.2,1.9-0.8l12.3-12.3C32.2,16.4,32.5,15.8,32.5,15.1z"/>
</g>
</svg>
