<?xml version="1.0" encoding="utf-8"?>
<!-- Generator: Adobe Illustrator 17.1.0, SVG Export Plug-In . SVG Version: 6.00 Build 0)  -->
<!DOCTYPE svg PUBLIC "-//W3C//DTD SVG 1.1//EN" "http://www.w3.org/Graphics/SVG/1.1/DTD/svg11.dtd">
<svg version="1.1" xmlns="http://www.w3.org/2000/svg" xmlns:xlink="http://www.w3.org/1999/xlink" x="0px" y="0px"
	 viewBox="0 0 30 30" enable-background="new 0 0 30 30" xml:space="preserve">
<g id="Слой_2">
</g>
<g id="Слой_1">
	<g>
		<path fill="#457DC0" d="M0,24c0,3.3,2.7,6,6,6h18c3.3,0,6-2.7,6-6V6c0-3.3-2.7-6-6-6H6C2.7,0,0,2.7,0,6V24z"/>
	</g>
	<path fill-rule="evenodd" clip-rule="evenodd" fill="#FFFFFF" d="M9.7,6.9h7.1c2.3,0,4.3,1.1,4.3,3.5c0,1.9-0.7,2.7-2.1,3.5
		c0.1,0.1,0.9,0.3,1.2,0.5c0.4,0.2,0.7,0.4,1,0.7c0.8,0.8,1,1.6,1,2.9c0,3-2.9,4.5-5.7,4.5H9.7L9.7,6.9L9.7,6.9z M13.6,11l0,2
		c1.8,0,3.6,0.2,3.6-1.7c0-1.8-1.9-1.5-3.6-1.5L13.6,11L13.6,11z M13.6,19.6c2,0,4.5,0.3,4.5-2c0-2.4-2.5-1.9-4.5-1.9L13.6,19.6
		L13.6,19.6z"/>
</g>
</svg>
