<?xml version="1.0" encoding="utf-8"?>
<!-- Generator: Adobe Illustrator 18.1.0, SVG Export Plug-In . SVG Version: 6.00 Build 0)  -->
<svg version="1.1" id="Layer_1" xmlns="http://www.w3.org/2000/svg" xmlns:xlink="http://www.w3.org/1999/xlink" x="0px" y="0px"
	 viewBox="0 0 34.1 40.4" enable-background="new 0 0 34.1 40.4" xml:space="preserve">
<g>
	<g>
		<path fill="#EB0029" d="M33,40.4h-32c-0.3,0-0.5-0.1-0.7-0.3C0.1,39.9,0,39.6,0,39.3c0-0.3,0.1-0.5,0.3-0.8
			c0.2-0.2,0.5-0.3,0.7-0.3h3.2c0.6,0,1.1-0.2,1.5-0.6c0.4-0.4,0.6-0.9,0.6-1.5L5.3,16.8L4.3,2.5C4.3,2,4.5,1.5,4.9,1
			c0.4-0.4,0.9-0.6,1.5-0.6h21.3c0.6,0,1.1,0.2,1.5,0.6c0.4,0.4,0.6,0.9,0.6,1.5L28.8,17l-1.1,19.1c0,0.6,0.2,1.1,0.6,1.5
			c0.4,0.4,0.9,0.6,1.5,0.6H33c0.3,0,0.5,0.1,0.7,0.3c0.2,0.2,0.3,0.5,0.3,0.8c0,0.3-0.1,0.5-0.3,0.8C33.6,40.3,33.3,40.4,33,40.4z
			 M25,2.9H9.2C8.6,2.9,8,3.1,7.6,3.6c-0.5,0.5-0.7,1-0.7,1.7l0.6,10.1c0,0.6,0.2,1.2,0.7,1.7c0.5,0.5,1,0.7,1.7,0.7h14.3
			c0.6,0,1.2-0.2,1.7-0.7c0.5-0.5,0.7-1,0.7-1.7l0.8-10.1c0-0.6-0.2-1.2-0.7-1.7C26.2,3.1,25.6,2.9,25,2.9z"/>
	</g>
	<g>
		<path fill="#EB0029" d="M12.3,7.8h-2.1c-0.1,0-0.2,0-0.3-0.1C9.8,7.6,9.8,7.5,9.8,7.4V5.2c0-0.1,0-0.2,0.1-0.3
			c0.1-0.1,0.2-0.1,0.3-0.1h2.1c0.1,0,0.2,0,0.3,0.1c0.1,0.1,0.1,0.2,0.1,0.3v2.1c0,0.1,0,0.2-0.1,0.3C12.6,7.7,12.5,7.8,12.3,7.8z
			 M12.3,11.6h-2.1c-0.1,0-0.2,0-0.3-0.1c-0.1-0.1-0.1-0.2-0.1-0.3V9.1c0-0.1,0-0.2,0.1-0.3c0.1-0.1,0.2-0.1,0.3-0.1h2.1
			c0.1,0,0.2,0,0.3,0.1c0.1,0.1,0.1,0.2,0.1,0.3v2.1c0,0.1,0,0.2-0.1,0.3C12.6,11.6,12.5,11.6,12.3,11.6z M11.9,5.9
			c0-0.1,0-0.1-0.1-0.2c0,0-0.1-0.1-0.2-0.1h-0.9c-0.1,0-0.1,0-0.2,0.1c0,0-0.1,0.1-0.1,0.2v0.9c0,0.1,0,0.1,0.1,0.2
			c0,0,0.1,0.1,0.2,0.1h0.9c0.1,0,0.1,0,0.2-0.1c0,0,0.1-0.1,0.1-0.2V5.9z M11.9,9.7c0-0.1,0-0.1-0.1-0.2c0,0-0.1-0.1-0.2-0.1h-0.9
			c-0.1,0-0.1,0-0.2,0.1c0,0-0.1,0.1-0.1,0.2v0.9c0,0.1,0,0.1,0.1,0.2c0,0,0.1,0.1,0.2,0.1h0.9c0.1,0,0.1,0,0.2-0.1
			c0,0,0.1-0.1,0.1-0.2V9.7z M16.2,7.8h-2.1c-0.1,0-0.2,0-0.3-0.1c-0.1-0.1-0.1-0.2-0.1-0.3V5.2c0-0.1,0-0.2,0.1-0.3
			c0.1-0.1,0.2-0.1,0.3-0.1h2.1c0.1,0,0.2,0,0.3,0.1c0.1,0.1,0.1,0.2,0.1,0.3v2.1c0,0.1,0,0.2-0.1,0.3C16.4,7.7,16.3,7.8,16.2,7.8z
			 M16.2,11.6h-2.1c-0.1,0-0.2,0-0.3-0.1c-0.1-0.1-0.1-0.2-0.1-0.3V9.1c0-0.1,0-0.2,0.1-0.3c0.1-0.1,0.2-0.1,0.3-0.1h2.1
			c0.1,0,0.2,0,0.3,0.1c0.1,0.1,0.1,0.2,0.1,0.3v2.1c0,0.1,0,0.2-0.1,0.3C16.4,11.6,16.3,11.6,16.2,11.6z M15.8,5.9
			c0-0.1,0-0.1-0.1-0.2c0,0-0.1-0.1-0.2-0.1h-0.9c-0.1,0-0.1,0-0.2,0.1c0,0-0.1,0.1-0.1,0.2v0.9c0,0.1,0,0.1,0.1,0.2
			c0,0,0.1,0.1,0.2,0.1h0.9c0.1,0,0.1,0,0.2-0.1c0,0,0.1-0.1,0.1-0.2V5.9z M15.8,9.7c0-0.1,0-0.1-0.1-0.2c0,0-0.1-0.1-0.2-0.1h-0.9
			c-0.1,0-0.1,0-0.2,0.1c0,0-0.1,0.1-0.1,0.2v0.9c0,0.1,0,0.1,0.1,0.2c0,0,0.1,0.1,0.2,0.1h0.9c0.1,0,0.1,0,0.2-0.1
			c0,0,0.1-0.1,0.1-0.2V9.7z"/>
	</g>
	<g>
		<path fill="#EB0029" d="M20.1,7.8h-2.1c-0.1,0-0.2,0-0.3-0.1c-0.1-0.1-0.1-0.2-0.1-0.3V5.2c0-0.1,0-0.2,0.1-0.3
			c0.1-0.1,0.2-0.1,0.3-0.1h2.1c0.1,0,0.2,0,0.3,0.1c0.1,0.1,0.1,0.2,0.1,0.3v2.1c0,0.1,0,0.2-0.1,0.3C20.3,7.7,20.2,7.8,20.1,7.8z
			 M20.1,11.6h-2.1c-0.1,0-0.2,0-0.3-0.1c-0.1-0.1-0.1-0.2-0.1-0.3V9.1c0-0.1,0-0.2,0.1-0.3c0.1-0.1,0.2-0.1,0.3-0.1h2.1
			c0.1,0,0.2,0,0.3,0.1c0.1,0.1,0.1,0.2,0.1,0.3v2.1c0,0.1,0,0.2-0.1,0.3C20.3,11.6,20.2,11.6,20.1,11.6z M19.6,5.9
			c0-0.1,0-0.1-0.1-0.2c0,0-0.1-0.1-0.2-0.1h-0.9c-0.1,0-0.1,0-0.1,0.1c0,0-0.1,0.1-0.1,0.2v0.9c0,0.1,0,0.1,0.1,0.2
			c0,0,0.1,0.1,0.1,0.1h0.9c0.1,0,0.1,0,0.2-0.1c0,0,0.1-0.1,0.1-0.2V5.9z M19.6,9.7c0-0.1,0-0.1-0.1-0.2c0,0-0.1-0.1-0.2-0.1h-0.9
			c-0.1,0-0.1,0-0.1,0.1c0,0-0.1,0.1-0.1,0.2v0.9c0,0.1,0,0.1,0.1,0.2c0,0,0.1,0.1,0.1,0.1h0.9c0.1,0,0.1,0,0.2-0.1
			c0,0,0.1-0.1,0.1-0.2V9.7z M23.9,7.8h-2.1c-0.1,0-0.2,0-0.3-0.1c-0.1-0.1-0.1-0.2-0.1-0.3V5.2c0-0.1,0-0.2,0.1-0.3
			c0.1-0.1,0.2-0.1,0.3-0.1h2.1c0.1,0,0.2,0,0.3,0.1c0.1,0.1,0.1,0.2,0.1,0.3v2.1c0,0.1,0,0.2-0.1,0.3C24.1,7.7,24,7.8,23.9,7.8z
			 M23.9,11.6h-2.1c-0.1,0-0.2,0-0.3-0.1c-0.1-0.1-0.1-0.2-0.1-0.3V9.1c0-0.1,0-0.2,0.1-0.3c0.1-0.1,0.2-0.1,0.3-0.1h2.1
			c0.1,0,0.2,0,0.3,0.1c0.1,0.1,0.1,0.2,0.1,0.3v2.1c0,0.1,0,0.2-0.1,0.3C24.1,11.6,24,11.6,23.9,11.6z M23.5,5.9
			c0-0.1,0-0.1-0.1-0.2c0,0-0.1-0.1-0.2-0.1h-0.9c-0.1,0-0.1,0-0.1,0.1c0,0-0.1,0.1-0.1,0.2v0.9c0,0.1,0,0.1,0.1,0.2
			c0,0,0.1,0.1,0.1,0.1h0.9c0.1,0,0.1,0,0.2-0.1c0,0,0.1-0.1,0.1-0.2V5.9z M23.5,9.7c0-0.1,0-0.1-0.1-0.2c0,0-0.1-0.1-0.2-0.1h-0.9
			c-0.1,0-0.1,0-0.1,0.1c0,0-0.1,0.1-0.1,0.2v0.9c0,0.1,0,0.1,0.1,0.2c0,0,0.1,0.1,0.1,0.1h0.9c0.1,0,0.1,0,0.2-0.1
			c0,0,0.1-0.1,0.1-0.2V9.7z"/>
	</g>
	<g>
		<path fill="#EB0029" d="M12.3,15.4h-2.1c-0.1,0-0.2,0-0.3-0.1c-0.1-0.1-0.1-0.2-0.1-0.3v-2.1c0-0.1,0-0.2,0.1-0.3
			c0.1-0.1,0.2-0.1,0.3-0.1h2.1c0.1,0,0.2,0,0.3,0.1c0.1,0.1,0.1,0.2,0.1,0.3V15c0,0.1,0,0.2-0.1,0.3C12.6,15.4,12.5,15.4,12.3,15.4
			z M11.9,13.5c0-0.1,0-0.1-0.1-0.2c0,0-0.1-0.1-0.2-0.1h-0.9c-0.1,0-0.1,0-0.2,0.1c0,0-0.1,0.1-0.1,0.2v0.9c0,0.1,0,0.1,0.1,0.2
			c0,0,0.1,0.1,0.2,0.1h0.9c0.1,0,0.1,0,0.2-0.1c0,0,0.1-0.1,0.1-0.2V13.5z M16.2,15.4h-2.1c-0.1,0-0.2,0-0.3-0.1
			c-0.1-0.1-0.1-0.2-0.1-0.3v-2.1c0-0.1,0-0.2,0.1-0.3c0.1-0.1,0.2-0.1,0.3-0.1h2.1c0.1,0,0.2,0,0.3,0.1c0.1,0.1,0.1,0.2,0.1,0.3V15
			c0,0.1,0,0.2-0.1,0.3C16.4,15.4,16.3,15.4,16.2,15.4z M15.8,13.5c0-0.1,0-0.1-0.1-0.2c0,0-0.1-0.1-0.2-0.1h-0.9
			c-0.1,0-0.1,0-0.2,0.1c0,0-0.1,0.1-0.1,0.2v0.9c0,0.1,0,0.1,0.1,0.2c0,0,0.1,0.1,0.2,0.1h0.9c0.1,0,0.1,0,0.2-0.1
			c0,0,0.1-0.1,0.1-0.2V13.5z"/>
	</g>
	<g>
		<path fill="#EB0029" d="M20.1,15.4h-2.1c-0.1,0-0.2,0-0.3-0.1c-0.1-0.1-0.1-0.2-0.1-0.3v-2.1c0-0.1,0-0.2,0.1-0.3
			c0.1-0.1,0.2-0.1,0.3-0.1h2.1c0.1,0,0.2,0,0.3,0.1c0.1,0.1,0.1,0.2,0.1,0.3V15c0,0.1,0,0.2-0.1,0.3C20.3,15.4,20.2,15.4,20.1,15.4
			z M19.6,13.5c0-0.1,0-0.1-0.1-0.2c0,0-0.1-0.1-0.2-0.1h-0.9c-0.1,0-0.1,0-0.1,0.1c0,0-0.1,0.1-0.1,0.2v0.9c0,0.1,0,0.1,0.1,0.2
			c0,0,0.1,0.1,0.1,0.1h0.9c0.1,0,0.1,0,0.2-0.1c0,0,0.1-0.1,0.1-0.2V13.5z M23.9,15.4h-2.1c-0.1,0-0.2,0-0.3-0.1
			c-0.1-0.1-0.1-0.2-0.1-0.3v-2.1c0-0.1,0-0.2,0.1-0.3c0.1-0.1,0.2-0.1,0.3-0.1h2.1c0.1,0,0.2,0,0.3,0.1c0.1,0.1,0.1,0.2,0.1,0.3V15
			c0,0.1,0,0.2-0.1,0.3C24.1,15.4,24,15.4,23.9,15.4z M23.5,13.5c0-0.1,0-0.1-0.1-0.2c0,0-0.1-0.1-0.2-0.1h-0.9
			c-0.1,0-0.1,0-0.1,0.1s-0.1,0.1-0.1,0.2v0.9c0,0.1,0,0.1,0.1,0.2c0,0,0.1,0.1,0.1,0.1h0.9c0.1,0,0.1,0,0.2-0.1
			c0,0,0.1-0.1,0.1-0.2V13.5z"/>
	</g>
	<g>
		<path fill-rule="evenodd" clip-rule="evenodd" fill="#FFFFFF" d="M20.2,20.5c0,0.3-0.4,0.5-1,0.5h-4.4c-0.6,0-1-0.2-1-0.5
			s0.4-0.5,1-0.5h4.4C19.8,20,20.2,20.2,20.2,20.5z"/>
	</g>
</g>
</svg>
