<?xml version="1.0" encoding="utf-8"?>
<!-- Generator: Adobe Illustrator 16.0.0, SVG Export Plug-In . SVG Version: 6.00 Build 0)  -->
<!DOCTYPE svg PUBLIC "-//W3C//DTD SVG 1.1//EN" "http://www.w3.org/Graphics/SVG/1.1/DTD/svg11.dtd">
<svg version="1.1" id="Layer_1" xmlns="http://www.w3.org/2000/svg" xmlns:xlink="http://www.w3.org/1999/xlink" x="0px" y="0px"
	 width="26.75px" height="15.167px" viewBox="0 0 26.75 15.167" enable-background="new 0 0 26.75 15.167" xml:space="preserve">
<g>
	<path fill="#FFFFFF" d="M113,126.912c0,5.5-4.5,9.505-10,9.505H3c-5.5,0-10-4.005-10-9.505v-105c0-5.5,3.375-10,7.5-10
		s8.625-2.475,10-5.5s3.625-3.272,5-0.248s7,5.252,12.5,5.252H103c5.5,0,10,4.995,10,10.495V126.912z"/>
	<g opacity="0.15">
		<path d="M13,4.143c0.906,0,1.813,0.508,2.5,2.021c1.375,3.025,7,5.252,12.5,5.252H103c5.5,0,10,4.995,10,10.495v105
			c0,5.5-4.5,9.505-10,9.505H3c-5.5,0-10-4.005-10-9.505v-105c0-5.5,3.375-10,7.5-10s8.625-2.475,10-5.5
			C11.188,4.899,12.094,4.143,13,4.143 M13,3.143c-0.789,0-2.281,0.371-3.411,2.854c-1.211,2.664-5.374,4.914-9.09,4.914
			c-4.687,0-8.5,4.935-8.5,11v105c0,6.065,4.935,10.505,11,10.505h100c6.065,0,11-4.439,11-10.505v-105
			c0-6.065-4.935-11.495-11-11.495H27.999c-5.072,0-10.379-2.002-11.589-4.666C15.281,3.266,13.789,3.143,13,3.143L13,3.143z"/>
	</g>
</g>
</svg>
