<?xml version="1.0" encoding="utf-8"?>
<!-- Generator: Adobe Illustrator 18.1.0, SVG Export Plug-In . SVG Version: 6.00 Build 0)  -->
<svg version="1.1" xmlns="http://www.w3.org/2000/svg" xmlns:xlink="http://www.w3.org/1999/xlink" x="0px" y="0px"
	 viewBox="0 0 59.3 36.4" enable-background="new 0 0 59.3 36.4" xml:space="preserve">
<g id="background" display="none">
	<rect x="-529.8" y="-295" display="inline" fill="#F1F1F1" width="1024" height="1000"/>
</g>
<g id="content">
	<path fill-rule="evenodd" clip-rule="evenodd" fill="none" stroke="#0071CE" stroke-miterlimit="10" d="M2.3,29.5
		c0,3.4,2.8,6.1,6.1,6.1h42.4c3.4,0,6.1-2.7,6.1-6.1V6.8c0-3.4-2.8-6.1-6.1-6.1H8.4C5,0.7,2.3,3.4,2.3,6.8V29.5z"/>
	<rect x="2.3" y="7.4" opacity="0.2" fill-rule="evenodd" clip-rule="evenodd" fill="#0071CE" width="54.7" height="1.5"/>
	<rect x="2.3" y="10.5" opacity="0.2" fill-rule="evenodd" clip-rule="evenodd" fill="#0071CE" width="54.7" height="1.5"/>
	<rect x="2.3" y="13.6" opacity="0.2" fill-rule="evenodd" clip-rule="evenodd" fill="#0071CE" width="54.7" height="1.5"/>
	<rect x="2.3" y="19.4" opacity="0.2" fill-rule="evenodd" clip-rule="evenodd" fill="#0071CE" width="54.7" height="1.5"/>
	<rect x="2.3" y="16.7" opacity="0.2" fill-rule="evenodd" clip-rule="evenodd" fill="#0071CE" width="54.7" height="1.5"/>
	<text transform="matrix(1 0 0 1 16.9868 17.2627)" fill="#333333" font-family="'Arial-BoldMT'" font-size="7.3685">0000  123</text>
	
		<ellipse opacity="0.5" fill-rule="evenodd" clip-rule="evenodd" fill="none" stroke="#EB0029" stroke-width="2" stroke-miterlimit="10" cx="43.7" cy="14.5" rx="8.9" ry="5.8"/>
</g>
<g id="popup">
</g>
<g id="Слой_4">
</g>
</svg>
