<?xml version="1.0" encoding="utf-8"?>
<!-- Generator: Adobe Illustrator 18.1.0, SVG Export Plug-In . SVG Version: 6.00 Build 0)  -->
<svg version="1.1" id="Layer_1" xmlns="http://www.w3.org/2000/svg" xmlns:xlink="http://www.w3.org/1999/xlink" x="0px" y="0px"
	 viewBox="0 0 39.3 33.5" enable-background="new 0 0 39.3 33.5" xml:space="preserve">
<path fill-rule="evenodd" clip-rule="evenodd" fill="#EB0029" d="M0.4,5v23.7c0,3.1,1.5,4.6,4.6,4.6h26.7c3.1,0,4.6-1.5,4.6-4.6
	v-2.9h0.1c1.7,0,2.9-1.1,2.9-2.9V18c0-1.6-1-2.6-2.6-2.6H22.8c-2.5,0-4.5,2.6-4.5,5.1v0.1c0,0.4,0.1,0.8,0.1,1.2
	c-1-0.8-1.6-2.1-1.6-3.5c0-2.5,2-4.5,4.5-4.5h13.8c0.4,0,0.8,0.1,1.1,0.2V5c0-3.1-1.5-4.6-4.6-4.6H5C1.9,0.4,0.4,1.9,0.4,5z
	 M3.4,4.9c0-0.8,0.7-1.5,1.5-1.5h26.9c0.8,0,1.5,0.7,1.5,1.5c0,0.8-0.7,1.5-1.5,1.5H4.9C4.1,6.4,3.4,5.7,3.4,4.9z M21.3,22.1
	c0-1.2,1-2.2,2.2-2.2c1.2,0,2.2,1,2.2,2.2c0,1.2-1,2.2-2.2,2.2C22.3,24.3,21.3,23.3,21.3,22.1z"/>
</svg>
