<?xml version="1.0" encoding="utf-8"?>
<!-- Generator: Adobe Illustrator 18.1.0, SVG Export Plug-In . SVG Version: 6.00 Build 0)  -->
<svg version="1.1" id="Layer_1" xmlns="http://www.w3.org/2000/svg" xmlns:xlink="http://www.w3.org/1999/xlink" x="0px" y="0px"
	 viewBox="0 0 47 55.9" enable-background="new 0 0 47 55.9" xml:space="preserve">
<g>
	<polygon fill-rule="evenodd" clip-rule="evenodd" fill="#231F20" points="0,0 47,0 47,44 47,44.5 47,44.9 47,45.4 46.9,45.8 
		46.8,46.2 46.7,46.6 46.6,47 46.5,47.4 46.3,47.8 46.1,48.1 45.9,48.5 45.7,48.8 45.5,49.1 45.2,49.5 45,49.7 44.7,50 44.4,50.3 
		44.1,50.6 43.7,50.8 43.4,51 43,51.2 42.6,51.4 42.2,51.6 41.8,51.7 41.4,51.9 40.9,52 40.5,52.1 40,52.2 39.5,52.3 38.9,52.3 
		38.4,52.3 37.9,52.4 32.4,52.4 32,52.4 31.6,52.4 31.3,52.4 30.9,52.4 30.6,52.4 30.2,52.5 29.9,52.6 29.6,52.6 29.3,52.7 29,52.7 
		28.6,52.8 28.3,52.9 28.1,53 27.8,53.1 27.5,53.2 27.2,53.3 27,53.4 26.7,53.5 26.5,53.7 26.2,53.8 26,53.9 25.8,54.1 25.5,54.2 
		25.3,54.4 25.1,54.5 24.9,54.7 24.7,54.8 24.5,55 24.3,55.2 24.1,55.3 23.9,55.5 23.5,55.9 23.1,55.5 22.9,55.3 22.7,55.2 22.5,55 
		22.3,54.8 22.1,54.7 21.9,54.5 21.7,54.4 21.5,54.2 21.3,54.1 21,53.9 20.8,53.8 20.5,53.7 20.3,53.5 20.1,53.4 19.8,53.3 
		19.5,53.2 19.2,53.1 19,53 18.7,52.9 18.4,52.8 18.1,52.7 17.8,52.7 17.5,52.6 17.1,52.6 16.8,52.5 16.5,52.4 16.1,52.4 15.8,52.4 
		15.4,52.4 15,52.4 14.6,52.4 9.2,52.4 8.6,52.3 8.1,52.3 7.6,52.3 7.1,52.2 6.6,52.1 6.1,52 5.6,51.9 5.2,51.7 4.8,51.6 4.4,51.4 
		4,51.2 3.6,51 3.3,50.8 3,50.6 2.6,50.3 2.3,50 2,49.7 1.8,49.5 1.5,49.1 1.3,48.8 1.1,48.5 0.9,48.1 0.7,47.8 0.6,47.4 0.4,47 
		0.3,46.6 0.2,46.2 0.1,45.8 0.1,45.4 0,44.9 0,44.5 0,44 0,0 	"/>
	<path fill-rule="evenodd" clip-rule="evenodd" fill="#EB2227" d="M0.3,0.3h23.2h23.2V44c0,4.7-3,8-8.9,8h-5.5
		c-4.2,0-6.9,1.5-8.9,3.4c-2-2-4.7-3.4-8.9-3.4H9.2c-5.9,0-8.9-3.3-8.9-8V0.3L0.3,0.3z"/>
	<path fill-rule="evenodd" clip-rule="evenodd" fill="#231F20" d="M10.4,39.8c0.4-1.3,1.2-2,2.5-2.2c1.3-0.2,2.7-0.9,4.3-1.7
		c0.7-0.5,0.8-0.3,0.3,0.7l-0.7,0.9c-0.4,0.4-0.5,0.9,0.1,1.3c0.7,0.4,1.1,0.7,0.9,1c-0.8-0.2-1.6-0.1-2.2,0.5
		c-0.5-0.1-1-0.1-1.8,0.3c-0.4-0.2-0.8-0.2-1.4-0.1c-0.1-0.3-0.5-0.4-1.1-0.3C11.1,40,10.8,39.8,10.4,39.8L10.4,39.8L10.4,39.8z
		 M19.4,39.8c-0.8-0.8-0.9-1.5,0-2.2c0.5-0.4,1.3-1.2,2.2-2.4c0.6,0,1.2-0.2,1.8-0.3c2.5-0.3,4.8-0.8,6.7-1.9c0.4-0.1,0.6,0,0.8,0.2
		l1.5,1.9l-0.4,0.2l1.1,0.8c-0.2,0.2-0.1,0.3,0.2,0.4c-0.1,0.2,0,0.4,0.2,0.4c0.1,0.3,0.3,0.7-0.3,0.1c-0.4-0.2-0.4,0-0.1,0.6
		l0.6,0.9c0,0.4,0.2,0.7,0.5,1l0.5,1c0,0.2,0.1,0.3,0.1,0.4c0.1,0.4,0.2,0.6,0.5,0.6c-0.3,0.6-0.7,1.1-1.4,1.5
		c-1.3,0.7-2.3,0.4-2.2-1.3c0.1-0.9,0.2-1.7,0.3-2.6c0.4-1.5,0-2.2-1.3-2.3c-0.7,0-1.2,0-1.5,0.3c-0.4,0.2-0.9,0.2-1.5-0.2
		c-1.3-1-2.3-1.5-3-1.5c0.6,0.7,0.8,1.5,0.3,2.2c0.5,0.2,0.5,0.5,0,0.7c-1.3,0-2.7-0.2-4.2-0.6c-0.5-0.1-0.6,0-0.2,0.3
		c1.1,0.4,1.7,1.1,1.7,2c-0.7,0-1.3,0.1-1.6,0.1C20.1,40.2,19.7,40.1,19.4,39.8L19.4,39.8L19.4,39.8z M31.9,46.9
		c-0.4,0.2-0.5,0.4-0.1,0.6c0.2,0.2,0.4,0.2,0.4,0.1C32.7,47.5,32,47.2,31.9,46.9L31.9,46.9L31.9,46.9z M20.4,45.9
		c-0.2,0.2-0.4,0.4-0.2,0.6l0.5,0.4c0.2-0.2,0.2-0.4-0.1-0.6C20.5,46.3,20.4,46.1,20.4,45.9L20.4,45.9L20.4,45.9z M14.7,43.6
		c0.4,0.2,0.4,0.5-0.1,0.7C14.3,44.1,14.3,43.9,14.7,43.6L14.7,43.6L14.7,43.6z M8.3,30.5c1.6,1.8,1.9,3.9,0.6,6.3
		c-0.5,1.2-0.4,1.9,0.2,2.3c0.2-0.4,0.3-1,0.4-1.7c0.1-1,0.8-0.9,1.6-1.7c0.9-0.9,0.6-1.9,0.6-3.4c-0.2-3.3,0.5-5.2,1.5-6.3
		C10.7,25.3,9.2,27.1,8.3,30.5L8.3,30.5L8.3,30.5z M9.9,3.2c-0.3,0-0.4,0.2-0.4,0.6l2,2.8c0.1,0.1,0.2,0.3,0.2,0.4
		c-0.2,0.4-0.2,0.6,0.1,0.9l0.7,0.6c0.1,0.5,0.2,0.8,0.3,1c-0.2,0.3,0,0.6,0.3,0.9c0.1,0.1,0.1,0.2,0.2,0.3l0.1,0.9
		c-0.9,0.8-1.4,1.3-1.5,1.7c0,0.2-0.1,0.3,0,0.5l1.3-0.1c0.1,0.1,0.2,0.1,0.3,0.2c0.2,0.5-0.1,1.2-0.8,1.3c-1.6,0.4-2.8,0.9-2.3,2
		c0.6,0.8,0.3,1.5-0.7,2.1c-0.2,0.2-0.4,0.5-0.3,0.9c-0.3,0.2-0.5,0.6-0.7,1c-0.2,0.4-0.2,0.6,0.2,0.6c2.2-0.8,4.5-1.1,6,0.2
		c0.8,0.6,0.6,1,1.9,1c-0.1,0.5,0,0.8,0.4,0.9l0.1,0.6c-0.5,0.1-1,0.1-1.5,0.2c-0.6,0.1-1.1,0.4-1.6,0.4c-0.4-0.3-0.9-0.5-1.3-0.8
		c-2-1.3-3.7-1.3-5.2,0.4c-0.8,0.9-1.5,2.1-2.1,4c-0.1,0.3-0.4,0.5-0.9,0.2c-1.1-0.9-1.3-1.6-0.7-2.1c0.7-0.7,1-0.3,0.6,0.1l0,0.1
		c0.6,0,0.8,0.4,1,0.8c0.5-1.3,0.2-2.1-0.5-2.8l-0.2,0l0.1,1.1c-1.2-0.2-1.8,0.7-1.9,1.5c-0.1,0.8,0.3,1.5,1.4,2.2
		c0.6,0.2,0.8,0.9,0.3,1.6c-1.1,1.7-1,3.5,0.1,5.8L5,36.8c0.2-2.5,0.7-3.8,1.6-4c0.3-0.1,0.5-0.3,0.7-0.6c0.2-0.4,0.4-0.3,0.6,0.1
		c0.5,1.1,0.4,2.1-0.2,3.1c-1.5,2.4-1.5,4.2,0.6,5.6l0.1,0.2l-0.6,0.7c-0.2,0.3,0,0.6,0.4,1c0.4,0.4,0.5,1.1,0.6,2
		c-0.2,0.3-0.2,0.6-0.1,1c0.3,0.4,1.1,0.7,2.1,0.6c0.1,0,0.1-0.1,0.1-0.2c0.1-0.5-0.2-0.8-0.6-1.4c-1-0.9-1.3-1.8-0.9-2.7l0.2-0.2
		c0.8,0.3,1.9,0.6,2.8,0.8c-0.4,0.8-0.4,1.8,0,2.4c0.7,1.1,1.4,1.7,2.7,1.6c1.8-0.2,2.7-1.6,2-3.6c0.6-0.4,1.1-0.3,1.3,0.1
		c0,0.9,0.4,0.6,0.4,1.5c-1.1,0.9-1.5,1.7-0.3,2.2c0.6,0.6,0.3,0.8-0.5,0.9c-0.8-0.2-1.4-0.2-1.5,0.5c-0.8,0-1,0.5-0.9,1.2
		c0.2-0.5,0.6-0.6,0.9-0.4c0.4,0,0.8,0.1,1.2-0.1c0.3-0.2,0.7-0.2,1.1,0c0.2,0,0.4,0.1,0.5,0.3c0.5,0.6,0.5-0.1,1.6,0.6
		c0.3,0,0.8,0,0.9,0.5l0.1-0.4c0.1-0.2,0-0.3-0.1-0.5c-0.4-0.4,0.2-0.5,1.3-0.3c0.6,0.2,1.1,0.4,1.5,0.3c0.5-0.5,0.6-0.2,0.7,0.4
		c0.3-0.9,0.1-1.4-0.8-1.4c0.2-0.5,0.2,0.2,0.6-0.4c0.3-0.1,0.6,0,0.9,0.3c0.1-0.4-0.2-0.7-0.8-0.8c-0.1-0.4-0.4-0.4-0.8,0
		c-1.7-0.4-1.8-1.5-0.9-1.7c0.5-0.1,0.7,0.4,1.1,0.6c0.3,0.1,0.5,0.1,0.9,0.1c0.5,0,0.9,0.1,1.2,0.3l0.3,0.1
		c0.2-0.1,0.4-0.1,0.6,0.1c0.2,0.4,0.5,0.4,0.7,0.1c0.7-0.5,1.7-0.5,1.6-0.2c0,0.5,0.1,0.7,0.2,0.6c0.2,0,0.2,0.2,0.2,0.6
		c-0.6,0-1.1,0.1-1.1,0.6c-0.6,0.2-0.6,0.6-0.3,1.1c-0.1-1.1,0.8-0.2,1.7-0.8l0.6-0.1c0.1,0.3,0.4,0.4,0.9,0.4
		c0.2-0.1,0.5-0.1,0.7-0.1c1.1-0.3,1.9-0.2,2.6,0.7c0.1-0.3,0.1-0.6-0.1-0.8c0.7-0.5,1.6-0.3,1.1,0.5c0.4-0.2,0.9-1.3,0.3-1.3
		c0.2-0.7,1.2-0.1,0.9,0.4c0.4-0.2,0.5-0.6,0-1c-0.1-0.4-0.4-0.5-0.9-0.3c-0.3-0.5-0.7-0.6-1.2-0.1c-0.5,0.2-0.9,0.3-1.2-0.1
		c-0.3-0.5-0.2-0.7,0.2-0.5c0.2,0.1,0.3-0.2,0.5-0.6c0.1-0.2,0.3-0.4,0.4-0.6c0.6-0.1,1-0.6,1.6-1.6c0.4-0.2,0.6-1,0.6-2.3
		c0.2,0.1,0.4,0,0.7-0.2c-0.2,0-0.3-0.1-0.3-0.6h0.5c0.2-0.1,0.3-0.2,0.3-0.3c0-0.1-0.2-0.1-0.4-0.3c-0.1-0.3-0.2-0.6-0.6-0.9
		L37,38.2c-0.4-1.2-0.8-1.9-1.4-1.4l-0.2-0.1c-0.4-0.5-0.7-1.1-1-1.8c0-0.8-0.9-0.9-1.3-0.1l-0.1-0.7l-0.2,0.3l-1.4-2
		c0.2,0,0.4-0.2,0.6-0.2c1.7-0.1,3.4-0.6,5.1-1.6l1.2-0.4c0.6-0.2,0.7,0,1,0.2l1.3,1.3c0.2,0.3,0.2,0.5,0.1,0.8
		c-0.1,0.3,0.2,0.6,0.6,1c0.4,0.4,0.4,1,0.1,1.8c-0.2,0.5-0.2,0.8,0.1,0.9l0.9,0.6c0.6,0.5,0.9,0.3,0.8-0.5c0-0.4-0.2-0.8-0.4-1.2
		c-0.3-0.5-0.5-1-0.5-1.5c0-1-0.2-1.5-0.6-1.9c-0.5-0.5-0.9-1-1.2-1.6c-0.1-0.3-0.2-0.5-0.4-0.6c0-1.1-0.8-1.6-1.3-1.3
		c-0.4,0.1-0.8,0.1-1.3,0.1v-0.2c0.5-0.3,1.5-1.3,2.4-2.3c0.4-0.4,0.5-0.3,0.9,0.1l1.4,1.4c0,0.7,0.1,1.2,0.5,1.1
		c0.3,0.6,0.5,1.1,0.2,1.4c-0.3,0.3-0.6,0.4-0.6,0.8c0.1,0.6,0.7,1.1,1.4,1.4c0.1,0,0.2,0,0.2-0.1c0.2-0.5,0.2-1.1,0-1.6L44,29.6
		c0-0.3,0-0.6,0-0.8c0.1-0.6,0.1-1-0.6-1.5c-0.9-0.9-1.6-1.8-2.2-2.7c0-1.3-1.1-1.6-1.7-0.2l-1.3,0.9c-0.3,0.2-0.6-0.1-0.6-0.5
		c-0.1-1.7-1.3-3-2.5-4.3c-0.7-2-1.6-3.7-1.9-5.2c1.3,0.1,2.2,0.4,2.6,0.7c0.6,0.6,1.3,0.9,1.4,0.5c0.1-0.1-0.3-0.4-0.5-0.6
		c0.2,0,0.5,0.2,0.8,0.5c0.6,0,0.7-0.4,0.6-1c0.1-0.5,0-0.8-0.2-1l-0.5-0.3c-0.8-0.8-1.4-1.7-1.9-2.6c-0.1-0.1-0.1-0.2-0.1-0.3
		c0-0.4-0.1-0.7-0.5-1l0.2-0.1l0-0.1l0.4,0.1l-0.4-0.7c-0.2-0.8-1-0.9-2.1-0.6c-0.2,0-0.4-0.1-0.6-0.4C31.8,7.8,31,7.4,31.3,8
		c0,0.1,0.3,0.3,0,0.3l-1.2-0.2c-0.3,0-0.3,0-0.2,0.2c0.2,0.2,0.4,0.5,0.5,0.7l-1.5,0.1c-0.3,0-0.6,0.2-0.9,0.1
		c-0.8-0.7-1.9-0.2-3,0.6l-0.2-0.1l0-1.3H25l-0.1-0.8h0.1c0.1-1.2-0.2-2-0.6-2.6c-0.1-0.4,0.3-0.3,0.4-0.4C25.1,4.2,25,3.7,25,3.5
		c-0.1-0.5-0.2-0.7-0.5-0.5h-0.3c-0.3,0-0.6-0.2-0.7-0.3c-0.4-0.2-0.7-0.2-1,0c-1.6,0.4-1.9,1.6-3.8,0.8c-0.2,0-0.3,0.1-0.2,0.2
		c0.3,0.4,0.8,0.7,1.3,0.9c-0.2,0.1-0.5,0.2-1.1,0.1c0.3,0.4,1,0.7,2,0.6c0.4,0.2,0.8,0.1,1.3-0.1c0.3-0.2,0.3-0.1,0.1,0.3
		c-0.5,0.4-0.9,1.2-0.9,2.7c-0.2,0.3-0.3,0.6-0.4,1c-0.7-0.2-1.4-0.3-1.6-0.1l-0.3,0c-0.6-0.5-1.3-0.5-1.8-0.1L16,9.9
		c-0.4,0.3-0.8,0.3-0.8,0l-0.5-1c0-0.7-0.2-1-0.7-1.1c-0.2-0.2-0.4-0.4-0.4-0.7l-0.3-0.4c0.1-0.4,0-0.5-0.3-0.5
		c-0.3,0-0.5,0-0.7-0.2L9.9,3.2L9.9,3.2z"/>
	<path fill-rule="evenodd" clip-rule="evenodd" fill="#FFFFFF" d="M41.7,35.8l0.2-0.5c0.1-0.2,0.2-0.2,0.3,0l0.5,0.5
		c-0.1,0.1-0.4,0.1-0.5,0.2l0.2,0.3l-0.2,0.1l-0.1,0.2C41.8,36.3,41.6,36.1,41.7,35.8L41.7,35.8L41.7,35.8z M42.1,34.2
		c0.1,0,0.1,0.2,0.1,0.4c0,0.2-0.1,0.4-0.1,0.4C42,35,42,34.8,42,34.6C42,34.4,42,34.2,42.1,34.2L42.1,34.2L42.1,34.2z M41.8,32.4
		c0,0,0.2,0,0.2,0.2c0.1,0.1,0.1,0.3,0.1,0.3c0,0-0.2,0-0.2-0.2C41.8,32.5,41.8,32.4,41.8,32.4L41.8,32.4z"/>
	<path fill-rule="evenodd" clip-rule="evenodd" fill="#FFFFFF" d="M43.2,30.3c-0.1-0.1-0.1,0-0.2,0c-0.2,0.3-0.3,0.5-0.2,0.7
		l0.5,0.4c0.2,0.1,0.3,0.1,0.2-0.1l-0.2-0.2c0.1,0,0.2,0.2,0.3,0.2c0.1,0,0.1-0.1,0-0.2c-0.2-0.2-0.2-0.2-0.1-0.4c0,0,0-0.1,0-0.1
		L43.2,30.3L43.2,30.3z M43.2,28.2c-0.2-0.3-0.2-0.4,0.1-0.4c-0.3-0.4,0-0.5,0.3-0.1c0.1,0.2,0.2,0.6,0.1,1.1c0,0.1-0.2,0.2-0.2,0
		C43.4,28.5,43.3,28.4,43.2,28.2L43.2,28.2L43.2,28.2z M43.4,29.9l0.1-0.5c0-0.1,0.1-0.1,0.1,0c0.2,0.2,0.3,0.4,0.4,0.8
		c0,0.2,0,0.2-0.1,0.3c-0.1,0-0.2,0-0.4-0.2C43.4,30.2,43.4,30.1,43.4,29.9L43.4,29.9z"/>
	<path fill-rule="evenodd" clip-rule="evenodd" fill="#FFFFFF" d="M35.6,24.3c0-0.9,0.1-1.7,0.1-2.4c0-0.3,0.2-0.3,0.2,0
		c0,0.7,0,1.5-0.1,2.2C35.8,24.4,35.6,24.5,35.6,24.3L35.6,24.3L35.6,24.3z M36.9,28C36.9,28,37,28,36.9,28c0.1,0.1,0,0.2,0,0.2
		C36.8,28.2,36.8,28.1,36.9,28C36.8,28,36.8,28,36.9,28L36.9,28L36.9,28z M34.7,24.7L34.7,24.7c0.1-0.1,0.2-0.1,0.2,0l0.3,0.4
		c0,0,0,0.1,0,0.1l-0.1,0.1c0,0-0.1,0-0.1,0L34.7,24.7C34.7,24.8,34.7,24.7,34.7,24.7L34.7,24.7L34.7,24.7z M37.9,27.1l0.1-0.9
		l-0.2,0.3c-0.1,0-0.2-0.1-0.2-0.4c0-0.3,0-0.4,0.2-0.4l0.1,0.3l0.1-0.2c0.2-0.1,0.2,0,0.1,0.3l0,0.9C38,27.2,38,27.5,37.9,27.1
		L37.9,27.1L37.9,27.1z M40.2,24.4c-0.1-0.2-0.2-0.4,0-0.5c0.1-0.2,0.3-0.2,0.5-0.1c0.1,0.1,0.2,0.2,0.2,0.2l-0.3,0.1l0.3,0.1
		c0.2,0.2,0,0.4-0.1,0.2c-0.1-0.1-0.3-0.2-0.4-0.1C40.4,24.5,40.3,24.5,40.2,24.4L40.2,24.4L40.2,24.4z M37,25.9
		c0,0,0.1,0.1,0.2,0.2c0,0.1,0.1,0.2,0,0.2c0,0-0.1,0-0.2-0.2C37,26.1,37,25.9,37,25.9L37,25.9L37,25.9z M35,25.7c0,0,0.1,0,0.2,0.2
		c0.1,0.1,0.1,0.2,0,0.3c0,0-0.1,0-0.2-0.2C34.9,25.9,34.9,25.8,35,25.7L35,25.7L35,25.7z M35.6,24.7c0.2,0,0.4,0.2,0.4,0.4
		c0.1,0.3,0,0.5-0.2,0.5c-0.2,0-0.4-0.1-0.4-0.4C35.3,24.9,35.4,24.7,35.6,24.7L35.6,24.7L35.6,24.7z M35.9,26.1
		c-0.1-0.4,0-0.5,0.2-0.1c0.2,0.6,0.4,1.3,0.4,2.2c0,0.3-0.3,0.4-0.3,0C36.1,27.5,36,26.8,35.9,26.1L35.9,26.1L35.9,26.1z
		 M38.4,26.8c0-0.4,0.1-0.9,0.3-1.3c0.1-0.2,0.2-0.2,0.3-0.1c0.4-0.6,0.3-0.3,0.1,0.2l0.1,0.1c0.5-0.9,0.3-0.2,0.2,0.2
		c-0.4,0.4-0.6,0.5-0.7,0.2l-0.1,0.6C38.5,27,38.5,27,38.4,26.8L38.4,26.8z"/>
	<path fill-rule="evenodd" clip-rule="evenodd" fill="#FFFFFF" d="M8.5,42.1c-0.2,0.6-0.8,0.3-0.5-0.2c0.8-1.3,1.6-2.6,1.8-4.4
		c0-0.6,0.4-0.9,0.9-1.2c1.1-0.6,1.5-1.6,1.4-2.8c-0.2-5,1.1-7.2,3.3-8l-0.1,0.2c-1.9,1.2-2.7,3.4-2.7,6.5c0,0.7-0.1,1.4,0,2.1
		l0.1-0.2c0.1-1.8,0.1-3.3,0.3-4.4c0.2-1.2,0.6-1.9,1-2.4c0.1-0.2,0.2-0.4,0.4-0.5c0.2-0.2,0.4-0.2,0.5-0.4l0,0.2
		c-0.7,0.7-1.3,1.7-1.6,2.9c-0.3,1.4-0.3,3-0.2,4.7c0,0.2-0.1,0.4-0.2,0.6l0.1,0c0.1-0.3,0.2-0.6,0.2-0.9c-0.2-2,0-4.1,0.7-5.5
		c0.5-1,0.8-1.4,2.2-2.2l0,0.2c-1.2,0.8-2.3,1.8-2.5,5l0.1-0.1c0.2-2.4,1.1-4.3,2.7-4.9c0.6-0.2,1.3-0.2,2-0.2l-0.1,0.1
		c-1.1-0.1-2.1,0.3-3,1.2l0.1,0c0.8-0.8,1.8-1.3,3-1l-0.1,0.2c-0.8-0.1-1.5,0.2-2.2,0.7v0.1c0.7-0.5,1.4-0.8,2.1-0.6
		c0.2,0,0.3,0.2,0.2,0.5l-0.1,1.2c0,1.2-0.1,2.3-0.4,3.3l-0.1,0.1l0.1-2l-0.5,2.5c0,0.3-0.2,0.2-0.2,0c0.1-0.5,0.3-1.3,0.4-2
		c-0.1,0-0.2,0.1-0.2,0.2c-0.1,1.1-0.3,2-0.6,2.3c0.2-0.7,0.2-1.4,0.3-2l-0.1,0.1l-0.3,1.9c0.2,0.1-0.1,0.3-0.2,0.1l0.1-1.1l-0.1,0
		l-0.5,1.7l0.2-1.2l-0.4,1.2h-0.2l0.2-1l-0.7,1.8c-0.2,0-0.2,0-0.1-0.3l0.4-1.2l-0.1,0c-0.3,0.9-0.5,1.5-0.8,1.7l-0.1,0
		c0.5-0.8,0.5-1.2,0.6-1.6c-0.2,0.8-0.5,1.3-0.9,1.8c-0.1-0.1,0-0.3,0.3-0.8l0.2-0.6c-0.1-0.1-0.2-0.1-0.2,0.1
		c-0.2,0.6-0.3,0.9-0.6,1.3l0.3-1.1l0-0.1c-0.2,0.6-0.5,1.2-0.8,1.5l0.2,0.1c0.6-0.4,1.4-0.3,2.2-0.6c0.2-0.1,0.4-0.1,0.5,0
		l-0.2,0.4l-0.2-0.2c-0.1,0.3-0.2,0.6-0.4,0.8l-0.1-0.5c-0.4,0.8-0.6,1.2-0.6,0.8l0.1-0.5c-0.3,0.3-0.4,0.6-0.5,0.9
		c-0.1,0-0.2-0.3-0.1-0.7l-0.2,0.8c-0.2,0-0.2-0.2-0.1-0.7c-0.2,0.4-0.3,0.8-0.4,0.8c-0.1-0.1-0.1-0.4,0-0.6L13,36.2
		c0,0.3-0.1,0.4-0.2,0.4c0.1-0.5,0.1-0.6,0-0.5l-0.3,0.7c-0.2,0.1-0.2-0.1-0.2-0.5c-0.2,0.1-0.2,0.6-0.4,0.8
		c-0.1-0.1-0.2-0.3-0.1-0.5c-0.1,0.4-0.2,0.6-0.4,0.6l0-0.7c-0.1,0.3-0.2,0.6-0.3,0.8L11,36.7l-0.1,0.5c-0.2,0.1-0.3,0-0.4-0.4
		c0,0.7-0.1,1.3-0.5,1.5c0,0.2-0.2,0.6-0.4,1.2l0.7-1c0.2,0,0.2,0,0.2,0.4l-0.7,1.2c-0.1,0.1-0.2,0.1-0.4,0c-0.2,0.6-0.4,1-0.7,1.4
		c0.3-0.2,0.5-0.6,0.8-1.2c0-0.2,0.2,0,0.2,0.4l-0.2,0.2l0,0.3l-0.2,0v0.4L9,41.6C9.2,42.1,8.9,42.4,8.5,42.1L8.5,42.1z"/>
	<polygon fill-rule="evenodd" clip-rule="evenodd" fill="#FFFFFF" points="12.6,25.5 13.5,25.4 13.4,25.6 12.6,25.5 	"/>
	<path fill-rule="evenodd" clip-rule="evenodd" fill="#FFFFFF" d="M4.6,32.3c0.1-0.4,0.4-0.7,0.7-1.2c0.2-0.3,0.2-0.1,0.2,0.2
		C5.1,31.8,4.8,32.1,4.6,32.3L4.6,32.3z"/>
	<path fill-rule="evenodd" clip-rule="evenodd" fill="#FFFFFF" d="M13.6,25.1c-1.4-1.3-2.8-1.9-3.8-1.7c-2,0.4-2.9,2.2-3.5,4
		c0.3-0.6,0.6-0.9,1-1.1c-1,1.5-1.5,3.1-1.6,4.9c-0.1,0.2-0.2,0.4-0.4,0.6c-0.6,0.5-0.6,0.8-0.7,1.2c0.1-0.1,0.3-0.4,0.5-0.6
		c0.3-0.3,0.6-0.7,0.7-1.3c0.2-0.8,0.3-1.5,0.4-2.1c0.2-0.7,0.4-1.3,0.8-1.9c0.7-1.2,1.6-2.2,2.6-2.7v0.1c-1,0.6-1.7,1.4-2.6,2.7
		c-0.2,0.3-0.3,0.6-0.5,1.1c-0.2,0.4-0.4,0.9-0.4,1.5c-0.1,1.2-0.4,2-0.8,2.4c-0.4,0.5-0.6,0.7-0.6,0.9c0,0.1-0.1,0.3-0.1,0.5
		c0.8-1.5,1.1-1.3,1.5-2.4c0.5-1.6,0.2-3.2,2.3-5.5h0.2c-1,1.2-1.7,2.3-2,4.6c-0.1,0.4-0.1,0.9-0.3,1.3c-0.3,0.5-0.8,0.9-1,1.4
		l0.1,0c0.3-0.3,0.8-0.9,1-1.3c0.6-1.2,0.4-2.9,1.2-4.2c1.1-1.7,1.9-2.6,3.2-3.2l0.2,0c-1.8,0.9-2.1,1.6-2.9,2.7
		c-0.3,0.4-0.5,0.7-0.7,1.4C7.2,29,7.1,29.9,7,30.6c-0.1,0.9-0.5,1.4-0.8,1.8C6,32.7,5.8,32.8,5.7,33c-0.1,0.2-0.3,0.6-0.3,0.8
		l0.1,0c0.5-1.3,0.8-1,1.1-1.5c0.2-0.3,0.5-0.8,0.6-1.4c0.1-1.3,0.4-2.2,0.8-3.1c0.5-0.9,1.2-1.9,2-2.6c0.4-0.3,0.7-0.5,1.2-0.6h0.1
		c-0.6,0.4-1,0.5-1.5,0.9c-0.8,0.7-1.5,1.8-1.8,2.7C7.6,29,7.4,30,7.3,31c0-0.1,0.1,0.1,0.1,0C7.8,28.6,8.7,27,9.7,26
		c0.6-0.6,1.3-1,1.9-1.2l0.4,0c-1,0.3-1.9,0.7-2.6,1.8l0.1,0c0.9-0.9,1.7-1.3,2.6-1.5l0.1,0c-0.6,0.2-1.1,0.4-1.4,0.7l0,0.1
		C11.5,25.5,12.4,25.3,13.6,25.1L13.6,25.1z"/>
	<path fill-rule="evenodd" clip-rule="evenodd" fill="#FFFFFF" d="M4.8,34.8c-0.1-0.2-0.2-0.4-0.2-0.6c0-0.3,0.2-0.2,0.3-0.1
		C4.9,34.5,4.8,34.5,4.8,34.8L4.8,34.8z"/>
	<path fill-rule="evenodd" clip-rule="evenodd" fill="#FFFFFF" d="M7.3,37.1l0.2-0.2c0.1-0.1,0.2-0.1,0.3,0
		C7.9,37,7.6,37.1,7.3,37.1L7.3,37.1z"/>
	<path fill-rule="evenodd" clip-rule="evenodd" fill="#FFFFFF" d="M7.1,37.8l0.3-0.3c0.2-0.1,0.3-0.1,0.5-0.1
		C7.8,37.6,7.5,37.7,7.1,37.8L7.1,37.8z"/>
	<path fill-rule="evenodd" clip-rule="evenodd" fill="#FFFFFF" d="M7.2,38.2l0.3-0.3c0.2-0.1,0.4-0.1,0.5,0
		C7.9,38,7.6,38.1,7.2,38.2L7.2,38.2z"/>
	<path fill-rule="evenodd" clip-rule="evenodd" fill="#FFFFFF" d="M7.3,38.5l0.3-0.3c0.2-0.1,0.3-0.1,0.5,0
		C8,38.3,7.6,38.4,7.3,38.5L7.3,38.5z"/>
	<path fill-rule="evenodd" clip-rule="evenodd" fill="#FFFFFF" d="M7.4,38.8l0.2-0.2c0.1-0.1,0.2-0.1,0.3,0
		C7.9,38.6,7.7,38.7,7.4,38.8L7.4,38.8z"/>
	<path fill-rule="evenodd" clip-rule="evenodd" fill="#FFFFFF" d="M8.5,35.3l0.2-0.1c0.1,0,0.2,0,0.2,0C8.9,35.3,8.7,35.3,8.5,35.3
		L8.5,35.3z"/>
	<path fill-rule="evenodd" clip-rule="evenodd" fill="#FFFFFF" d="M8.2,35.7l0.4-0.2c0.2,0,0.4,0,0.4,0.1C9,35.7,8.6,35.7,8.2,35.7
		L8.2,35.7z"/>
	<path fill-rule="evenodd" clip-rule="evenodd" fill="#FFFFFF" d="M8.5,34.8l0.3-0.2c0.1-0.1,0.3-0.1,0.4,0
		C9.1,34.6,8.8,34.7,8.5,34.8L8.5,34.8z"/>
	<path fill-rule="evenodd" clip-rule="evenodd" fill="#FFFFFF" d="M8.7,34.2L9,34.2c0.1,0,0.3,0.1,0.3,0.2
		C9.2,34.4,8.9,34.3,8.7,34.2L8.7,34.2z"/>
	<path fill-rule="evenodd" clip-rule="evenodd" fill="#FFFFFF" d="M8.1,40.2L8.3,40c0.1,0,0.2,0,0.2,0C8.5,40.1,8.3,40.2,8.1,40.2
		L8.1,40.2z"/>
	<path fill-rule="evenodd" clip-rule="evenodd" fill="#FFFFFF" d="M8.7,39.5l-0.5,0.1C8,39.6,7.8,39.8,7.8,40
		C8,40,8.3,39.8,8.7,39.5L8.7,39.5z"/>
	<path fill-rule="evenodd" clip-rule="evenodd" fill="#FFFFFF" d="M8.5,39.2H8.1c-0.2,0-0.3,0.2-0.3,0.3C7.9,39.6,8.2,39.4,8.5,39.2
		L8.5,39.2z"/>
	<path fill-rule="evenodd" clip-rule="evenodd" fill="#FFFFFF" d="M10.2,41.1l0.2-0.5c0.1-0.2,0.3-0.2,0.5-0.2
		C10.9,40.5,10.6,40.8,10.2,41.1L10.2,41.1z"/>
	<path fill-rule="evenodd" clip-rule="evenodd" fill="#FFFFFF" d="M11.2,40.6l0.4-0.2c0.2,0,0.4,0.1,0.5,0.2h0
		c0,0.1-0.3,0.4-0.6,0.6l0.2-0.4c0,0,0.1-0.1,0.2-0.1c0,0-0.1,0-0.1,0c-0.1,0.1-0.3,0.2-0.5,0.4l0.2-0.3c0,0,0.1-0.1,0.1-0.1
		C11.3,40.6,11.3,40.6,11.2,40.6L11.2,40.6z"/>
	<path fill-rule="evenodd" clip-rule="evenodd" fill="#FFFFFF" d="M13.1,40.7c0.1-0.1,0.6,0,0.5,0.2l0,0c0,0.1-0.3,0.4-0.6,0.6
		l0.2-0.4c0-0.1,0.1-0.1,0.1-0.1c0,0-0.1,0-0.2,0c-0.1,0.1-0.2,0.2-0.4,0.4l0.1-0.3c0,0,0.1,0,0.1-0.1c0,0-0.1,0-0.1,0
		c-0.1,0.1-0.2,0.2-0.3,0.3l0.1-0.2C12.7,40.7,12.8,40.7,13.1,40.7L13.1,40.7z"/>
	<path fill-rule="evenodd" clip-rule="evenodd" fill="#FFFFFF" d="M15.9,40.6c0-0.4,0.3-0.6,0.8-0.7c0.6-0.1,1.4,0,1.2,0.3
		c0,0,0,0-0.1,0l-0.1,0.3L17.5,41l0.2-0.5l0.1-0.2c-0.1,0-0.2-0.1-0.3-0.1l-0.2,0.2l-0.3,0.4l0.3-0.4l0.1-0.2c0,0-0.1,0-0.1,0
		L17,40.3l-0.3,0.4l0.3-0.4l0.1-0.2c-0.1,0-0.1,0-0.2,0l-0.1,0.2l-0.3,0.4l0.2-0.5l0.1-0.1c-0.1,0-0.2,0-0.2,0.1l-0.2,0.4l0.1-0.4
		C16.2,40.3,16,40.4,15.9,40.6L15.9,40.6z"/>
	<path fill-rule="evenodd" clip-rule="evenodd" fill="#FFFFFF" d="M13.9,40.9L13.9,40.9L13.9,40.9L13.9,40.9l0.6-0.4
		c0.4-0.2,0.8-0.2,0.8,0.1c0,0,0,0.1-0.1,0.1c0,0.1,0,0.2,0,0.4L15,40.7c0,0-0.1,0-0.1,0c0,0.2,0,0.4,0,0.5l-0.2-0.5
		c0,0-0.1,0-0.1,0c0,0.2,0,0.5,0,0.8l-0.3-0.6c0,0,0,0,0,0c0,0.1-0.1,0.3-0.1,0.4l-0.1-0.4l0,0c-0.1,0.2-0.2,0.4-0.2,0.6L13.9,40.9
		C13.9,40.9,13.9,40.9,13.9,40.9C13.9,40.9,13.9,40.9,13.9,40.9L13.9,40.9z"/>
	<path fill-rule="evenodd" clip-rule="evenodd" fill="#FFFFFF" d="M7.6,26c0.3-0.3,0.6-0.6,0.9-0.9C8.1,25.2,7.8,25.5,7.6,26L7.6,26
		z"/>
	<path fill-rule="evenodd" clip-rule="evenodd" fill="#FFFFFF" d="M12.8,43.2c-0.1-0.2-0.2-0.4,0-0.9c0.2-0.5,0.4-0.6,0.5-0.6
		c0.2,0.2,0,0.5,0,1L13,42.4l0.1,0.6l-0.3-0.3L12.8,43.2L12.8,43.2z"/>
	<path fill-rule="evenodd" clip-rule="evenodd" fill="#FFFFFF" d="M15.9,43.8c0-0.1-0.1-0.1-0.1-0.1C15.7,43.7,15.8,43.8,15.9,43.8
		c0,0.2,0,0.2,0.1,0.2C16,44,16,43.9,15.9,43.8L15.9,43.8z"/>
	<path fill-rule="evenodd" clip-rule="evenodd" fill="#FFFFFF" d="M15.9,44.2c-0.1-0.1-0.2-0.2-0.2-0.2c0,0,0,0.1,0.1,0.3
		c0.1,0.1,0.2,0.2,0.2,0.2C16,44.4,16,44.3,15.9,44.2L15.9,44.2z"/>
	<path fill-rule="evenodd" clip-rule="evenodd" fill="#FFFFFF" d="M15.7,44.6c-0.1-0.1-0.1-0.2-0.2-0.2c0,0,0,0.1,0,0.2
		c0.1,0.1,0.1,0.2,0.2,0.2C15.8,44.8,15.7,44.7,15.7,44.6L15.7,44.6z"/>
	<path fill-rule="evenodd" clip-rule="evenodd" fill="#FFFFFF" d="M15.5,45c0-0.2-0.2-0.3-0.2-0.3c0,0,0,0.2,0,0.4
		c0,0.2,0.1,0.3,0.2,0.3C15.6,45.3,15.6,45.1,15.5,45L15.5,45z"/>
	<path fill-rule="evenodd" clip-rule="evenodd" fill="#FFFFFF" d="M12.9,44.8c0.1,0,0.2,0.1,0.2,0.1c0,0-0.1,0-0.2,0
		c-0.1,0-0.2-0.1-0.2-0.1C12.7,44.8,12.8,44.8,12.9,44.8L12.9,44.8z"/>
	<path fill-rule="evenodd" clip-rule="evenodd" fill="#FFFFFF" d="M12.8,44.5c0.2,0,0.3,0.1,0.3,0.1c0,0-0.1,0.1-0.3,0
		c-0.2,0-0.3-0.1-0.3-0.1C12.5,44.5,12.6,44.5,12.8,44.5L12.8,44.5z"/>
	<path fill-rule="evenodd" clip-rule="evenodd" fill="#FFFFFF" d="M12.7,44.2c0.2,0,0.3,0.1,0.3,0.2c0,0.1-0.2,0.1-0.4,0
		c-0.2,0-0.3-0.1-0.3-0.2C12.4,44.2,12.5,44.1,12.7,44.2L12.7,44.2z"/>
	<path fill-rule="evenodd" clip-rule="evenodd" fill="#FFFFFF" d="M18.5,40.4c-0.1-0.4,0.4-0.6,0.9-0.4c0.4,0.2,0.9,0.2,1.5,0.1
		c0.3-0.1,0.6-0.1,1,0c0.3,0.2,0.3,0.3-0.1,0.4c-0.7,0.7-1.2,1.3-1.3,2c-0.2-0.3,0.3-1.2,1.1-2.2c-0.5,0.4-0.9,0.9-1.3,1.4
		c0.1-0.4,0.4-0.8,0.8-1.4c-0.9,0.6-1.5,1.6-1.4,3.3c-0.3-1.1-0.1-2.1,0.6-3.1l-0.9,1l0.9-1.3l-0.5,0.2l0-0.2l-0.3,0.2v-0.2
		l-0.4,0.4l0.1-0.4C18.7,40.1,18.6,40.2,18.5,40.4L18.5,40.4z"/>
	<path fill-rule="evenodd" clip-rule="evenodd" fill="#FFFFFF" d="M18.9,42.9c0,0.3,0,0.6,0.2,0.9c0.1,0.1,0.2,0,0.1-0.2
		C19,43.5,18.9,43.2,18.9,42.9L18.9,42.9z"/>
	<path fill-rule="evenodd" clip-rule="evenodd" fill="#FFFFFF" d="M20,43c0,0,0.1,0.1,0.1,0.3s0,0.3-0.1,0.3c0,0-0.1-0.1-0.1-0.3
		S19.9,43,20,43L20,43z"/>
	<path fill-rule="evenodd" clip-rule="evenodd" fill="#FFFFFF" d="M21,41.9c0,0,0,0.1,0,0.2c-0.1,0.1-0.1,0.2-0.2,0.2
		c0,0,0-0.1,0-0.2C20.9,42,20.9,41.9,21,41.9L21,41.9z"/>
	<path fill-rule="evenodd" clip-rule="evenodd" fill="#FFFFFF" d="M21.2,41.4c0,0,0,0.1-0.1,0.2c-0.1,0.1-0.2,0.2-0.2,0.2
		c0,0,0-0.1,0.1-0.2C21.1,41.4,21.2,41.4,21.2,41.4L21.2,41.4z"/>
	<path fill-rule="evenodd" clip-rule="evenodd" fill="#FFFFFF" d="M29.5,42.2c0.4,0.1,0.4,0.7,0.2,1.3C29.7,43,29.6,42.6,29.5,42.2
		L29.5,42.2z"/>
	<path fill-rule="evenodd" clip-rule="evenodd" fill="#FFFFFF" d="M27.6,45c0-0.1-0.1-0.2-0.1-0.3C27.5,44.8,27.5,44.9,27.6,45
		L27.6,45L27.6,45z"/>
	<path fill-rule="evenodd" clip-rule="evenodd" fill="#FFFFFF" d="M23.2,38.3c0,0,0.1,0,0.2,0l0.2,0.3c-0.1,0-0.1,0-0.2,0L23.2,38.3
		L23.2,38.3z"/>
	<path fill-rule="evenodd" clip-rule="evenodd" fill="#FFFFFF" d="M22.9,40.2c0,0,0.1,0.1,0.1,0.2c0,0.1,0,0.2,0,0.2
		c0,0-0.1-0.1-0.1-0.2C22.8,40.3,22.9,40.2,22.9,40.2L22.9,40.2z"/>
	<path fill-rule="evenodd" clip-rule="evenodd" fill="#FFFFFF" d="M23.2,40.2c0,0,0.1,0.1,0.1,0.2c0,0.1,0.1,0.2,0,0.2
		c0,0-0.1-0.1-0.1-0.2C23.2,40.3,23.2,40.2,23.2,40.2L23.2,40.2z"/>
	<path fill-rule="evenodd" clip-rule="evenodd" fill="#FFFFFF" d="M23.6,40.1c0,0,0.1,0.1,0.2,0.3c0,0.1,0,0.2-0.1,0.2
		c-0.1,0-0.1,0-0.1-0.2C23.6,40.3,23.6,40.1,23.6,40.1L23.6,40.1z"/>
	<path fill-rule="evenodd" clip-rule="evenodd" fill="#FFFFFF" d="M24,40c0,0,0.1,0.1,0.2,0.3c0,0.2,0.1,0.3,0,0.3
		c0,0-0.1-0.1-0.2-0.3C24,40.2,24,40,24,40L24,40z"/>
	<path fill-rule="evenodd" clip-rule="evenodd" fill="#FFFFFF" d="M24.4,40c0.1,0,0.1,0.1,0.2,0.3c0,0.2,0,0.4,0,0.4
		c0,0-0.1-0.2-0.2-0.3C24.3,40.2,24.3,40,24.4,40L24.4,40z"/>
	<path fill-rule="evenodd" clip-rule="evenodd" fill="#FFFFFF" d="M24.8,40.1c0,0,0.2,0.2,0.2,0.4c0,0.2,0.1,0.3-0.1,0.3
		c-0.2,0-0.1-0.1-0.2-0.3C24.8,40.3,24.8,40.1,24.8,40.1L24.8,40.1z"/>
	<path fill-rule="evenodd" clip-rule="evenodd" fill="#FFFFFF" d="M25.1,40c0.1,0,0.1,0.1,0.2,0.3c0,0.2,0,0.4,0,0.4
		c0,0-0.1-0.1-0.2-0.3C25.1,40.2,25.1,40,25.1,40L25.1,40z"/>
	<path fill-rule="evenodd" clip-rule="evenodd" fill="#FFFFFF" d="M25.6,39.9c0,0,0.1,0.2,0.1,0.4c0,0.2,0,0.4-0.1,0.4
		c0,0-0.1-0.2-0.1-0.4C25.5,40.1,25.5,39.9,25.6,39.9L25.6,39.9z"/>
	<path fill-rule="evenodd" clip-rule="evenodd" fill="#FFFFFF" d="M26,40c0,0,0.1,0.2,0.1,0.4c0,0.2,0,0.4-0.1,0.4
		c-0.1,0-0.1-0.2-0.1-0.4C25.9,40.2,25.9,40,26,40L26,40z"/>
	<path fill-rule="evenodd" clip-rule="evenodd" fill="#FFFFFF" d="M26.3,39.9c0,0,0.1,0.2,0.1,0.4c0,0.2,0,0.4-0.1,0.4
		c0,0-0.1-0.2-0.1-0.4C26.2,40.1,26.3,39.9,26.3,39.9L26.3,39.9z"/>
	<path fill-rule="evenodd" clip-rule="evenodd" fill="#FFFFFF" d="M26.7,39.8c0.1,0,0.1,0.2,0.1,0.5c0,0.2-0.1,0.5-0.2,0.5
		c0,0-0.1-0.2,0-0.5C26.6,40,26.7,39.8,26.7,39.8L26.7,39.8z"/>
	<path fill-rule="evenodd" clip-rule="evenodd" fill="#FFFFFF" d="M27.3,39.8c0.1,0,0.1,0.2,0,0.5c0,0.3-0.1,0.5-0.2,0.5
		c0,0-0.1-0.2,0-0.5C27.1,40,27.2,39.8,27.3,39.8L27.3,39.8z"/>
	<path fill-rule="evenodd" clip-rule="evenodd" fill="#FFFFFF" d="M27.7,39.5c0.1,0,0.2,0.3,0.1,0.6c-0.1,0.3-0.2,0.6-0.2,0.6
		c-0.1,0,0-0.3,0-0.6C27.7,39.8,27.6,39.5,27.7,39.5L27.7,39.5z"/>
	<path fill-rule="evenodd" clip-rule="evenodd" fill="#FFFFFF" d="M25.4,42c0,0,0.1,0.1,0.1,0.2c0,0.1,0,0.2,0,0.2
		c0,0-0.1-0.1-0.1-0.2C25.4,42.1,25.4,42,25.4,42L25.4,42z"/>
	<path fill-rule="evenodd" clip-rule="evenodd" fill="#FFFFFF" d="M25.7,41.9c0,0,0.1,0.1,0.2,0.2c0,0.1,0,0.2,0,0.2
		c-0.1,0-0.1,0-0.1-0.2C25.7,42.1,25.7,41.9,25.7,41.9L25.7,41.9z"/>
	<path fill-rule="evenodd" clip-rule="evenodd" fill="#FFFFFF" d="M28.7,41c0,0,0,0.1,0,0.2l0,0c0.1,0,0.1-0.1,0.2-0.1
		c0-0.4,0-0.8,0-1.1C28.9,40.3,28.8,40.7,28.7,41L28.7,41z"/>
	<path fill-rule="evenodd" clip-rule="evenodd" fill="#FFFFFF" d="M28.5,41.5c-0.1,0.6-0.1,0.8-0.4,0.9c0.1-0.4,0-0.6,0-0.7
		c-0.1,0-0.1,0-0.2,0c0,0,0,0,0,0.1c0,0.2,0,0.5-0.2,0.9c0-0.3,0.1-0.6,0.1-0.9c-0.1,0-0.1,0-0.2,0.1c0,0,0,0.3,0,0.3
		c0,0.1-0.2,0.5-0.2,0.5c0,0,0.1-0.6,0-0.8c0,0-0.1,0-0.2,0c0,0,0,0.1,0,0.1c0,0.1,0,0.1-0.1,0.1c0,0,0,0,0-0.1c0,0,0-0.1,0-0.1
		c0,0-0.1,0-0.1,0v0c0,0.1,0,0.1,0,0.1c0,0-0.1-0.1-0.1-0.1c0,0-0.1,0-0.1,0c0,0.1,0,0.2-0.1,0.2c-0.1,0-0.1-0.1-0.1-0.2
		c-0.1,0-0.1,0-0.2,0c0,0.1,0,0.2,0,0.2c0,0-0.1,0-0.1-0.1c-0.1,0-0.1,0-0.2,0c0,0.1,0,0.1,0,0.2c0,0-0.1,0-0.1-0.1l0,0c0,0,0,0,0,0
		c0,0,0-0.1,0-0.1C26,41.9,26,41.7,26,41.7c0,0,0.1,0.1,0.2,0.2c0,0,0,0.1,0,0.2c0,0,0.1,0,0.2,0c0,0,0-0.1,0-0.1c0-0.2,0-0.3,0-0.4
		c0,0,0.1,0.1,0.2,0.3c0,0,0,0.1,0,0.1c0.1,0,0.1,0,0.2-0.1c0-0.1,0-0.2,0-0.2c0-0.1,0-0.1,0-0.1c0,0,0.1,0.1,0.2,0.3
		c0,0,0.1,0,0.1,0c0,0,0,0,0,0c0-0.1,0-0.2,0-0.3c0-0.1,0-0.1,0-0.1c0,0,0.1,0.2,0.2,0.3c0,0,0,0,0,0.1c0,0,0.1,0,0.1,0c0,0,0,0,0,0
		c0-0.1,0-0.2,0-0.3c0-0.1,0-0.1,0-0.1c0,0,0,0,0.1,0.1c0,0.1,0,0.2,0.1,0.3l0,0c0,0,0.1,0,0.1,0c0-0.1,0-0.1,0-0.2
		c0-0.1,0-0.1,0-0.1c0,0,0.1,0.1,0.1,0.2c0.1,0,0.1,0,0.2-0.1c0-0.1,0-0.2,0-0.2c0-0.1,0-0.1,0-0.1c0,0,0,0,0,0.1c0,0.1,0,0.1,0,0.2
		c0,0,0.1,0,0.1-0.1l0,0c0-0.1,0-0.3,0-0.4c0-0.1,0-0.2,0.1-0.2c0,0,0,0,0,0.1c0,0.1,0,0.2,0,0.3l0,0c0,0,0.1,0,0.1,0
		c0.2-0.6,0.4-1.5,0.4-2.2c0-0.1-0.1-0.2-0.1-0.2c0,0.8-0.1,1.5-0.4,2c0.1-0.7,0.2-1.4,0-2.2h0c0,0,0,0,0,0c0,0.9,0,1.7-0.2,2.2
		c0.1-0.7,0.1-1.5-0.2-2.4c0,0-0.1,0-0.1,0c0.2,0.2,0.2,0.9,0.1,1c-0.1-0.4,0-0.6-0.4-0.8c0,0-0.1,0-0.1,0c0.2,0.2,0.2,0.6,0.2,0.8
		c-0.1-0.2-0.3-0.5-0.5-0.7c-0.1,0-0.1,0-0.2,0c0.3,0.3,0.3,0.4,0.2,0.7c-0.1-0.3-0.5-0.5-0.7-0.6c-0.1,0-0.1,0-0.2,0
		c0.2,0.1,0.5,0.5,0.4,0.6c-0.2-0.2-0.5-0.4-0.6-0.6c-0.1,0,0,0-0.1,0c0,0.1,0,0.2,0,0.4c-0.2,0-0.3-0.1-0.6-0.3c0,0-0.1,0-0.1,0
		c0,0.1,0.1,0.2,0.1,0.3c0-0.1-0.5-0.3-0.5-0.4c0,0,0.1,0-0.2,0c0,0.1,0.2,0.4,0.2,0.5c0-0.1-0.4-0.4-0.4-0.5c-0.1,0-0.2,0-0.3,0
		l-0.2-0.3c1,0.1,2.1,0,3.4-0.2l1.2-0.2c0.4-0.1,0.7,0.1,0.8,0.7l0.1,0.7c0.3,0.4,0.4,0.8,0.1,1.5c0.1,0.5,0.4,0.9,0.8,1.2
		c0.4,0.3,0.4,0.8,0,1.5c-0.4,1-0.9,1.6-1.4,2.2c0,0,0,0,0,0.1c0,0,0,0-0.1,0.1c0,0,0-0.1,0.1-0.1c0-0.1,0-0.2-0.1-0.3
		c0.1,0.1,0.1,0.2,0.1,0.2c0.1-0.1,0.1-0.2,0.2-0.3c0-0.1,0-0.2-0.1-0.4c0,0.1,0.1,0.2,0.1,0.2c0-0.1,0.1-0.2,0.2-0.3
		c0-0.1-0.1-0.2-0.1-0.4c0.1,0.1,0.1,0.2,0.2,0.3c0.1-0.1,0.1-0.2,0.2-0.3c0-0.1-0.1-0.2-0.1-0.3c0,0.1,0.1,0.1,0.1,0.2
		c0.1-0.2,0.1-0.4,0.1-0.5l-2.3,1.4c0.2-0.2,0.4-0.3,0.6-0.5l0,0c0-0.1,0-0.3-0.1-0.4c0.1,0.1,0.1,0.2,0.2,0.4c0,0,0.1-0.1,0.2-0.1
		c0-0.2,0-0.4-0.1-0.5c0.1,0.2,0.1,0.3,0.2,0.4c0.1,0,0.1-0.1,0.2-0.2c0-0.2,0-0.5-0.1-0.7c0.1,0.2,0.2,0.4,0.2,0.6
		c0.1-0.1,0.1-0.1,0.2-0.2c0-0.3-0.1-0.7-0.1-1c0.2,0.3,0.3,0.6,0.3,0.8c0,0,0.1-0.1,0.1-0.1c0-0.3-0.1-0.7-0.1-1.1
		c0.2,0.3,0.3,0.7,0.3,0.9c0,0,0,0,0.1-0.1c0-0.4-0.1-0.8-0.1-1.3c0.2,0.4,0.3,0.8,0.3,1.1c0,0,0.1-0.1,0.1-0.1
		c0-0.6-0.2-1.2-0.4-1.8c-0.1,0.3-0.1,0.4-0.2,0.4c0-0.4,0-0.5,0-0.6c0,0.5-0.2,0.8-0.3,0.9l0.1-0.8H28.5L28.5,41.5z"/>
	<path fill-rule="evenodd" clip-rule="evenodd" fill="#FFFFFF" d="M26.5,42.8L26.5,42.8c0,0.1,0,0.2-0.1,0.2c-0.1,0-0.1-0.1,0-0.2
		H26.5L26.5,42.8z"/>
	<path fill-rule="evenodd" clip-rule="evenodd" fill="#FFFFFF" d="M26.8,42.6c0,0,0.1,0.1,0.1,0.2c0,0.2,0,0.3-0.1,0.3
		c-0.1,0-0.1-0.2-0.1-0.3C26.7,42.6,26.7,42.6,26.8,42.6L26.8,42.6z"/>
	<path fill-rule="evenodd" clip-rule="evenodd" fill="#FFFFFF" d="M27.1,42.6L27.1,42.6c0,0.2,0,0.4-0.1,0.4c-0.1,0-0.1-0.2,0-0.4
		H27.1L27.1,42.6z"/>
	<path fill-rule="evenodd" clip-rule="evenodd" fill="#FFFFFF" d="M27,42.3c0,0,0,0,0,0.1H27C27,42.4,27,42.3,27,42.3L27,42.3z"/>
	<path fill-rule="evenodd" clip-rule="evenodd" fill="#FFFFFF" d="M27.3,42.3c0,0,0.1,0.1,0.1,0.3c0,0.2,0,0.4-0.2,0.4
		s-0.1-0.2-0.1-0.4C27.2,42.4,27.3,42.3,27.3,42.3L27.3,42.3z"/>
	<path fill-rule="evenodd" clip-rule="evenodd" fill="#FFFFFF" d="M25.8,36c0.6,0.1,1.1,0.6,1.7,1.1c0.1,0.2,0,0.2-0.1,0.1
		C27,37,26.4,36.4,25.8,36L25.8,36z"/>
	<path fill-rule="evenodd" clip-rule="evenodd" fill="#FFFFFF" d="M27.9,37.4c0.1,0.1,0.2,0.1,0.1,0.2c0,0-0.1,0-0.2,0
		c-0.1-0.1-0.2-0.2-0.1-0.2C27.7,37.3,27.8,37.3,27.9,37.4L27.9,37.4z"/>
	<path fill-rule="evenodd" clip-rule="evenodd" fill="#FFFFFF" d="M22.4,38.2c0.2,0,0.4,0,0.6,0.1l0.1,0.2l0,0c-0.1,0,0.2,0.7-0.2,0
		c0-0.1-0.2-0.1-0.3-0.1C22.5,38.3,22.6,38.3,22.4,38.2L22.4,38.2z"/>
	<path fill-rule="evenodd" clip-rule="evenodd" fill="#FFFFFF" d="M19.6,47.7c0.1,0,0.2,0,0.2,0.1c0,0-0.1,0.1-0.2,0.1
		c-0.1,0-0.2,0-0.2-0.1C19.4,47.8,19.5,47.7,19.6,47.7L19.6,47.7z"/>
	<path fill-rule="evenodd" clip-rule="evenodd" fill="#FFFFFF" d="M19.9,48.3c0.2,0,0.4-0.1,0.4,0c0,0-0.1,0.1-0.3,0.2
		c-0.2,0-0.4,0-0.4,0C19.6,48.4,19.7,48.3,19.9,48.3L19.9,48.3z"/>
	<path fill-rule="evenodd" clip-rule="evenodd" fill="#FFFFFF" d="M20.1,48.5c0.2,0,0.4-0.1,0.4,0c0,0-0.1,0.1-0.3,0.2
		c-0.2,0.1-0.4,0.1-0.4,0C19.7,48.6,19.9,48.5,20.1,48.5L20.1,48.5z"/>
	<path fill-rule="evenodd" clip-rule="evenodd" fill="#FFFFFF" d="M20.3,48.7c0.1,0,0.3,0,0.3,0c0,0-0.1,0.1-0.2,0.1
		c-0.2,0-0.3,0-0.3,0C20.1,48.7,20.2,48.7,20.3,48.7L20.3,48.7z"/>
	<path fill-rule="evenodd" clip-rule="evenodd" fill="#FFFFFF" d="M20.5,48.8c0.1,0,0.2,0,0.2,0.1c0,0-0.1,0.1-0.2,0.1
		c-0.1,0-0.2,0-0.2-0.1C20.3,48.9,20.4,48.8,20.5,48.8L20.5,48.8z"/>
	<path fill-rule="evenodd" clip-rule="evenodd" fill="#FFFFFF" d="M22.9,48c0.2-0.1,0.4-0.1,0.4,0c0,0.1-0.1,0.2-0.3,0.3
		c-0.2,0.1-0.4,0.1-0.4,0C22.6,48.2,22.7,48,22.9,48L22.9,48z"/>
	<path fill-rule="evenodd" clip-rule="evenodd" fill="#FFFFFF" d="M22.6,47.8c0.1-0.1,0.3-0.1,0.3,0c0,0.1-0.1,0.2-0.2,0.2
		c-0.1,0.1-0.3,0-0.3,0C22.3,47.9,22.4,47.8,22.6,47.8L22.6,47.8z"/>
	<path fill-rule="evenodd" clip-rule="evenodd" fill="#FFFFFF" d="M22.3,47.4c0.1,0,0.2,0,0.2,0c0,0.1,0,0.1-0.2,0.2
		c-0.1,0-0.2,0-0.2,0C22.1,47.5,22.2,47.4,22.3,47.4L22.3,47.4z"/>
	<path fill-rule="evenodd" clip-rule="evenodd" fill="#FFFFFF" d="M19.1,45.5c0-0.1-0.1-0.1-0.2,0c0,0.2,0,0.4,0.2,0.4
		c0.2,0.1,0.2-0.1,0.1-0.2C19.1,45.7,19.1,45.6,19.1,45.5L19.1,45.5z"/>
	<path fill-rule="evenodd" clip-rule="evenodd" fill="#FFFFFF" d="M18.8,45.4c0-0.1-0.1-0.2-0.2-0.1c-0.1,0.2-0.2,0.4,0,0.6
		c0.2,0.2,0.3,0,0.2-0.1C18.8,45.6,18.7,45.5,18.8,45.4L18.8,45.4z"/>
	<path fill-rule="evenodd" clip-rule="evenodd" fill="#FFFFFF" d="M34.2,35.5c-0.1,0.2-0.2,0.9,0.5,1.8c0.2,0.3,0,0.5,0.3,0.6
		c0.1,0,0.2-0.1,0.2-0.3L35,37.5h0.3l-0.3-0.2c0.1,0,0.4,0,0.4-0.1c0-0.1-0.3-0.2-0.5-0.2l0.4-0.1c0-0.1-0.2-0.2-0.6-0.3l0.4-0.1
		l-0.4-0.2l0.3-0.1l-0.5-0.2l0.3-0.1l-0.3-0.1l0.3-0.1C34.4,35.5,34.4,35.3,34.2,35.5L34.2,35.5z"/>
	<path fill-rule="evenodd" clip-rule="evenodd" fill="#FFFFFF" d="M33.6,36.1c-0.1-0.3-0.2-0.5-0.1-0.7c0.2-0.4,0.3-0.5,0.4-0.5
		c0.3,0.3-0.2,0.5-0.3,0.7C33.7,35.5,33.6,35.7,33.6,36.1L33.6,36.1z"/>
	<path fill-rule="evenodd" clip-rule="evenodd" fill="#FFFFFF" d="M33.5,34.7c0.1-0.1,0.2-0.2,0.3-0.1c0,0,0,0.2-0.1,0.3
		C33.6,35,33.4,35,33.4,35C33.3,35,33.4,34.8,33.5,34.7L33.5,34.7z"/>
	<path fill-rule="evenodd" clip-rule="evenodd" fill="#FFFFFF" d="M33.4,36.1c0.1,0,0.1,0.1,0.1,0.2c0,0.1-0.1,0.1-0.1,0.1
		c-0.1,0-0.2-0.1-0.2-0.1C33.3,36.2,33.3,36.1,33.4,36.1L33.4,36.1z"/>
	<path fill-rule="evenodd" clip-rule="evenodd" fill="#FFFFFF" d="M33.7,36.5c0.1,0,0.1,0.1,0,0.2c0,0.1-0.1,0.2-0.2,0.1
		c-0.1,0-0.1-0.1,0-0.2C33.5,36.6,33.6,36.5,33.7,36.5L33.7,36.5z"/>
	<path fill-rule="evenodd" clip-rule="evenodd" fill="#FFFFFF" d="M34,37c0.1,0,0.1,0.2,0,0.3c-0.1,0.1-0.2,0.2-0.3,0.2
		c-0.1,0-0.1-0.2-0.1-0.3C33.7,37,33.9,37,34,37L34,37z"/>
	<path fill-rule="evenodd" clip-rule="evenodd" fill="#FFFFFF" d="M34.3,37.5c0.1,0.1,0,0.2-0.1,0.2c-0.1,0-0.2,0-0.3-0.1
		c0-0.1,0-0.2,0.1-0.2C34.2,37.4,34.3,37.4,34.3,37.5L34.3,37.5z"/>
	<path fill-rule="evenodd" clip-rule="evenodd" fill="#FFFFFF" d="M35.9,37.8c0-0.1,0-0.2-0.1-0.2c-0.1,0-0.2,0-0.2-0.1
		c-0.1-0.3,0-0.4,0.3-0.5c0.2,0,0.2,0.1,0.2,0.2L36,37.2c0.2,0.1,0.3,0.1,0.4,0.2c-0.1,0-0.2,0-0.2,0.1c0.4-0.1,0.4,0.5,0,0.4
		c-0.2-0.1-0.3,0-0.2,0.4c0.1,0.4,0.4,0.6,0.4,0.1c0-0.2,0.7-0.3,0.8,0.2l-0.3-0.1c0.1,0.4,0.4,0.2,0.4,0.5l-0.2,0
		c0.3,0.2,0.5,0.4,0.6,0.7c-0.3,0-0.3-0.4-0.6-0.4c0.4,0.5,0.8,0.4,1,0.9c-0.3,0-0.7-0.3-1.1-0.7c0.4,0.5,0.6,1,0.5,1.2
		c-0.6-0.2-0.7-1.1-0.9-1.3c0,0.4,0.3,0.7,0.2,1.1c-0.2-0.3-0.3-0.7-0.3-1.3c0.2,0,0.3-0.1,0.3-0.5c0-0.4-0.2-0.4-0.2,0
		c0,0.3-0.2,0.4-0.8,0c-0.1,0.1,0,0.2,0.4,0.4l0,0.3l0.2-0.3l0.1,0.9c0,0.2-0.1,0.2-0.2,0l-0.1-0.5c0,0.3,0,0.5-0.2,0.5l-0.1-0.9
		l-0.2,0.3l-0.1-0.5l-0.2,0.2v-0.6c-0.2,0.1-0.3,0-0.5-0.2c0.2,0.1,0.4,0,0.6-0.1C35.3,38,35.5,37.8,35.9,37.8L35.9,37.8z"/>
	<path fill-rule="evenodd" clip-rule="evenodd" fill="#FFFFFF" d="M30.7,40.5c0-0.2,0.1-0.3-0.1-0.5c-0.1-0.1-0.2-0.1-0.1,0
		C30.5,40.1,30.6,40.3,30.7,40.5L30.7,40.5z"/>
	<path fill-rule="evenodd" clip-rule="evenodd" fill="#FFFFFF" d="M30.3,39.1c0.3,0.2,0.4,0.2,0.6,0.6c0,0.2,0,0.3-0.1,0.1
		C30.6,39.6,30.5,39.3,30.3,39.1L30.3,39.1z"/>
	<path fill-rule="evenodd" clip-rule="evenodd" fill="#FFFFFF" d="M30.4,38.3c0.4,0.3,0.5,0.3,0.7,0.9c0,0.2,0,0.4-0.2,0.2
		C30.7,39,30.6,38.6,30.4,38.3L30.4,38.3z"/>
	<path fill-rule="evenodd" clip-rule="evenodd" fill="#FFFFFF" d="M30.5,37.6c0.4,0.1,0.7,0.6,0.7,1.1c0,0.2-0.1,0.4-0.2,0.2
		C31,38.6,30.9,37.9,30.5,37.6L30.5,37.6z"/>
	<path fill-rule="evenodd" clip-rule="evenodd" fill="#FFFFFF" d="M30.7,37.3c0.4,0.2,0.6,0.4,0.7,0.8c0,0.2,0,0.3-0.2,0.2
		C31.2,37.9,31,37.6,30.7,37.3L30.7,37.3z"/>
	<path fill-rule="evenodd" clip-rule="evenodd" fill="#FFFFFF" d="M33.3,48.2c0.1-0.2,0.4-0.4,0.8-0.3c0.2,0,0.2,0.3,0.2,0.4
		c-0.1-0.1-0.2-0.2-0.3-0.1C33.7,48,33.5,48.2,33.3,48.2L33.3,48.2z"/>
	<path fill-rule="evenodd" clip-rule="evenodd" fill="#FFFFFF" d="M32.1,48.3c0.1,0,0.2,0,0.2,0.1c0,0.1-0.1,0.1-0.2,0.1
		c-0.1,0-0.1,0-0.1-0.1C32,48.3,32.1,48.3,32.1,48.3L32.1,48.3z"/>
	<path fill-rule="evenodd" clip-rule="evenodd" fill="#FFFFFF" d="M31.4,48.3c0,0,0.1,0.1,0.2,0.2c0,0.1,0,0.2,0,0.2
		c0,0-0.1,0-0.2-0.2C31.3,48.4,31.3,48.3,31.4,48.3L31.4,48.3z"/>
	<path fill-rule="evenodd" clip-rule="evenodd" fill="#FFFFFF" d="M31.6,48.3c0,0,0.1,0,0.1,0.1c0,0.1,0,0.1,0,0.2
		c0,0-0.1,0-0.1-0.1C31.6,48.3,31.6,48.3,31.6,48.3L31.6,48.3z"/>
	<path fill-rule="evenodd" clip-rule="evenodd" fill="#FFFFFF" d="M31.7,45.4C31.7,45.4,31.6,45.5,31.7,45.4
		c-0.1,0.2-0.2,0.2-0.2,0.2c0,0,0-0.1,0-0.2c0,0,0.1-0.1,0.1-0.1c0,0,0,0,0-0.1c0,0,0,0,0,0.1c-0.1,0.1-0.2,0.2-0.2,0.1
		c0,0,0-0.2,0.1-0.3c0,0,0.1-0.1,0.1-0.1c0,0,0,0,0,0l0,0c-0.1,0.1-0.2,0.2-0.2,0.1c0,0,0-0.2,0.1-0.3c0,0,0,0,0,0
		c0,0,0-0.1-0.1-0.1c-0.1,0-0.1,0.1-0.2,0c0,0,0-0.1,0.1-0.2c0-0.1-0.1-0.2,0-0.2c0.1-0.1,0.2,0,0.3,0.3c0,0.1,0,0.2,0.1,0.2
		c0,0.1,0.2,0.1,0.2,0.2c0.2,0.2,0.1,0.4,0.1,0.5C31.8,45.6,31.8,45.6,31.7,45.4L31.7,45.4z"/>
	<path fill-rule="evenodd" clip-rule="evenodd" fill="#FFFFFF" d="M31.7,45.6c0.1,0,0,0.2-0.1,0.3c-0.1,0.1-0.2,0.2-0.3,0.2
		c-0.1,0,0-0.2,0.1-0.3C31.5,45.7,31.6,45.6,31.7,45.6L31.7,45.6z"/>
	<path fill-rule="evenodd" clip-rule="evenodd" fill="#FFFFFF" d="M34.4,44.3c0,0,0,0.1,0,0.3c0,0.1-0.1,0.2-0.2,0.2
		c0,0,0-0.1,0-0.3C34.3,44.4,34.4,44.3,34.4,44.3L34.4,44.3z"/>
	<path fill-rule="evenodd" clip-rule="evenodd" fill="#FFFFFF" d="M34.1,44.2c0,0,0,0.2-0.1,0.4c-0.1,0.2-0.2,0.3-0.3,0.3
		c-0.1,0,0-0.2,0.1-0.4C33.9,44.3,34,44.2,34.1,44.2L34.1,44.2z"/>
	<path fill-rule="evenodd" clip-rule="evenodd" fill="#FFFFFF" d="M33.3,43.9c0,0,0,0.2,0,0.3c-0.1,0.2-0.2,0.3-0.2,0.2
		c0,0,0-0.2,0-0.3C33.2,44,33.3,43.9,33.3,43.9L33.3,43.9z"/>
	<path fill-rule="evenodd" clip-rule="evenodd" fill="#FFFFFF" d="M11.9,6.7c0.1-0.3,0.3-0.5,0.5-0.5l0.5,0.1c0.2,0.1,0.2,0.2,0,0.2
		c-0.4-0.1-0.6,0-0.7,0.3C12,7,11.9,7,11.9,6.7L11.9,6.7z"/>
	<path fill-rule="evenodd" clip-rule="evenodd" fill="#FFFFFF" d="M13.5,7.6c0,0,0.1,0,0.1,0.1c0,0.1-0.1,0.1-0.1,0.1
		c-0.1,0-0.1-0.1-0.1-0.1C13.4,7.6,13.4,7.6,13.5,7.6L13.5,7.6z"/>
	<path fill-rule="evenodd" clip-rule="evenodd" fill="#FFFFFF" d="M11.9,7.1c-0.2,0.2-0.1,0.4,0.2,0.7l0.4,0.4
		c0.3,0.2,0.5,0.2,0.4-0.2c0-0.2,0-0.3,0.2-0.3c0.1,0,0.2-0.1,0.3-0.2c0-0.2,0-0.3-0.1-0.3c-0.3,0.2-0.5,0.3-0.7,0.3
		c0.3-0.2,0.5-0.3,0.5-0.4c0.1-0.1,0.2-0.1,0.3,0c0-0.1,0-0.2-0.2-0.3c-0.3,0-0.6,0.2-0.9,0.5c0.2-0.4,0.4-0.6,0.8-0.6
		c0-0.1,0-0.2-0.1-0.3c-0.2,0-0.5,0-0.7,0.2L11.9,7.1L11.9,7.1z"/>
	<path fill-rule="evenodd" clip-rule="evenodd" fill="#FFFFFF" d="M13.6,9.9c0.7,0.7,1.3,1.5,1.8,2.5v0.8l-0.3-0.9
		c0,0.6,0,1.1-0.1,0.9l-0.2-1.3l-0.2,0.6l-0.1-0.8c-0.1-0.1-0.1,0.4-0.1,1.1c-0.2-0.2-0.2-0.8-0.2-1.4l-0.2,0.6
		c-0.1-0.3-0.1-0.8,0-1.2c-0.1-0.1-0.2,0.1-0.3,0.8c-0.2-0.4-0.1-0.8,0-1.2l-0.2,0.3L13.6,9.9L13.6,9.9z"/>
	<path fill-rule="evenodd" clip-rule="evenodd" fill="#FFFFFF" d="M19,3.7c0.2,0.2,0.6,0.2,0.9,0.2l0,0.2c0.5,0,1.1-0.2,1.6-0.6
		c0,0-0.1,0-0.2,0C21,3.6,21,3.5,21.8,3.1c0.1-0.1,0.2,0,0.4,0L22.6,3c-0.4,0.4-0.8,0.7-1.2,1c-0.6,0.4-1.2,0.4-1.7,0.3
		c-0.3-0.1-0.6-0.3-0.8-0.5C18.8,3.7,18.7,3.6,19,3.7L19,3.7z"/>
	<path fill-rule="evenodd" clip-rule="evenodd" fill="#FFFFFF" d="M22.1,3.8c0.1,0,0.1,0,0.1,0.1c0,0,0,0.1-0.1,0.1
		C22,3.9,22,3.9,22.1,3.8C22,3.8,22,3.8,22.1,3.8L22.1,3.8z"/>
	<path fill-rule="evenodd" clip-rule="evenodd" fill="#FFFFFF" d="M22.7,5.1c0-0.1,0.1-0.1,0.1,0c0,0,0,0.1,0,0.1
		c0,0.1-0.1,0.1-0.1,0.1C22.7,5.2,22.7,5.2,22.7,5.1L22.7,5.1z"/>
	<path fill-rule="evenodd" clip-rule="evenodd" fill="#FFFFFF" d="M24.3,4.5c0.1,0,0.1,0,0.2,0c0,0,0,0.1-0.1,0.2
		c-0.1,0-0.1,0-0.2,0C24.2,4.6,24.2,4.5,24.3,4.5L24.3,4.5z"/>
	<path fill-rule="evenodd" clip-rule="evenodd" fill="#FFFFFF" d="M24,4.3c0.1,0,0.1-0.1,0.2,0c0,0,0,0.1,0,0.2
		c-0.1,0-0.1,0.1-0.2,0C23.9,4.4,23.9,4.3,24,4.3L24,4.3z"/>
	<path fill-rule="evenodd" clip-rule="evenodd" fill="#FFFFFF" d="M21.6,4.7c0.1,0,0.1,0,0.2,0c0,0,0,0.1-0.1,0.1
		c-0.1,0-0.1,0-0.2,0C21.4,4.8,21.5,4.7,21.6,4.7L21.6,4.7z"/>
	<path fill-rule="evenodd" clip-rule="evenodd" fill="#FFFFFF" d="M22.4,6.3c0.1,0,0.2,0,0.2,0c0,0,0,0.1-0.1,0.2
		c-0.1,0-0.2,0-0.2,0C22.3,6.4,22.3,6.4,22.4,6.3L22.4,6.3z"/>
	<path fill-rule="evenodd" clip-rule="evenodd" fill="#FFFFFF" d="M19.6,4.8c0.2,0,0.6-0.1,1-0.3l0.5-0.2c0.2-0.1,0.3-0.1,0.1,0.1
		c-0.2,0.2-0.5,0.3-0.7,0.5c-0.2,0.1-0.5,0.3-1,0.2C19.3,5,19.4,4.9,19.6,4.8L19.6,4.8z"/>
	<path fill-rule="evenodd" clip-rule="evenodd" fill="#FFFFFF" d="M21.1,4.6c0.3-0.3,0.5-0.3,0.9-0.5c0.4-0.2,0.7-0.2,1.1-0.2
		c0.3-0.2,0.5,0.1,0.2,0.4c-0.1,0.1-0.2,0.1-0.3,0.2c-0.3,0.2-0.6,0.3-0.9,0.4C21.7,5,21.7,4.9,22,4.7c0.1-0.1,0.2-0.2,0.3-0.2
		c0.2-0.2,0.5-0.2,0.8-0.2C22.7,4,22,4.4,21.2,4.8C21,4.9,21,4.8,21.1,4.6L21.1,4.6z"/>
	<path fill-rule="evenodd" clip-rule="evenodd" fill="#FFFFFF" d="M23.1,3.5c0.2,0,0.3,0,0.5,0C23.9,3.5,24,3.7,24,3.9
		c-0.1,0.2-0.2,0.3-0.3,0.4c-0.1-0.4-0.2-0.6-0.4-0.6c-0.1,0-0.1,0-0.2,0V3.5L23.1,3.5z"/>
	<path fill-rule="evenodd" clip-rule="evenodd" fill="#FFFFFF" d="M22.8,3.6c0.1,0,0.1-0.1,0.2-0.1v0.1C22.9,3.6,22.9,3.6,22.8,3.6
		C22.7,3.7,22.6,3.6,22.8,3.6L22.8,3.6z"/>
	<path fill-rule="evenodd" clip-rule="evenodd" fill="#FFFFFF" d="M22.4,3.3C22.6,3.2,22.8,3,23.1,3c0.3,0,0.6,0,0.8,0
		c0.6,0.2,0.3,0.4,0,0.2c-0.2-0.1-0.5-0.1-0.8,0c0,0.2-0.4,0-0.6,0.2C22.3,3.5,22.3,3.5,22.4,3.3L22.4,3.3z"/>
	<path fill-rule="evenodd" clip-rule="evenodd" fill="#FFFFFF" d="M24,3.4c0.2,0,0.3,0,0.3,0.2c0,0.2,0,0.4-0.2,0.4
		C24.2,3.6,24,3.7,24,3.4L24,3.4z"/>
	<path fill-rule="evenodd" clip-rule="evenodd" fill="#FFFFFF" d="M24.5,3.3c0,0.1,0.1,0.2,0,0.5l-0.2,0.3c0,0.2,0,0.2,0.1,0.2
		c0.2-0.1,0.3-0.3,0.3-0.5c0-0.3,0-0.5,0.1-0.6C24.6,2.9,24.4,3,24.5,3.3L24.5,3.3z"/>
	<path fill-rule="evenodd" clip-rule="evenodd" fill="#FFFFFF" d="M23.1,5.2c0,0.2,0.5,0.3,0.6,0c0.1-0.3-0.1-0.5,0-0.7
		C23.3,4.6,23.1,4.9,23.1,5.2L23.1,5.2z"/>
	<path fill-rule="evenodd" clip-rule="evenodd" fill="#FFFFFF" d="M22.9,5.8c0.1-0.2,0.3-0.3,0.6-0.2c0.2,0,0.3,0,0.3,0.2
		s0,0.4,0,0.6c-0.1,0.2-0.1,0.2-0.3,0.2c-0.2,0-0.3-0.1-0.6,0C23,6.3,22.9,6.1,22.9,5.8L22.9,5.8z"/>
	<path fill-rule="evenodd" clip-rule="evenodd" fill="#FFFFFF" d="M23.9,5c-0.1-0.2,0-0.2,0.1-0.1c0.1,0.1,0.2,0.3,0.2,0.4
		c0,0.2-0.2,0.3-0.3,0.2C23.9,5.3,24,5.2,23.9,5L23.9,5z"/>
	<path fill-rule="evenodd" clip-rule="evenodd" fill="#FFFFFF" d="M24,5.8c-0.1-0.2,0-0.2,0.3-0.1c0.2,0.2,0.2,0.3,0.1,0.4
		c0.2,0.2,0.2,0.4,0,0.7c-0.1-0.1-0.2,0-0.3-0.2c0-0.1-0.1,0,0-0.4C24.1,6,24.1,5.9,24,5.8L24,5.8z"/>
	<path fill-rule="evenodd" clip-rule="evenodd" fill="#FFFFFF" d="M24.3,7.6c0.1,0,0.2,0.1,0.2,0.1c0,0.1-0.1,0.1-0.2,0.1
		c-0.1,0-0.2-0.1-0.2-0.1C24.1,7.6,24.2,7.6,24.3,7.6L24.3,7.6z"/>
	<path fill-rule="evenodd" clip-rule="evenodd" fill="#FFFFFF" d="M22.9,7.4c0.1,0,0.2,0.1,0.2,0.1c0,0.1-0.1,0.1-0.2,0.1
		c-0.1,0-0.2-0.1-0.2-0.1C22.7,7.4,22.8,7.4,22.9,7.4L22.9,7.4z"/>
	<path fill-rule="evenodd" clip-rule="evenodd" fill="#FFFFFF" d="M24.6,7.2c-0.1-0.2-0.5-0.4-0.9-0.4c-0.3,0-0.7,0-1.2,0.2
		c-0.2,0.3-0.3,0.7-0.3,1.2l0.2,0l-0.2,0.1h0.2l-0.2,0.2l0.1,0l-0.1,0.3l0.1,0.1l-0.1,0.2l0.2,0l0,0.2l0.1,0l0,0.2l0.1,0
		c0.1,0.1,0.2,0.2,0.4,0.4c0.1,0.1,0.3,0.1,0.4,0c0.3-0.2,0.3-0.4,0.6-0.6c0.1,0,0.1-0.2,0.1-0.4c0.1-0.1,0.2-0.2,0.2-0.3l0.1-0.2
		V7.9c-0.1,0-0.2,0.1-0.3,0l-0.3-0.1l-0.1,0.7c0,0.1-0.1,0.3-0.2,0.3l-0.4-0.2c-0.1,0-0.1-0.2,0-0.2l0.1,0V7.8
		c-0.2,0.1-0.5,0.1-0.7-0.1c-0.1,0-0.2,0-0.3,0c0.1-0.1,0.2-0.2,0.2-0.3l-0.1-0.2c0,0,0.1,0,0.2,0c0.3,0,0.5-0.1,0.6,0
		c0.1,0.1,0.2,0.2,0.2,0.2l0-0.2C23.6,7.1,23.8,7,24,7.1l0,0.4l0.7-0.2V7.2L24.6,7.2z M23,9c0.2,0,0.4,0,0.6,0
		c0.4,0.1,0.4,0.2,0,0.4c-0.2,0-0.4,0-0.6-0.1C23.1,9.2,23.1,9.2,23,9L23,9L23,9z M23.2,9.1c0.1-0.1,0.2-0.1,0.4,0
		c0.1,0,0,0.1,0,0.2c-0.1,0-0.2,0-0.2,0C23.3,9.2,23.3,9.2,23.2,9.1L23.2,9.1z"/>
	<path fill-rule="evenodd" clip-rule="evenodd" fill="#FFFFFF" d="M23.3,8.4C23.4,8.4,23.4,8.5,23.3,8.4c0.1,0.1,0,0.1,0,0.1
		C23.3,8.6,23.2,8.5,23.3,8.4C23.2,8.5,23.3,8.4,23.3,8.4L23.3,8.4z"/>
	<path fill-rule="evenodd" clip-rule="evenodd" fill="#FFFFFF" d="M23.7,7.4c0,0,0-0.1,0-0.2c0.1-0.1,0.2-0.2,0.2-0.1
		c0,0.1,0,0.2,0,0.2H23.7L23.7,7.4z"/>
	<path fill-rule="evenodd" clip-rule="evenodd" fill="#FFFFFF" d="M23.5,8.5c0-0.3,0.1-0.5,0.1-0.9h0.2c0,0.2,0,0.5-0.1,0.9
		C23.6,8.6,23.6,8.6,23.5,8.5L23.5,8.5z"/>
	<path fill-rule="evenodd" clip-rule="evenodd" fill="#FFFFFF" d="M21.8,7c0-0.2,0.2-0.2,0.2,0c0,0.3,0,0.6-0.2,0.7
		c-0.1,0.1-0.3,0-0.2-0.1C21.8,7.3,21.9,7.2,21.8,7L21.8,7z"/>
	<path fill-rule="evenodd" clip-rule="evenodd" fill="#FFFFFF" d="M21.7,8.2c0-0.2,0.1-0.3,0.1,0c0.2,0.6,0.4,1.2,1,1.7
		c0.2,0.2,0,0.4-0.2,0.2C22,9.6,21.8,8.9,21.7,8.2L21.7,8.2z"/>
	<path fill-rule="evenodd" clip-rule="evenodd" fill="#FFFFFF" d="M23.9,10c0-0.2,0-0.4,0.2-0.5c0.1-0.1,0.2,0.1,0.1,0.2
		C24.1,9.9,24,9.9,23.9,10L23.9,10z"/>
	<path fill-rule="evenodd" clip-rule="evenodd" fill="#FFFFFF" d="M18.2,12.5c0-0.2,0-0.3,0.1-0.4c0,0-0.1-0.1-0.2-0.1
		c-0.1,0.2-0.3,0.4-0.5,0.7c0.2-0.5,0.3-0.8,0.6-1.2c0,0.2-0.1,0.3-0.1,0.4c0,0,0.1,0.1,0.2,0.1c0,0,0.1-0.1,0.1-0.1
		c0,0.1,0,0.1,0,0.2h0l0,0.1l0,0C18.3,12.3,18.3,12.4,18.2,12.5L18.2,12.5z"/>
	<path fill-rule="evenodd" clip-rule="evenodd" fill="#FFFFFF" d="M17.9,12.9c0-0.1,0.1-0.2,0.2-0.3C18,12.7,18,12.8,17.9,12.9
		L17.9,12.9z"/>
	<path fill-rule="evenodd" clip-rule="evenodd" fill="#FFFFFF" d="M19.1,13.1c0-0.1,0-0.2,0.1-0.2l0,0l0,0c0,0,0-0.1,0-0.1l0,0
		c0,0,0.1-0.1,0.1-0.2C19.3,12.8,19.3,12.9,19.1,13.1L19.1,13.1z"/>
	<path fill-rule="evenodd" clip-rule="evenodd" fill="#FFFFFF" d="M19,13.7c-0.1-0.2,0-0.4,0.3-0.5C19.3,13.5,19.3,13.6,19,13.7
		L19,13.7z"/>
	<path fill-rule="evenodd" clip-rule="evenodd" fill="#FFFFFF" d="M19.5,13.5c0.2-0.5,0.2-0.8,0.2-1.4C20,12.7,19.9,12.9,19.5,13.5
		L19.5,13.5z"/>
	<path fill-rule="evenodd" clip-rule="evenodd" fill="#FFFFFF" d="M23.1,15.5c0.1-0.5,0.2-0.9,0.1-1.4c0,0-0.1,0-0.1,0
		c0,0.2-0.1,0.5-0.2,0.9c0.1-0.3,0.1-0.6,0.1-0.9c0,0-0.1,0-0.1,0c0,0.2-0.1,0.4-0.2,0.7c0-0.2,0.1-0.5,0.1-0.7c-0.1,0-0.1,0-0.2,0
		c0,0.3-0.1,0.6-0.1,1c0-0.3,0-0.7,0-1c-0.1,0-0.1,0-0.2,0c0,0.3,0,0.7-0.1,1.1c0-0.4,0-0.8,0-1.1c-0.1,0-0.1,0-0.2,0
		c0,0.4,0,0.7-0.1,1.2c0-0.4,0-0.8,0-1.2c-0.1,0-0.1,0-0.2-0.1c0,0.3-0.1,0.7-0.2,1.1c0-0.4,0-0.7,0-1.1c-0.1,0-0.1,0-0.2-0.1
		c0,0.4-0.1,0.8-0.1,1.3c-0.1-0.6-0.1-1-0.1-1.4c-0.1,0-0.1,0-0.2-0.1c-0.1,0.5-0.2,1-0.1,1.5c-0.2-0.7-0.2-1.1,0-1.6
		c0,0-0.1-0.1-0.1-0.1c-0.1,0.2-0.2,0.4-0.3,0.6c0.1-0.2,0.2-0.4,0.2-0.6c-0.1,0-0.2-0.1-0.2-0.1c0,0.3-0.2,0.6-0.4,1
		c0.3-0.7,0.3-1.4,0.3-2.2c0.1,0.3,0.1,0.6,0.1,0.8c0.1,0,0.2,0.1,0.2,0.1c0-0.4,0.1-0.7,0.1-1.1c0.1,0.5,0.2,0.8,0.1,1.2
		c0.1,0,0.1,0.1,0.2,0.1c0,0,0.1-0.1,0.1-0.2c0,0.1,0,0.1-0.1,0.2c0,0,0.1,0,0.2,0c0-0.1,0.1-0.3,0.1-0.5c0,0.2,0,0.3,0,0.5
		c0.1,0,0.1,0,0.2,0c0-0.1,0-0.2,0-0.4c0,0.2,0,0.3,0.1,0.4c0.1,0,0.2,0,0.2,0c0-0.2,0-0.3,0-0.5c0,0.2,0.1,0.4,0.1,0.5
		c0.1,0,0.2,0,0.3,0c0-0.2,0-0.3,0-0.5c0,0.2,0.1,0.4,0.1,0.5c0.1,0,0.2,0,0.2,0c0-0.3,0-0.5,0-0.8c0.1,0.3,0.1,0.6,0.2,0.8
		c0.1,0,0.1,0,0.2,0c0-0.2,0-0.4-0.1-0.6c0.1,0.2,0.2,0.4,0.2,0.5c0,0,0.1,0,0.1,0c0-0.2-0.1-0.4-0.1-0.6c0.1,0.2,0.2,0.4,0.2,0.6
		c0,0,0.1,0,0.1,0c0-0.3-0.1-0.6-0.1-1C23.6,13.7,23.6,14.2,23.1,15.5L23.1,15.5z"/>
	<path fill-rule="evenodd" clip-rule="evenodd" fill="#FFFFFF" d="M23.8,14.1l0.1,0.2l0.3-0.3c0.1-0.1,0.2-0.1,0.2,0.1l0-0.4
		c0.1-0.1,0.2,0,0.3,0.1c0.1-0.1,0.1-0.2,0-0.3l0-0.4c-0.2-0.3-0.3-0.5-0.5-0.5c0.1,0.2,0.1,0.4,0,0.6c0-0.3-0.2-0.5-0.4-0.6
		c0.1,0.2,0.1,0.4,0.1,0.5c0-0.1-0.1-0.1-0.2-0.2l0,0.3l-0.1,0.1L23.8,14.1L23.8,14.1z"/>
	<path fill-rule="evenodd" clip-rule="evenodd" fill="#FFFFFF" d="M25.8,12.5c0,0.1,0,0.1,0,0.1c0,0-0.1,0-0.2-0.1H25.8L25.8,12.5z"
		/>
	<path fill-rule="evenodd" clip-rule="evenodd" fill="#FFFFFF" d="M25.7,12.1L25.7,12.1c0,0.1,0.1,0.2,0.1,0.3h-0.2
		c0-0.1-0.1-0.1-0.1-0.2c0,0,0,0,0,0H25.7L25.7,12.1z"/>
	<path fill-rule="evenodd" clip-rule="evenodd" fill="#FFFFFF" d="M25.3,11.7c0.1,0,0.2,0.1,0.3,0.3h-0.3
		C25.2,11.9,25.2,11.7,25.3,11.7L25.3,11.7z"/>
	<path fill-rule="evenodd" clip-rule="evenodd" fill="#FFFFFF" d="M25.1,12.5c0,0,0.1,0.1,0.2,0.2c0.1,0.1,0.1,0.2,0.1,0.3
		c0,0-0.1-0.1-0.2-0.2C25.1,12.6,25.1,12.5,25.1,12.5L25.1,12.5z"/>
	<path fill-rule="evenodd" clip-rule="evenodd" fill="#FFFFFF" d="M24.7,12.4c0,0,0.1,0.1,0.2,0.2c0.1,0.2,0.1,0.3,0.1,0.3
		c0,0-0.1-0.1-0.2-0.2C24.7,12.5,24.7,12.4,24.7,12.4L24.7,12.4z"/>
	<path fill-rule="evenodd" clip-rule="evenodd" fill="#FFFFFF" d="M17.6,11.5c0.1,0,0.1,0.1,0.2,0.1c0,0,0.1-0.1,0.1-0.1
		c0,0.2-0.1,0.2-0.2,0.3c0-0.1,0-0.1,0.1-0.2C17.7,11.6,17.7,11.6,17.6,11.5L17.6,11.5z"/>
	<polygon fill-rule="evenodd" clip-rule="evenodd" fill="#FFFFFF" points="15.6,33.6 15.5,33.9 15.4,33.9 15.5,33.6 15.6,33.6 	"/>
	<path fill-rule="evenodd" clip-rule="evenodd" fill="#FFFFFF" d="M8.8,43.3c0.3-0.1,0.4,0,0.4,0.4c0.2,0.2,0.4,0.4,0.4,0.6
		c0.5,0.4,0.4,0.6-0.3,0.5C9.1,44.7,9,44.6,9,44.3L8.8,43.3L8.8,43.3z"/>
	<path fill-rule="evenodd" clip-rule="evenodd" fill="#FFFFFF" d="M8.9,45c-0.2,0.3-0.1,0.6,0.1,0.9c0.1,0.2,0.3,0.2,0.4,0.2
		l-0.1-0.2L9.6,46c0-0.1-0.1-0.3-0.4-0.5l0.3,0.1c0-0.2-0.2-0.3-0.4-0.5h0.2C9.3,44.9,9.1,44.8,8.9,45L8.9,45z"/>
	<path fill-rule="evenodd" clip-rule="evenodd" fill="#FFFFFF" d="M9.8,45.2c0.1,0,0.2,0.1,0.2,0.2c0,0.1,0,0.2-0.1,0.3
		c-0.1,0-0.2-0.1-0.2-0.2C9.7,45.3,9.7,45.2,9.8,45.2L9.8,45.2z"/>
	<path fill-rule="evenodd" clip-rule="evenodd" fill="#FFFFFF" d="M14.2,30.1c0-0.7,0.3-1.4,0.7-2.1C14.7,28.7,14.4,29.4,14.2,30.1
		L14.2,30.1z"/>
	<path fill-rule="evenodd" clip-rule="evenodd" fill="#FFFFFF" d="M15.8,26c-0.3,0.1-0.3-0.1-0.1-0.3c0.4-0.4,0.9-0.5,1.4-0.5h0.9
		c0.4,0,0.3,0.4,0,0.3h-0.7C16.8,25.6,16.3,25.7,15.8,26L15.8,26z"/>
	<path fill-rule="evenodd" clip-rule="evenodd" fill="#FFFFFF" d="M17.8,25.7c0.2,0,0.4,0,0.4,0.1c0,0.1-0.2,0.1-0.4,0.1
		c-0.2,0-0.4,0-0.4-0.1C17.4,25.7,17.6,25.7,17.8,25.7L17.8,25.7z"/>
	<path fill-rule="evenodd" clip-rule="evenodd" fill="#FFFFFF" d="M19.6,21c0,0-0.2,0.1-0.3,0.3c-0.1,0.2-0.2,0.4-0.2,0.4
		c0,0,0.2-0.1,0.3-0.3C19.6,21.2,19.7,21,19.6,21L19.6,21z"/>
	<path fill-rule="evenodd" clip-rule="evenodd" fill="#FFFFFF" d="M18.1,22.5c-0.1,0.2-0.1,0.3,0.2,0.4c0.9,0.3,1.7,0,2.6-0.5
		l1.1-0.5c0.2-0.2,0.2-0.3-0.1-0.2l-0.5,0.3l0.1-0.4c-0.3,0.2-0.5,0.4-0.6,0.7L20.7,22c-0.1,0.1-0.2,0.3-0.3,0.5l-0.1-0.2
		c-0.1,0.1-0.2,0.2-0.3,0.3l0-0.3c-0.1-0.1-0.2,0.1-0.4,0.4l0.1-0.3c-0.1-0.1-0.2,0.1-0.3,0.4l0.4-1.1c-0.2,0-0.4,0.4-0.7,1.1
		c-0.1,0-0.2,0-0.1-0.1l0.4-0.8c-0.2,0-0.4,0.3-0.7,0.8l0.3-0.9l-0.6,0.8v-0.3C18.3,22.3,18.2,22.4,18.1,22.5L18.1,22.5z"/>
	<path fill-rule="evenodd" clip-rule="evenodd" fill="#FFFFFF" d="M18.2,36.9c-0.1-0.1,0.1-0.2,0.1-0.1l0.3,0.2
		c0.1,0.1-0.1,0.2-0.2,0.1L18.2,36.9L18.2,36.9z"/>
	<path fill-rule="evenodd" clip-rule="evenodd" fill="#FFFFFF" d="M18.4,36.7c0-0.1,0.1-0.2,0.1-0.1l0.2,0.2
		c0.1,0.1-0.1,0.2-0.1,0.1L18.4,36.7L18.4,36.7z"/>
	<path fill-rule="evenodd" clip-rule="evenodd" fill="#FFFFFF" d="M18.5,36.5c-0.1-0.1,0.1-0.2,0.1-0.1l0.3,0.3
		c0.1,0.1-0.1,0.2-0.2,0.1L18.5,36.5L18.5,36.5z"/>
	<path fill-rule="evenodd" clip-rule="evenodd" fill="#FFFFFF" d="M18.6,36.2c-0.1-0.1,0.1-0.3,0.2-0.2l0.4,0.4
		c0.1,0.1-0.2,0.3-0.2,0.2L18.6,36.2L18.6,36.2z"/>
	<path fill-rule="evenodd" clip-rule="evenodd" fill="#FFFFFF" d="M19.1,35.8c-0.1-0.1,0-0.3,0.2-0.2l0.5,0.4
		c0.1,0.1-0.1,0.3-0.2,0.2L19.1,35.8L19.1,35.8z"/>
	<path fill-rule="evenodd" clip-rule="evenodd" fill="#FFFFFF" d="M19.3,35.6c-0.1-0.1,0-0.3,0.1-0.2l0.4,0.4
		c0.1,0.1-0.1,0.3-0.2,0.2L19.3,35.6L19.3,35.6z"/>
	<path fill-rule="evenodd" clip-rule="evenodd" fill="#FFFFFF" d="M19.7,35.5c-0.1-0.1,0-0.2,0.1-0.2l0.4,0.3
		c0.1,0.1-0.1,0.2-0.1,0.2L19.7,35.5L19.7,35.5z"/>
	<path fill-rule="evenodd" clip-rule="evenodd" fill="#FFFFFF" d="M18,33c0-0.1-0.2-0.1-0.2,0l0,0.4c0,0.1,0.2,0,0.2,0L18,33L18,33z
		"/>
	<path fill-rule="evenodd" clip-rule="evenodd" fill="#FFFFFF" d="M17.4,33.5c0-0.2-0.2-0.1-0.2,0l0,0.3c0,0.2,0.2,0.1,0.2,0
		L17.4,33.5L17.4,33.5z"/>
	<path fill-rule="evenodd" clip-rule="evenodd" fill="#FFFFFF" d="M16.7,33.9c0-0.2-0.1-0.1-0.1,0l0,0.3c0,0.2,0.2,0.1,0.2,0V33.9
		L16.7,33.9z"/>
	<path fill-rule="evenodd" clip-rule="evenodd" fill="#FFFFFF" d="M17.6,33.4c0,0,0.1,0,0.1,0.1c0,0.1,0,0.1-0.1,0.1
		c0,0-0.1,0-0.1-0.1C17.5,33.4,17.5,33.4,17.6,33.4L17.6,33.4z"/>
	<path fill-rule="evenodd" clip-rule="evenodd" fill="#FFFFFF" d="M16.9,33.8c0.1,0,0.1,0.1,0.1,0.1c0,0.1,0,0.1-0.1,0.1
		s-0.1,0-0.1-0.1C16.8,33.8,16.9,33.8,16.9,33.8L16.9,33.8z"/>
	<path fill-rule="evenodd" clip-rule="evenodd" fill="#FFFFFF" d="M16.4,34.2c0-0.1-0.2-0.1-0.2,0v0.3c0,0.1,0.2,0.1,0.2,0
		L16.4,34.2L16.4,34.2z"/>
	<path fill-rule="evenodd" clip-rule="evenodd" fill="#FFFFFF" d="M21.2,17.5c0.1,0,0.1,0.1,0.1,0.2s0,0.2-0.1,0.2
		c0,0-0.1-0.1-0.1-0.2S21.1,17.5,21.2,17.5L21.2,17.5z"/>
	<path fill-rule="evenodd" clip-rule="evenodd" fill="#FFFFFF" d="M21.4,17.9c0,0-0.1-0.1-0.1-0.2c0-0.2,0-0.3,0.1-0.3
		c0,0,0.1,0.1,0.1,0.3C21.5,17.8,21.5,17.9,21.4,17.9L21.4,17.9z"/>
	<path fill-rule="evenodd" clip-rule="evenodd" fill="#FFFFFF" d="M21.9,17.8c0.1,0,0.2,0,0.2,0.1c0,0-0.1,0.1-0.2,0.1
		c-0.1,0-0.2,0-0.2-0.1C21.7,17.9,21.8,17.8,21.9,17.8L21.9,17.8z"/>
	<path fill-rule="evenodd" clip-rule="evenodd" fill="#FFFFFF" d="M22.1,18.2C22.1,18.2,22.2,18.2,22.1,18.2c0.1,0.2,0,0.2,0,0.2
		C22.1,18.4,22,18.4,22.1,18.2C22,18.2,22.1,18.2,22.1,18.2L22.1,18.2z"/>
	<path fill-rule="evenodd" clip-rule="evenodd" fill="#FFFFFF" d="M22.4,18.2h0.8c0.3,0,0.3,0.1,0.1,0.4c0.1,0.4-0.5,0.7-0.4,0
		c0-0.1-0.2-0.2-0.5-0.2C22.3,18.3,22.3,18.2,22.4,18.2L22.4,18.2z"/>
	<path fill-rule="evenodd" clip-rule="evenodd" fill="#FFFFFF" d="M21.2,23.4c0.1,0,0.1,0,0.1,0.1c0,0.1,0,0.1-0.1,0.1
		c0,0-0.1-0.1-0.1-0.1C21.1,23.4,21.1,23.4,21.2,23.4L21.2,23.4z"/>
	<path fill-rule="evenodd" clip-rule="evenodd" fill="#FFFFFF" d="M20.8,23.5c0.1,0,0.1,0.1,0.1,0.2c0,0.1-0.1,0.1-0.1,0.1
		c-0.1,0-0.1-0.1-0.1-0.1C20.7,23.5,20.7,23.5,20.8,23.5L20.8,23.5z"/>
	<path fill-rule="evenodd" clip-rule="evenodd" fill="#FFFFFF" d="M21.2,23.7c0.3-0.2,0.6-0.3,0.6-0.3c0,0.1-0.2,0.3-0.5,0.5
		c-0.3,0.2-0.6,0.3-0.6,0.2C20.7,24.1,20.9,23.9,21.2,23.7L21.2,23.7z"/>
	<path fill-rule="evenodd" clip-rule="evenodd" fill="#FFFFFF" d="M22.3,23c0.2-0.2,0.4-0.2,0.4-0.2c0,0-0.1,0.2-0.3,0.4
		c-0.2,0.1-0.4,0.2-0.4,0.2C22,23.3,22.1,23.2,22.3,23L22.3,23z"/>
	<path fill-rule="evenodd" clip-rule="evenodd" fill="#FFFFFF" d="M21.6,24.7c0.1-0.2,0.1-0.3,0.2-0.4l0,0c0-0.3,0.2-0.5,0.5-0.6
		l0,0c0.1-0.1,0.2-0.2,0.3-0.2c-0.1,0.1-0.1,0.2-0.2,0.3l0.1,0c0.2-0.2,0.4-0.3,0.6-0.4c-0.1,0.2-0.3,0.3-0.4,0.4l0.1,0.1
		c0.2-0.2,0.4-0.3,0.6-0.4c-0.2,0.2-0.3,0.3-0.5,0.5l0.2,0.1c0.2-0.2,0.4-0.3,0.7-0.3c-0.1,0.1-0.2,0.2-0.3,0.3c0.2,0,0.3,0,0.5-0.1
		c-0.3,0.1-0.5,0.2-0.7,0.3l0.2,0.1c0.2-0.1,0.5-0.2,0.7-0.2c-0.2,0.1-0.3,0.2-0.5,0.3l0.2,0.1c0.2-0.1,0.4-0.2,0.6-0.1
		c-0.2,0.1-0.3,0.1-0.5,0.2l0.1,0.1c0.2-0.1,0.4-0.1,0.6-0.1c-0.2,0.1-0.3,0.2-0.5,0.2l0.1,0.1c0.2-0.1,0.4-0.1,0.5,0
		c-0.1,0-0.3,0.1-0.4,0.1l0.5,0.3l-0.1,0l-0.7-0.2c0,0-0.1,0-0.1,0c0,0,0,0,0-0.1l-0.2,0c-0.1,0-0.2,0.1-0.3,0.2
		c0.1-0.1,0.1-0.2,0.2-0.2l-0.2-0.1c-0.1,0-0.2,0.1-0.3,0.2c0-0.1,0.1-0.2,0.2-0.2l-0.2-0.1c-0.1,0.1-0.2,0.2-0.4,0.2
		c0.1-0.1,0.1-0.2,0.2-0.3l-0.2-0.1c-0.1,0.1-0.2,0.2-0.3,0.3c0-0.1,0.1-0.2,0.2-0.3l-0.2-0.1c-0.1,0.1-0.2,0.2-0.4,0.3
		c0.1-0.1,0.1-0.3,0.2-0.4L22,24.3C21.9,24.5,21.8,24.6,21.6,24.7L21.6,24.7z"/>
	<path fill-rule="evenodd" clip-rule="evenodd" fill="#FFFFFF" d="M19.1,25.4c-0.3,0.6-0.6,1.5-0.8,3.2c-0.1,0.8-0.2,1.6,0,2.4
		c0.1,0.4,0.3,0.6,0.5,0.6l3.3-0.5c0.2,0,0.5-0.2,0.4-0.5l-0.1-0.3l-0.1,0.4l-0.2-0.3l-0.1,0.4l-0.2-0.4l-0.2,0.5l-0.2-0.4l-0.1,0.4
		l-0.1-0.4L21,31l-0.2-0.4l-0.1,0.5l-0.2-0.5l-0.1,0.4l-0.2-0.3l-0.1,0.3L20,30.7c-0.2-0.1-0.3-0.1-0.5,0l-0.1,0.1l-0.1-0.1
		c-0.2-0.1-0.5-0.1-0.7-0.2l0.3-0.2c0-0.1-0.1-0.2-0.3-0.1L19,30l-0.4-0.1l0.3-0.2c0-0.1-0.1-0.2-0.4-0.3l0.4-0.1v-0.1l-0.4,0L19,29
		c0-0.1-0.1-0.2-0.3-0.2l0.3-0.1c0-0.1,0-0.2-0.3-0.3l0.3-0.1l-0.3-0.2l0.3-0.1c0-0.1,0-0.2-0.2-0.2l0.4-0.2c0-0.1-0.1-0.2-0.3-0.2
		l0.3-0.1l-0.3-0.2l0.3-0.1L19,26.8l0.3-0.2c0.1-0.1,0-0.1-0.3-0.2l0.3-0.1l0-0.1l-0.3,0l0.2-0.1L19,26l0.5-0.1l0-0.1l-0.3-0.1
		l0.3-0.2C19.4,25.4,19.3,25.4,19.1,25.4L19.1,25.4L19.1,25.4z M19.7,25.8L19.7,25.8c-0.2,1.5-0.4,3-0.1,4.4
		c-0.1-2.1,0.2-4.3,0.6-4.7l0.1,0.2c-0.5,1.7-0.5,3.2-0.2,4.5c-0.2-2.3,0-3.6,0.4-4.3v0.2c-0.3,1.6-0.3,2.9,0,4l0.1-0.1
		c-0.2-1.7-0.1-3,0.2-4.3l0.2,0c-0.3,1.7-0.3,3-0.1,4.2l0.1-0.1c-0.2-1.7-0.2-3,0.1-4.1l0.1,0c-0.2,1.7-0.3,3,0,4.1l0.1,0
		c-0.2-1.8-0.1-3.1,0.2-4.1l0.1,0.1c-0.2,1.5-0.2,2.7,0,3.9l0.1,0c0-1.6-0.1-2.8,0.1-3.8l0.1-0.1c-0.2,1.2-0.2,2.5,0,3.9h0.1
		c-0.2-1.7-0.1-3,0.1-4.1l0.1,0.1c-0.1,1.4-0.1,2.6,0,4l0.1,0c-0.1-1.9,0-3.2,0.2-4c0.2-0.1,0.2,0.2,0,0.4c-0.1,1.1-0.2,2.3,0,3.5
		l0.1,0c-0.1-1.8,0-2.9,0.2-3.9c0.1-0.1,0.2,0,0.1,0.3c-0.2,1.3-0.2,2.2-0.1,3.6h0.2c0.2,0.1,0.2,0.1,0,0.2
		c-1.1,0.2-2.1,0.4-3.1,0.5c-0.2,0-0.3-0.1-0.3-0.4C19.1,28.6,19.3,27.2,19.7,25.8L19.7,25.8L19.7,25.8z M23.3,26.8l0.1-0.7
		c0.2-0.1,0.2,0,0.2,0.1L23.3,26.8L23.3,26.8L23.3,26.8z M23.1,26c-0.2,1.1-0.2,1.8-0.3,2.9l0.1,0.2c0-1.3,0.2-2.1,0.4-3.1
		C23.3,25.9,23.1,25.9,23.1,26L23.1,26L23.1,26z M22.7,26c0.1-0.1,0.2-0.1,0.2,0c-0.2,0.9-0.3,2.1-0.3,3.3h-0.1
		C22.4,28.2,22.5,27.1,22.7,26L22.7,26L22.7,26z M18.1,33.2c0-0.4,0-0.7,0.2-1.1c0-0.2,0.2-0.2,0.5-0.3l3-0.4c0.2,0,0.2,0.1,0.2,0.3
		c0,0.3-0.1,0.6-0.2,0.8c-0.1,0.1-0.1-0.3-0.1-0.9c-0.2,0.5-0.1,1.1-0.5,1.2c-0.2-0.2,0.1-0.7,0.1-1.1c-0.3,0.3-0.2,0.7-0.5,1.1
		c-0.1,0-0.1-0.4,0-0.9c-0.2,0.4-0.3,0.8-0.4,0.9c-0.1-0.1-0.1-0.5-0.1-0.8c-0.1,0.6-0.3,1-0.4,1c0-0.3,0-0.6,0-0.9L19.7,32
		c-0.1,0.5-0.2,0.9-0.3,1c-0.1-0.3-0.1-0.7,0-1h-0.1c-0.1,0.3-0.1,0.5-0.3,0.6c-0.2,0-0.3-0.2-0.3-0.5C18.6,32.7,18.4,33,18.1,33.2
		L18.1,33.2z"/>
	<path fill-rule="evenodd" clip-rule="evenodd" fill="#FFFFFF" d="M23.7,27c-0.2,0.1-0.2,0.3,0.1,0.3c-0.2,0.2-0.3,0.4-0.1,0.4
		c-0.4,0.6-0.4,0.7,0,0.5c-0.5,0.6-0.4,0.7-0.1,0.6c-0.4,0.5-0.4,0.6-0.2,0.6c-0.3,0.4-0.3,0.6,0,0.6C23.2,30,23,30.2,23,30.5
		c-0.1,0.4-1,0.7-0.2,1.1c0.2,0.1,0.4,0.5,0.6,1c0.1,0.3,0.2,0.3,0.5,0.2c0.2-0.1,0.4-0.1,0.7-0.1c0.4,0,0.4-0.4,0-0.5
		c0-0.2-0.1-0.3-0.4-0.2c0.2-0.3,0-0.2-0.1-0.3c0.1-0.1,0.1-0.2-0.2,0l0-0.1c0.2-0.1,0.3-0.2,0.3-0.3l-0.6,0.2
		c0.2-0.2,0.3-0.3,0.2-0.4l-0.4,0.1c0.4-0.3,0.6-0.5,0.6-0.6l-0.5,0.1c0.3-0.3,0.6-0.5,0.5-0.6l-0.4,0.2c0-0.1,0.2-0.3,0.5-0.4
		c0.3-0.1,0.4-0.3,0.4-0.6l-0.6,0.3c0.5-0.4,0.9-0.8,1-1.1c0-0.2-0.5,0.2-1.2,0.7v-0.1c0.6-0.4,1.1-0.9,1.4-1.5l-1.2,0.9l1.1-1.3
		c-0.1-0.2-0.4,0-1,0.6l0-0.1l0.5-0.6c0.4-0.2,0.7-0.6,0.9-0.9c0.1-0.3-0.3,0.1-0.8,0.6c-0.1,0.1-0.3,0.2-0.4,0.4l1.3-1.4l0-0.2
		C25.3,25.6,24.4,26.6,23.7,27L23.7,27L23.7,27z M22.1,32.4c-0.2-0.2,0-0.5,0.2-0.4l0.7,0.5c0.2,0.2,0,0.4-0.2,0.3L22.1,32.4
		L22.1,32.4z M22.4,32c-0.2-0.2,0-0.5,0.2-0.3l0.4,0.4c0.2,0.2,0.1,0.3-0.1,0.2L22.4,32L22.4,32z M23.8,33.3c-0.2-0.1-0.3,0-0.2,0.1
		c0.3,0.2,0.6,0.4,0.9,0.6c0.3,0.2,0.7,0.2,1,0.2c0.2,0,0.4-0.2,0-0.2C25.1,33.9,24.5,33.7,23.8,33.3L23.8,33.3L23.8,33.3z M24,33.3
		c-0.1-0.1-0.1-0.2,0.1-0.3l0.8-0.1c0.2,0,0.3,0.1,0.4,0.3l0.4,0.4c0.2,0.2,0,0.4-0.1,0.3C25,33.7,24.5,33.5,24,33.3L24,33.3z"/>
	<path fill-rule="evenodd" clip-rule="evenodd" fill="#FFFFFF" d="M24.8,31.2c0.1-0.2,0.3-0.4,0.6-0.5c0.7-0.1,1.5-0.3,2.2-0.5
		c0.2-0.2,0.3-0.1,0.3,0.1c-0.1,0.7-0.2,1.3-0.4,1.4v-1.2l-0.1,0c-0.1,0.6-0.2,1-0.3,1.2l0-1.1h-0.1l-0.2,1.1l0.1-0.9
		c0-0.1,0-0.2-0.1-0.1c-0.2,1.1-0.4,1.6-0.6,1.7c0.2-0.7,0.2-1.2,0.2-1.6l-0.1,0c-0.1,0.6-0.2,1.1-0.4,1.5c-0.2-0.3,0.2-0.9,0.1-1.5
		h0l-0.4,1.4c-0.1,0-0.1-0.2,0-0.5l0-0.8l-0.1,0c-0.1,0.4-0.2,0.7-0.4,1l0.1-1l-0.3,0.7l0-0.6L24.8,31.2L24.8,31.2z M28,30.4
		c0-0.2,0.3-0.2,0.2,0.1l-0.1,0.3H28L28,30.4L28,30.4z M28,31.3c0,0,0,0.1,0,0.2c0,0.1,0,0.2,0,0.2c0,0,0-0.1,0-0.2
		C27.9,31.3,27.9,31.3,28,31.3L28,31.3L28,31.3z M28.1,30.9C28.1,30.9,28.1,31,28.1,30.9c0.1,0.1,0,0.2,0,0.2
		C28,31.1,28,31.1,28.1,30.9C28,31,28,30.9,28.1,30.9L28.1,30.9L28.1,30.9z M28.1,29.6c0.1,0,0.1,0.1,0.1,0.2c0,0.1,0,0.2,0,0.2
		c0,0-0.1-0.1-0.1-0.2C28,29.7,28,29.6,28.1,29.6L28.1,29.6L28.1,29.6z M27.7,29c0.2,0.2,0.2,0.4,0.2,0.5c0,0.2-0.2,0.4-0.2,0.2
		c0-0.2,0-0.4-0.2-0.7C27.5,28.9,27.6,28.9,27.7,29L27.7,29L27.7,29z M26.1,28.6c0-0.2,0.2,0,0.2,0.1L26.2,29
		c-0.1,0.1-0.1,0-0.2-0.1L26.1,28.6L26.1,28.6z M25.3,29.7c-0.2,0.1-0.2,0.2,0,0.3l0.1,0v0c0,0.1,0,0.2,0.1,0.2s0.1-0.1,0.1-0.2
		c0,0,0,0,0-0.1l0.2,0v0.4c-0.1,0-0.1,0-0.2,0c0,0,0-0.1-0.1-0.1c0,0-0.1,0-0.1,0.1c0,0,0,0,0,0c0,0,0,0,0.1,0.1l1.5-0.3
		c0.4,0,0.6-0.3,0.4-0.9c0.1-0.2,0-0.2-0.1-0.2L27,29l0.2-0.1c0.3-0.1,0.3-0.2,0-0.2l-0.5-0.1l0.4-0.1c0.1,0,0.2-0.2,0-0.2l-0.4,0
		l0.3-0.1c0.2-0.2,0.1-0.3-0.3-0.3c0.1-0.2,0.1-0.3,0-0.3c-0.1-0.2-0.3-0.3-0.2,0l0.1,1.5c0,0.2,0,0.3-0.2,0.3L25.3,29.7L25.3,29.7z
		 M26.2,29.1c0.1,0,0.1,0,0.1,0.1c0,0.1,0,0.1-0.1,0.1c0,0-0.1,0-0.1-0.1C26.1,29.2,26.1,29.1,26.2,29.1L26.2,29.1L26.2,29.1z
		 M27.1,29.6C27.1,29.6,27.1,29.6,27.1,29.6c0,0.1,0,0.1,0,0.1S27,29.7,27.1,29.6C27,29.6,27,29.6,27.1,29.6L27.1,29.6L27.1,29.6z
		 M27,29.3c0.1,0,0.2,0,0.2,0c0,0.1,0,0.1-0.1,0.1c-0.1,0-0.2,0-0.2-0.1C26.8,29.4,26.9,29.3,27,29.3L27,29.3L27,29.3z M26,30.3
		C26,30.3,26,30.3,26,30.3l0-0.4l-0.1,0L26,30.3L26,30.3z M26.2,30.2c0,0,0.1,0,0.1,0v-0.4l-0.2,0L26.2,30.2L26.2,30.2z M26.5,30.1
		C26.5,30.1,26.5,30.1,26.5,30.1l0.1-0.4l-0.1,0L26.5,30.1L26.5,30.1z M26.7,30C26.7,30,26.7,30,26.7,30c0.2-0.2,0.2-0.3,0-0.3h0V30
		L26.7,30z"/>
	<path fill-rule="evenodd" clip-rule="evenodd" fill="#FFFFFF" d="M30.1,9.2c-1.8-0.2-2.7,0.4-3.2,1.1c-0.4,0.5-0.6,1.1-0.7,1.8
		c0,0.1,0.2-0.1,0.5-0.5l-0.2-0.1c0-0.1,0.1-0.2,0.2-0.4c0-0.1,0-0.2,0.2-0.2c0.1-0.1,0.2-0.2,0.2-0.2H27c0.5-0.6,1.2-0.8,2-0.7
		c0.2,0,0.4,0,0.6,0.1c0.1,0,0.2,0,0.3-0.1c0.1,0,0.1-0.1,0-0.1c-0.7-0.1-1.4-0.1-2.1,0.1C28.3,9.5,29,9.5,30,9.5
		C30.5,9.5,30.5,9.2,30.1,9.2L30.1,9.2L30.1,9.2z M26.9,21c0.1,0,0.1,0.2,0,0.3c0,0.1-0.2,0.2-0.2,0.2c-0.1,0-0.1-0.2-0.1-0.3
		C26.7,21,26.8,20.9,26.9,21L26.9,21L26.9,21z M25.3,21.6c0,0,0.1,0.1,0.1,0.2c0,0.1,0,0.2-0.1,0.2c0,0-0.1-0.1-0.1-0.2
		C25.2,21.7,25.3,21.6,25.3,21.6L25.3,21.6L25.3,21.6z M25.4,22.4c0.1-0.4,0.3-0.8,0.6-1c0.3-0.2,0.4-0.2,0.1,0.2
		c-0.2,0.3-0.4,0.6-0.5,0.9C25.6,22.6,25.4,22.7,25.4,22.4L25.4,22.4L25.4,22.4z M26.4,20.7c-0.3,0.1-0.6,0.3-0.7,0.6
		c-0.1,0.3-0.1,0.3,0.1,0.1c0.2-0.2,0.4-0.4,0.7-0.5C26.5,20.8,26.6,20.6,26.4,20.7L26.4,20.7L26.4,20.7z M24.5,22.2
		c-0.2,0.2-0.1,0.3,0.1,0.2c0.4-0.6,0.7-1.1,0.9-1.2l0.7-0.7c0.6-0.1,0.9-0.7,1-1.8l0-0.1c-0.3,0.7-0.6,1.3-1.1,1.5
		c-0.4,0.3-0.7,0.6-1,1.1c-0.1,0.1-0.1,0.3-0.2,0.5C24.8,21.8,24.6,22,24.5,22.2L24.5,22.2L24.5,22.2z M24.3,21.7
		c-0.1,0.2,0,0.3,0.1,0.1c0.5-0.7,0.9-1.2,1.4-1.6c0.5-0.4,1.2-1.1,1.5-2c0.2-0.5,0-0.7-0.2-0.4c-0.3,0.8-0.6,1.5-1.1,1.9
		C25.4,20.3,24.7,20.8,24.3,21.7L24.3,21.7L24.3,21.7z M24.2,21c-0.1,0.2-0.1,0.4,0,0.5c0.4-0.2,0.3-0.8,1.3-1.3
		c0.1-0.2,0.1-0.2-0.1-0.2l-1,0.7c0.3-0.5,0.7-0.9,1.1-1.1c0.3,0,0.6-0.2,0.9-0.5c0.1-0.2,0.1-0.3-0.1-0.2c-0.6,0.4-1.1,0.6-1.6,0.9
		c-0.4,0.4-0.7,0.8-0.8,1.3L24.2,21L24.2,21z M24.2,19.7c0.2-0.4,0.7-0.6,1.3-0.8c0.5-0.2,0.8-0.5,1.2-0.9c0.4-0.2,0.3,0,0.2,0.2
		c-0.1,0.2-0.2,0.3-0.4,0.4c-0.3,0.2-0.7,0.4-1,0.6c-0.4,0.1-0.7,0.4-1.1,0.8C24.2,20.1,24.1,20,24.2,19.7L24.2,19.7L24.2,19.7z
		 M25.2,18.4c0.3-0.2,0.6-0.4,0.8-0.7c0.3-0.4,0.4-0.5,0.4,0c-0.1,0.4-0.4,0.8-0.9,1C25,18.9,24.9,18.6,25.2,18.4L25.2,18.4
		L25.2,18.4z M26.6,17.4l0.2-0.8c0-0.3,0.1-0.6,0.3-0.8l0.2-0.7c0.1-0.3,0.2-0.2,0.2,0.1l-0.2,0.4c0.1,0.1,0.1,0.2,0,0.3
		c0,0.2,0,0.3-0.2,0.4c0,0.6-0.1,1.1-0.3,1.2C26.6,17.9,26.5,17.9,26.6,17.4L26.6,17.4L26.6,17.4z M25.5,17.3l0.4-0.9
		c0.1-0.3,0.2-0.5,0.4-0.5l0.5-0.5c0.1-0.1,0.2,0,0.1,0.2l-0.4,0.6c-0.1,0.5-0.2,0.9-0.7,1.4c-0.1,0.1-0.2,0.1-0.2,0l0.4-0.8
		l-0.5,0.7C25.5,17.6,25.5,17.5,25.5,17.3L25.5,17.3L25.5,17.3z M24.9,17.7c0.2-0.5,0.3-0.8,0.5-1c0.2-0.2,0.3-0.2,0.2,0.1
		c-0.1,0.2-0.3,0.5-0.3,1.1C25.3,18.3,24.7,18.2,24.9,17.7L24.9,17.7L24.9,17.7z M24.9,17c0,0.2,0,0.1,0.1,0l0.2-0.6
		c0.2-0.2,0.5-0.4,0.8-0.8c0.1,0.2,0.4,0,0.7-0.5c0.5-0.2,0.7-0.6,0.8-1c0.1-0.4,0-0.4-0.2-0.2c-0.4,0.5-0.6,0.6-0.7,1
		c-0.4,0.1-0.7,0.6-1.2,0.8c-0.1,0.1-0.2,0.2-0.2,0.4C25,16.3,24.9,16.5,24.9,17L24.9,17L24.9,17z M24.9,15.9c0-0.1,0.1-0.1,0.2-0.1
		c0,0,0,0.1,0,0.2c0,0.1-0.1,0.1-0.2,0.1C24.8,16,24.8,16,24.9,15.9L24.9,15.9L24.9,15.9z M27.3,12.1c0.3-0.4,0.7-0.6,1-0.8
		c0.4-0.2,0.4,0.2,0.1,0.2c-0.2,0-0.5,0.2-1,0.8C27.3,12.5,27.2,12.3,27.3,12.1L27.3,12.1L27.3,12.1z M24.4,16.6
		c-0.1-0.8,0.1-1.3,0.5-1.5c1-0.6,1.4-1.5,1.7-1.5c0.3-0.6,0.8-1.2,1.4-1.7c0.4-0.3,0.5-0.2,0.3,0.2c-0.6,0.9-1.3,2-1.9,2.3
		c-0.3,0-0.5,0.2-0.6,0.4l0.4-0.2c0.2,0,0.2,0,0.1,0.2c-0.3,0.2-0.9,1-1,0.5c-0.2,0.4-0.6,0.4-0.6,0.8l0,0.6
		C24.6,16.8,24.5,16.8,24.4,16.6L24.4,16.6L24.4,16.6z M28.4,10.8c0.2,0,0.3,0.1,0.1,0.3c-0.5,0.2-0.9,0.6-1.4,1.1
		c0,0.2,0,0.4-0.3,0.5c0,0.3-0.2,0.5-0.5,0.5l-0.5,0.6c0.1,0.2-0.1,0.4-0.4,0.8c-0.2,0.2-0.3,0.2-0.3-0.2c0.3-0.7,0.8-1.8,1-1.8
		c0.1,0,0.1,0,0.2-0.3c0-0.2,0.2-0.1,0.2,0c0,0.2,0,0.2,0.1,0.1C27.2,11.5,27.8,11,28.4,10.8L28.4,10.8L28.4,10.8z M26.9,11.1
		c0.4-0.5,1.1-0.8,2.4-0.8c0.3,0,0.2,0.3,0,0.3c-0.2,0-0.4,0.1-0.6,0.1c-0.2,0.1-0.5,0.1-0.7,0.2c-0.4,0.2-0.8,0.6-1.2,1.2
		c-0.1,0.1-0.2,0-0.1-0.1c0.4-0.8,1-1.2,1.5-1.3l0,0c-0.3-0.1-0.7,0.1-1.2,0.6C26.8,11.3,26.8,11.2,26.9,11.1L26.9,11.1L26.9,11.1z
		 M27.4,10.4c0.5-0.3,1-0.5,1.7-0.4c0.4,0,0.4,0.3,0.2,0.3C28.6,10.2,28,10.2,27.4,10.4C27.2,10.6,27.2,10.5,27.4,10.4L27.4,10.4z"
		/>
	<path fill-rule="evenodd" clip-rule="evenodd" fill="#FFFFFF" d="M30.4,8.6c-0.2-0.2,0-0.3,0.2-0.3c0.7,0.1,1.3,0.2,1.7,0.5
		c0.2,0.2,0,0.3-0.1,0.2l-0.5-0.2c0,0.2-0.2,0.1-0.4-0.1c-0.2,0.2-0.4,0.1-0.6-0.2l0.2,0.4c0,0.1-0.1,0.1-0.1,0L30.4,8.6L30.4,8.6z
		 M31.4,8.9c-0.1,0.1,0,0.2,0.1,0.3c0.1,0.1,0.2,0,0.2-0.1C31.6,9,31.5,8.9,31.4,8.9L31.4,8.9z"/>
	<path fill-rule="evenodd" clip-rule="evenodd" fill="#FFFFFF" d="M32.8,9.5c-0.1,0-0.2-0.1,0-0.2c-0.2-0.1-0.1-0.3,0-0.3
		c0.6,0,1.1-0.4,1.7,0l0.3,0.4c0.2,0.5,0,0.7-0.2,0.4c-0.1-0.2,0-0.4-0.4-0.5c0.2,0.3,0.3,0.7,0.3,1c0.5,0.5,0,0.6-0.1,0.3l-0.2-0.9
		c0,0.4,0.1,0.8,0,0.8c-0.2,0-0.1-0.3-0.1-0.7c0-0.2-0.1-0.4-0.2-0.5c-0.4-0.1-0.7,0-1,0c0.5,0,0.8,0,0.9,0.1C34,9.6,34,9.8,34,10
		c-0.1,0.2-0.2,0.1-0.2-0.1l-0.1-0.3c0-0.2-0.2-0.2-0.4-0.2C33.1,9.5,33,9.6,32.8,9.5L32.8,9.5z"/>
	<path fill-rule="evenodd" clip-rule="evenodd" fill="#FFFFFF" d="M26.7,25.9c0.7,1.2,1.5,2.3,2.4,3.3c0.1,0.1,0-0.3,0.1-0.1
		c0.2,0.4,0.5,0.8,0.6,0.9c0.1-0.1-0.3-0.5-0.4-0.9l1.3,1.5c0.1-0.2-0.6-1.1-1.2-1.8l0.1-0.1l1.4,1.9l0.1,0
		c-0.2-0.6-0.9-1.4-1.3-2.1l0-0.2c0.3,0.3,0.6,0.8,0.9,1.3c0.4,0.6,0.8,1.1,0.9,1.2c0.5,0.1-1.3-1.7-2.1-3.3l0-0.1
		c1,1.5,1.8,2.8,2.8,3.4c0.1,0.1,0.2-0.1,0.1-0.2c-0.9-1-1.9-2.1-2.5-3.1l0-0.1c0.9,1.1,1.4,2.4,3.2,3.4c0.1,0.1,0.2,0.2,0.3,0.1
		c0.4-0.3-1.5-0.8-3-3.3l0-0.2c0.6,0.7,0.6,1,1.1,1.5c0.7,0.8,1.8,1.7,2,1.5c0.2-0.2-1.6-1.4-2.5-2.8l0,0c0.7,1,1.8,2.3,3.4,3.1
		c0.2,0.1,0.1,0.1,0.4,0.1c0.7,0-1.5-1.1-2.7-2.3l0-0.1c0.3,0.3,0.8,0.7,1.2,1c0.6,0.4,1.1,0.7,1.6,1c0.4,0.2,0.7,0.4,0.9,0.3
		c0.4-0.2-1.5-0.9-2-1.4c0.3,0.2,0.6,0.3,0.8,0.4c0.8,0.4,1.4,0.7,1.6,0.6c0.1-0.1-0.4-0.4-1.1-0.6c-0.1-0.1,0-0.1,0.2-0.1
		c0.9,0.4,1.4,0.6,1.5,0.5c0.3-0.1-0.2-0.3-0.7-0.6c0.7,0.3,1.2,0.5,1.5,0.5c0.1,0-0.4-0.3-0.8-0.7c0.6,0.4,2,0.9,0.7-0.1l0.1,0
		c0.5,0.4,1.1,0.5,0.4-0.1h0.1c0.4,0.4,0.7,0.6,0.4-0.1c0.4,0.6,0.9,0.9,0.3,0l0.7,0.5c-0.2,0.1-0.2,0.2,0,0.3
		c0.6,0.4,0.6,0.3,0.5,0c0.1-0.6-0.2-1-0.6-1.2c-0.4-0.3-0.4,0,0.1,0.8c-0.2-0.2-0.4-0.3-0.5-0.5c-0.1-0.2-0.3-0.3-0.5-0.3
		c-1,0-2,0.2-3,0.4c-0.7,0.1-1.3,0-1.6-0.2c-0.3-0.2-0.4-0.3-0.2-0.5c0.1-0.2,0-0.4-0.1-0.4l-0.7-1.4c0.1,0.2,0.2,0.2,0.3,0.4
		c0.3,0.5,0.5,0.8,0.6,0.8c-0.1-0.3-0.5-1-0.8-1.8c0.6,1,1,1.8,1.2,1.7c-0.1-0.4-0.5-1.1-0.9-1.9c0.1,0.1,0.2,0.2,0.3,0.3
		c0.2,0.2,0.3,0.4,0.4,0.4c-0.4-0.7-0.7-1.2-1.1-1.3c-0.6-0.2-1-0.3-0.9,0.1l-0.3-0.4l-0.3,0c-0.1,0,0,0.2,0.3,0.6l-0.1,0L31,24.7
		c-0.1-0.1-0.3-0.1-0.3,0l0.2,0.4l-0.4-0.5c-0.2-0.1-0.4-0.2-0.4-0.1l0.6,1c-0.1-0.2-0.3-0.3-0.4-0.5c-0.2-0.3-0.4-0.6-0.7-0.6
		c-0.3,0,0.3,0.4,0.7,1.4l-0.9-1.4c-0.1-0.1-0.5-0.1-0.5,0l1.1,1.6c-0.5-0.6-1-1.1-1.3-1.6c-0.1-0.1-0.1-0.1-0.2-0.1
		c0,0-0.1,0-0.1,0l1.3,1.7c-0.3-0.2-0.5-0.5-0.7-0.8c-0.3-0.4-0.6-0.7-0.8-1c-0.1-0.1-0.3-0.1-0.3,0c-0.1,0.2,1,1.3,1.5,2
		c-0.7-0.6-1.2-1.3-1.7-2c-0.2-0.1-0.4-0.1-0.4,0c-0.1,0.1,1.4,1.5,1.9,2.4c-0.7-0.8-1.5-1.5-2.1-2.4c-0.1-0.1-0.4-0.1-0.4,0
		c0,0.2,1.2,1.3,2.2,2.7c-0.7-0.8-1.6-1.9-2-2.1c-0.2,0,0.4,0.7,1.8,2.4c-0.7-0.6-1.3-1.3-1.9-2.1c-0.2,0.2,0.6,1.1,1.7,2.4
		l-1.8-1.9C26.6,25.7,26.5,25.7,26.7,25.9L26.7,25.9L26.7,25.9z M34.2,25.5c-0.2-0.2,0.1-0.3,0.2-0.1c0.4,0.6,0.7,1.1,0.9,1.7
		c0.1,0.3,0,0.3-0.2,0.1C34.9,26.6,34.5,26.1,34.2,25.5L34.2,25.5L34.2,25.5z M33.5,25.3c-0.1-0.2,0.2-0.3,0.4,0
		c0.5,0.7,0.9,1.4,1.3,2.1c0.2,0.4,0,0.5-0.2,0.2C34.6,26.8,34,26,33.5,25.3L33.5,25.3z"/>
	<path fill-rule="evenodd" clip-rule="evenodd" fill="#FFFFFF" d="M30.3,10.4c0,0.4,0.2,0.9,0.6,1.2c0-0.1-0.2-0.4-0.3-0.6
		C30.5,10.7,30.4,10.4,30.3,10.4L30.3,10.4z M31.7,24.2c0-0.6-0.4-1.1-1.1-1.6c0,0.2,0.5,0.5,0.7,1C31.6,24,31.6,24.1,31.7,24.2
		L31.7,24.2L31.7,24.2z M31.7,23.5c-0.1-0.1-0.2-0.3-0.4-0.7c-0.2-0.4-0.6-0.8-0.6-0.9C31.2,22.4,31.6,23,31.7,23.5L31.7,23.5
		L31.7,23.5z M31.6,22.7c-0.1-0.1-0.1-0.2-0.3-0.5c-0.2-0.3-0.5-0.6-0.5-0.7C31.3,21.8,31.6,22.2,31.6,22.7L31.6,22.7L31.6,22.7z
		 M31.5,21.8c0-0.3-0.2-0.6-0.5-0.8c0,0.1,0.2,0.2,0.3,0.4C31.4,21.6,31.4,21.8,31.5,21.8L31.5,21.8L31.5,21.8z M31.2,9.7
		c-0.1,0.4,0,0.9,0.4,1.3c0-0.1-0.1-0.4-0.2-0.7C31.2,10,31.2,9.8,31.2,9.7L31.2,9.7L31.2,9.7z M27.3,23.9c-0.3,0-0.4,0-0.4-0.4
		C27,23.7,27.1,23.8,27.3,23.9L27.3,23.9L27.3,23.9z M26.8,23.3c0.2,0.2,0.4,0.4,0.7,0.6c0.1,0,0.2,0,0.3,0c-0.4-0.4-0.7-0.6-1.1-1
		C26.8,23.1,26.8,23.2,26.8,23.3L26.8,23.3L26.8,23.3z M26.7,22.7c0.5,0.5,0.8,0.8,1.2,1.2c0.1,0.1,0.2,0.1,0.3,0
		c-0.5-0.6-1-1.1-1.5-1.8C26.7,22.3,26.7,22.5,26.7,22.7L26.7,22.7L26.7,22.7z M26.8,22c0.6,0.7,1.1,1.2,1.7,2
		c0.2,0.1,0.3,0.1,0.4,0c-0.6-0.8-1.3-1.6-2-2.4c0,0.1-0.1,0.2-0.1,0.3C26.8,21.9,26.8,22,26.8,22L26.8,22L26.8,22z M27,21.5
		c0.7,0.9,1.4,1.6,2.2,2.6c0.1,0.1,0.2,0.1,0.3,0c-0.1-0.1-0.6-0.7-0.7-0.8c-0.6-0.8-1-1.2-1.7-2.1C27,21.2,27,21.4,27,21.5L27,21.5
		L27,21.5z M27.1,21c0.8,0.9,1.1,1.3,1.9,2.3c0.1,0.1,0.6,0.6,0.6,0.7c0.1,0.2,0.5,0.2,0.3,0.1c-0.2-0.2,0,0-0.2-0.3
		c-0.7-0.9-1.9-2.3-2.6-3.2C27.2,20.7,27.1,20.9,27.1,21L27.1,21L27.1,21z M27.2,20.5c0-0.1,0-0.2,0.1-0.4c0.7,0.8,2,2.4,2.7,3.3
		c0.4,0.5,0.4,0.5,0.6,0.7c0,0.1-0.1,0.1-0.2,0C30.1,24,30.2,24,30,23.7C29,22.6,28,21.4,27.2,20.5L27.2,20.5L27.2,20.5z M27.3,20
		c0-0.2,0-0.3,0.1-0.5c0.7,1.1,1.7,2.3,2.8,3.3c-0.1-0.4-1.5-1.7-2.4-2.8c-0.2-0.3-0.3-0.6-0.4-0.8c0-0.1,0-0.2,0-0.4
		c0.6,1.2,1.5,2.3,2.9,3.5c-0.2-0.4-1.5-1.5-2.2-2.7c-0.3-0.5-0.5-0.8-0.6-1.1c0-0.1,0-0.1,0-0.2c0.6,1.2,1.6,2.4,2.9,3.5
		c-0.1-0.4-1.5-1.5-2.2-2.7c-0.3-0.5-0.5-0.9-0.6-1.2c0-0.1,0-0.2,0-0.2c0.6,1.1,1.8,2.7,3,3.7c-0.1-0.4-1.7-1.8-2.4-2.8
		c-0.3-0.5-0.5-0.9-0.6-1.2c0-0.1,0-0.2,0-0.3c0.5,1.1,1.7,2.7,2.9,3.7c-0.1-0.4-1.7-1.6-2.3-2.7c-0.3-0.6-0.5-1-0.6-1.3
		c0-0.1,0-0.2,0-0.3c0.4,1.2,1.6,2.6,2.8,3.5c-0.1-0.3-1.5-1.5-2.1-2.4c-0.4-0.6-0.6-1.1-0.7-1.4c0-0.1,0-0.2,0-0.4
		c0.4,1.1,1.5,2.5,2.7,3.5c-0.1-0.3-1.4-1.4-2-2.3c-0.4-0.7-0.6-1.2-0.7-1.5c0,0,0,0,0-0.1c0-0.1,0-0.3,0-0.4
		c0.2,1.1,1.3,2.6,2.6,3.6c-0.1-0.3-1.3-1.3-1.8-2.2c-0.5-0.8-0.6-1.3-0.7-1.6c0.4-3.2,1.7-5,3.7-5.4l0,0c-0.1,0.4,0,0.8,0.2,1.3
		c0-0.1-0.1-0.5-0.1-0.9c0-0.1,0-0.2,0-0.3l0.2,0c0,0.4,0.2,0.9,0.4,0.9C32,10.3,32,10,32,9.7l0.2,0.1c0,0.5,0.2,1,0.4,1
		c-0.2-0.3-0.2-0.6-0.2-0.9l0,0c0,0.2,0.1,0.4,0.2,0.4c0.1-0.1,0-0.3,0-0.6c0.2-0.1,0.5-0.1,0.8,0.1c0.1,0.1,0.1,0.2-0.1,0.2h-0.2
		l0.4,0.2c0,0,0.1,0.1-0.1,0.1l-0.1,0.1l0.5,0c0.2,0.1,0.1,0.1,0.1,0.2l-0.1,0.1c0.4,0,0.8,0.1,1.3,0.4c0,0.2-0.2,0.2-0.6,0
		c0.1,0.2,0.4,0.2,0.4,0.4c0,0.2-0.6,0-0.8,0.3l0.6,0c0.1,0.1,0.1,0.2-0.1,0.2c0.3,0.4,0.5,0.5,0.6,0.2c0.1-0.2,0.2-0.2,0.3,0
		c0.4,0.2,0.4,0.2,0.2,0.3l-0.4,0.1l0.4,0.1c0.1,0,0.1,0.1,0,0.2c-0.3,0-0.3,0.1,0.2,0.1c0.2,0.1,0.3,0.2,0.2,0.3
		c-0.5,0-0.4,0.1,0.1,0.1c0.1,0.1,0.2,0.2,0.2,0.2c-0.3,0.1-0.2,0.1,0.1,0.1c0,0.1,0.1,0.1,0,0.2C36.3,14,36.4,14,36.8,14
		c0,0.2,0.3,0.1,0.4,0.3c0.4-0.1,0.5,0.2,0.2,0.2l0,0.1c0.5,0,0.7,0.2,0.7,0.5c0,0.1-0.7-0.3-0.4,0.8l0.1,0.1c0.2,0,0-0.5,0.3-0.4
		c0,0,0.1,0.2,0,0.4c-0.1,0.2-0.2,0.4-0.5,0.2c-0.2-0.2-0.4-0.3-0.3-0.5l0-0.3c-0.2,0-0.3-0.1-0.3-0.4c0,0-0.1,0-0.1-0.1
		c-0.4-0.1-0.6,0.1-0.7,0.4c0,0.1-0.1,0-0.2-0.1c0-0.1-0.1,0-0.2,0c-0.1,0,0-0.2-0.1-0.1c0,0,0,0.1-0.1,0.1c-0.1,0,0-0.2-0.2,0
		c-0.1,0.1-0.1,0.1-0.1,0c0-0.1,0.1-0.3-0.1,0c-0.1,0-0.1,0-0.2-0.1c-0.1-0.4-0.2-0.4-0.3-0.1c-0.1,0.1-0.1,0.2-0.1,0
		c-0.1-0.6-0.2-0.6-0.1,0c0,0.2-0.1,0.2-0.2-0.1c-0.2-0.5-0.2,0-0.3-0.2c-0.2-0.3,0-0.6-0.3-0.8l0.2,0.8c0,0.1-0.2,0.1-0.2,0
		c-0.1-0.5-0.4-1.4-0.4-1.1l0.2,1.1c0,0.1-0.2,0-0.3-0.1L32.9,13c-0.1-0.4-0.1,0.7,0.1,1.2c0,0.1-0.2,0.1-0.2,0
		c0-0.1-0.2-1.4-0.3-1.3c-0.2,0.2,0.3,1.4-0.1,1.2c0,0-0.2-1.3-0.2-1.3c0,0,0,1.2,0,1.2c-0.4-0.4,0-1.6-0.2-1.7c0,0-0.2,1.5-0.2,1.4
		c0.2,1.1,1.1,1.2,1,1.5l-0.6-0.3c0.2,0.3,0.4,0.7,0.6,1.1c-0.2,0.1,0,0.3,0.2,0.5c-0.2,0-0.2,0.1,0.2,0.5c0.1,0.1,0.1,0.1,0.1,0.2
		c-0.5-0.1-0.5-0.1,0.2,0.5c-0.5-0.1-0.5,0,0,0.3c0.1,0.1,0.2,0.2,0.2,0.3c0,0.1-0.1,0-0.1,0c-0.1,0-0.2-0.1-0.3-0.2
		c-0.1,0,0,0.2,0.6,0.6c0.2,0.1,0.2,0.2,0.1,0.3c-0.7-0.5-0.7-0.4,0.1,0.4c0.2,0.3,0.2,0.4,0.2,0.5c-0.7-0.6-1.1-0.9,0,0.2
		c0.2,0.2,0.2,0.3,0.1,0.4c-1.1-0.9-0.5-0.3,0.2,0.5c0,0,0,0.1,0,0.1c-1.1-0.8-1.1-0.6,0,0.6c0,0.1,0.1,0.2,0.1,0.3c0,0-0.1,0-0.2,0
		c-0.8-0.8-0.7-0.6,0.2,0.6c0.1,0.2,0.2,0.4,0,0.3c-1-1.1-1.3-1.4,0,0.4c0.1,0.2,0.2,0.3,0,0.3c-0.9-1.2-0.9-1.1,0,0.2
		c0.1,0.2,0.1,0.2,0,0.2c-0.8-1-1.1-1.2,0,0.2c0.1,0.3,0.1,0.3,0,0.2c-1-1.2-1-1.1,0,0.2c0.1,0.2,0.1,0.2,0,0.2
		c-1.1-1.3-1.1-1.3,0,0.2c0,0.4,0,0.3-0.2,0.2c-0.1-0.1-0.1-0.2-0.2-0.4c-0.7-0.9-0.8-0.8,0,0.3c-0.1,0.1-0.2,0.1-0.3,0
		c-0.7-0.9-0.8-0.9-0.2,0l-0.4-0.1c-0.1-0.1-0.1-0.2-0.2-0.3c-0.7-0.7-0.9-0.7-0.2,0.1c0,0,0,0,0,0.1l-0.8-0.1c-0.1,0-0.2,0-0.3-0.2
		c-0.3-0.6-0.5-0.8-1.1-1.3c0,0.2,0.5,0.6,0.8,1.1c0.1,0.4-0.3,0.2-0.4,0.1c-0.2-0.3-0.3-0.4-0.7-0.8C29.2,22.3,28.1,20.9,27.3,20
		L27.3,20L27.3,20z M29.9,10.8c0.1,0,0.2,0.3,0.3,0.7c0.2,0.4,0.4,0.7,0.5,0.8C30.2,11.8,29.9,11.2,29.9,10.8L29.9,10.8L29.9,10.8z
		 M29.6,11.1c0.1,0.1,0.2,0.4,0.4,0.8c0.2,0.4,0.6,0.8,0.6,0.9C30,12.3,29.6,11.7,29.6,11.1L29.6,11.1L29.6,11.1z M29.3,11.5
		c0.1,0.1,0.2,0.4,0.4,0.9c0.2,0.4,0.7,0.9,0.7,1C29.7,12.9,29.3,12.1,29.3,11.5L29.3,11.5L29.3,11.5z M29,11.9
		c0,0.7,0.5,1.5,1.3,2.1c0-0.2-0.5-0.7-0.8-1.2C29.2,12.4,29.2,12,29,11.9L29,11.9L29,11.9z M28.8,12.3c0,0.7,0.6,1.7,1.4,2.3
		c0-0.2-0.6-0.8-0.9-1.3C29,12.8,28.9,12.4,28.8,12.3L28.8,12.3L28.8,12.3z M28.6,12.7c0.1,0.8,0.7,1.8,1.6,2.5c0-0.2-0.7-0.8-1-1.4
		C28.8,13.3,28.7,12.9,28.6,12.7L28.6,12.7L28.6,12.7z M28.4,13.2c0.1,0.9,0.8,2,1.8,2.8c0-0.2-0.8-0.9-1.2-1.5
		C28.6,13.7,28.5,13.3,28.4,13.2L28.4,13.2L28.4,13.2z M28.2,13.6c0.1,1,0.8,2.1,1.9,3c-0.1-0.2-0.9-0.9-1.3-1.7
		C28.4,14.2,28.3,13.8,28.2,13.6L28.2,13.6L28.2,13.6z M28,14c0.1,1,0.9,2.3,2.1,3.2c-0.1-0.3-0.9-1-1.4-1.8
		C28.3,14.7,28.2,14.2,28,14L28,14L28,14z M27.9,14.4c0.2,1.1,1.1,2.5,2.3,3.5c-0.1-0.3-1.1-1.2-1.6-2C28.1,15.1,28,14.7,27.9,14.4
		L27.9,14.4L27.9,14.4z M30.8,10.1c0.1,0,0.2,0.3,0.2,0.5c0.1,0.2,0.2,0.5,0.2,0.5C30.9,10.8,30.7,10.4,30.8,10.1L30.8,10.1
		L30.8,10.1z M36.5,15.9c-0.2-0.2-0.4,0-0.1,0.4c0.3,0.3,0.6,0.2,0.5,0.1L36.5,15.9L36.5,15.9z M34.7,13.2c0,0,0,0.3,0,0.4
		c0,0.1,0,0.2,0.1,0.3C35,14,35,14,35,14c-0.1-0.2-0.2-0.5-0.2-0.7C34.8,13.2,34.8,13.2,34.7,13.2L34.7,13.2L34.7,13.2z M34.4,12.8
		c0,0,0,0.3,0,0.5c0,0.1,0,0.3,0.1,0.4c0.1,0.1,0.1,0.2,0.1,0.1c-0.1-0.3-0.2-0.6-0.2-0.8C34.5,12.9,34.4,12.9,34.4,12.8L34.4,12.8
		L34.4,12.8z M34.1,12.5c0,0,0,0.3,0,0.5c0,0.2,0,0.3,0.1,0.5c0.1,0.1,0.1,0.2,0.1,0.1c-0.1-0.3-0.2-0.6-0.2-0.9
		C34.2,12.6,34.2,12.5,34.1,12.5L34.1,12.5L34.1,12.5z M33.8,12.2c0,0,0,0.4,0,0.6c0,0.2,0,0.4,0.1,0.6c0.1,0.2,0.2,0.2,0.1,0.1
		c-0.1-0.4-0.2-0.7-0.2-1C33.9,12.3,33.8,12.2,33.8,12.2L33.8,12.2L33.8,12.2z M33.5,11.8c0,0,0,0.4,0,0.7c0,0.2,0,0.4,0.1,0.6
		c0.1,0.2,0.2,0.2,0.1,0.2c-0.1-0.4-0.2-0.8-0.1-1.2C33.6,11.9,33.5,11.9,33.5,11.8L33.5,11.8L33.5,11.8z M33.1,11.5
		c0,0,0,0.5,0,0.7c0,0.2,0,0.4,0.1,0.7c0.1,0.2,0.1,0.3,0.1,0.2c-0.1-0.5-0.2-0.9-0.1-1.3C33.3,11.6,33.2,11.5,33.1,11.5L33.1,11.5
		L33.1,11.5z M32.9,11.5c0,0,0,0.4,0,0.6c0,0.2,0,0.4,0.1,0.6c0.1,0.2,0.1,0.2,0.1,0.2c0-0.4-0.1-0.7-0.1-1
		C32.9,11.6,32.9,11.6,32.9,11.5L32.9,11.5L32.9,11.5z M32.6,11.5c0,0,0,0.3-0.1,0.5c0,0.1,0,0.3,0,0.4c0.1,0.2,0.1,0.2,0.1,0.1
		c0-0.3-0.1-0.6,0-0.8C32.7,11.6,32.6,11.6,32.6,11.5L32.6,11.5z"/>
	<path fill-rule="evenodd" clip-rule="evenodd" fill="#DEB408" d="M9.9,3.6c0.7,0.8,1.3,1.6,2,2.5c0,0.2-0.1,0.2-0.2,0.2
		C10.9,5.3,10.4,4.5,9.9,3.6C9.7,3.5,9.8,3.5,9.9,3.6L9.9,3.6L9.9,3.6z M13.2,9.3c0.1,0.2-0.1,0.3-0.2,0.1c-0.3-0.3-0.2-0.8,0.1-1.1
		c0.3-0.4,0.7-0.4,1.1-0.1c0.2,0.2,0.2,0.2-0.1,0.2C13.4,8.3,13.1,8.7,13.2,9.3L13.2,9.3L13.2,9.3z M14,8.9c-0.3-0.1-0.4,0-0.3,0.4
		c4.4,6.2,11.1,15.3,19,26l0,0.2l0.7,0.4L33,34.9L32.9,35C26.8,26.5,19.8,16.6,14,8.9L14,8.9z"/>
	<path fill-rule="evenodd" clip-rule="evenodd" fill="#1596D4" d="M24.7,10.5c0-0.2,0.6-0.6,1.3-1.1c0.3-0.3,0.6-0.3,0.9-0.3
		c0.1,0,0.2,0,0.4,0c0.2,0.1,0.1,0.2-0.1,0.2c-0.1-0.1-0.2-0.1-0.3,0c-0.2,0-0.2,0.2-0.4,0.2l-0.1-0.1c-0.3,0.2-0.4,0.7-0.6,0.9
		l0-0.2c-0.1,0-0.2,0.3-0.4,0.5c0-0.2,0-0.3-0.1-0.3C25,10.5,24.8,10.6,24.7,10.5L24.7,10.5L24.7,10.5z M15.9,22.1
		c0.2,0,0.4,0.1,0.4,0.1c0,0.1-0.2,0.2-0.4,0.2c-0.2,0-0.4-0.1-0.4-0.2C15.5,22.1,15.7,22.1,15.9,22.1L15.9,22.1L15.9,22.1z
		 M17.4,21.8c0.1-0.2,0.3-0.3,0.3-0.2c0,0.1,0,0.3-0.1,0.4c-0.1,0.2-0.3,0.3-0.3,0.2C17.3,22.2,17.3,22,17.4,21.8L17.4,21.8
		L17.4,21.8z M16.9,22c0.1-0.2,0.2-0.2,0.2-0.2c0,0,0,0.2-0.1,0.4c-0.1,0.2-0.2,0.2-0.3,0.2C16.8,22.3,16.8,22.2,16.9,22L16.9,22
		L16.9,22z M16.5,22.1c0.1-0.1,0.2-0.2,0.2-0.2c0,0,0,0.2-0.1,0.3c-0.1,0.1-0.2,0.2-0.2,0.2C16.4,22.4,16.4,22.2,16.5,22.1
		L16.5,22.1L16.5,22.1z M9.2,20.6l-0.1,0.2c0.1,0,0.2-0.1,0.3-0.2L9.3,21c0.1,0,0.4-0.3,0.7-0.5l-0.2,0.4c0.2,0,0.3-0.3,0.5-0.4
		l-0.1,0.4c0.2,0,0.4-0.3,0.6-0.5l0,0.4c0.2,0,0.3-0.3,0.5-0.4l0.1,0.3c0.2,0,0.2-0.2,0.4-0.3l0.1,0.3l0.3-0.3l0.1,0.3l0.4-0.1
		l0.1,0.2l0.3-0.2l0,0.3l0.4-0.2l0,0.2l0.3-0.2V21l0.4-0.1l0,0.3l0.5-0.2l-0.2,0.4l0.5-0.3l-0.1,0.3l0.5-0.2l-0.3,0.5
		c0.3,0,0.4-0.2,0.7-0.3l-0.2,0.4c0.3-0.1,0.6-0.3,0.9-0.7c0.1,0.1,0,0.3-0.2,0.7c0.4-0.2,0.5-0.4,0.7-0.7l-0.1,0.5
		c0.2,0,0.4-0.2,0.6-0.5l0,0.4c0.2-0.1,0.3-0.3,0.4-0.5c0.2,0.1,0.5,0,0.6-0.4c0.1-0.3,0-0.4-0.2-0.3c-0.9,0.7-2.2,0.8-4.1,0.3
		c-1.2-0.3-2.4-0.4-3.7-0.4C9.8,20,9.4,20.1,9.2,20.6L9.2,20.6L9.2,20.6z M12,15.8c0.1-0.2,0.3-0.3,0.5-0.4l0,0.2l0.5-0.2l0,0.2
		l0.6-0.3c-0.3,0.4-0.4,0.6-0.3,0.6c0.1,0,0.5-0.5,0.6-0.4c-0.3,0.4,0,0.3,0.5-0.1c0.1,0-0.2,0.4-0.1,0.4c0,0,0.2-0.1,0.6-0.3
		c0.1-0.1,0.3-0.3,0.3-0.2c0,0.1-0.1,0.2-0.2,0.3c-0.4,0.4-0.3,0.4,0.4,0c0.1,0,0.2-0.2,0.3-0.1c-0.4,0.6-0.2,0.4,0.4,0.1
		c0.1,0,0.2-0.2,0.3-0.1c-0.8,0.7-0.6,0.8,0.4,0.3c-0.5,0.5-0.4,0.6,0.4,0.1c0.1,0,0.2,0,0.2,0c-0.3,0.3-0.4,0.6-0.2,0.5
		c0.2-0.1,0.6-0.2,0.7-0.2c-0.3,0.3-0.3,0.4,0.1,0.4c0.1,0,0,0.2-0.4,0.5c-0.1,0.1-0.1,0-0.2-0.3c0,0.2-0.1,0.2-0.2,0.1l-0.1,0.6
		l-0.1,0v-0.3c-0.1-0.1-0.1-0.1-0.2,0l-0.1,0.4l-0.2-0.1c-0.1,0.2-0.2,0.3-0.3,0.4c-0.1-0.2-0.2-0.1-0.3,0c-0.1,0-0.1,0-0.2,0
		c-0.1,0.2-0.1,0.2-0.2,0.1c-0.2,0.1-0.3,0.2-0.5,0.4L14.8,18c-0.2,0.2-0.3,0.4-0.4,0.3l-0.2-0.2l-0.2,0.4l-0.4,0.1
		c0,0.1,0.2,0.1,0.4,0.1c0.4,0,1-0.2,1.5-0.3c0.4-0.1,0.9-0.2,1.5-0.4c0.4-0.2,0.9-0.6,1.4-0.8c0.1,0.1,0,0.3-0.9,1L17.1,18l0.2,0.3
		c-0.1,0.1-0.2,0.2-0.3,0.1l-0.4-0.2l0.1,0.4c-0.3,0-0.4-0.4-0.7-0.2l0.1,0.3l-0.6-0.2l0.1,0.4l-0.5-0.2l-0.1,0.2
		c-0.2,0-0.2,0-0.3,0.1c1.2,0.2,2.4-0.2,3.8-0.9c0.1,0,0.1,0,0.1,0.1c-0.1,0.5-0.5,1-1.1,1.4l0.2-0.7c-0.4,0.2-0.8,1-1.2,1.1
		l0.4-0.9l-1,0.9c-0.1-0.1,0-0.4,0.3-0.7c-0.3,0-0.8,0.7-0.9,0.7c-0.2-0.1,0.2-0.3,0.3-0.5c-0.3,0-0.5,0.2-0.7,0.4
		c0-0.1,0.1-0.3,0.4-0.5L14.3,20c0-0.2,0.3-0.3,0.4-0.5c-0.4,0.3-0.8,0.4-0.8,0.4l0.3-0.4l-0.8,0.4l0.5-0.5L13,19.8l0.2-0.4
		l-0.6,0.4l0.2-0.5c-0.3,0.2-0.6,0.4-0.7,0.4c0.2-0.2,0.3-0.4,0.2-0.5c-0.3,0.2-0.5,0.4-0.6,0.4l0.1-0.4c-0.2,0.2-0.5,0.4-0.7,0.5
		l0.3-0.4c0-0.1,0-0.2-0.1-0.1l-0.6,0.5c0.1-0.2,0.2-0.4,0.1-0.5l-0.4,0.2l0-0.2l-0.5,0.5c-0.1,0,0-0.2,0.1-0.4l-0.5,0.3
		c0.3-0.5,0.7-0.9,1.3-1.1c0.7-0.2,1.3-0.2,1.7-0.3c0.8-0.1,1.3-0.2,1.9-0.5c0.3-0.1,0.6-0.2,1-0.5c0.2-0.1,0.1-0.2-0.1-0.2l-0.8,0
		v-0.4l-0.3,0.4l-0.1-0.4L14,17.5l-0.1-0.8l-0.2,0.9l-0.1-0.9l-0.3,1l-0.1-1.1l-0.2,1.1l-0.2-1.1l-0.1,1.1l-0.2-1l-0.1,1l-0.3-1
		l0,1.1l-0.3-1l-0.1,0.9l-0.2-0.9l-0.1,0.8l-0.2-0.7L11,17.6c-0.3-0.6-0.5-1.1-0.2-1.4C11.1,15.8,11.5,15.8,12,15.8L12,15.8L12,15.8
		z M14.5,13.4c0.1,0,0.1,0.1,0.2,0.2c0,0.2,0,0.3,0,0.3c-0.1,0-0.1-0.1-0.2-0.2C14.5,13.6,14.5,13.4,14.5,13.4L14.5,13.4L14.5,13.4z
		 M12.2,13.2c0.3-0.5,0.6-0.7,0.8-0.3c0.2-0.7,0.5-0.8,0.8-0.2c0.4,0,0.5,0.6,0.4,1.6l-0.4-1.1v0.7C13.6,12.8,11.9,13.5,12.2,13.2
		L12.2,13.2L12.2,13.2z M19.5,9.3c0.5,0,1,0.2,1.4,0.5c0,0.1,0,0.1,0,0.1c-0.2-0.1-0.3-0.2-0.5-0.2c0,0.2,0,0.3-0.1,0.3
		c-0.2-0.3-0.3-0.4-0.5-0.3c0,0-0.1,0-0.1,0c-0.1-0.3-0.2-0.3-0.3-0.2C19.4,9.4,19.4,9.3,19.5,9.3L19.5,9.3L19.5,9.3z M17.1,9.5
		c-0.1,0.1-0.1,0.1,0,0.1c0.2-0.1,0.3-0.2,0.5,0c0-0.3,0.1-0.3,0.4,0.1c-0.1-0.4,0-0.4,0.4,0.1c0-0.3,0-0.3,0.3,0.2
		c0.1,0.1,0.1,0.1,0.2,0c-0.1-0.5-0.1-0.5,0.2,0c0.1,0.1,0.1,0.1,0.1,0c0-0.4,0.1-0.3,0.5,0.2c0.1,0.1,0.1,0.2,0.2,0
		c-0.1-0.3,0.1-0.3,0.4,0.1c0.2,0,0.5,0.2,0.9,0.5C21,11,21,11,21.1,11c-0.2-0.4,0-0.2,0.4,0c0.2-0.1,0.2-0.2,0.1-0.2
		c-0.7-0.3-1.4-0.6-1.8-0.9c-0.5-0.4-0.7-0.3-1.3-0.7C17.9,9,17.5,9.1,17.1,9.5L17.1,9.5L17.1,9.5z M16,10.2c-0.3,0.1-0.3,0.2,0,0.2
		c0.1,0,0.2,0,0.3,0c0.2,0,0.2,0,0.3,0.1c0.1,0.2,0.2,0.3,0.4,0.2c0.1-0.1-0.4-0.4-0.2-0.4h0.1c0.4,0.4,0.7,0.6,0.7,0.5l-0.2-0.4
		c0-0.1,0.2-0.1,0.2,0l0.5,0.4c0.1,0.1,0-0.1-0.1-0.4c0-0.1,0.1-0.1,0.2,0c0.3,0.3,0.7,0.8,0.7,0.6V11c0-0.1,0.1-0.1,0.2,0
		c0.2,0.2,0.4,0.4,0.4,0.3l0-0.2c0-0.1,0.1-0.1,0.2,0l0.5,0.4c0.1,0.1,0.2,0,0.2,0l-0.1-0.1c-0.1-0.1,0-0.1,0.1,0l0.5,0.3
		c0.1,0.1,0.1,0,0-0.2H21c0,0.2,0.2,0.2,0.4,0.3c0.1,0,0.1,0,0.2-0.1l0.6-0.2c0.2-0.1,0.2-0.2,0-0.2c-0.9,0.2-1.9-0.2-2.9-0.8
		C18,9.9,16.9,9.9,16,10.2L16,10.2z M25.1,10.7c0,0,0,0.1-0.1,0.2c-0.1,0.1-0.2,0.1-0.2,0.1c0,0,0-0.1,0.1-0.2
		C24.9,10.7,25,10.6,25.1,10.7L25.1,10.7L25.1,10.7z M25.8,10.8C25.6,10.7,25.5,11,25.8,10.8l0.4-0.3c0.2-0.3,0.1,0.1,0.2,0.1
		c0.1,0,0.3-0.4,0.3-0.6L27,9.9c0.2-0.2,0.1-0.2-0.1-0.2c-0.3,0.2-0.6,0.5-0.8,0.8L25.8,10.8L25.8,10.8z"/>
</g>
</svg>
