<?xml version="1.0" encoding="utf-8"?>
<!-- Generator: Adobe Illustrator 18.1.0, SVG Export Plug-In . SVG Version: 6.00 Build 0)  -->
<svg version="1.1" id="Layer_1" xmlns="http://www.w3.org/2000/svg" xmlns:xlink="http://www.w3.org/1999/xlink" x="0px" y="0px"
	 viewBox="0 0 41.9 38.5" enable-background="new 0 0 41.9 38.5" xml:space="preserve">
<path fill-rule="evenodd" clip-rule="evenodd" fill="#EB0029" d="M26.2,20.3c1.6,0,2.9-1.3,2.9-2.9c0-1.6-1.3-2.9-2.9-2.9
	s-2.9,1.3-2.9,2.9C23.3,19,24.6,20.3,26.2,20.3z M33.2,18.4h-1.3c-0.2,1.2-0.5,1.7-1,2.4l0.9,1.1l-1.4,1.4l-1-1
	c-0.7,0.4-1.7,0.8-2.3,0.9v1.3h-1.8v-1.4c-1.2-0.2-1.7-0.5-2.4-1l-1,0.9l-1.4-1.4l0.9-0.9c-0.5-0.7-0.8-1.7-0.9-2.3h-1.3v-1.8h1.3
	c0.2-1.2,0.5-1.8,1-2.4l-0.9-1l1.4-1.4l0.9,0.9c0.7-0.5,1.7-0.8,2.4-0.9v-1.2h1.8v1.2c1.2,0.2,1.8,0.5,2.4,1l1-0.9l1.4,1.4L31,14.3
	c0.5,0.7,0.8,1.7,0.9,2.3h1.3V18.4z M7.4,5.3c-1.2,0-2.2,0.9-2.2,2.1v20.4c0,1.1,1,2.1,2.2,2.1h27.1c1.2,0,2.2-0.9,2.2-2.1V7.3
	c0-1.1-1-2.1-2.2-2.1H7.4z M8.7,10.5H14V14H8.7V10.5z M8.7,15.8h1.7v1.8H8.7V15.8z M12.2,15.8H14v1.8h-1.7V15.8z M8.7,19.3h1.7V21
	H8.7V19.3z M12.2,19.3H14V21h-1.7V19.3z M8.7,22.8h1.7v1.8H8.7V22.8z M12.2,22.8H14v1.8h-1.7V22.8z M3.5,0C1.6,0,0,1.6,0,3.5v28
	C0,33.5,1.6,35,3.5,35H7v3.5h7V35h15.7v3.5h7V35h1.7c1.9,0,3.5-1.6,3.5-3.5v-28c0-1.9-1.6-3.5-3.5-3.5H3.5z M5.7,3.5h30.6
	c1.2,0,2.2,0.9,2.2,2.1v23.9c0,1.1-1,2.1-2.2,2.1H5.7c-1.2,0-2.2-0.9-2.2-2.1V5.6C3.5,4.4,4.5,3.5,5.7,3.5z"/>
</svg>
