<?xml version="1.0" encoding="utf-8"?>
<!-- Generator: Adobe Illustrator 18.1.0, SVG Export Plug-In . SVG Version: 6.00 Build 0)  -->
<svg version="1.1" id="Layer_1" xmlns="http://www.w3.org/2000/svg" xmlns:xlink="http://www.w3.org/1999/xlink" x="0px" y="0px"
	 viewBox="0 0 40.4 24.2" enable-background="new 0 0 40.4 24.2" xml:space="preserve">
<g>
	<path fill="#ED9631" d="M20.2,20.9c2.1,1.9,4.9,3.1,8,3.1c6.6,0,11.9-5.3,11.9-11.9S34.8,0.2,28.2,0.2c-3.1,0-5.9,1.2-8,3.1
		c-2.4,2.2-3.9,5.3-3.9,8.8C16.3,15.6,17.8,18.7,20.2,20.9"/>
	<path fill="#ED9631" d="M38.6,18.7c0-0.2,0.2-0.4,0.4-0.4c0.2,0,0.4,0.2,0.4,0.4c0,0.2-0.2,0.4-0.4,0.4
		C38.7,19.1,38.6,18.9,38.6,18.7 M38.9,19c0.2,0,0.3-0.1,0.3-0.3s-0.1-0.3-0.3-0.3c-0.2,0-0.3,0.1-0.3,0.3S38.8,19,38.9,19
		 M38.9,18.9L38.9,18.9l-0.1-0.3H39c0,0,0.1,0,0.1,0c0,0,0,0.1,0,0.1c0,0,0,0.1-0.1,0.1l0.1,0.1H39l-0.1-0.1h-0.1V18.9z M38.9,18.7
		L38.9,18.7C39,18.7,39,18.7,38.9,18.7c0.1,0,0.1,0,0.1,0C39,18.7,39,18.6,38.9,18.7C39,18.6,38.9,18.6,38.9,18.7L38.9,18.7
		L38.9,18.7z"/>
	<path fill="#BD202D" d="M24.1,10.8c0-0.4-0.1-0.8-0.2-1.3h-7.3c0.1-0.4,0.2-0.9,0.3-1.3h6.6C23.4,7.9,23.2,7.5,23,7h-5.6
		c0.2-0.4,0.4-0.9,0.7-1.3h4.2c-0.3-0.4-0.6-0.9-0.9-1.3H19c0.4-0.4,0.8-0.9,1.2-1.3c-2.1-1.9-4.9-3.1-8-3.1
		C5.7,0.2,0.3,5.5,0.3,12.1C0.3,18.7,5.7,24,12.2,24c3.1,0,5.9-1.2,8-3.1c0.4-0.4,0.8-0.8,1.2-1.3H19c-0.3-0.4-0.6-0.8-0.9-1.3h4.2
		c0.3-0.4,0.5-0.8,0.7-1.3h-5.6c-0.2-0.4-0.4-0.8-0.5-1.3h6.6c0.1-0.4,0.3-0.8,0.3-1.3c0.1-0.4,0.2-0.8,0.2-1.3
		c0-0.4,0.1-0.8,0.1-1.3C24.2,11.7,24.1,11.2,24.1,10.8"/>
	<path fill="#FFFFFF" d="M38.6,14.9c0-0.2,0.2-0.4,0.4-0.4c0.2,0,0.4,0.2,0.4,0.4c0,0.2-0.2,0.4-0.4,0.4
		C38.7,15.2,38.6,15.1,38.6,14.9 M38.9,15.1c0.2,0,0.3-0.1,0.3-0.3c0-0.2-0.1-0.3-0.3-0.3c-0.2,0-0.3,0.1-0.3,0.3
		C38.6,15,38.8,15.1,38.9,15.1 M38.9,15L38.9,15l-0.1-0.3H39c0,0,0.1,0,0.1,0c0,0,0,0.1,0,0.1c0,0,0,0.1-0.1,0.1l0.1,0.1H39
		l-0.1-0.1h-0.1V15z M38.9,14.8L38.9,14.8C39,14.8,39,14.8,38.9,14.8c0.1,0,0.1,0,0.1,0C39,14.8,39,14.8,38.9,14.8
		C39,14.7,38.9,14.7,38.9,14.8L38.9,14.8L38.9,14.8z"/>
	<path fill="#25265D" d="M16.2,15.5c-0.4,0.1-0.7,0.2-1,0.2c-0.6,0-1-0.4-1-1.1c0-0.1,0-0.3,0-0.4l0.1-0.5l0.1-0.4L15,10h1.2
		l-0.1,0.7h0.8l-0.2,1.2h-0.8l-0.3,2c0,0.1,0,0.2,0,0.2c0,0.3,0.1,0.4,0.4,0.4c0.1,0,0.3,0,0.4,0L16.2,15.5"/>
	<path fill="#25265D" d="M20.2,15.5c-0.4,0.1-0.9,0.2-1.3,0.2c-1.4,0-2.2-0.8-2.2-2.2c0-1.7,1-2.9,2.3-2.9c1.1,0,1.7,0.7,1.7,1.8
		c0,0.4,0,0.7-0.2,1.2h-2.6c0,0.1,0,0.1,0,0.2c0,0.6,0.4,0.9,1.1,0.9c0.5,0,0.9-0.1,1.3-0.3L20.2,15.5 M19.4,12.6c0-0.1,0-0.2,0-0.3
		c0-0.4-0.2-0.6-0.6-0.6c-0.4,0-0.7,0.3-0.8,0.9L19.4,12.6z"/>
	<polygon fill="#25265D" points="6.3,15.6 5,15.6 5.8,10.9 4.1,15.6 3.2,15.6 3.1,11 2.3,15.6 1.1,15.6 2.1,9.6 4,9.6 4,13.3 
		5.3,9.6 7.3,9.6 	"/>
	<path fill="#25265D" d="M9.4,13.4c-0.1,0-0.2,0-0.3,0c-0.7,0-1.1,0.3-1.1,0.7c0,0.3,0.2,0.5,0.5,0.5C9.1,14.6,9.4,14.1,9.4,13.4
		 M10.4,15.6H9.3l0-0.5c-0.3,0.4-0.7,0.6-1.4,0.6c-0.6,0-1.2-0.5-1.2-1.3c0-0.2,0-0.4,0.1-0.6c0.2-0.8,1-1.2,2.1-1.3
		c0.1,0,0.4,0,0.6,0c0-0.2,0.1-0.2,0.1-0.3c0-0.3-0.3-0.4-0.9-0.4c-0.4,0-0.8,0.1-1.1,0.1l-0.2,0.1l-0.1,0l0.2-1.1
		c0.6-0.2,1-0.3,1.5-0.3c1.1,0,1.7,0.5,1.7,1.4c0,0.2,0,0.4-0.1,1l-0.3,1.7l0,0.3l0,0.2l0,0.2L10.4,15.6z"/>
	<path fill="#25265D" d="M26.4,10.7c0.4,0,0.7,0.1,1.2,0.3l0.2-1.3c-0.1,0-0.1-0.1-0.3-0.1l-0.5-0.1c-0.2,0-0.4-0.1-0.6-0.1
		c-0.6,0-1,0-1.4,0.2c-0.2,0.1-0.5,0.3-0.8,0.6l-0.2,0l-1.3,0.9l0.1-0.5h-1.4l-0.8,4.9h1.3l0.5-2.6c0,0,0.2-0.4,0.3-0.5
		c0.2-0.3,0.4-0.3,0.7-0.3c0,0,0.1,0,0.1,0c0,0.3-0.1,0.6-0.1,0.9c0,1.6,0.9,2.6,2.3,2.6c0.4,0,0.7,0,1.1-0.2l0.2-1.4
		c-0.4,0.2-0.8,0.3-1.1,0.3c-0.8,0-1.2-0.6-1.2-1.5C24.8,11.7,25.4,10.7,26.4,10.7"/>
	<path fill="#25265D" d="M37.3,9.6L37,11.3c-0.3-0.5-0.7-0.7-1.2-0.7c-0.7,0-1.3,0.4-1.7,1.1l0,0l-0.8-0.5l0.1-0.5H32l-0.8,4.9h1.3
		L33,13c0,0,0.3-0.4,0.4-0.5c0.2-0.2,0.4-0.3,0.6-0.3c-0.2,0.4-0.2,0.9-0.2,1.5c0,1.2,0.6,2,1.6,2c0.5,0,0.8-0.2,1.2-0.5l-0.1,0.5
		h1.2l1-6H37.3 M35.8,14.4c-0.4,0-0.7-0.3-0.7-1c0-1,0.4-1.7,1-1.7c0.4,0,0.7,0.3,0.7,1C36.8,13.8,36.4,14.4,35.8,14.4"/>
	<path fill="#25265D" d="M29.8,13.4c-0.1,0-0.2,0-0.3,0c-0.7,0-1.1,0.3-1.1,0.7c0,0.3,0.2,0.5,0.5,0.5
		C29.5,14.6,29.8,14.1,29.8,13.4 M30.8,15.6h-1.1l0-0.5c-0.3,0.4-0.7,0.6-1.4,0.6c-0.6,0-1.2-0.5-1.2-1.3c0-1.2,0.9-1.9,2.3-1.9
		c0.1,0,0.4,0,0.6,0c0-0.2,0.1-0.2,0.1-0.3c0-0.3-0.3-0.4-0.9-0.4c-0.4,0-0.8,0.1-1.1,0.1L28,11.9l-0.1,0l0.2-1.1
		c0.6-0.2,1-0.3,1.5-0.3c1.1,0,1.7,0.5,1.7,1.4c0,0.2,0,0.4-0.1,1l-0.3,1.7l0,0.3l0,0.2l0,0.2L30.8,15.6z"/>
	<path fill-rule="evenodd" clip-rule="evenodd" fill="#25265D" d="M13.1,11.7c0.3,0,0.6,0,1,0.1l0.2-1.1c-0.4-0.1-0.9-0.1-1.2-0.1
		c-1.4,0-1.9,0.8-1.9,1.7c0,0.6,0.3,1,1,1.3c0.5,0.2,0.6,0.3,0.6,0.5c0,0.3-0.3,0.5-0.8,0.5c-0.4,0-0.7-0.1-1.2-0.2l-0.1,1.1l0,0
		l0.2,0c0.1,0,0.2,0,0.3,0c0.3,0,0.6,0,0.7,0c1.4,0,2-0.6,2-1.6c0-0.7-0.3-1.1-1-1.4c-0.5-0.2-0.6-0.3-0.6-0.5
		C12.5,11.9,12.7,11.7,13.1,11.7"/>
	<g>
		<path fill="#FFFFFF" d="M28.1,9.4l-0.2,1.3c-0.5-0.2-0.8-0.3-1.2-0.3c-1,0-1.6,0.9-1.6,2.3c0,0.9,0.5,1.5,1.2,1.5
			c0.3,0,0.7-0.1,1.1-0.3l-0.2,1.4c-0.5,0.1-0.8,0.2-1.1,0.2c-1.4,0-2.3-1-2.3-2.6c0-2.2,1.2-3.7,2.9-3.7c0.2,0,0.4,0,0.6,0.1
			l0.5,0.1C28,9.3,28,9.3,28.1,9.4"/>
		<path fill="#FFFFFF" d="M24,10.3c0,0-0.1,0-0.1,0c-0.4,0-0.7,0.2-1.1,0.8l0.1-0.7h-1.2l-0.8,4.9h1.3c0.5-3,0.6-3.5,1.2-3.5
			c0,0,0,0,0.1,0C23.6,11.1,23.8,10.7,24,10.3L24,10.3"/>
		<path fill="#FFFFFF" d="M16.5,15.2c-0.4,0.1-0.6,0.2-0.9,0.2c-0.7,0-1-0.4-1-1.1c0-0.1,0-0.3,0-0.4l0.1-0.5l0.1-0.4l0.6-3.4h1.3
			l-0.1,0.7h0.7l-0.2,1.2h-0.7l-0.3,2.1c0,0.1,0,0.2,0,0.2c0,0.3,0.1,0.4,0.4,0.4c0.1,0,0.3,0,0.3,0L16.5,15.2"/>
		<path fill="#FFFFFF" d="M11.5,11.9c0,0.6,0.3,1,1,1.4c0.5,0.2,0.6,0.3,0.6,0.5c0,0.3-0.2,0.4-0.7,0.4c-0.4,0-0.7-0.1-1.2-0.2
			l-0.2,1.1l0.1,0l0.2,0c0.1,0,0.2,0,0.3,0c0.3,0,0.5,0,0.7,0c1.4,0,2-0.5,2-1.6c0-0.7-0.3-1.1-0.9-1.4c-0.5-0.2-0.6-0.3-0.6-0.5
			c0-0.3,0.2-0.4,0.6-0.4c0.3,0,0.6,0,0.9,0.1l0.2-1.1c-0.3-0.1-0.8-0.1-1.1-0.1C12,10.2,11.5,10.9,11.5,11.9"/>
		<path fill="#FFFFFF" d="M38,15.2h-1.2l0.1-0.5c-0.4,0.4-0.7,0.5-1.2,0.5c-0.9,0-1.6-0.8-1.6-2c0-1.6,1-3,2.1-3
			c0.5,0,0.9,0.2,1.2,0.7l0.3-1.7H39L38,15.2 M36.1,14.1c0.6,0,1-0.7,1-1.7c0-0.6-0.2-1-0.7-1c-0.6,0-1,0.7-1,1.7
			C35.4,13.7,35.6,14.1,36.1,14.1"/>
		<path fill="#FFFFFF" d="M20.5,15.1c-0.4,0.1-0.9,0.2-1.3,0.2c-1.4,0-2.2-0.8-2.2-2.2c0-1.7,1-2.9,2.3-2.9c1.1,0,1.7,0.7,1.7,1.8
			c0,0.4,0,0.7-0.2,1.2h-2.6c0,0.1,0,0.1,0,0.2c0,0.6,0.4,0.9,1.1,0.9c0.5,0,0.9-0.1,1.3-0.3L20.5,15.1 M19.7,12.2
			c0-0.1,0-0.2,0-0.3c0-0.4-0.2-0.6-0.6-0.6c-0.4,0-0.7,0.3-0.8,0.9L19.7,12.2z"/>
		<polygon fill="#FFFFFF" points="6.6,15.2 5.3,15.2 6.1,10.6 4.4,15.2 3.6,15.2 3.4,10.6 2.7,15.2 1.5,15.2 2.5,9.2 4.3,9.2 
			4.4,12.9 5.6,9.2 7.6,9.2 		"/>
		<path fill="#FFFFFF" d="M9.8,13c-0.1,0-0.2,0-0.3,0c-0.7,0-1.1,0.3-1.1,0.7c0,0.3,0.2,0.5,0.5,0.5C9.4,14.3,9.8,13.8,9.8,13
			 M10.8,15.2H9.7l0-0.5c-0.3,0.4-0.8,0.6-1.4,0.6c-0.7,0-1.2-0.5-1.2-1.3c0-1.2,0.8-1.9,2.3-1.9c0.1,0,0.3,0,0.5,0
			c0-0.2,0.1-0.2,0.1-0.3c0-0.3-0.2-0.4-0.8-0.4c-0.4,0-0.8,0.1-1.1,0.1l-0.2,0.1l-0.1,0L8,10.5c0.6-0.2,1.1-0.3,1.5-0.3
			c1.1,0,1.7,0.5,1.7,1.4c0,0.2,0,0.4-0.1,1l-0.3,1.7l0,0.3l0,0.2l0,0.2L10.8,15.2z"/>
		<path fill="#FFFFFF" d="M30.2,13c-0.1,0-0.2,0-0.3,0c-0.7,0-1.1,0.3-1.1,0.7c0,0.3,0.2,0.5,0.5,0.5C29.8,14.3,30.2,13.8,30.2,13
			 M31.1,15.2h-1.1l0-0.5c-0.3,0.4-0.8,0.6-1.4,0.6c-0.7,0-1.2-0.5-1.2-1.3c0-1.2,0.8-1.9,2.3-1.9c0.1,0,0.3,0,0.5,0
			c0-0.2,0.1-0.2,0.1-0.3c0-0.3-0.2-0.4-0.8-0.4c-0.4,0-0.8,0.1-1.1,0.1l-0.2,0.1l-0.1,0l0.2-1.1c0.6-0.2,1.1-0.3,1.5-0.3
			c1.1,0,1.7,0.5,1.7,1.4c0,0.2,0,0.4-0.1,1l-0.3,1.7l0,0.3l0,0.2l0,0.2L31.1,15.2z"/>
		<path fill="#FFFFFF" d="M34.6,10.3c0,0-0.1,0-0.1,0c-0.4,0-0.7,0.2-1.1,0.8l0.1-0.7h-1.2l-0.8,4.9h1.3c0.5-3,0.6-3.5,1.2-3.5
			c0,0,0,0,0.1,0C34.3,11.1,34.4,10.7,34.6,10.3L34.6,10.3"/>
	</g>
</g>
</svg>
