<?xml version="1.0" encoding="utf-8"?>
<!-- Generator: Adobe Illustrator 18.1.0, SVG Export Plug-In . SVG Version: 6.00 Build 0)  -->
<svg version="1.1" id="Layer_1" xmlns="http://www.w3.org/2000/svg" xmlns:xlink="http://www.w3.org/1999/xlink" x="0px" y="0px"
	 viewBox="0 0 101 23.9" enable-background="new 0 0 101 23.9" xml:space="preserve">
<g>
	<path fill="#002D5C" d="M35.5,22.4c-5.8,0-9.5-4.1-9.5-9.6c0-5.7,4.2-9.9,9.8-9.9c3.9,0,6.1,1.9,6.4,2.3l-2,3.1
		C39.9,8.1,38.4,7,36.3,7c-3.4,0-5.2,2.9-5.2,5.6c0,3.2,1.7,5.7,5,5.7c2.4,0,4.3-1.3,4.4-1.4l2,3.2C42.5,20.2,39.9,22.4,35.5,22.4z"
		/>
	<path fill="#002D5C" d="M61.4,14.3H49.2c-0.1,1.4,1.1,4.2,4.7,4.2c2.3,0,4.1-0.9,4.9-1.3l1.7,3.2c-0.1,0.1-2.9,2-7,2
		c-6,0-9.2-4.3-9.2-9.6c0-5.7,3.6-9.9,8.9-9.9c5.4,0,8.3,3.8,8.3,9.8C61.4,13.5,61.4,14.1,61.4,14.3z M53.3,6.7
		c-2.3,0-3.7,1.7-4.1,4h7.6C56.7,9.7,56.4,6.7,53.3,6.7z"/>
	<path fill="#002D5C" d="M75.4,21.9v-1.3c-0.3,0.2-2.3,1.7-5.2,1.7c-3.7,0-6-2.4-6-5.9c0-6.6,8-6.7,10.3-6.7H75c0-1.1,0-1.7-0.6-2.2
		c-0.4-0.4-1.2-0.8-2.6-0.8c-2.4,0-4.7,1.2-4.9,1.3l-1.7-3.2c0.3-0.2,2.8-2,7-2c1.6,0,4.2,0.3,6,2.1c1.5,1.5,1.5,3.5,1.5,5.9v11.1
		H75.4z M75,13.2c-0.3,0-0.8,0-0.8,0c-3.3,0-5.6,0.6-5.6,2.9c0,1.9,1.6,2.4,2.9,2.4c2.1,0,3.3-1,3.5-1.1V13.2z"/>
	<path fill="#002D5C" d="M96,21.9v-9.7c0-2.4-0.1-3.6-0.8-4.3c-0.2-0.2-0.8-0.7-2-0.7c-1.6,0-3.7,0.9-4,1.2v13.5h-5.1V3.4h4.3v1.4
		c0.3-0.2,3.2-1.9,5.8-1.9c2,0,3.6,0.6,4.8,1.8c2.1,2.1,2,4.8,2,7.2v9.9H96z"/>
	<path fill="#002D5C" d="M64.3,6.3"/>
	<path fill="#002D5C" d="M12.2,0.7c-5.1,0-9.4,3.4-10.8,8c0,0,0,0,0,0c-0.9,3.3,0,6.2,2.2,8.2c3,2.7,7.4,1.6,7.4,1.6
		c-2.7-0.6-4.7-3.3-4.7-6.5c0-3.7,2.7-6.6,6-6.6c3.3,0,6,3,6,6.6c0,2-0.8,3.8-2.1,5c-3.2,3.4-8.2,3.7-11.5,3.4
		c2,1.8,4.7,2.9,7.6,2.9c6.3,0,11.3-5.1,11.3-11.3C23.6,5.8,18.5,0.7,12.2,0.7z"/>
	<path fill="#002D5C" d="M56.2,8.4"/>
</g>
</svg>
