<?xml version="1.0" encoding="utf-8"?>
<!-- Generator: Adobe Illustrator 18.1.0, SVG Export Plug-In . SVG Version: 6.00 Build 0)  -->
<svg version="1.1" id="Layer_1" xmlns="http://www.w3.org/2000/svg" xmlns:xlink="http://www.w3.org/1999/xlink" x="0px" y="0px"
	 viewBox="0 0 38.6 34.9" enable-background="new 0 0 38.6 34.9" xml:space="preserve">
<g>
	<g>
		<path fill-rule="evenodd" clip-rule="evenodd" fill="#EB0029" d="M37.5,28.7c0.7,0,1.2-0.6,1.2-1.3v-4.8c0-0.7-0.5-1.3-1.2-1.3
			c-0.7,0-1.1,0.6-1.1,1.3v4.8C36.3,28.1,36.8,28.7,37.5,28.7z M22.1,28.7c0.7,0,1.1-0.6,1.1-1.3v-4.8c0-0.7-0.4-1.3-1.1-1.3
			c-0.7,0-1.2,0.6-1.2,1.3v4.8C20.9,28.1,21.4,28.7,22.1,28.7z M35.5,30.1v-8.3H24v8.3c0,0.4,0.5,0.9,0.9,0.9h1.4v2.6
			c0,0.7,0.6,1.3,1.2,1.3c0.7,0,1.1-0.6,1.1-1.3V31h2.3v2.6c0,0.7,0.5,1.3,1.2,1.3c0.7,0,1.1-0.6,1.1-1.3V31h1.4
			C35,31,35.5,30.5,35.5,30.1z M24.1,21h5.7h5.7c0-1.9-1.2-3.5-3-4.3l1-1.7c0,0,0-0.1,0-0.1c-0.1,0-0.2,0-0.2,0l-1,1.6
			c-0.8-0.3-1.6-0.5-2.5-0.5c-0.9,0-1.8,0.2-2.5,0.5l-1-1.6c0,0-0.1-0.1-0.1,0c-0.1,0,0,0.1,0,0.1l1,1.7
			C25.3,17.6,24.1,19.2,24.1,21z M27.1,18h0.8v0.8h-0.8V18z M31.7,18h0.8v0.8h-0.8V18z"/>
	</g>
	<g>
		<path fill-rule="evenodd" clip-rule="evenodd" fill="#EB0029" d="M17.7,16.5c-1.2-0.9-2.6-2-2.8-3.9c-0.3-2.5,0.8-4,2.3-5
			c-0.9-1.3-2.5-2.4-4.6-2.2c-1.2,0.1-2.4,1-3.5,1C7.9,6.4,7,5.6,6,5.5C2.5,5,0.2,8.3,0,11.5v1.2c0.5,4.1,2.3,8.2,5.4,9.6H6
			c1.3-0.3,2-0.9,3.3-0.9c1.5,0,2.6,1.2,4.3,0.8c1.1-0.3,1.9-1.5,2.5-2.4C16.8,18.7,17.3,17.7,17.7,16.5z M13,0
			c-2.4,0.6-4.2,2.2-4.1,5.1c2.8,0,4.3-2,4.3-5.1H13z"/>
	</g>
</g>
</svg>
