<?xml version="1.0" encoding="utf-8"?>
<!-- Generator: Adobe Illustrator 18.1.0, SVG Export Plug-In . SVG Version: 6.00 Build 0)  -->
<svg version="1.1" id="Layer_1" xmlns="http://www.w3.org/2000/svg" xmlns:xlink="http://www.w3.org/1999/xlink" x="0px" y="0px"
	 viewBox="0 0 21.3 34.1" enable-background="new 0 0 21.3 34.1" xml:space="preserve">
<path fill-rule="evenodd" clip-rule="evenodd" fill="#EB0029" d="M18.5,28.4H2.8V4.3h15.6V28.4z M10.7,32.7c-0.8,0-1.5-0.7-1.5-1.5
	c0-0.8,0.7-1.5,1.5-1.5c0.8,0,1.5,0.7,1.5,1.5C12.2,32,11.5,32.7,10.7,32.7z M17.4,0H3.9C1.7,0,0,1.8,0,3.9v26.3
	c0,2.1,1.7,3.9,3.9,3.9h13.6c2.1,0,3.9-1.8,3.9-3.9V3.9C21.3,1.8,19.6,0,17.4,0z M7.1,1.8c0-0.2,0.2-0.4,0.4-0.4h6.4
	c0.2,0,0.4,0.2,0.4,0.4v0.7c0,0.2-0.2,0.4-0.4,0.4H7.5c-0.2,0-0.4-0.2-0.4-0.4V1.8z"/>
</svg>
