<?xml version="1.0" encoding="utf-8"?>
<!-- Generator: Adobe Illustrator 18.1.0, SVG Export Plug-In . SVG Version: 6.00 Build 0)  -->
<svg version="1.1" id="Layer_1" xmlns="http://www.w3.org/2000/svg" xmlns:xlink="http://www.w3.org/1999/xlink" x="0px" y="0px"
	 viewBox="0 0 260 30.3" enable-background="new 0 0 260 30.3" xml:space="preserve">
<g>
	<g>
		<path fill="#2B71B8" d="M84.6,17.5c-0.4-0.9-1-1.7-1.5-2.3c0.6-0.6,1.1-1.4,1.5-2.3c0.6-1.2,0.9-2.6,0.9-4.1
			c0-2.1-0.5-3.8-1.2-5.2c-0.5-0.9-1.1-1.6-1.8-2.1c-1.1-0.8-2.2-1.1-3.2-1.3c-1-0.2-2-0.2-2.8-0.2H65.8v0c-0.8,0-1.4,0-2.1,0.1
			c-0.5,0.1-1.2,0.2-2,0.6c-0.6,0.3-1.1,0.9-1.4,1.5c-0.4,0.9-0.5,1.5-0.5,2.1c0,0.6,0,1.1,0,1.8c0,2.8,0,10.5,0,11.9
			c0,2.4,0,5,0,6.3c0,0.8,0,1.4,0.1,2.1c0.1,0.5,0.2,1.2,0.6,2c0.3,0.6,0.9,1.1,1.5,1.4c0.9,0.4,1.5,0.5,2.1,0.6c0.6,0,1.1,0,1.8,0
			l0,0h10.6c1.1,0,2.5-0.1,3.9-0.5c0.7-0.2,1.5-0.5,2.2-1c0.7-0.5,1.4-1.2,1.8-2.1c0.7-1.3,1.2-3.1,1.2-5.2
			C85.5,20.1,85.1,18.7,84.6,17.5z M76.4,6.1c0.9,0,1.7,0.1,2.1,0.2c0.2,0.1,0.4,0.1,0.4,0.2c0.1,0,0,0,0.1,0c0.2,0.4,0.4,1,0.4,2.2
			c0,0.7-0.1,1.1-0.3,1.5c-0.2,0.4-0.5,0.8-0.8,1.1c-0.2,0.2-0.6,0.4-1.2,0.6c-0.6,0.2-1.4,0.2-2.2,0.2l0,0c-2.6,0-6.3,0-9.1,0
			c0-2.3,0-4.8,0-6.1H76.4z M79,23.9C79,23.9,79,23.9,79,23.9c-0.1,0.1-0.4,0.2-0.9,0.3c-0.5,0.1-1.1,0.1-1.7,0.1H65.8
			c0-1.3,0-3.7,0-6.1l0,0l0,0c0.3,0,0.6,0,0.9,0c2.7,0,5.9,0,8.2,0c0.9,0,1.7,0.1,2.2,0.2c0.6,0.2,0.9,0.4,1.2,0.6
			c0.3,0.3,0.6,0.7,0.8,1.1c0.2,0.4,0.3,0.9,0.3,1.5C79.4,22.9,79.2,23.5,79,23.9z"/>
		<path fill="#2B71B8" d="M54,4.5c-0.7-1.7-1.9-2.8-3.3-3.5C49.4,0.3,48,0,46.7,0c-1.3,0-2.8,0-4.4,0c-1.6,0-3.1,0-4.4,0
			c-1.4,0-2.8,0.3-4.1,1c-1.3,0.7-2.6,1.9-3.3,3.5c-0.9,2.3-1.7,5.7-1.7,10.7c0,5,0.8,8.5,1.7,10.7c0.7,1.7,1.9,2.8,3.3,3.5
			c1.3,0.7,2.8,0.9,4.1,1h1.1h6.4h1.1c1.4,0,2.8-0.3,4.1-1c1.3-0.7,2.6-1.9,3.3-3.5c0.9-2.3,1.7-5.7,1.7-10.7
			C55.8,10.2,55,6.7,54,4.5z M48.4,23.6c-0.1,0.1-0.1,0.2-0.4,0.4c-0.3,0.2-0.8,0.3-1.4,0.3h-7.6l0,0h-1.1c-0.5,0-1.1-0.1-1.4-0.3
			c-0.3-0.2-0.4-0.3-0.4-0.4c-0.6-1.4-1.3-4-1.3-8.4c0-4.4,0.7-7,1.3-8.4c0.1-0.1,0.1-0.2,0.4-0.4c0.3-0.2,0.8-0.3,1.4-0.3
			c0.4,0,0.7,0,1.1,0c2.1,0,4.5,0,6.4,0c0.4,0,0.8,0,1.1,0c0.5,0,1.1,0.1,1.4,0.3c0.3,0.2,0.4,0.3,0.4,0.4c0.6,1.4,1.3,4,1.3,8.4
			C49.7,19.6,49,22.2,48.4,23.6z"/>
		<path fill="#2B71B8" d="M114.4,4.5c-0.7-1.7-1.9-2.8-3.3-3.5c-1.3-0.7-2.8-0.9-4.1-1c-1.3,0-2.8,0-4.4,0c-1.6,0-3.1,0-4.4,0
			c-1.4,0-2.8,0.3-4.1,1c-1.3,0.7-2.6,1.9-3.3,3.5c-0.9,2.3-1.7,5.7-1.7,10.7c0,5,0.8,8.5,1.7,10.7c0.7,1.7,1.9,2.8,3.3,3.5
			c1.3,0.7,2.8,0.9,4.1,1h1.1h6.4h1.1c1.4,0,2.8-0.3,4.1-1c1.3-0.7,2.6-1.9,3.3-3.5c0.9-2.3,1.7-5.7,1.7-10.7
			C116.1,10.2,115.3,6.7,114.4,4.5z M108.7,23.6c-0.1,0.1-0.1,0.2-0.4,0.4c-0.3,0.2-0.8,0.3-1.4,0.3h-7.6l0,0h-1.1
			c-0.5,0-1.1-0.1-1.4-0.3c-0.3-0.2-0.4-0.3-0.4-0.4c-0.6-1.4-1.3-4-1.3-8.4c0-4.4,0.7-7,1.3-8.4c0.1-0.1,0.1-0.2,0.4-0.4
			c0.3-0.2,0.8-0.3,1.4-0.3c0.4,0,0.7,0,1.1,0c2.1,0,4.5,0,6.4,0c0.4,0,0.8,0,1.1,0c0.5,0,1.1,0.1,1.4,0.3c0.3,0.2,0.4,0.3,0.4,0.4
			c0.6,1.4,1.3,4,1.3,8.4C110,19.6,109.3,22.2,108.7,23.6z"/>
		<path fill="#2B71B8" d="M14.5,22c0.1,0,0.1,0,0.2,0l4.3,8.3h6.8l-5.1-9.8c0.1-0.1,0.2-0.1,0.3-0.2c1.3-0.8,2.7-2,3.6-3.6
			c0.9-1.7,1.5-3.7,1.5-6.1c0-2.8-0.6-5-1.5-6.6c-0.8-1.6-2.2-2.7-3.6-3.2c-1.4-0.6-2.7-0.7-4-0.8C13.9,0,9,0,6.1,0
			C5.3,0,4.7,0,4,0.1C3.5,0.1,2.8,0.2,2,0.7C1.4,1,0.9,1.6,0.6,2.2C0.1,3.1,0.1,3.7,0,4.3c0,0.6,0,1.1,0,1.8c0,3,0,24.3,0,24.3h6.1
			c0,0,0-3.8,0-8.4h7.9C14.1,22,14.3,22,14.5,22z M6.1,6.1c2.9,0,7.9,0,11,0c0.7,0,1.3,0.1,1.7,0.3c0.4,0.2,0.5,0.3,0.5,0.4
			c0.4,0.8,0.8,2,0.8,3.9c0,1.5-0.3,2.5-0.7,3.1c-0.5,0.9-1.3,1.5-2.3,1.8c-1,0.3-2.1,0.4-2.6,0.4c-0.1,0-0.2,0-0.2,0c0,0,0,0,0,0
			s0,0,0,0l0,0l-0.1,0H6.1C6.1,11.4,6.1,7.3,6.1,6.1z"/>
	</g>
	<path fill="#EA1D2D" d="M142.6,21.1c-1.6-2.3-3.8-4.4-5.6-5.9c0,0,0,0-0.1-0.1c1-0.8,2.1-1.8,3.1-2.9c1.1-1.1,2.2-2.4,3-3.8
		c0.8-1.4,1.6-2.9,1.6-4.9V2.7c0-1.5-1.2-2.7-2.7-2.7h-1.5c-1,0-1.8,0.8-1.8,1.8c0,1.2,0,2.5-0.7,3.5c-0.1,0.1-0.2,0.3-0.3,0.4
		c-1.1,1.6-3,3.4-4.6,4.7c-0.8,0.7-1.5,1.2-2,1.6c0,0,0,0-0.1,0c-0.3,0-0.8,0-1.2,0c-1,0-2.1,0-3.2,0c0-3.6,0-7.1,0-9.4
		c0-1.5-1.2-2.7-2.7-2.7h-0.6c-1.5,0-2.7,1.2-2.7,2.7c0,5.9,0,19.1,0,24.9c0,1.5,1.2,2.7,2.7,2.7h0.6c1.5,0,2.7-1.2,2.7-2.7
		c0-2.3,0-5.7,0-9.4c1.1,0,2.2,0,3.2,0c0.5,0,0.9,0,1.3,0c0.9,0.7,2.5,1.9,4,3.4c1.1,1,2.1,2.1,2.7,3.1c0.7,1,0.9,1.8,0.9,2v0.9
		c0,1.5,1.2,2.7,2.7,2.7h0.6c1.5,0,2.7-1.2,2.7-2.7v-0.9C144.6,24.4,143.7,22.6,142.6,21.1z M197.5,12.4c-0.8-0.2-1.6-0.3-2.3-0.3
		H187c-0.8,0-1.5-0.1-2-0.2c-0.4-0.2-0.5-0.3-0.5-0.3c-0.3-0.5-0.5-1.2-0.5-2.5c0-1.3,0.3-2,0.5-2.5c0-0.1,0.1-0.2,0.5-0.3
		c0.4-0.2,1.2-0.3,2-0.2c3.2,0,8.2,0,11.8,0c1.5,0,2.7-1.2,2.7-2.7V0c0,0-10.4,0-14.5,0c-0.5,0-1.1,0-1.6,0.1
		c-1.5,0.2-3.1,0.6-4.3,1.5c-1.5,1.1-2.4,2.8-2.8,4.6c0,0.1,0,0.1,0,0.2c-0.4,1.8-0.4,3.6,0,5.4c0,0.2,0.1,0.4,0.1,0.6
		c0.4,1.5,1.2,2.9,2.3,3.9c1.4,1.2,3.2,1.7,5,1.8c0.4,0,0.9,0,1.3,0h7.2c1,0,2,0.5,2.3,1.4c0.3,1,0.3,2.1,0,3.2
		c-0.1,0.4-0.2,0.7-0.4,0.9c-0.2,0.4-0.6,0.6-1,0.6c-2.8,0-9,0-13.2,0c-1.5,0-2.7,1.2-2.7,2.7v0.6c0,1.5,1.2,2.7,2.7,2.7
		c4.2,0,10.4,0,13.2,0c0.7,0,1.5-0.1,2.3-0.3c0.8-0.2,1.8-0.7,2.6-1.5c1.3-1.3,2.7-3.8,2.7-7.3c0-3.4-1.4-5.9-2.7-7.3
		C199.2,13.1,198.3,12.6,197.5,12.4z M224.6,12.4c-0.8-0.2-1.6-0.3-2.3-0.3h-8.2c-0.8,0-1.5-0.1-2-0.2c-0.4-0.2-0.5-0.3-0.5-0.3
		c-0.3-0.5-0.5-1.2-0.5-2.5c0-1.3,0.3-2,0.5-2.5c0-0.1,0.1-0.2,0.5-0.3c0.4-0.2,1.2-0.3,1.9-0.2c3.2,0,8.2,0,11.8,0
		c1.5,0,2.7-1.2,2.7-2.7V0c-3.2,0-10.4,0-14.5,0c-0.5,0-1.1,0-1.6,0.1c-1.5,0.2-3.1,0.6-4.3,1.5c-1.5,1.1-2.4,2.8-2.8,4.6
		c0,0.1,0,0.1,0,0.2c-0.4,1.8-0.4,3.6,0,5.4c0,0.2,0.1,0.4,0.1,0.6c0.4,1.5,1.2,2.9,2.3,3.9c1.4,1.2,3.2,1.7,5,1.8
		c0.4,0,0.9,0,1.3,0h7.2c1,0,2,0.5,2.3,1.4c0.3,1,0.3,2.1,0,3.2c-0.1,0.4-0.2,0.7-0.4,0.9c-0.2,0.4-0.6,0.6-1,0.6c-2.8,0-9,0-13.2,0
		c-1.5,0-2.7,1.2-2.7,2.7v0.6c0,1.5,1.2,2.7,2.7,2.7c4.2,0,10.4,0,13.2,0c0.7,0,1.5-0.1,2.3-0.3c0.8-0.2,1.8-0.7,2.6-1.5
		c1.3-1.3,2.7-3.8,2.7-7.3c0-3.4-1.4-5.9-2.7-7.3C226.4,13.1,225.4,12.6,224.6,12.4z M171.5,3.5c-0.9-1.4-2.3-2.3-3.6-2.8
		c-1.1-0.4-2.3-0.6-3.4-0.7v0c0,0,0,0,0,0c-1.2,0-2.3,0-3.3,0c-0.8,0-1.7,0-2.7,0c0,0,0,0,0,0c-1.1,0.1-2.2,0.3-3.3,0.7
		c-1.3,0.5-2.6,1.4-3.6,2.8c-1.7,2.4-3.4,6.4-3.3,12.3c0,5.4,0,9.3,0,11.7c0,1.5,1.2,2.7,2.7,2.7h0.6c1.5,0,2.7-1.2,2.7-2.7
		c0-1.2,0-2.9,0-5h14.5c0,2.1,0,3.8,0,5c0,1.5,1.2,2.7,2.7,2.7h0.6c1.5,0,2.7-1.2,2.7-2.7c0-2.4,0-6.4,0-11.8
		C174.9,9.9,173.2,5.9,171.5,3.5z M168.8,16.4h-14.5c0-0.2,0-0.4,0-0.6c0-4.7,1.3-7.4,2.3-8.9c0.2-0.2,0.4-0.4,0.8-0.6
		c0.4-0.2,1.1-0.3,1.7-0.3c1.8,0,3.5,0,4.8,0c0.7,0,1.3,0.1,1.7,0.3c0.4,0.2,0.7,0.4,0.8,0.6c1,1.4,2.2,4.1,2.3,8.8
		C168.8,16,168.8,16.2,168.8,16.4z M260,15.7c0-5.8-1.7-9.8-3.3-12.2c-0.9-1.4-2.3-2.3-3.6-2.8c-1.1-0.4-2.3-0.6-3.4-0.7
		c0,0,0,0,0,0c-2,0-3.9,0-5.4,0c0,0,0,0,0,0c-0.2,0-0.4,0-0.5,0c0,0,0,0,0,0c-1.1,0.1-2.2,0.3-3.3,0.7c-1.3,0.5-2.6,1.4-3.6,2.8
		c-1.7,2.4-3.4,6.4-3.3,12.3c0,5.4,0,9.3,0,11.7c0,1.5,1.2,2.7,2.7,2.7h0.6c1.5,0,2.7-1.2,2.7-2.7c0-1.2,0-2.9,0-5H254
		c0,2.1,0,3.8,0,5c0,1.5,1.2,2.7,2.7,2.7h0.6c1.5,0,2.7-1.2,2.7-2.7C260,25.1,260,21.2,260,15.7z M254,16.4h-14.5c0-0.2,0-0.4,0-0.6
		c0-4.7,1.3-7.4,2.3-8.9c0.2-0.2,0.4-0.4,0.8-0.6c0.4-0.2,1.1-0.3,1.7-0.3c0.1,0,0.1,0,0.2,0c1.3,0,3,0,4.7,0c0.7,0,1.3,0.1,1.7,0.3
		c0.5,0.2,0.7,0.4,0.8,0.6c1,1.4,2.2,4.1,2.3,8.8C254,16,254,16.2,254,16.4z"/>
</g>
</svg>
