<?xml version="1.0" encoding="utf-8"?>
<!-- Generator: Adobe Illustrator 18.1.0, SVG Export Plug-In . SVG Version: 6.00 Build 0)  -->
<svg version="1.1" id="Layer_1" xmlns="http://www.w3.org/2000/svg" xmlns:xlink="http://www.w3.org/1999/xlink" x="0px" y="0px"
	 viewBox="0 0 39.9 13.1" enable-background="new 0 0 39.9 13.1" xml:space="preserve">
<g>
	<path fill-rule="evenodd" clip-rule="evenodd" fill="#FFFFFF" d="M5.7,0.4H0.6l0,0.3C4.1,1.6,7,3.5,8.3,7.1L7.2,1.5
		C7,0.7,6.4,0.5,5.7,0.4z"/>
	<path fill-rule="evenodd" clip-rule="evenodd" fill="#FFFFFF" d="M11.8,0.6h3.4l-5,12.3l-3.4,0L4.2,3.1C6,3.9,7.6,5.5,8.3,7.3
		L8.6,9L11.8,0.6 M14.4,12.9h3.2l2-12.3h-3.2L14.4,12.9 M29.2,0.9c-0.6-0.3-1.6-0.5-2.9-0.5c-3.1,0-5.4,1.7-5.4,4.1
		c0,1.8,1.6,2.8,2.8,3.4c1.2,0.6,1.7,1,1.7,1.5c0,0.8-1,1.2-1.9,1.2c-1.3,0-2-0.2-3-0.6l-0.4-0.2l-0.4,2.8c0.7,0.3,2.1,0.6,3.5,0.7
		c3.3,0,5.5-1.7,5.6-4.2c0-1.4-0.8-2.5-2.7-3.4C24.9,5,24.2,4.6,24.2,4c0-0.5,0.6-1.1,1.8-1.1c1,0,1.8,0.2,2.4,0.5l0.3,0.1L29.2,0.9
		 M37.3,0.6l2.6,12.3h-3c0,0-0.3-1.4-0.4-1.9c-0.5,0-3.7,0-4.1,0c-0.1,0.3-0.7,1.9-0.7,1.9h-3.3l4.7-11.3c0.3-0.8,0.9-1,1.7-1H37.3
		 M36.1,8.6C35.9,7.9,35.3,5,35.3,5l-0.2-1.1c-0.2,0.5-0.4,1.2-0.4,1.2c0,0-1,2.7-1.3,3.5C34,8.6,35.6,8.6,36.1,8.6z"/>
</g>
<g>
	<path fill-rule="evenodd" clip-rule="evenodd" fill="#FFFFFF" d="M5.7,0.4H0.6l0,0.3C4.1,1.6,7,3.5,8.3,7.1L7.2,1.5
		C7,0.7,6.4,0.5,5.7,0.4z"/>
	<path fill-rule="evenodd" clip-rule="evenodd" fill="#FFFFFF" d="M11.8,0.6h3.4l-5,12.3l-3.4,0L4.2,3.1C6,3.9,7.6,5.5,8.3,7.3
		L8.6,9L11.8,0.6 M14.4,12.9h3.2l2-12.3h-3.2L14.4,12.9 M29.2,0.9c-0.6-0.3-1.6-0.5-2.9-0.5c-3.1,0-5.4,1.7-5.4,4.1
		c0,1.8,1.6,2.8,2.8,3.4c1.2,0.6,1.7,1,1.7,1.5c0,0.8-1,1.2-1.9,1.2c-1.3,0-2-0.2-3-0.6l-0.4-0.2l-0.4,2.8c0.7,0.3,2.1,0.6,3.5,0.7
		c3.3,0,5.5-1.7,5.6-4.2c0-1.4-0.8-2.5-2.7-3.4C24.9,5,24.2,4.6,24.2,4c0-0.5,0.6-1.1,1.8-1.1c1,0,1.8,0.2,2.4,0.5l0.3,0.1L29.2,0.9
		 M37.3,0.6l2.6,12.3h-3c0,0-0.3-1.4-0.4-1.9c-0.5,0-3.7,0-4.1,0c-0.1,0.3-0.7,1.9-0.7,1.9h-3.3l4.7-11.3c0.3-0.8,0.9-1,1.7-1H37.3
		 M36.1,8.6C35.9,7.9,35.3,5,35.3,5l-0.2-1.1c-0.2,0.5-0.4,1.2-0.4,1.2c0,0-1,2.7-1.3,3.5C34,8.6,35.6,8.6,36.1,8.6z"/>
</g>
</svg>
