<?xml version="1.0" encoding="utf-8"?>
<!-- Generator: Adobe Illustrator 18.1.0, SVG Export Plug-In . SVG Version: 6.00 Build 0)  -->
<svg version="1.1" id="Layer_1" xmlns="http://www.w3.org/2000/svg" xmlns:xlink="http://www.w3.org/1999/xlink" x="0px" y="0px"
	 viewBox="0 0 299 12" enable-background="new 0 0 299 12" xml:space="preserve">
<g opacity="0.25">
	<g opacity="0.5">
		<path fill="#727C8E" d="M0-432V7c3,0,4.5,1.7,5.7,3.2c1.2,1.4,2.5,2.8,4.7,2.8c2.2,0,3.4-1.4,4.6-2.8C16.2,8.7,17.6,7,20.2,7
			c2.7,0,4,1.7,5.2,3.2c1.2,1.4,2.3,2.8,4.4,2.8c2.2,0,3.3-1.4,4.4-2.8C35.6,8.7,36.9,7,39.6,7s4,1.7,5.2,3.2
			c1.2,1.4,2.3,2.8,4.4,2.8c2.2,0,3.3-1.4,4.4-2.8C54.9,8.7,56.2,7,58.9,7c2.7,0,4,1.7,5.2,3.2c1.2,1.4,2.3,2.8,4.4,2.8
			c2.2,0,3.3-1.4,4.4-2.8C74.1,8.7,75.5,7,78.2,7c2.7,0,4,1.7,5.2,3.2c1.2,1.4,2.3,2.8,4.4,2.8c2.2,0,3.3-1.4,4.4-2.8
			C93.4,8.7,94.8,7,97.4,7c2.7,0,4,1.7,5.2,3.2c1.2,1.4,2.3,2.8,4.4,2.8c2.2,0,3.3-1.4,4.4-2.8c1.2-1.5,2.6-3.2,5.2-3.2
			c2.7,0,4,1.7,5.2,3.2c1.2,1.4,2.3,2.8,4.4,2.8c2.2,0,3.3-1.4,4.4-2.8C132,8.7,133.4,7,136,7c2.7,0,4,1.7,5.2,3.2
			c1.2,1.4,2.3,2.8,4.4,2.8s3.3-1.4,4.4-2.8c1.2-1.5,2.6-3.2,5.2-3.2c2.7,0,4,1.7,5.2,3.2c1.2,1.4,2.3,2.8,4.4,2.8
			c2.2,0,3.3-1.4,4.4-2.8c1.2-1.5,2.6-3.2,5.2-3.2c2.7,0,4,1.7,5.2,3.2c1.2,1.4,2.3,2.8,4.4,2.8c2.2,0,3.3-1.4,4.4-2.8
			c1.2-1.5,2.6-3.2,5.2-3.2s4,1.7,5.2,3.2c1.2,1.4,2.3,2.8,4.4,2.8s3.3-1.4,4.4-2.8c1.2-1.5,2.6-3.2,5.2-3.2c2.7,0,4,1.7,5.2,3.2
			c1.2,1.4,2.3,2.8,4.4,2.8s3.3-1.4,4.4-2.8c1.2-1.5,2.6-3.2,5.2-3.2s4,1.7,5.2,3.2c1.2,1.4,2.3,2.8,4.4,2.8c2.2,0,3.3-1.4,4.4-2.8
			c1.2-1.5,2.6-3.2,5.2-3.2c2.7,0,4,1.7,5.2,3.2c1.2,1.4,2.3,2.8,4.4,2.8c2.2,0,3.3-1.4,4.4-2.8C267,8.7,268.4,7,271,7
			c2.7,0,4,1.7,5.2,3.2c1.2,1.4,2.3,2.8,4.4,2.8c2.2,0,3.3-1.4,4.4-2.8c1.2-1.5,2.6-3.2,5.2-3.2c2.7,0,3.5,1.7,4.7,3.2
			c1.2,1.4,1.9,2.8,3.9,2.8v-445H0z"/>
	</g>
	<g>
		<g>
			<path fill="#F3F3F3" d="M0-433V6c3,0,4.5,1.7,5.7,3.2c1.2,1.4,2.5,2.8,4.7,2.8c2.2,0,3.4-1.4,4.6-2.8C16.2,7.7,17.6,6,20.2,6
				c2.7,0,4,1.7,5.2,3.2c1.2,1.4,2.3,2.8,4.4,2.8c2.2,0,3.3-1.4,4.4-2.8C35.6,7.7,36.9,6,39.6,6s4,1.7,5.2,3.2
				c1.2,1.4,2.3,2.8,4.4,2.8c2.2,0,3.3-1.4,4.4-2.8C54.9,7.7,56.2,6,58.9,6c2.7,0,4,1.7,5.2,3.2c1.2,1.4,2.3,2.8,4.4,2.8
				c2.2,0,3.3-1.4,4.4-2.8C74.1,7.7,75.5,6,78.2,6c2.7,0,4,1.7,5.2,3.2c1.2,1.4,2.3,2.8,4.4,2.8c2.2,0,3.3-1.4,4.4-2.8
				C93.4,7.7,94.8,6,97.4,6c2.7,0,4,1.7,5.2,3.2c1.2,1.4,2.3,2.8,4.4,2.8c2.2,0,3.3-1.4,4.4-2.8c1.2-1.5,2.6-3.2,5.2-3.2
				c2.7,0,4,1.7,5.2,3.2c1.2,1.4,2.3,2.8,4.4,2.8c2.2,0,3.3-1.4,4.4-2.8C132,7.7,133.4,6,136,6c2.7,0,4,1.7,5.2,3.2
				c1.2,1.4,2.3,2.8,4.4,2.8s3.3-1.4,4.4-2.8c1.2-1.5,2.6-3.2,5.2-3.2c2.7,0,4,1.7,5.2,3.2c1.2,1.4,2.3,2.8,4.4,2.8
				c2.2,0,3.3-1.4,4.4-2.8c1.2-1.5,2.6-3.2,5.2-3.2c2.7,0,4,1.7,5.2,3.2c1.2,1.4,2.3,2.8,4.4,2.8c2.2,0,3.3-1.4,4.4-2.8
				c1.2-1.5,2.6-3.2,5.2-3.2s4,1.7,5.2,3.2c1.2,1.4,2.3,2.8,4.4,2.8s3.3-1.4,4.4-2.8c1.2-1.5,2.6-3.2,5.2-3.2c2.7,0,4,1.7,5.2,3.2
				c1.2,1.4,2.3,2.8,4.4,2.8s3.3-1.4,4.4-2.8c1.2-1.5,2.6-3.2,5.2-3.2s4,1.7,5.2,3.2c1.2,1.4,2.3,2.8,4.4,2.8c2.2,0,3.3-1.4,4.4-2.8
				c1.2-1.5,2.6-3.2,5.2-3.2c2.7,0,4,1.7,5.2,3.2c1.2,1.4,2.3,2.8,4.4,2.8c2.2,0,3.3-1.4,4.4-2.8C267,7.7,268.4,6,271,6
				c2.7,0,4,1.7,5.2,3.2c1.2,1.4,2.3,2.8,4.4,2.8c2.2,0,3.3-1.4,4.4-2.8c1.2-1.5,2.6-3.2,5.2-3.2c2.7,0,3.5,1.7,4.7,3.2
				c1.2,1.4,1.9,2.8,3.9,2.8v-445H0z"/>
		</g>
	</g>
</g>
</svg>
