<?xml version="1.0" encoding="UTF-8" standalone="no"?>
<!DOCTYPE svg  PUBLIC '-//W3C//DTD SVG 1.1//EN'  'http://www.w3.org/Graphics/SVG/1.1/DTD/svg11.dtd'>
<svg xmlns="http://www.w3.org/2000/svg">
<defs>
<font id="ProbaPro-Italic" horiz-adv-x="220">
<font-face slope="-10" underline-position="-50" font-weight="400" descent="-200" panose-1="2 13 0 3 3 2 0 0 0 0" units-per-em="1000" unicode-range="U+0020-2212" bbox="-28 -257 1237 910" x-height="450" underline-thickness="50" font-family="ProbaPro" ascent="800" font-style="italic" cap-height="700"/>
<missing-glyph horiz-adv-x="1000"/>
<glyph glyph-name=".notdef" horiz-adv-x="1000"/>
<glyph glyph-name=".null" horiz-adv-x="0"/>
<glyph glyph-name="nonmarkingreturn" horiz-adv-x="333"/>
<glyph glyph-name="space" horiz-adv-x="230" unicode=" "/>
<glyph glyph-name="exclam" d="M107 192l89 508h73l-89 -508h-73zM68 42q3 20 20 34.5t37 14.5q18 0 30 -12.5t12 -29.5q0 -1 -0.5 -3t-0.5 -4q-4 -21 -20.5 -35t-37.5 -14q-18 0 -29.5 11.5t-11.5 28.5q0 6 1 9z" unicode="!"/>
<glyph glyph-name="quotedbl" horiz-adv-x="365" unicode='&quot;' d="M307 450l44 250h63l-44 -250h-63zM152 450l44 250h64l-44 -250h-64z"/>
<glyph glyph-name="numbersign" horiz-adv-x="605" unicode="#" d="M316 466l-77 -232h172l77 232h-172zM333 0l58 176h-171l-58 -176h-74l59 176h-76l10 58h85l77 232h-85l11 58h93l60 176h73l-60 -176h172l59 176h73l-60 -176h77l-10 -58h-85l-78 -232h87l-10 -58h-96l-58 -176h-73z"/>
<glyph glyph-name="dollar" horiz-adv-x="530" unicode="$" d="M227 521q-2 -14 -2 -19q0 -33 22.5 -55.5t63.5 -42.5l41 234q-53 -6 -85.5 -41t-39.5 -76zM430 191q2 12 2 17q0 34 -24.5 56.5t-69.5 41.5l-43 -243q58 10 93 48t42 80zM222 -100l16 94q-119 6 -182 91l55 47q22 -31 59.5 -50t79.5 -21l47 262q-35 15 -56 26t-46 30 t-37 45t-12 59q0 17 3 36q13 76 69 130t146 58l17 93h44l-17 -95q101 -11 156 -80l-56 -48q-39 50 -112 60l-44 -250q38 -16 59 -26.5t48 -30t39.5 -45t12.5 -59.5q0 -15 -3 -33q-14 -77 -73.5 -134.5t-152.5 -64.5l-16 -94h-44z"/>
<glyph glyph-name="percent" horiz-adv-x="855" unicode="%" d="M570 162q-2 -9 -2 -26q0 -40 22.5 -63.5t62.5 -23.5q46 0 80.5 31.5t43.5 81.5q2 9 2 26q0 40 -22.5 63.5t-62.5 23.5q-46 0 -80.5 -31.5t-43.5 -81.5zM504 162q13 76 68.5 122.5t130.5 46.5q66 0 104.5 -36t38.5 -97q0 -18 -3 -36q-14 -76 -68.5 -122.5t-130.5 -46.5 q-66 0 -104.5 36t-38.5 98q0 17 3 35zM200 538q-2 -9 -2 -25q0 -40 23 -64t63 -24q46 0 80.5 31.5t42.5 81.5q2 9 2 26q0 40 -22.5 63.5t-62.5 23.5q-46 0 -80.5 -31.5t-43.5 -81.5zM134 538q13 75 69 122t131 47q66 0 104 -36t38 -97q0 -16 -3 -36q-13 -76 -68.5 -122.5 t-130.5 -46.5q-66 0 -104.5 36t-38.5 98q0 17 3 35zM207 0l491 700h74l-491 -700h-74z"/>
<glyph glyph-name="ampersand" horiz-adv-x="603" unicode="&amp;" d="M397 349l10 62h228l-11 -62h-76l-26 -146q-17 -94 -87.5 -152t-168.5 -58q-86 0 -136.5 46t-50.5 122q0 22 4 42q12 64 51 110.5t97 68.5q-63 34 -63 110q0 17 3 35q13 80 74.5 130t146.5 50q74 0 117 -39.5t43 -105.5q0 -17 -3 -35h-75q2 16 2 23q0 42 -26 67t-70 25 q-51 0 -88 -32t-46 -83q-2 -16 -2 -24q0 -42 25.5 -67t69.5 -25h28l-10 -62h-28q-64 0 -111.5 -40.5t-58.5 -105.5q-3 -17 -3 -31q0 -52 33 -83t88 -31q64 0 111.5 40t58.5 105l26 146h-76z"/>
<glyph glyph-name="quotesingle" horiz-adv-x="210" unicode="&apos;" d="M152 450l44 250h64l-44 -250h-64z"/>
<glyph glyph-name="parenleft" horiz-adv-x="298" unicode="(" d="M380 757l-10 -56q-45 0 -100.5 -127.5t-89.5 -323.5q-27 -148 -27 -267q0 -87 15 -135.5t43 -48.5l-9 -56q-56 0 -88 73.5t-32 200.5q0 101 23 233q38 222 117 364.5t158 142.5z"/>
<glyph glyph-name="parenright" horiz-adv-x="298" unicode=")" d="M174 701l10 56q56 0 87.5 -73.5t31.5 -201.5q0 -106 -22 -232q-39 -223 -117.5 -365t-157.5 -142l9 56q45 0 100.5 127.5t90.5 323.5q26 149 26 266q0 87 -15 136t-43 49z"/>
<glyph glyph-name="asterisk" horiz-adv-x="446" unicode="*" d="M306 476l-101 -114l-39 34l101 112l-125 43l27 53l124 -43l25 139h55l-24 -139l141 44l7 -53l-141 -44l64 -113l-52 -32z"/>
<glyph glyph-name="plus" horiz-adv-x="436" unicode="+" d="M107 264l10 58h128l23 128h58l-23 -128h128l-10 -58h-128l-22 -128h-59l23 128h-128z"/>
<glyph glyph-name="comma" d="M63 -105l-22 26q47 40 60 73q-15 2 -24.5 13t-9.5 27q0 2 0.5 4t0.5 4q3 20 20 34.5t37 14.5q17 0 29 -11t12 -33q0 -8 -1 -13q-12 -63 -102 -139z" unicode=","/>
<glyph glyph-name="hyphen" horiz-adv-x="340" unicode="-" d="M102 236l10 58h219l-11 -58h-218z"/>
<glyph glyph-name="period" d="M68 42q3 20 20 34.5t37 14.5q18 0 30 -12.5t12 -29.5q0 -1 -0.5 -3t-0.5 -4q-4 -21 -20.5 -35t-37.5 -14q-18 0 -29.5 11.5t-11.5 28.5q0 6 1 9z" unicode="."/>
<glyph glyph-name="slash" horiz-adv-x="549" unicode="/" d="M44 -50l510 800h74l-510 -800h-74z"/>
<glyph glyph-name="zero" horiz-adv-x="565" unicode="0" d="M187 350q-10 -54 -10 -104q0 -87 30.5 -137.5t84.5 -50.5q70 0 128 81t81 211q9 56 9 102q0 88 -30.5 139t-84.5 51q-70 0 -128 -81t-80 -211zM111 350q29 159 111 258t185 99q84 0 131.5 -67.5t47.5 -181.5q0 -52 -10 -108q-29 -159 -110.5 -258t-184.5 -99 q-84 0 -132 67t-48 182q0 54 10 108z"/>
<glyph glyph-name="one" horiz-adv-x="316" unicode="1" d="M140 614l11 59l188 31l-124 -704h-72l111 635z"/>
<glyph glyph-name="two" horiz-adv-x="517" unicode="2" d="M61 65l357 303q47 41 61 118q3 18 3 36q0 54 -30.5 86.5t-83.5 32.5q-61 0 -107 -43t-58 -112h-75q18 99 87.5 160t164.5 61q83 0 131 -47t48 -125q0 -21 -5 -49q-18 -102 -94 -167l-300 -256h320l-11 -63h-419z"/>
<glyph glyph-name="three" horiz-adv-x="532" unicode="3" d="M280 349l11 62h46q50 0 87.5 32.5t46.5 83.5q2 16 2 24q0 41 -26 66t-70 25q-50 0 -87.5 -32t-45.5 -83h-76q14 80 75.5 130t145.5 50q75 0 117.5 -38.5t42.5 -104.5q0 -18 -3 -37q-9 -50 -38.5 -87.5t-72.5 -57.5q89 -38 89 -140q0 -11 -4 -39q-17 -94 -88 -152 t-169 -58q-86 0 -136 46t-50 122q0 22 4 42h75q-3 -17 -3 -30q0 -52 32.5 -83.5t88.5 -31.5q64 0 111.5 40t58.5 105q3 16 3 32q0 52 -32.5 83t-88.5 31h-46z"/>
<glyph glyph-name="four" horiz-adv-x="548" unicode="4" d="M165 199h231l70 390zM360 0l23 136h-319l6 36l408 528h75l-89 -501h63l-10 -63h-61l-23 -136h-73z"/>
<glyph glyph-name="five" horiz-adv-x="524" unicode="5" d="M506 214q-17 -99 -87 -160t-165 -61q-83 0 -132 45.5t-49 120.5q0 13 4 41h73q-2 -10 -2 -28q0 -51 32 -82t86 -31q61 0 107 43t58 112q4 26 4 38q0 60 -35 95.5t-95 35.5q-73 0 -124 -43l-49 21l103 339h305l-11 -63h-241l-66 -211q41 23 99 23q88 0 139 -49.5 t51 -133.5q0 -22 -5 -52z"/>
<glyph glyph-name="six" horiz-adv-x="530" unicode="6" d="M158 212q-3 -18 -3 -35q0 -54 32.5 -86.5t87.5 -32.5q64 0 111.5 43t59.5 111q3 18 3 35q0 54 -32.5 87t-87.5 33q-64 0 -111.5 -43t-59.5 -112zM417 707l56 -36q-124 -138 -215 -261q37 20 83 20q85 0 135 -47t50 -126q0 -24 -4 -45q-17 -98 -88.5 -158.5t-170.5 -60.5 q-86 0 -135 46.5t-49 128.5q0 27 4 50q15 88 72.5 169.5t233.5 286.5q18 22 28 33z"/>
<glyph glyph-name="seven" horiz-adv-x="523" unicode="7" d="M162 637l11 63h423l-5 -27l-371 -673h-78l349 637h-329z"/>
<glyph glyph-name="eight" horiz-adv-x="535" unicode="8" d="M246 527q-2 -16 -2 -24q0 -42 25.5 -66.5t69.5 -24.5q51 0 88.5 32t46.5 83q2 16 2 23q0 42 -26 67t-70 25q-51 0 -88 -32t-46 -83zM159 203q-3 -17 -3 -31q0 -52 33 -83t88 -31q64 0 111.5 40t58.5 105q3 16 3 30q0 52 -32.5 83.5t-88.5 31.5q-64 0 -111.5 -40 t-58.5 -105zM171 527q13 80 74.5 130t146.5 50q74 0 117 -39.5t43 -105.5q0 -17 -3 -35q-20 -103 -111 -145q88 -38 88 -139q0 -12 -4 -40q-17 -94 -87.5 -152t-168.5 -58q-86 0 -136.5 46t-50.5 122q0 22 4 42q12 64 50.5 110.5t96.5 68.5q-62 33 -62 110q0 17 3 35z"/>
<glyph glyph-name="nine" horiz-adv-x="530" unicode="9" d="M495 488q3 18 3 34q0 55 -32.5 87.5t-88.5 32.5q-64 0 -111.5 -43t-59.5 -111q-3 -18 -3 -34q0 -55 32.5 -88t88.5 -33q64 0 111.5 43t59.5 112zM236 -7l-57 36q124 138 215 261q-37 -20 -83 -20q-85 0 -134.5 46.5t-49.5 124.5q0 26 4 47q17 98 88.5 158.5t170.5 60.5 q85 0 134.5 -46.5t49.5 -127.5q0 -21 -5 -51q-15 -87 -72.5 -169.5t-230.5 -284.5q-20 -23 -30 -35z"/>
<glyph glyph-name="colon" d="M132 408q4 21 21 35t37 14q19 0 30 -11t11 -28q0 -7 -1 -10q-3 -20 -20 -34.5t-37 -14.5q-19 0 -30.5 11.5t-11.5 29.5q0 2 0.5 4t0.5 4zM68 42q3 20 20 34.5t37 14.5q18 0 30 -12.5t12 -29.5q0 -1 -0.5 -3t-0.5 -4q-4 -21 -20.5 -35t-37.5 -14q-18 0 -29.5 11.5 t-11.5 28.5q0 6 1 9z" unicode=":"/>
<glyph glyph-name="semicolon" d="M63 -105l-22 26q47 40 60 73q-15 2 -24.5 13t-9.5 27q0 2 0.5 4t0.5 4q3 20 20 34.5t37 14.5q17 0 29 -11t12 -33q0 -8 -1 -13q-12 -63 -102 -139zM132 408q4 21 21 35t37 14q19 0 30 -11t11 -28q0 -7 -1 -10q-3 -20 -20 -34.5t-37 -14.5q-19 0 -30.5 11.5t-11.5 29.5 q0 2 0.5 4t0.5 4z" unicode=";"/>
<glyph glyph-name="less" horiz-adv-x="410" unicode="&lt;" d="M335 109l-247 191l314 191l35 -43l-246 -148l194 -148z"/>
<glyph glyph-name="equal" horiz-adv-x="476" unicode="=" d="M87 151l10 59h355l-11 -59h-354zM117 326l11 58h355l-11 -58h-355z"/>
<glyph glyph-name="greater" horiz-adv-x="410" unicode="&gt;" d="M421 300l-313 -191l-36 43l246 148l-193 148l50 43z"/>
<glyph glyph-name="question" horiz-adv-x="471" unicode="?" d="M191 42q3 20 20 34.5t37 14.5q18 0 30 -11.5t12 -29.5q0 -2 -0.5 -4t-0.5 -4q-3 -21 -19.5 -35t-37.5 -14q-19 0 -30.5 11.5t-11.5 29.5q0 2 0.5 4t0.5 4zM188 586l-39 48q93 73 205 73q82 0 124.5 -41.5t42.5 -104.5q0 -16 -3 -34q-7 -41 -28.5 -71t-47.5 -48.5 t-52.5 -37.5t-48 -49t-28.5 -72l-10 -57h-73l10 57q9 51 31.5 88.5t49 58.5t52 38.5t45.5 40t25 51.5q2 14 2 21q0 40 -25.5 67.5t-78.5 27.5q-85 0 -153 -56z"/>
<glyph glyph-name="at" horiz-adv-x="1040" unicode="@" d="M412 225q-3 -18 -3 -36q0 -60 35.5 -95.5t97.5 -35.5q72 0 121 43l45 255q-38 36 -110 36q-70 0 -121 -46t-65 -121zM818 -74l39 -46q-74 -66 -172.5 -101.5t-206.5 -35.5q-187 0 -295 103.5t-108 277.5q0 48 9 101q38 215 194 348.5t368 133.5q188 0 295 -101t107 -260 q0 -43 -7 -82q-13 -73 -43.5 -128t-70 -85t-79 -44t-78.5 -14q-88 0 -108 52q-64 -52 -149 -52q-84 0 -132.5 48.5t-48.5 130.5q0 23 5 53q18 104 94 168t181 64q122 0 174 -73l-48 -274q-1 -4 -1 -11q0 -41 58 -41q53 0 102 48.5t67 149.5q7 36 7 77q0 137 -89.5 223 t-246.5 86q-179 0 -311 -116t-164 -301q-8 -41 -8 -90q0 -149 91 -238t248 -89q91 0 178 31t149 87z"/>
<glyph glyph-name="A" horiz-adv-x="749" unicode="A" d="M481 604l-203 -334h287zM634 0l-53 202h-343l-123 -202h-87l434 700h72l187 -700h-87z"/>
<glyph glyph-name="B" horiz-adv-x="545" unicode="B" d="M469 514q3 14 3 27q0 43 -26 68t-72 25h-109l-42 -240h109q52 0 89.5 33t47.5 87zM451 198q3 15 3 30q0 46 -29 73t-78 27h-136l-46 -262h136q57 0 98.5 36t51.5 96zM76 0l123 700h191q74 0 116.5 -38t42.5 -103q0 -11 -4 -39q-18 -106 -108 -151q92 -32 92 -137 q0 -20 -3 -39q-16 -88 -80 -140.5t-153 -52.5h-217z"/>
<glyph glyph-name="C" horiz-adv-x="699" unicode="C" d="M189 350q-6 -33 -6 -62q0 -103 63 -165t170 -62q126 0 219 80l40 -47q-115 -101 -274 -101q-137 0 -217 77t-80 205q0 39 7 75q29 159 144 258t272 99q158 0 238 -101l-57 -48q-64 81 -190 81q-123 0 -215 -80t-114 -209z"/>
<glyph glyph-name="D" horiz-adv-x="692" unicode="D" d="M625 350q6 33 6 63q0 102 -62 161.5t-168 59.5h-136l-100 -568h136q123 0 212 77.5t112 206.5zM76 0l123 700h214q137 0 217 -74.5t80 -201.5q0 -38 -7 -74q-28 -158 -142 -254t-271 -96h-214z"/>
<glyph glyph-name="E" horiz-adv-x="498" unicode="E" d="M263 637l-44 -253h261l-11 -63h-262l-45 -258h299l-11 -63h-374l123 700h369l-11 -63h-294z"/>
<glyph glyph-name="F" horiz-adv-x="472" unicode="F" d="M263 637l-44 -253h243l-11 -63h-244l-56 -321h-75l123 700h354l-11 -63h-279z"/>
<glyph glyph-name="G" horiz-adv-x="735" unicode="G" d="M456 306l11 63h256l-49 -276q-112 -100 -273 -100q-137 0 -217 77t-80 205q0 39 7 75q29 159 144 258t272 99q158 0 238 -101l-57 -48q-64 81 -190 81q-123 0 -215 -80t-114 -209q-6 -33 -6 -62q0 -103 63 -165t170 -62t189 59l32 186h-181z"/>
<glyph glyph-name="H" horiz-adv-x="690" unicode="H" d="M274 700l-55 -316h388l55 316h75l-123 -700h-75l56 321h-388l-56 -321h-75l123 700h75z"/>
<glyph glyph-name="I" horiz-adv-x="222" unicode="I" d="M73 0l123 700h76l-123 -700h-76z"/>
<glyph glyph-name="J" horiz-adv-x="453" unicode="J" d="M337 190l90 510h75l-90 -510q-15 -88 -79 -142.5t-152 -54.5t-133 55l58 49q27 -36 84 -36q55 0 95.5 35.5t51.5 93.5z"/>
<glyph glyph-name="K" horiz-adv-x="596" unicode="K" d="M468 0l-246 359l349 341h95l-349 -341l248 -359h-97zM73 0l123 700h76l-123 -700h-76z"/>
<glyph glyph-name="L" horiz-adv-x="465" unicode="L" d="M274 700l-112 -637h273l-10 -63h-349l123 700h75z"/>
<glyph glyph-name="M" horiz-adv-x="809" unicode="M" d="M658 0l95 545l-304 -384h-34l-168 384l-96 -545h-75l123 700h57l195 -433l347 433h58l-123 -700h-75z"/>
<glyph glyph-name="N" horiz-adv-x="713" unicode="N" d="M199 700h51l336 -558l99 558h75l-123 -700h-51l-337 558l-98 -558h-75z"/>
<glyph glyph-name="O" horiz-adv-x="805" unicode="O" d="M189 350q-6 -33 -6 -63q0 -103 62 -164.5t168 -61.5q122 0 212.5 80t112.5 209q6 33 6 63q0 103 -61.5 164.5t-167.5 61.5q-122 0 -213 -80t-113 -209zM111 350q29 159 144 258t272 99q137 0 216.5 -76.5t79.5 -204.5q0 -40 -7 -76q-29 -159 -143.5 -258t-271.5 -99 q-137 0 -217 77t-80 205q0 39 7 75z"/>
<glyph glyph-name="P" horiz-adv-x="519" unicode="P" d="M480 504q2 10 2 28q0 47 -28 74.5t-78 27.5h-111l-46 -260h111q57 0 98.5 35.5t51.5 94.5zM76 0l123 700h189q80 0 126.5 -42t46.5 -113q0 -22 -4 -41q-16 -89 -81 -142t-157 -53h-111l-54 -309h-78z"/>
<glyph glyph-name="Q" horiz-adv-x="805" unicode="Q" d="M189 350q-6 -33 -6 -63q0 -103 61.5 -164.5t167.5 -61.5q109 0 185 55l-94 115l56 48l90 -109q70 75 89 180q6 33 6 63q0 103 -61.5 164.5t-168.5 61.5q-122 0 -212.5 -80t-112.5 -209zM714 -26l-75 92q-104 -73 -238 -73q-137 0 -217 77t-80 205q0 39 7 75 q29 159 144 258t272 99q137 0 216.5 -76.5t79.5 -204.5q0 -40 -7 -76q-25 -142 -121 -236l76 -92z"/>
<glyph glyph-name="R" horiz-adv-x="534" unicode="R" d="M487 504q3 15 3 29q0 46 -28.5 73.5t-77.5 27.5h-119l-46 -260h119q56 0 97.5 36t51.5 94zM418 0l-114 309h-96l-54 -309h-78l123 700h196q81 0 127 -42t46 -114q0 -19 -3 -40q-14 -75 -63 -125t-121 -65l123 -314h-86z"/>
<glyph glyph-name="S" horiz-adv-x="530" unicode="S" d="M564 625l-56 -48q-20 27 -58 44.5t-79 17.5q-62 0 -99 -36t-45 -82q-2 -14 -2 -19q0 -36 29.5 -62t71.5 -43t84 -35.5t71.5 -52.5t29.5 -82q0 -16 -3 -34q-15 -82 -81 -141t-169 -59q-132 0 -202 92l55 47q24 -34 65.5 -52.5t86.5 -18.5q72 0 115.5 41t51.5 89q2 12 2 17 q0 35 -29.5 60t-71.5 41.5t-84 35.5t-71.5 53.5t-29.5 84.5q0 17 3 36q14 79 73 133.5t154 54.5q123 0 188 -82z"/>
<glyph glyph-name="T" horiz-adv-x="557" unicode="T" d="M428 637l-112 -637h-75l112 637h-201l11 63h477l-11 -63h-201z"/>
<glyph glyph-name="U" horiz-adv-x="673" unicode="U" d="M566 255l79 445h75l-78 -445q-21 -118 -106 -190t-201 -72q-102 0 -161 56t-59 151q0 23 5 55l79 445h75l-78 -445q-4 -20 -4 -43q0 -69 41.5 -110t112.5 -41q83 0 144 53.5t76 140.5z"/>
<glyph glyph-name="V" horiz-adv-x="749" unicode="V" d="M844 700l-433 -700h-72l-188 700h89l152 -602l363 602h89z"/>
<glyph glyph-name="W" horiz-adv-x="1133" unicode="W" d="M1228 700l-386 -700h-76l-99 571l-300 -571h-76l-140 700h87l110 -584l302 584h79l95 -584l317 584h87z"/>
<glyph glyph-name="X" horiz-adv-x="721" unicode="X" d="M593 0l-180 303l-286 -303h-96l336 354l-206 346h97l173 -294l277 294h97l-329 -346l214 -354h-97z"/>
<glyph glyph-name="Y" horiz-adv-x="667" unicode="Y" d="M295 0l53 302l-197 398h88l160 -323l275 323h87l-338 -399l-52 -301h-76z"/>
<glyph glyph-name="Z" horiz-adv-x="625" unicode="Z" d="M169 637l11 63h515l-4 -27l-521 -610h416l-11 -63h-525l5 28l520 609h-406z"/>
<glyph glyph-name="bracketleft" horiz-adv-x="297" unicode="[" d="M379 750l-11 -58h-101l-155 -884h100l-10 -58h-174l177 1000h174z"/>
<glyph glyph-name="backslash" horiz-adv-x="549" unicode="\" d="M259 750l228 -800h-74l-228 800h74z"/>
<glyph glyph-name="bracketright" horiz-adv-x="297" unicode="]" d="M172 692l11 58h173l-177 -1000h-173l11 58h100l155 884h-100z"/>
<glyph glyph-name="asciicircum" horiz-adv-x="453" unicode="^" d="M345 675l157 -190l-44 -38l-126 152l-180 -152l-32 38z"/>
<glyph glyph-name="underscore" horiz-adv-x="450" unicode="_" d="M-28 -158l11 58h449l-11 -58h-449z"/>
<glyph glyph-name="grave" horiz-adv-x="265" unicode="`" d="M208 675l102 -125l-44 -38l-104 125z"/>
<glyph glyph-name="a" horiz-adv-x="539" unicode="a" d="M160 225q-3 -19 -3 -37q0 -60 35.5 -95t96.5 -35q71 0 122 43l44 256q-38 35 -109 35q-70 0 -121.5 -46.5t-64.5 -120.5zM359 457q123 0 174 -73l-67 -384h-73l6 36q-61 -43 -139 -43q-83 0 -132 49.5t-49 131.5q0 21 5 51q19 104 94.5 168t180.5 64z"/>
<glyph glyph-name="b" horiz-adv-x="539" unicode="b" d="M458 225q3 19 3 37q0 60 -35.5 95t-95.5 35q-73 0 -124 -48l-44 -250q38 -36 110 -36q70 0 121.5 46.5t64.5 120.5zM259 -7q-124 0 -175 73l121 684h73l-59 -330q60 37 134 37q86 0 135.5 -49t49.5 -131q0 -22 -5 -52q-18 -104 -93.5 -168t-180.5 -64z"/>
<glyph glyph-name="c" horiz-adv-x="478" unicode="c" d="M160 225q-3 -19 -3 -37q0 -60 35.5 -95t96.5 -35q74 0 126 47l37 -45q-75 -67 -178 -67q-89 0 -141.5 50t-52.5 134q0 25 4 48q19 104 94 168t178 64q102 0 154 -68l-53 -45q-35 48 -109 48q-71 0 -123 -46.5t-65 -120.5z"/>
<glyph glyph-name="d" horiz-adv-x="541" unicode="d" d="M160 225q-3 -19 -3 -37q0 -60 35.5 -95t96.5 -35q73 0 124 45l43 246q-37 43 -108 43t-123 -46.5t-65 -120.5zM468 0h-73l6 38q-62 -45 -141 -45q-83 0 -132 49.5t-49 131.5q0 21 5 51q19 104 93.5 168t176.5 64q68 0 115 -33l58 326h73z"/>
<glyph glyph-name="e" horiz-adv-x="508" unicode="e" d="M331 393q-57 0 -101.5 -36.5t-61.5 -98.5h269q0 3 0.5 9t0.5 8q0 55 -27.5 86.5t-79.5 31.5zM501 206h-343q-1 -7 -1 -20q0 -59 35.5 -93.5t99.5 -34.5q76 0 128 47l36 -45q-75 -67 -180 -67q-90 0 -143 50t-53 134q0 20 5 50q18 102 89 166t167 64q81 0 124 -47.5 t43 -133.5q0 -26 -7 -70z"/>
<glyph glyph-name="f" horiz-adv-x="324" unicode="f" d="M101 392l11 58h62l28 156q12 68 60 109.5t116 41.5q30 0 53 -10l-12 -62q-17 10 -40 10q-39 0 -67 -25t-35 -64l-27 -156h128l-11 -58h-128l-113 -642h-76l114 642h-63z"/>
<glyph glyph-name="g" horiz-adv-x="507" unicode="g" d="M177 295q-2 -14 -2 -21q0 -38 24 -60.5t65 -22.5q46 0 80.5 29t42.5 75q2 14 2 21q0 38 -24 60.5t-64 22.5q-46 0 -81 -29t-43 -75zM77 -118q-1 -4 -1 -13q0 -32 30.5 -50.5t84.5 -18.5q65 0 114.5 26t56.5 67q1 3 1 10q0 32 -33.5 51.5t-89.5 19.5q-67 0 -111.5 -25.5 t-51.5 -66.5zM2 -118q7 43 40.5 75t83.5 48q-46 22 -46 63q0 8 1 12q11 52 77 77q-57 30 -57 103q0 16 3 33q13 74 70.5 119t136.5 45q72 0 114 -40q40 40 84 40q17 0 24 -2l-10 -59q-9 3 -20 3q-25 0 -51 -23q9 -22 9 -50q0 -14 -3 -31q-13 -72 -70 -117t-137 -45 q-42 0 -68.5 -14.5t-30.5 -36.5v-5q0 -20 26 -32.5t72 -12.5q88 0 139 -32t51 -86q0 -6 -2 -20q-12 -67 -84.5 -109t-171.5 -42q-85 0 -133.5 32t-48.5 86q0 7 2 21z"/>
<glyph glyph-name="h" horiz-adv-x="523" unicode="h" d="M205 750h73l-60 -337q64 44 141 44q65 0 102.5 -38.5t37.5 -103.5q0 -22 -4 -42l-48 -273h-72l47 273q3 13 3 26q0 42 -26 67.5t-69 25.5q-73 0 -123 -45l-61 -347h-73z"/>
<glyph glyph-name="i" d="M164 585q3 20 20 34.5t37 14.5q19 0 30.5 -12t11.5 -29q0 -1 -0.5 -4t-0.5 -4q-5 -21 -21.5 -35t-37.5 -14q-17 0 -28.5 11t-11.5 28q0 6 1 10zM73 0l79 450h73l-79 -450h-73z" unicode="i"/>
<glyph glyph-name="j" d="M-26 -250l9 49q54 0 64 53l105 598h73l-106 -600q-8 -48 -39 -76t-75 -28q-22 0 -31 4zM164 585q3 20 20 34.5t37 14.5q19 0 30.5 -12t11.5 -29q0 -1 -0.5 -4t-0.5 -4q-5 -21 -21.5 -35t-37.5 -14q-17 0 -28.5 11t-11.5 28q0 6 1 10z" unicode="j"/>
<glyph glyph-name="k" horiz-adv-x="466" unicode="k" d="M146 0h-73l132 750h73l-89 -503l216 203h87l-226 -211l169 -239h-87l-162 231z"/>
<glyph glyph-name="l" horiz-adv-x="247" unicode="l" d="M212 49l-8 -49q-11 -4 -37 -4q-37 0 -58 21t-21 58q0 7 2 25l115 650h73l-114 -648q-1 -5 -1 -13q0 -40 49 -40z"/>
<glyph glyph-name="m" horiz-adv-x="761" unicode="m" d="M615 0l53 303q2 14 2 19q0 32 -18.5 51t-50.5 19q-76 0 -128 -44q0 -29 -3 -45l-53 -303h-73l53 303q2 14 2 19q0 32 -18.5 51t-50.5 19q-72 0 -123 -46l-61 -346h-73l79 450h73l-7 -37q64 44 141 44q76 0 103 -61q72 61 168 61q54 0 84 -32t30 -86q0 -17 -3 -36 l-53 -303h-73z"/>
<glyph glyph-name="n" horiz-adv-x="521" unicode="n" d="M152 450h73l-7 -37q64 44 141 44q65 0 102.5 -38.5t37.5 -103.5q0 -22 -4 -42l-48 -273h-72l47 273q3 13 3 26q0 42 -26 67.5t-69 25.5q-72 0 -123 -46l-61 -346h-73z"/>
<glyph glyph-name="o" horiz-adv-x="555" unicode="o" d="M160 225q-4 -26 -4 -38q0 -59 35.5 -94t95.5 -35q70 0 121.5 46.5t65.5 120.5q3 19 3 36q0 60 -35.5 95.5t-95.5 35.5q-70 0 -121.5 -46.5t-64.5 -120.5zM84 225q19 104 95 168t179 64q90 0 142.5 -50t52.5 -134q0 -25 -4 -48q-19 -104 -94.5 -168t-178.5 -64 q-90 0 -143 50t-53 134q0 25 4 48z"/>
<glyph glyph-name="p" horiz-adv-x="541" unicode="p" d="M459 225q3 19 3 37q0 60 -35.5 95t-96.5 35q-73 0 -124 -46l-43 -245q35 -43 108 -43q71 0 123 46.5t65 120.5zM152 450h73l-7 -38q64 45 142 45q83 0 131.5 -49t48.5 -131q0 -22 -5 -52q-19 -104 -93 -168t-175 -64q-72 0 -117 33l-49 -276h-73z"/>
<glyph glyph-name="q" horiz-adv-x="539" unicode="q" d="M160 225q-4 -26 -4 -38q0 -59 35.5 -94t95.5 -35q72 0 124 47l44 252q-38 35 -109 35q-70 0 -121.5 -46.5t-64.5 -120.5zM359 457q123 0 174 -73l-112 -634h-73l49 279q-59 -36 -131 -36q-86 0 -136 49.5t-50 132.5q0 27 4 50q19 104 94.5 168t180.5 64z"/>
<glyph glyph-name="r" horiz-adv-x="345" unicode="r" d="M348 456q10 0 28 -2l-11 -64q-15 3 -33 3q-73 0 -128 -62l-58 -331h-73l79 450h73l-10 -54q65 60 133 60z"/>
<glyph glyph-name="s" horiz-adv-x="384" unicode="s" d="M395 404l-53 -45q-29 36 -80 36q-34 0 -55 -20t-24 -45q-1 -4 -1 -11q0 -25 28 -43.5t61 -29t61 -35.5t28 -62q0 -5 -2 -21q-9 -55 -55.5 -95t-117.5 -40q-91 0 -137 60l53 45q31 -44 90 -44q41 0 65 23t29 50q1 3 1 9q0 25 -28 43t-61.5 28.5t-61.5 36t-28 63.5 q0 6 2 22q10 53 51.5 90.5t107.5 37.5q85 0 127 -53z"/>
<glyph glyph-name="t" horiz-adv-x="319" unicode="t" d="M98 392l11 58h58l17 100h75l-17 -100h121l-11 -58h-121l-44 -253q-2 -12 -2 -19q0 -30 18 -47.5t49 -17.5q21 0 43 10l-11 -62q-26 -10 -55 -10q-57 0 -88.5 30.5t-31.5 82.5q0 15 3 33l44 253h-58z"/>
<glyph glyph-name="u" horiz-adv-x="531" unicode="u" d="M537 450l-48 -265q-15 -86 -77 -139t-148 -53q-75 0 -119 41t-44 111q0 12 4 40l47 265h76l-47 -265q-3 -15 -3 -28q0 -45 26.5 -72t72.5 -27q53 0 92 35.5t49 91.5l47 265h72z"/>
<glyph glyph-name="v" horiz-adv-x="529" unicode="v" d="M582 450l-283 -450h-69l-125 450h81l94 -360l221 360h81z"/>
<glyph glyph-name="w" horiz-adv-x="792" unicode="w" d="M845 450l-253 -450h-76l-59 348l-181 -348h-76l-95 450h83l65 -362l185 362h74l57 -362l193 362h83z"/>
<glyph glyph-name="x" horiz-adv-x="513" unicode="x" d="M397 0l-109 183l-173 -183h-84l218 229l-132 221h85l102 -173l165 173h85l-211 -221l139 -229h-85z"/>
<glyph glyph-name="y" horiz-adv-x="529" unicode="y" d="M582 450l-445 -700h-81l174 250l-125 450h81l94 -363l221 363h81z"/>
<glyph glyph-name="z" horiz-adv-x="470" unicode="z" d="M123 392l10 58h366l-5 -27l-328 -365h264l-10 -58h-370l5 28l328 364h-260z"/>
<glyph glyph-name="braceleft" horiz-adv-x="318" unicode="{" d="M241 -201l-9 -56q-56 0 -89.5 44t-33.5 117q0 32 5 58l17 95q5 26 5 58q0 49 -15.5 77.5t-41.5 28.5l10 56q33 0 65 46t44 117l17 98q18 96 73.5 157.5t122.5 61.5l-10 -56q-34 0 -66 -46t-44 -117l-17 -98q-12 -67 -44 -117.5t-74 -73.5q55 -38 55 -134q0 -32 -5 -58 l-16 -95q-6 -32 -6 -59q0 -48 15.5 -76t41.5 -28z"/>
<glyph glyph-name="bar" d="M28 -250l177 1000h73l-177 -1000h-73z" unicode="|"/>
<glyph glyph-name="braceright" horiz-adv-x="318" unicode="}" d="M-5 -257l9 56q34 0 66 46t44 117l17 95q12 67 43.5 117.5t74.5 74.5q-56 37 -56 134q0 32 5 57l17 98q6 32 6 59q0 48 -15.5 76t-41.5 28l10 56q55 0 88.5 -43.5t33.5 -116.5q0 -33 -5 -59l-17 -98q-5 -26 -5 -58q0 -48 15.5 -76.5t41.5 -28.5l-10 -56q-33 0 -65 -46.5 t-45 -117.5l-16 -95q-17 -96 -72.5 -157.5t-122.5 -61.5z"/>
<glyph glyph-name="asciitilde" horiz-adv-x="433" unicode="~" d="M129 249h-50q8 47 43.5 77t81.5 30q33 0 54.5 -16t39.5 -32t43 -16t44.5 16.5t23.5 43.5h49q-8 -48 -43.5 -78t-82.5 -30q-27 0 -46 10t-28.5 22.5t-25.5 22.5t-36 10q-25 0 -44 -16.5t-23 -43.5z"/>
<glyph glyph-name="exclamdown" d="M119 258h72l-90 -508h-73zM132 408q4 21 21 35t37 14q19 0 30 -11t11 -28q0 -7 -1 -10q-3 -20 -20 -34.5t-37 -14.5q-19 0 -30.5 11.5t-11.5 29.5q0 2 0.5 4t0.5 4z" unicode="¡"/>
<glyph glyph-name="cent" horiz-adv-x="478" unicode="¢" d="M160 225q-4 -26 -4 -38q0 -49 26 -82t71 -44l57 327q-57 -11 -98.5 -55.5t-51.5 -107.5zM225 -100l16 95q-76 9 -118.5 57.5t-42.5 124.5q0 25 4 48q17 94 82 156.5t156 73.5l17 95h44l-16 -93q94 -4 143 -68l-53 -45q-34 45 -102 48l-58 -334q69 2 118 47l37 -45 q-70 -63 -167 -67l-16 -93h-44z"/>
<glyph glyph-name="sterling" horiz-adv-x="512" unicode="£" d="M96 321l11 58h75l24 131q16 88 80 142.5t151 54.5t132 -55l-57 -49q-28 36 -84 36t-96.5 -35.5t-50.5 -93.5l-23 -131h177l-10 -58h-178l-36 -204q24 -6 69.5 -34t75.5 -28q26 0 45 16.5t23 42.5h59q-9 -54 -47.5 -87.5t-89.5 -33.5q-44 0 -97 33.5t-83 33.5 q-26 0 -45.5 -16.5t-23.5 -43.5h-59q7 43 33 73.5t64 42.5l37 205h-76z"/>
<glyph glyph-name="currency" horiz-adv-x="529" unicode="¤" d="M213 300q-2 -16 -2 -24q0 -41 23.5 -65t63.5 -24q46 0 80 31.5t42 81.5q3 13 3 27q0 39 -23.5 62.5t-62.5 23.5q-46 0 -80 -31.5t-44 -81.5zM148 300q10 56 45 99l-68 84l49 41l69 -84q48 29 104 29t93 -29l99 84l34 -41l-99 -84q16 -29 16 -63q0 -20 -4 -36 q-9 -57 -47 -100l70 -83l-49 -41l-69 84q-46 -29 -104 -29t-93 29l-99 -84l-34 41l97 83q-13 26 -13 63q0 17 3 37z"/>
<glyph glyph-name="yen" horiz-adv-x="667" unicode="¥" d="M193 221l7 44h141l7 37l-197 398h88l160 -323l275 323h87l-338 -399l-7 -36h141l-7 -44h-141l-15 -84h141l-8 -44h-140l-16 -93h-76l16 93h-140l7 44h141l15 84h-141z"/>
<glyph glyph-name="brokenbar" d="M278 750l-80 -450h-73l80 450h73zM28 -250l80 450h73l-80 -450h-73z" unicode="¦"/>
<glyph glyph-name="section" horiz-adv-x="423" unicode="§" d="M264 11l-169 205l58 48l169 -206q43 -51 43 -111q0 -17 -3 -35q-13 -76 -72 -122.5t-141 -46.5q-95 0 -142 67l55 47q29 -48 98 -48q48 0 83 29t43 74q3 15 3 29q0 37 -25 70zM238 439l168 -205l-57 -48l-170 206q-42 48 -42 110q0 16 3 36q13 76 72 122.5t141 46.5 q95 0 142 -67l-55 -47q-31 48 -99 48q-48 0 -83 -29t-43 -74q-3 -16 -3 -30q0 -40 26 -69z"/>
<glyph glyph-name="dieresis" horiz-adv-x="427" unicode="¨" d="M359 573q3 20 19 33.5t35 13.5q18 0 29 -10.5t11 -27.5q0 -6 -1 -9q-4 -20 -20 -33.5t-35 -13.5q-17 0 -28 10.5t-11 27.5q0 6 1 9zM171 573q4 19 19.5 32.5t35.5 13.5q17 0 28.5 -11t11.5 -28q0 -1 -0.5 -3t-0.5 -4q-4 -20 -20 -33.5t-35 -13.5q-17 0 -28.5 11t-11.5 27 q0 6 1 9z"/>
<glyph glyph-name="copyright" horiz-adv-x="805" unicode="©" d="M341 350q-3 -17 -3 -31q0 -49 30 -78t81 -29q60 0 103 38l25 -28q-59 -51 -137 -51q-69 0 -109.5 38.5t-40.5 102.5q0 12 4 38q14 80 72 129.5t137 49.5q78 0 119 -51l-34 -28q-30 38 -90 38q-59 0 -103 -38.5t-54 -99.5zM168 350q-6 -36 -6 -69q0 -111 66.5 -177 t179.5 -66q132 0 229.5 86.5t121.5 225.5q6 36 6 69q0 111 -66 177t-180 66q-131 0 -229 -86.5t-122 -225.5zM111 350q29 159 144 258t272 99q137 0 216.5 -76.5t79.5 -204.5q0 -40 -7 -76q-29 -159 -143.5 -258t-271.5 -99q-137 0 -217 77t-80 205q0 39 7 75z"/>
<glyph glyph-name="ordfeminine" horiz-adv-x="307" unicode="ª" d="M178 576q-2 -14 -2 -19q0 -31 18.5 -49t50.5 -18q37 0 62 20l23 135q-20 17 -56 17t-62.5 -24t-33.5 -62zM282 704q71 0 98 -43l-37 -209h-46l3 19q-32 -23 -75 -23q-45 0 -71.5 27.5t-26.5 72.5q0 13 3 28q11 57 52.5 92.5t99.5 35.5z"/>
<glyph glyph-name="guillemotleft" horiz-adv-x="470" unicode="«" d="M390 79l-141 171l201 171l31 -38l-156 -133l109 -133zM220 79l-140 171l200 171l31 -38l-155 -133l109 -133z"/>
<glyph glyph-name="logicalnot" horiz-adv-x="500" unicode="¬" d="M108 271l10 58h379l-31 -173h-59l21 115h-320z"/>
<glyph glyph-name="uni00AD" horiz-adv-x="340" unicode="­" d="M102 236l10 58h219l-11 -58h-218z"/>
<glyph glyph-name="registered" horiz-adv-x="805" unicode="®" d="M537 424q1 5 1 13q0 47 -48 47h-55l-22 -120h55q26 0 45 16.5t24 43.5zM503 174l-53 151h-43l-27 -151h-47l62 350h102q41 0 65 -21t24 -58q0 -7 -2 -21q-14 -77 -88 -95l59 -155h-52zM168 350q-6 -36 -6 -69q0 -111 66.5 -177t179.5 -66q132 0 229.5 86.5t121.5 225.5 q6 36 6 69q0 111 -66 177t-180 66q-131 0 -229 -86.5t-122 -225.5zM111 350q29 159 144 258t272 99q137 0 216.5 -76.5t79.5 -204.5q0 -40 -7 -76q-29 -159 -143.5 -258t-271.5 -99q-137 0 -217 77t-80 205q0 39 7 75z"/>
<glyph glyph-name="macron" horiz-adv-x="376" unicode="¯" d="M161 543l8 47h244l-8 -47h-244z"/>
<glyph glyph-name="degree" horiz-adv-x="290" unicode="°" d="M191 602q-1 -4 -1 -13q0 -23 13.5 -35.5t37.5 -12.5q26 0 46 16.5t25 44.5q1 4 1 12q0 23 -14 36.5t-37 13.5q-27 0 -46.5 -17t-24.5 -45zM151 603q8 46 41 74t78 28q39 0 61 -21.5t22 -57.5q0 -7 -2 -23q-7 -46 -39.5 -74t-78.5 -28q-39 0 -61.5 21.5t-22.5 58.5 q0 6 2 22z"/>
<glyph glyph-name="plusminus" horiz-adv-x="436" unicode="±" d="M70 55l10 58h314l-10 -58h-314zM109 273l10 59h127l23 128h58l-22 -128h128l-10 -59h-128l-23 -127h-58l23 127h-128z"/>
<glyph glyph-name="twosuperior" horiz-adv-x="279" unicode="²" d="M101 388l176 150q23 19 28 54q2 12 2 18q0 25 -13.5 39.5t-37.5 14.5q-28 0 -49.5 -20t-27.5 -52h-46q10 50 45 81t84 31q42 0 66.5 -23.5t24.5 -63.5q0 -16 -2 -25q-9 -50 -48 -83l-142 -121h154l-7 -38h-214z"/>
<glyph glyph-name="threesuperior" horiz-adv-x="287" unicode="³" d="M211 521l7 37h23q24 0 40.5 15t21.5 39q1 4 1 11q0 19 -12 30t-32 11q-23 0 -40 -14.5t-22 -37.5h-46q8 41 40 66.5t75 25.5q38 0 60.5 -20t22.5 -53q0 -7 -2 -19q-7 -49 -52 -72q41 -21 41 -68q0 -5 -2 -19q-9 -48 -45 -77.5t-86 -29.5q-43 0 -69 23.5t-26 62.5 q0 7 2 21h46q-1 -5 -1 -14q0 -24 15 -38.5t40 -14.5q29 0 51 18.5t27 48.5q1 5 1 14q0 24 -15 39t-41 15h-23z"/>
<glyph glyph-name="acute" horiz-adv-x="265" unicode="´" d="M147 550l148 125l30 -38l-146 -125z"/>
<glyph glyph-name="mu" horiz-adv-x="531" unicode="µ" d="M-17 -200l9 49q54 0 64 53l46 265l3 18l47 265h76l-47 -265q-3 -15 -3 -28q0 -45 26.5 -72t72.5 -27q53 0 92 35.5t49 91.5l47 265h72l-48 -265q-15 -86 -77 -139t-148 -53q-69 0 -113 36l-23 -129q-8 -48 -39 -76t-75 -28q-22 0 -31 4z"/>
<glyph glyph-name="paragraph" horiz-adv-x="574" unicode="¶" d="M430 0l123 700h71l-123 -700h-71zM476 700l-123 -700h-71l56 318h-31q-78 0 -123 40t-45 110q0 22 4 41q15 87 78.5 139t153.5 52h101z"/>
<glyph glyph-name="periodcentered" d="M105 250q3 20 20 34.5t37 14.5q18 0 30 -11.5t12 -29.5q0 -2 -0.5 -4t-0.5 -4q-5 -21 -21.5 -35t-37.5 -14q-17 0 -28.5 11t-11.5 28q0 6 1 10z" unicode="·"/>
<glyph glyph-name="cedilla" horiz-adv-x="264" unicode="¸" d="M140 0l-11 -59q53 -10 53 -61q0 -10 -1 -15q-7 -36 -33.5 -58t-63.5 -22q-36 0 -56 25l30 25q11 -14 32 -14t36.5 12t19.5 33q0 2 0.5 4t0.5 4q0 39 -58 39l16 87h35z"/>
<glyph glyph-name="onesuperior" horiz-adv-x="182" unicode="¹" d="M141 651l6 35l101 16l-62 -352h-44l55 311z"/>
<glyph glyph-name="ordmasculine" horiz-adv-x="316" unicode="º" d="M178 576q-2 -14 -2 -19q0 -31 18 -49t49 -18q36 0 63 23.5t34 62.5q2 14 2 19q0 31 -18.5 49t-49.5 18q-36 0 -62.5 -24t-33.5 -62zM130 576q11 57 52.5 92.5t98.5 35.5q50 0 79.5 -27.5t29.5 -73.5q0 -13 -3 -27q-10 -57 -52 -92.5t-99 -35.5q-50 0 -79 27.5t-29 74.5 q0 17 2 26z"/>
<glyph glyph-name="guillemotright" horiz-adv-x="470" unicode="»" d="M304 250l-202 -171l-31 38l157 133l-111 133l46 38zM473 250l-201 -171l-31 38l156 133l-110 133l45 38z"/>
<glyph glyph-name="onequarter" horiz-adv-x="634" unicode="¼" d="M439 103h105l32 180zM524 0l11 66h-158l4 20l202 264h45l-44 -247h31l-6 -37h-30l-11 -66h-44zM98 0l491 700h55l-491 -700h-55zM141 651l6 35l101 16l-62 -352h-44l55 311z"/>
<glyph glyph-name="onehalf" horiz-adv-x="686" unicode="½" d="M445 38l177 150q20 16 29 54q1 6 1 16q0 26 -14 41t-38 15q-29 0 -50 -20t-26 -52h-45q8 50 43.5 81t85.5 31q42 0 66 -23.5t24 -63.5q0 -16 -2 -25q-9 -50 -48 -83l-142 -121h154l-6 -38h-214zM98 0l491 700h55l-491 -700h-55zM141 651l6 35l101 16l-62 -352h-44l55 311 z"/>
<glyph glyph-name="threequarters" horiz-adv-x="652" unicode="¾" d="M456 103h105l33 180zM542 0l11 66h-158l3 20l203 264h44l-43 -247h30l-6 -37h-29l-11 -66h-44zM140 0l491 700h56l-491 -700h-56zM211 521l7 37h23q24 0 40.5 15t21.5 39q1 4 1 11q0 19 -12 30t-32 11q-23 0 -40 -14.5t-22 -37.5h-46q8 41 40 66.5t75 25.5q38 0 60.5 -20 t22.5 -53q0 -7 -2 -19q-7 -49 -52 -72q41 -21 41 -68q0 -5 -2 -19q-9 -48 -45 -77.5t-86 -29.5q-43 0 -69 23.5t-26 62.5q0 7 2 21h46q-1 -5 -1 -14q0 -24 15 -38.5t40 -14.5q29 0 51 18.5t27 48.5q1 5 1 14q0 24 -15 39t-41 15h-23z"/>
<glyph glyph-name="questiondown" horiz-adv-x="471" unicode="¿" d="M358 408q-3 -20 -20 -34.5t-37 -14.5q-19 0 -30.5 11.5t-11.5 29.5q0 2 0.5 4t0.5 4q4 21 21 35t37 14q18 0 29.5 -10.5t11.5 -27.5q0 -7 -1 -11zM361 -136l39 -48q-91 -73 -204 -73q-82 0 -125 41.5t-43 105.5q0 16 3 33q7 41 28.5 71t48 48.5t52.5 37.5t47.5 49 t28.5 72l11 57h73l-11 -57q-9 -51 -31.5 -88.5t-48.5 -58.5t-52 -38.5t-45.5 -40t-24.5 -51.5q-2 -14 -2 -22q0 -39 25.5 -66.5t77.5 -27.5q87 0 153 56z"/>
<glyph glyph-name="Agrave" horiz-adv-x="749" unicode="À" d="M469 900l103 -125l-44 -38l-104 125zM481 604l-203 -334h287zM634 0l-53 202h-343l-123 -202h-87l434 700h72l187 -700h-87z"/>
<glyph glyph-name="Aacute" horiz-adv-x="749" unicode="Á" d="M449 775l148 125l31 -38l-147 -125zM481 604l-203 -334h287zM634 0l-53 202h-343l-123 -202h-87l434 700h72l187 -700h-87z"/>
<glyph glyph-name="Acircumflex" horiz-adv-x="749" unicode="Â" d="M533 900l103 -125l-45 -38l-71 87l-103 -87l-32 38zM481 604l-203 -334h287zM634 0l-53 202h-343l-123 -202h-87l434 700h72l187 -700h-87z"/>
<glyph glyph-name="Atilde" horiz-adv-x="749" unicode="Ã" d="M413 764h-42q7 39 34.5 63t64.5 24q31 0 55 -24t44 -24q18 0 32 12.5t18 31.5h42q-7 -39 -34.5 -63t-65.5 -24q-25 0 -40.5 12t-28 24t-29.5 12q-19 0 -32.5 -12t-17.5 -32zM481 604l-203 -334h287zM634 0l-53 202h-343l-123 -202h-87l434 700h72l187 -700h-87z"/>
<glyph glyph-name="Adieresis" horiz-adv-x="749" unicode="Ä" d="M562 797q3 20 18.5 33.5t35.5 13.5q18 0 29.5 -11t11.5 -28q0 -1 -0.5 -3.5t-0.5 -4.5q-4 -19 -20 -32.5t-36 -13.5q-17 0 -28 10.5t-11 26.5q0 6 1 9zM375 797q3 20 19 33.5t35 13.5q17 0 28.5 -11.5t11.5 -28.5q0 -1 -0.5 -3t-0.5 -4q-4 -19 -20 -32.5t-36 -13.5 q-17 0 -27.5 10.5t-10.5 26.5q0 6 1 9zM481 604l-203 -334h287zM634 0l-53 202h-343l-123 -202h-87l434 700h72l187 -700h-87z"/>
<glyph glyph-name="Aring" horiz-adv-x="749" unicode="Å" d="M466 820q-1 -4 -1 -11q0 -20 12 -31.5t32 -11.5q23 0 41 15t22 39q1 4 1 12q0 19 -12.5 30.5t-32.5 11.5q-23 0 -40.5 -15t-21.5 -39zM431 820q7 40 36 65t68 25q34 0 54 -19.5t20 -51.5q0 -5 -2 -19q-8 -40 -36 -64.5t-68 -24.5q-34 0 -54 19t-20 50q0 6 2 20zM481 604 l-203 -334h287zM634 0l-53 202h-343l-123 -202h-87l434 700h72l187 -700h-87z"/>
<glyph glyph-name="AE" horiz-adv-x="772" unicode="Æ" d="M278 270h144l59 334zM562 637l-45 -253h239l-11 -63h-239l-45 -258h276l-11 -63h-351l35 202h-172l-123 -202h-87l434 700h382l-11 -63h-271z"/>
<glyph glyph-name="Ccedilla" horiz-adv-x="699" unicode="Ç" d="M189 350q-6 -33 -6 -62q0 -103 63 -165t170 -62q126 0 219 80l40 -47q-109 -95 -259 -101l-9 -52q54 -10 54 -61q0 -10 -1 -15q-7 -36 -34 -58t-63 -22q-37 0 -56 25l29 25q12 -14 33 -14t36 12t19 33q1 3 1 9q0 38 -57 38l15 81q-130 4 -204.5 80t-74.5 201q0 39 7 75 q29 159 144 258t272 99q158 0 238 -101l-57 -48q-64 81 -190 81q-123 0 -215 -80t-114 -209z"/>
<glyph glyph-name="Egrave" horiz-adv-x="498" unicode="È" d="M356 900l103 -125l-44 -38l-103 125zM263 637l-44 -253h261l-11 -63h-262l-45 -258h299l-11 -63h-374l123 700h369l-11 -63h-294z"/>
<glyph glyph-name="Eacute" horiz-adv-x="498" unicode="É" d="M336 775l148 125l31 -38l-147 -125zM263 637l-44 -253h261l-11 -63h-262l-45 -258h299l-11 -63h-374l123 700h369l-11 -63h-294z"/>
<glyph glyph-name="Ecircumflex" horiz-adv-x="498" unicode="Ê" d="M420 900l103 -125l-44 -38l-72 87l-103 -87l-32 38zM263 637l-44 -253h261l-11 -63h-262l-45 -258h299l-11 -63h-374l123 700h369l-11 -63h-294z"/>
<glyph glyph-name="Edieresis" horiz-adv-x="498" unicode="Ë" d="M449 797q3 20 18.5 33.5t35.5 13.5q18 0 29.5 -11t11.5 -28q0 -1 -0.5 -3.5t-0.5 -4.5q-4 -19 -20 -32.5t-36 -13.5q-17 0 -28 10.5t-11 26.5q0 6 1 9zM262 797q3 20 19 33.5t35 13.5q17 0 28.5 -11.5t11.5 -28.5q0 -1 -0.5 -3t-0.5 -4q-4 -19 -19.5 -32.5t-35.5 -13.5 q-17 0 -28 10.5t-11 26.5q0 6 1 9zM263 637l-44 -253h261l-11 -63h-262l-45 -258h299l-11 -63h-374l123 700h369l-11 -63h-294z"/>
<glyph glyph-name="Igrave" horiz-adv-x="222" unicode="Ì" d="M206 900l103 -125l-45 -38l-103 125zM73 0l123 700h76l-123 -700h-76z"/>
<glyph glyph-name="Iacute" horiz-adv-x="222" unicode="Í" d="M186 775l147 125l31 -38l-147 -125zM73 0l123 700h76l-123 -700h-76z"/>
<glyph glyph-name="Icircumflex" horiz-adv-x="222" unicode="Î" d="M270 900l102 -125l-44 -38l-72 87l-102 -87l-32 38zM73 0l123 700h76l-123 -700h-76z"/>
<glyph glyph-name="Idieresis" horiz-adv-x="222" unicode="Ï" d="M283 797q4 20 19.5 33.5t35.5 13.5q17 0 28.5 -11t11.5 -28q0 -1 -0.5 -3.5t-0.5 -4.5q-4 -20 -20 -33t-36 -13q-17 0 -28 10.5t-11 26.5q0 6 1 9zM126 797q3 19 19 33t36 14q17 0 28.5 -11.5t11.5 -28.5q0 -1 -0.5 -3t-0.5 -4q-4 -19 -20 -32.5t-36 -13.5 q-17 0 -28 10.5t-11 27.5q0 1 0.5 4t0.5 4zM73 0l123 700h76l-123 -700h-76z"/>
<glyph glyph-name="Eth" horiz-adv-x="708" unicode="Ð" d="M640 350q6 33 6 63q0 102 -61.5 161.5t-167.5 59.5h-127l-45 -255h161l-10 -58h-162l-44 -255h126q123 0 212.5 77.5t111.5 206.5zM101 321l11 58h56l56 321h204q138 0 217.5 -74t79.5 -200q0 -40 -7 -76q-28 -158 -141.5 -254t-271.5 -96h-204l56 321h-56z"/>
<glyph glyph-name="Ntilde" horiz-adv-x="713" unicode="Ñ" d="M395 764h-43q7 39 35 63t64 24q31 0 55 -24t44 -24q19 0 33 12.5t17 31.5h43q-7 -39 -34.5 -63t-65.5 -24q-20 0 -34.5 7.5t-21.5 16.5t-18 16.5t-25 7.5q-18 0 -31.5 -12t-17.5 -32zM199 700h51l336 -558l99 558h75l-123 -700h-51l-337 558l-98 -558h-75z"/>
<glyph glyph-name="Ograve" horiz-adv-x="805" unicode="Ò" d="M497 900l103 -125l-44 -38l-104 125zM189 350q-6 -33 -6 -63q0 -103 62 -164.5t168 -61.5q122 0 212.5 80t112.5 209q6 33 6 63q0 103 -61.5 164.5t-167.5 61.5q-122 0 -213 -80t-113 -209zM111 350q29 159 144 258t272 99q137 0 216.5 -76.5t79.5 -204.5q0 -40 -7 -76 q-29 -159 -143.5 -258t-271.5 -99q-137 0 -217 77t-80 205q0 39 7 75z"/>
<glyph glyph-name="Oacute" horiz-adv-x="805" unicode="Ó" d="M477 775l147 125l32 -38l-147 -125zM189 350q-6 -33 -6 -63q0 -103 62 -164.5t168 -61.5q122 0 212.5 80t112.5 209q6 33 6 63q0 103 -61.5 164.5t-167.5 61.5q-122 0 -213 -80t-113 -209zM111 350q29 159 144 258t272 99q137 0 216.5 -76.5t79.5 -204.5q0 -40 -7 -76 q-29 -159 -143.5 -258t-271.5 -99q-137 0 -217 77t-80 205q0 39 7 75z"/>
<glyph glyph-name="Ocircumflex" horiz-adv-x="805" unicode="Ô" d="M561 900l103 -125l-45 -38l-71 87l-103 -87l-32 38zM189 350q-6 -33 -6 -63q0 -103 62 -164.5t168 -61.5q122 0 212.5 80t112.5 209q6 33 6 63q0 103 -61.5 164.5t-167.5 61.5q-122 0 -213 -80t-113 -209zM111 350q29 159 144 258t272 99q137 0 216.5 -76.5t79.5 -204.5 q0 -40 -7 -76q-29 -159 -143.5 -258t-271.5 -99q-137 0 -217 77t-80 205q0 39 7 75z"/>
<glyph glyph-name="Otilde" horiz-adv-x="805" unicode="Õ" d="M441 764h-42q7 39 34.5 63t64.5 24q31 0 54.5 -24t43.5 -24q19 0 33 12.5t18 31.5h42q-7 -39 -34.5 -63t-65.5 -24q-25 0 -40.5 12t-28 24t-29.5 12q-19 0 -32.5 -12t-17.5 -32zM189 350q-6 -33 -6 -63q0 -103 62 -164.5t168 -61.5q122 0 212.5 80t112.5 209q6 33 6 63 q0 103 -61.5 164.5t-167.5 61.5q-122 0 -213 -80t-113 -209zM111 350q29 159 144 258t272 99q137 0 216.5 -76.5t79.5 -204.5q0 -40 -7 -76q-29 -159 -143.5 -258t-271.5 -99q-137 0 -217 77t-80 205q0 39 7 75z"/>
<glyph glyph-name="Odieresis" horiz-adv-x="805" unicode="Ö" d="M590 797q3 20 18.5 33.5t35.5 13.5q18 0 29.5 -11t11.5 -28q0 -1 -0.5 -3.5t-0.5 -4.5q-4 -19 -20 -32.5t-36 -13.5q-17 0 -28 10.5t-11 26.5q0 6 1 9zM403 797q3 20 19 33.5t35 13.5q17 0 28.5 -11.5t11.5 -28.5q0 -1 -0.5 -3t-0.5 -4q-4 -19 -20 -32.5t-36 -13.5 q-17 0 -27.5 10.5t-10.5 26.5q0 6 1 9zM189 350q-6 -33 -6 -63q0 -103 62 -164.5t168 -61.5q122 0 212.5 80t112.5 209q6 33 6 63q0 103 -61.5 164.5t-167.5 61.5q-122 0 -213 -80t-113 -209zM111 350q29 159 144 258t272 99q137 0 216.5 -76.5t79.5 -204.5q0 -40 -7 -76 q-29 -159 -143.5 -258t-271.5 -99q-137 0 -217 77t-80 205q0 39 7 75z"/>
<glyph glyph-name="multiply" horiz-adv-x="436" unicode="×" d="M122 131l-34 41l139 118l-98 119l50 41l97 -118l139 118l34 -41l-139 -119l97 -118l-48 -41l-98 118z"/>
<glyph glyph-name="Oslash" horiz-adv-x="805" unicode="Ø" d="M738 350q6 33 6 63q0 77 -36 133l-453 -433q60 -52 158 -52q122 0 212.5 80t112.5 209zM189 350q-6 -33 -6 -63q0 -79 37 -134l452 434q-61 52 -157 52q-122 0 -213 -80t-113 -209zM52 -7l108 103q-56 71 -56 178q0 40 7 76q29 159 144 258t272 99q126 0 203 -65l68 65 h78l-109 -104q56 -72 56 -179q0 -28 -7 -74q-29 -159 -143.5 -258t-271.5 -99q-124 0 -204 64l-67 -64h-78z"/>
<glyph glyph-name="Ugrave" horiz-adv-x="673" unicode="Ù" d="M431 900l103 -125l-44 -38l-104 125zM566 255l79 445h75l-78 -445q-21 -118 -106 -190t-201 -72q-102 0 -161 56t-59 151q0 23 5 55l79 445h75l-78 -445q-4 -20 -4 -43q0 -69 41.5 -110t112.5 -41q83 0 144 53.5t76 140.5z"/>
<glyph glyph-name="Uacute" horiz-adv-x="673" unicode="Ú" d="M411 775l147 125l32 -38l-148 -125zM566 255l79 445h75l-78 -445q-21 -118 -106 -190t-201 -72q-102 0 -161 56t-59 151q0 23 5 55l79 445h75l-78 -445q-4 -20 -4 -43q0 -69 41.5 -110t112.5 -41q83 0 144 53.5t76 140.5z"/>
<glyph glyph-name="Ucircumflex" horiz-adv-x="673" unicode="Û" d="M495 900l103 -125l-45 -38l-71 87l-103 -87l-32 38zM566 255l79 445h75l-78 -445q-21 -118 -106 -190t-201 -72q-102 0 -161 56t-59 151q0 23 5 55l79 445h75l-78 -445q-4 -20 -4 -43q0 -69 41.5 -110t112.5 -41q83 0 144 53.5t76 140.5z"/>
<glyph glyph-name="Udieresis" horiz-adv-x="673" unicode="Ü" d="M524 797q3 20 18.5 33.5t35.5 13.5q18 0 29 -10.5t11 -27.5q0 -6 -1 -9q-4 -20 -20 -33t-36 -13q-17 0 -27.5 10.5t-10.5 26.5q0 6 1 9zM337 797q2 19 18 33t36 14q17 0 28.5 -11.5t11.5 -28.5q0 -1 -0.5 -3t-0.5 -4q-4 -19 -20 -32.5t-36 -13.5q-17 0 -27.5 10.5 t-10.5 26.5q0 6 1 9zM566 255l79 445h75l-78 -445q-21 -118 -106 -190t-201 -72q-102 0 -161 56t-59 151q0 23 5 55l79 445h75l-78 -445q-4 -20 -4 -43q0 -69 41.5 -110t112.5 -41q83 0 144 53.5t76 140.5z"/>
<glyph glyph-name="Yacute" horiz-adv-x="667" unicode="Ý" d="M407 775l148 125l31 -38l-147 -125zM295 0l53 302l-197 398h88l160 -323l275 323h87l-338 -399l-52 -301h-76z"/>
<glyph glyph-name="Thorn" horiz-adv-x="519" unicode="Þ" d="M453 358q3 16 3 31q0 46 -28 73t-77 27h-112l-46 -260h112q56 0 97 35.5t51 93.5zM76 0l123 700h78l-26 -146h111q80 0 126.5 -41t46.5 -113q0 -22 -4 -42q-16 -88 -81.5 -141.5t-156.5 -53.5h-111l-28 -163h-78z"/>
<glyph glyph-name="germandbls" horiz-adv-x="600" unicode="ß" d="M249 571l-145 -821h-76l146 821q14 83 77.5 134.5t151.5 51.5q77 0 122 -41t45 -109q0 -17 -3 -36q-11 -64 -53 -110.5t-102 -61.5q-2 -16 -2 -22q0 -30 17.5 -51.5t42 -35t49 -28t42 -39t17.5 -60.5q0 -15 -3 -31q-11 -57 -57 -98t-117 -41q-93 0 -137 60l53 45 q31 -44 90 -44q40 0 65 23.5t29 51.5q1 5 1 15q0 21 -12.5 37.5t-31 26.5t-40 23.5t-40 27t-31 38.5t-12.5 57q0 16 3 36l11 60q54 0 93.5 33t48.5 87q2 9 2 26q0 44 -27.5 70t-74.5 26q-54 0 -93.5 -34t-48.5 -87z"/>
<glyph glyph-name="agrave" horiz-adv-x="539" unicode="à" d="M334 675l102 -125l-44 -38l-104 125zM160 225q-3 -19 -3 -37q0 -60 35.5 -95t96.5 -35q71 0 122 43l44 256q-38 35 -109 35q-70 0 -121.5 -46.5t-64.5 -120.5zM359 457q123 0 174 -73l-67 -384h-73l6 36q-61 -43 -139 -43q-83 0 -132 49.5t-49 131.5q0 21 5 51 q19 104 94.5 168t180.5 64z"/>
<glyph glyph-name="aacute" horiz-adv-x="539" unicode="á" d="M313 550l147 125l31 -38l-147 -125zM160 225q-3 -19 -3 -37q0 -60 35.5 -95t96.5 -35q71 0 122 43l44 256q-38 35 -109 35q-70 0 -121.5 -46.5t-64.5 -120.5zM359 457q123 0 174 -73l-67 -384h-73l6 36q-61 -43 -139 -43q-83 0 -132 49.5t-49 131.5q0 21 5 51 q19 104 94.5 168t180.5 64z"/>
<glyph glyph-name="acircumflex" horiz-adv-x="539" unicode="â" d="M398 675l103 -125l-45 -38l-72 87l-102 -87l-32 38zM160 225q-3 -19 -3 -37q0 -60 35.5 -95t96.5 -35q71 0 122 43l44 256q-38 35 -109 35q-70 0 -121.5 -46.5t-64.5 -120.5zM359 457q123 0 174 -73l-67 -384h-73l6 36q-61 -43 -139 -43q-83 0 -132 49.5t-49 131.5 q0 21 5 51q19 104 94.5 168t180.5 64z"/>
<glyph glyph-name="atilde" horiz-adv-x="539" unicode="ã" d="M278 539h-42q7 39 34.5 63.5t64.5 24.5q31 0 55 -24.5t44 -24.5q19 0 32.5 12t17.5 32h42q-7 -39 -34.5 -63t-65.5 -24q-20 0 -34.5 7.5t-20.5 16.5t-17 16.5t-25 7.5q-19 0 -33 -12t-18 -32zM160 225q-3 -19 -3 -37q0 -60 35.5 -95t96.5 -35q71 0 122 43l44 256 q-38 35 -109 35q-70 0 -121.5 -46.5t-64.5 -120.5zM359 457q123 0 174 -73l-67 -384h-73l6 36q-61 -43 -139 -43q-83 0 -132 49.5t-49 131.5q0 21 5 51q19 104 94.5 168t180.5 64z"/>
<glyph glyph-name="adieresis" horiz-adv-x="539" unicode="ä" d="M238 573q3 19 18.5 32.5t35.5 13.5q17 0 28.5 -10.5t11.5 -26.5q0 -6 -1 -9q-4 -20 -20 -33.5t-35 -13.5q-17 0 -28 10.5t-11 27.5q0 6 1 9zM425 573q4 20 20 33.5t35 13.5q18 0 29 -11t11 -28q0 -1 -0.5 -4t-0.5 -4q-4 -20 -20 -33.5t-36 -13.5q-17 0 -28 10.5t-11 27.5 q0 6 1 9zM160 225q-3 -19 -3 -37q0 -60 35.5 -95t96.5 -35q71 0 122 43l44 256q-38 35 -109 35q-70 0 -121.5 -46.5t-64.5 -120.5zM359 457q123 0 174 -73l-67 -384h-73l6 36q-61 -43 -139 -43q-83 0 -132 49.5t-49 131.5q0 21 5 51q19 104 94.5 168t180.5 64z"/>
<glyph glyph-name="aring" horiz-adv-x="539" unicode="å" d="M332 595q-1 -4 -1 -12q0 -19 12 -30.5t31 -11.5q24 0 41 15t22 39q1 4 1 12q0 19 -12 31t-32 12q-23 0 -40.5 -15t-21.5 -40zM296 596q8 40 36.5 64.5t67.5 24.5q34 0 54 -19t20 -51q0 -5 -2 -19q-8 -41 -36 -65.5t-68 -24.5q-34 0 -54 19.5t-20 51.5q0 5 2 19zM160 225 q-3 -19 -3 -37q0 -60 35.5 -95t96.5 -35q71 0 122 43l44 256q-38 35 -109 35q-70 0 -121.5 -46.5t-64.5 -120.5zM359 457q123 0 174 -73l-67 -384h-73l6 36q-61 -43 -139 -43q-83 0 -132 49.5t-49 131.5q0 21 5 51q19 104 94.5 168t180.5 64z"/>
<glyph glyph-name="ae" horiz-adv-x="720" unicode="æ" d="M314 101l20 108q-16 2 -30 2q-65 0 -110.5 -24t-52.5 -64q-2 -8 -2 -14q0 -23 16 -39.5t51 -16.5q58 0 108 48zM425 314l-10 -56h234q0 3 0.5 9t0.5 8q0 55 -27.5 86.5t-79.5 31.5q-69 0 -116 -50q0 -9 -2 -29zM342 259l10 55q1 5 1 14q0 29 -19.5 49t-58.5 20 q-62 0 -104 -37l-33 40q66 57 154 57q78 0 111 -52q63 52 149 52q82 0 125 -47.5t43 -133.5q0 -26 -7 -70h-308l-16 -94q33 -54 115 -54q76 0 128 47l36 -45q-75 -67 -180 -67q-113 0 -162 69q-69 -69 -152 -69q-55 0 -82.5 28t-27.5 71q0 8 2 24q12 68 80.5 107t162.5 39 q23 0 33 -3z"/>
<glyph glyph-name="ccedilla" horiz-adv-x="478" unicode="ç" d="M160 225q-3 -19 -3 -37q0 -60 35.5 -95t96.5 -35q74 0 126 47l37 -45q-69 -62 -166 -67l-9 -52q54 -10 54 -60q0 -4 -2 -16q-7 -36 -33.5 -58t-63.5 -22q-36 0 -55 25l29 25q12 -14 33 -14t36 12t19 33q0 2 0.5 4t0.5 4q0 39 -57 39l14 81q-80 6 -126 55t-46 127 q0 26 4 49q19 104 94 168t178 64q102 0 154 -68l-53 -45q-35 48 -109 48q-71 0 -123 -46.5t-65 -120.5z"/>
<glyph glyph-name="egrave" horiz-adv-x="508" unicode="è" d="M316 675l103 -125l-44 -38l-104 125zM331 393q-57 0 -101.5 -36.5t-61.5 -98.5h269q0 3 0.5 9t0.5 8q0 55 -27.5 86.5t-79.5 31.5zM501 206h-343q-1 -7 -1 -20q0 -59 35.5 -93.5t99.5 -34.5q76 0 128 47l36 -45q-75 -67 -180 -67q-90 0 -143 50t-53 134q0 20 5 50 q18 102 89 166t167 64q81 0 124 -47.5t43 -133.5q0 -26 -7 -70z"/>
<glyph glyph-name="eacute" horiz-adv-x="508" unicode="é" d="M294 550l148 125l31 -38l-147 -125zM331 393q-57 0 -101.5 -36.5t-61.5 -98.5h269q0 3 0.5 9t0.5 8q0 55 -27.5 86.5t-79.5 31.5zM501 206h-343q-1 -7 -1 -20q0 -59 35.5 -93.5t99.5 -34.5q76 0 128 47l36 -45q-75 -67 -180 -67q-90 0 -143 50t-53 134q0 20 5 50 q18 102 89 166t167 64q81 0 124 -47.5t43 -133.5q0 -26 -7 -70z"/>
<glyph glyph-name="ecircumflex" horiz-adv-x="508" unicode="ê" d="M379 675l103 -125l-44 -38l-72 87l-103 -87l-31 38zM331 393q-57 0 -101.5 -36.5t-61.5 -98.5h269q0 3 0.5 9t0.5 8q0 55 -27.5 86.5t-79.5 31.5zM501 206h-343q-1 -7 -1 -20q0 -59 35.5 -93.5t99.5 -34.5q76 0 128 47l36 -45q-75 -67 -180 -67q-90 0 -143 50t-53 134 q0 20 5 50q18 102 89 166t167 64q81 0 124 -47.5t43 -133.5q0 -26 -7 -70z"/>
<glyph glyph-name="edieresis" horiz-adv-x="508" unicode="ë" d="M408 573q4 20 20 33.5t35 13.5q18 0 29 -11t11 -28q0 -1 -0.5 -4t-0.5 -4q-4 -20 -20 -33.5t-35 -13.5q-17 0 -28.5 11t-11.5 27q0 6 1 9zM221 573q4 19 19.5 32.5t35.5 13.5q17 0 28 -10.5t11 -26.5q0 -6 -1 -9q-4 -20 -20 -33.5t-35 -13.5q-17 0 -28 10.5t-11 27.5 q0 6 1 9zM331 393q-57 0 -101.5 -36.5t-61.5 -98.5h269q0 3 0.5 9t0.5 8q0 55 -27.5 86.5t-79.5 31.5zM501 206h-343q-1 -7 -1 -20q0 -59 35.5 -93.5t99.5 -34.5q76 0 128 47l36 -45q-75 -67 -180 -67q-90 0 -143 50t-53 134q0 20 5 50q18 102 89 166t167 64q81 0 124 -47.5 t43 -133.5q0 -26 -7 -70z"/>
<glyph glyph-name="igrave" d="M73 0l79 450h73l-79 -450h-73zM165 675l103 -125l-44 -38l-104 125z" unicode="ì"/>
<glyph glyph-name="iacute" d="M73 0l79 450h73l-79 -450h-73zM145 550l147 125l31 -38l-147 -125z" unicode="í"/>
<glyph glyph-name="icircumflex" d="M229 675l102 -125l-44 -38l-72 87l-102 -87l-32 38zM73 0l79 450h73l-79 -450h-73z" unicode="î"/>
<glyph glyph-name="idieresis" d="M239 573q4 20 20 33.5t35 13.5q18 0 29 -11t11 -28q0 -1 -0.5 -4t-0.5 -4q-4 -20 -20 -33.5t-35 -13.5q-17 0 -28.5 11t-11.5 27q0 6 1 9zM88 573q3 19 18.5 32.5t35.5 13.5q17 0 28.5 -11t11.5 -28q0 -1 -0.5 -3t-0.5 -4q-4 -20 -20 -33.5t-35 -13.5q-17 0 -28 10.5 t-11 27.5q0 6 1 9zM73 0l79 450h73l-79 -450h-73z" unicode="ï"/>
<glyph glyph-name="eth" horiz-adv-x="555" unicode="ð" d="M474 225q3 19 3 36q0 60 -35.5 95.5t-95.5 35.5q-70 0 -121.5 -46.5t-64.5 -120.5q-4 -26 -4 -38q0 -59 35.5 -94t95.5 -35q70 0 121.5 46.5t65.5 120.5zM261 538l-20 50l96 49l-48 84l72 36l46 -83l102 53l21 -50l-94 -49q67 -139 93 -207.5t26 -132.5q0 -24 -5 -56 q-19 -109 -94 -174t-179 -65q-91 0 -144 49.5t-53 133.5q0 22 5 50q18 103 94.5 167t177.5 64q48 0 83 -21q-35 79 -74 156z"/>
<glyph glyph-name="ntilde" horiz-adv-x="521" unicode="ñ" d="M255 539h-43q7 39 35 63.5t64 24.5q31 0 55 -24.5t44 -24.5q19 0 32.5 12t17.5 32h42q-6 -39 -34 -63t-66 -24q-20 0 -34.5 7.5t-20.5 16.5t-17 16.5t-25 7.5q-19 0 -33 -12t-17 -32zM152 450h73l-7 -37q64 44 141 44q65 0 102.5 -38.5t37.5 -103.5q0 -22 -4 -42 l-48 -273h-72l47 273q3 13 3 26q0 42 -26 67.5t-69 25.5q-72 0 -123 -46l-61 -346h-73z"/>
<glyph glyph-name="ograve" horiz-adv-x="555" unicode="ò" d="M333 675l103 -125l-45 -38l-104 125zM160 225q-4 -26 -4 -38q0 -59 35.5 -94t95.5 -35q70 0 121.5 46.5t65.5 120.5q3 19 3 36q0 60 -35.5 95.5t-95.5 35.5q-70 0 -121.5 -46.5t-64.5 -120.5zM84 225q19 104 95 168t179 64q90 0 142.5 -50t52.5 -134q0 -25 -4 -48 q-19 -104 -94.5 -168t-178.5 -64q-90 0 -143 50t-53 134q0 25 4 48z"/>
<glyph glyph-name="oacute" horiz-adv-x="555" unicode="ó" d="M312 550l148 125l31 -38l-147 -125zM160 225q-4 -26 -4 -38q0 -59 35.5 -94t95.5 -35q70 0 121.5 46.5t65.5 120.5q3 19 3 36q0 60 -35.5 95.5t-95.5 35.5q-70 0 -121.5 -46.5t-64.5 -120.5zM84 225q19 104 95 168t179 64q90 0 142.5 -50t52.5 -134q0 -25 -4 -48 q-19 -104 -94.5 -168t-178.5 -64q-90 0 -143 50t-53 134q0 25 4 48z"/>
<glyph glyph-name="ocircumflex" horiz-adv-x="555" unicode="ô" d="M396 675l103 -125l-44 -38l-72 87l-102 -87l-32 38zM160 225q-4 -26 -4 -38q0 -59 35.5 -94t95.5 -35q70 0 121.5 46.5t65.5 120.5q3 19 3 36q0 60 -35.5 95.5t-95.5 35.5q-70 0 -121.5 -46.5t-64.5 -120.5zM84 225q19 104 95 168t179 64q90 0 142.5 -50t52.5 -134 q0 -25 -4 -48q-19 -104 -94.5 -168t-178.5 -64q-90 0 -143 50t-53 134q0 25 4 48z"/>
<glyph glyph-name="otilde" horiz-adv-x="555" unicode="õ" d="M276 539h-42q7 39 34.5 63.5t64.5 24.5q32 0 55.5 -24.5t43.5 -24.5q19 0 32.5 12t17.5 32h42q-7 -39 -34.5 -63t-65.5 -24q-20 0 -34.5 7.5t-20.5 16.5t-17 16.5t-25 7.5q-19 0 -33 -12t-18 -32zM160 225q-4 -26 -4 -38q0 -59 35.5 -94t95.5 -35q70 0 121.5 46.5 t65.5 120.5q3 19 3 36q0 60 -35.5 95.5t-95.5 35.5q-70 0 -121.5 -46.5t-64.5 -120.5zM84 225q19 104 95 168t179 64q90 0 142.5 -50t52.5 -134q0 -25 -4 -48q-19 -104 -94.5 -168t-178.5 -64q-90 0 -143 50t-53 134q0 25 4 48z"/>
<glyph glyph-name="odieresis" horiz-adv-x="555" unicode="ö" d="M425 573q3 19 19 33t36 14q17 0 28.5 -11.5t11.5 -28.5q0 -1 -0.5 -3t-0.5 -4q-4 -20 -20 -33.5t-36 -13.5q-17 0 -28 10.5t-11 27.5q0 6 1 9zM238 573q3 19 18.5 32.5t35.5 13.5q17 0 28.5 -11t11.5 -28q0 -1 -0.5 -3t-0.5 -4q-4 -20 -20 -33.5t-35 -13.5 q-17 0 -28 10.5t-11 27.5q0 6 1 9zM160 225q-4 -26 -4 -38q0 -59 35.5 -94t95.5 -35q70 0 121.5 46.5t65.5 120.5q3 19 3 36q0 60 -35.5 95.5t-95.5 35.5q-70 0 -121.5 -46.5t-64.5 -120.5zM84 225q19 104 95 168t179 64q90 0 142.5 -50t52.5 -134q0 -25 -4 -48 q-19 -104 -94.5 -168t-178.5 -64q-90 0 -143 50t-53 134q0 25 4 48z"/>
<glyph glyph-name="divide" horiz-adv-x="500" unicode="÷" d="M280 432q4 20 19.5 33t34.5 13q17 0 27.5 -10.5t10.5 -26.5q0 -6 -1 -9q-3 -19 -18.5 -32t-34.5 -13q-17 0 -28 10.5t-11 26.5q0 1 0.5 3.5t0.5 4.5zM222 102q3 19 18.5 32t35.5 13q17 0 27.5 -10.5t10.5 -26.5q0 -2 -0.5 -4t-0.5 -4q-4 -20 -19 -33t-34 -13 q-17 0 -28 10.5t-11 26.5q0 6 1 9zM102 238l11 58h378l-10 -58h-379z"/>
<glyph glyph-name="oslash" horiz-adv-x="555" unicode="ø" d="M155 225q-4 -28 -4 -39q0 -42 18 -72l255 263q-32 20 -77 20q-72 0 -125 -47.5t-67 -124.5zM478 225q4 26 4 38q0 43 -19 75l-257 -264q32 -21 80 -21q72 0 125.5 48t66.5 124zM52 -7l65 67q-37 46 -37 117q0 25 4 48q19 104 95 168t179 64q69 0 116 -29l33 34h76 l-68 -70q38 -47 38 -119q0 -25 -4 -48q-19 -104 -94.5 -168t-178.5 -64q-71 0 -119 31l-30 -31h-75z"/>
<glyph glyph-name="ugrave" horiz-adv-x="531" unicode="ù" d="M320 675l103 -125l-44 -38l-104 125zM537 450l-48 -265q-15 -86 -77 -139t-148 -53q-75 0 -119 41t-44 111q0 12 4 40l47 265h76l-47 -265q-3 -15 -3 -28q0 -45 26.5 -72t72.5 -27q53 0 92 35.5t49 91.5l47 265h72z"/>
<glyph glyph-name="uacute" horiz-adv-x="531" unicode="ú" d="M300 550l148 125l30 -38l-146 -125zM537 450l-48 -265q-15 -86 -77 -139t-148 -53q-75 0 -119 41t-44 111q0 12 4 40l47 265h76l-47 -265q-3 -15 -3 -28q0 -45 26.5 -72t72.5 -27q53 0 92 35.5t49 91.5l47 265h72z"/>
<glyph glyph-name="ucircumflex" horiz-adv-x="531" unicode="û" d="M384 675l103 -125l-44 -38l-73 87l-102 -87l-32 38zM537 450l-48 -265q-15 -86 -77 -139t-148 -53q-75 0 -119 41t-44 111q0 12 4 40l47 265h76l-47 -265q-3 -15 -3 -28q0 -45 26.5 -72t72.5 -27q53 0 92 35.5t49 91.5l47 265h72z"/>
<glyph glyph-name="udieresis" horiz-adv-x="531" unicode="ü" d="M413 573q3 20 19 33.5t35 13.5q18 0 29 -10.5t11 -27.5q0 -6 -1 -9q-4 -20 -20 -33.5t-35 -13.5q-17 0 -28 10.5t-11 27.5q0 6 1 9zM225 573q4 19 19.5 32.5t35.5 13.5q17 0 28.5 -11t11.5 -28q0 -1 -0.5 -3t-0.5 -4q-4 -20 -20 -33.5t-35 -13.5q-17 0 -28.5 11t-11.5 27 q0 6 1 9zM537 450l-48 -265q-15 -86 -77 -139t-148 -53q-75 0 -119 41t-44 111q0 12 4 40l47 265h76l-47 -265q-3 -15 -3 -28q0 -45 26.5 -72t72.5 -27q53 0 92 35.5t49 91.5l47 265h72z"/>
<glyph glyph-name="yacute" horiz-adv-x="529" unicode="ý" d="M299 550l148 125l31 -38l-147 -125zM582 450l-445 -700h-81l174 250l-125 450h81l94 -363l221 363h81z"/>
<glyph glyph-name="thorn" horiz-adv-x="541" unicode="þ" d="M459 225q3 19 3 37q0 60 -35.5 95t-96.5 35q-72 0 -123 -46l-44 -245q35 -43 108 -43q71 0 123 46.5t65 120.5zM205 750h73l-60 -337q64 44 142 44q83 0 131.5 -49t48.5 -131q0 -22 -5 -52q-19 -104 -93 -168t-175 -64q-72 0 -117 33l-49 -276h-73z"/>
<glyph glyph-name="OE" horiz-adv-x="875" unicode="Œ" d="M413 61q42 0 78 11l98 556q-32 11 -74 11q-122 0 -213 -80t-113 -209q-6 -33 -6 -63q0 -103 62 -164.5t168 -61.5zM665 637l-44 -253h238l-11 -63h-238l-46 -258h276l-10 -63h-349q-46 -7 -80 -7q-137 0 -217 77t-80 205q0 39 7 75q29 159 144 258t272 99q33 0 77 -7h344 l-12 -63h-271z"/>
<glyph glyph-name="oe" horiz-adv-x="841" unicode="œ" d="M664 393q-57 0 -101.5 -36.5t-61.5 -98.5h269q0 3 0.5 8.5t0.5 8.5q0 55 -27.5 86.5t-79.5 31.5zM287 58q80 0 135 60q-8 29 -8 59q0 20 5 50q9 59 40 107q-34 58 -113 58q-70 0 -121.5 -46.5t-64.5 -120.5q-4 -26 -4 -38q0 -59 35.5 -94t95.5 -35zM834 206h-343 q-1 -7 -1 -20q0 -59 35.5 -93.5t99.5 -34.5q76 0 129 47l36 -45q-76 -67 -181 -67t-155 65q-75 -65 -178 -65q-90 0 -143 50t-53 134q0 25 4 48q19 104 95 168t179 64q100 0 152 -63q69 63 164 63q81 0 124 -47.5t43 -133.5q0 -26 -7 -70z"/>
<glyph glyph-name="Scaron" horiz-adv-x="530" unicode="Š" d="M382 737l-103 125l44 38l73 -87l102 87l31 -38zM564 625l-56 -48q-20 27 -58 44.5t-79 17.5q-62 0 -99 -36t-45 -82q-2 -14 -2 -19q0 -36 29.5 -62t71.5 -43t84 -35.5t71.5 -52.5t29.5 -82q0 -16 -3 -34q-15 -82 -81 -141t-169 -59q-132 0 -202 92l55 47 q24 -34 65.5 -52.5t86.5 -18.5q72 0 115.5 41t51.5 89q2 12 2 17q0 35 -29.5 60t-71.5 41.5t-84 35.5t-71.5 53.5t-29.5 84.5q0 17 3 36q14 79 73 133.5t154 54.5q123 0 188 -82z"/>
<glyph glyph-name="scaron" horiz-adv-x="384" unicode="š" d="M274 512l-104 125l46 38l71 -87l103 87l31 -38zM395 404l-53 -45q-29 36 -80 36q-34 0 -55 -20t-24 -45q-1 -4 -1 -11q0 -25 28 -43.5t61 -29t61 -35.5t28 -62q0 -5 -2 -21q-9 -55 -55.5 -95t-117.5 -40q-91 0 -137 60l53 45q31 -44 90 -44q41 0 65 23t29 50q1 3 1 9 q0 25 -28 43t-61.5 28.5t-61.5 36t-28 63.5q0 6 2 22q10 53 51.5 90.5t107.5 37.5q85 0 127 -53z"/>
<glyph glyph-name="Ydieresis" horiz-adv-x="667" unicode="Ÿ" d="M520 797q4 20 19.5 33.5t35.5 13.5q17 0 28.5 -11t11.5 -28q0 -1 -0.5 -3.5t-0.5 -4.5q-4 -20 -20 -33t-36 -13q-17 0 -28 10.5t-11 26.5q0 6 1 9zM333 797q3 19 19 33t36 14q17 0 28 -11t11 -28q0 -1 -0.5 -4t-0.5 -4q-4 -19 -19.5 -32.5t-35.5 -13.5q-17 0 -28 10.5 t-11 26.5q0 6 1 9zM295 0l53 302l-197 398h88l160 -323l275 323h87l-338 -399l-52 -301h-76z"/>
<glyph glyph-name="circumflex" horiz-adv-x="352" unicode="ˆ" d="M295 675l103 -125l-45 -38l-72 87l-102 -87l-32 38z"/>
<glyph glyph-name="tilde" horiz-adv-x="337" unicode="˜" d="M168 539h-43q7 39 35 63.5t64 24.5q25 0 40.5 -12.5t28.5 -24.5t30 -12q19 0 32.5 12t17.5 32h43q-7 -39 -35 -63t-66 -24q-20 0 -34.5 7.5t-20.5 16.5t-17 16.5t-25 7.5q-19 0 -33 -12t-17 -32z"/>
<glyph glyph-name="uni0400" horiz-adv-x="498" unicode="Ѐ" d="M357 900l103 -125l-45 -38l-103 125zM263 637l-44 -253h261l-11 -63h-262l-45 -258h299l-11 -63h-374l123 700h369l-11 -63h-294z"/>
<glyph glyph-name="afii10023" horiz-adv-x="498" unicode="Ё" d="M449 797q3 20 18.5 33.5t35.5 13.5q18 0 29.5 -11t11.5 -28q0 -1 -0.5 -3.5t-0.5 -4.5q-4 -19 -20 -32.5t-36 -13.5q-17 0 -28 10.5t-11 26.5q0 6 1 9zM262 797q3 20 19 33.5t35 13.5q17 0 28.5 -11.5t11.5 -28.5q0 -1 -0.5 -3t-0.5 -4q-4 -19 -19.5 -32.5t-35.5 -13.5 q-17 0 -28 10.5t-11 26.5q0 6 1 9zM263 637l-44 -253h261l-11 -63h-262l-45 -258h299l-11 -63h-374l123 700h369l-11 -63h-294z"/>
<glyph glyph-name="afii10051" horiz-adv-x="694" unicode="Ђ" d="M489 0l8 49q56 0 65 53l26 143q2 9 2 26q0 43 -25 68t-69 25q-74 0 -124 -45l-56 -319h-75l112 637h-201l11 63h477l-11 -63h-201l-45 -253q65 46 141 46q67 0 105 -38.5t38 -104.5q0 -22 -4 -42l-26 -145q-9 -48 -40 -76t-76 -28q-24 0 -32 4z"/>
<glyph glyph-name="afii10052" horiz-adv-x="466" unicode="Ѓ" d="M76 0l123 700h349l-11 -63h-274l-112 -637h-75zM323 775l147 125l31 -38l-147 -125z"/>
<glyph glyph-name="afii10053" horiz-adv-x="699" unicode="Є" d="M518 639q-115 0 -202.5 -70t-117.5 -185h415l-11 -63h-415q-2 -24 -2 -36q0 -102 62 -163t169 -61q126 0 219 80l40 -47q-115 -101 -274 -101q-137 0 -217 77t-80 205q0 39 7 75q29 159 144 258t272 99q158 0 238 -101l-57 -48q-64 81 -190 81z"/>
<glyph glyph-name="afii10054" horiz-adv-x="530" unicode="Ѕ" d="M564 625l-56 -48q-20 27 -58 44.5t-79 17.5q-62 0 -99 -36t-45 -82q-2 -14 -2 -19q0 -36 29.5 -62t71.5 -43t84 -35.5t71.5 -52.5t29.5 -82q0 -16 -3 -34q-15 -82 -81 -141t-169 -59q-132 0 -202 92l55 47q24 -34 65.5 -52.5t86.5 -18.5q72 0 115.5 41t51.5 89q2 12 2 17 q0 35 -29.5 60t-71.5 41.5t-84 35.5t-71.5 53.5t-29.5 84.5q0 17 3 36q14 79 73 133.5t154 54.5q123 0 188 -82z"/>
<glyph glyph-name="afii10055" horiz-adv-x="222" unicode="І" d="M73 0l123 700h76l-123 -700h-76z"/>
<glyph glyph-name="afii10056" horiz-adv-x="222" unicode="Ї" d="M283 797q4 20 19.5 33.5t35.5 13.5q17 0 28.5 -11t11.5 -28q0 -1 -0.5 -3.5t-0.5 -4.5q-4 -20 -20 -33t-36 -13q-17 0 -28 10.5t-11 26.5q0 6 1 9zM126 797q3 19 19 33t36 14q17 0 28.5 -11.5t11.5 -28.5q0 -1 -0.5 -3t-0.5 -4q-4 -19 -20 -32.5t-36 -13.5 q-17 0 -28 10.5t-11 27.5q0 1 0.5 4t0.5 4zM73 0l123 700h76l-123 -700h-76z"/>
<glyph glyph-name="afii10057" horiz-adv-x="453" unicode="Ј" d="M337 190l90 510h75l-90 -510q-15 -88 -79 -142.5t-152 -54.5t-133 55l58 49q27 -36 84 -36q55 0 95.5 35.5t51.5 93.5z"/>
<glyph glyph-name="afii10058" horiz-adv-x="942" unicode="Љ" d="M848 196q3 15 3 29q0 47 -29 74t-78 27h-121l-45 -260h121q56 0 97 35.5t52 94.5zM489 0l112 637h-256l-82 -464q-14 -81 -63.5 -129t-114.5 -48q-35 0 -47 4l8 49q54 0 91.5 31t47.5 89l94 531h410l-54 -309h122q80 0 126 -41.5t46 -113.5q0 -19 -3 -40 q-16 -89 -81.5 -142.5t-156.5 -53.5h-199z"/>
<glyph glyph-name="afii10059" horiz-adv-x="937" unicode="Њ" d="M843 196q3 15 3 29q0 47 -29 74t-78 27h-121l-46 -260h122q56 0 97 35.5t52 94.5zM274 700l-54 -309h332l55 309h77l-54 -309h121q81 0 127 -41.5t46 -113.5q0 -19 -3 -40q-16 -89 -81.5 -142.5t-156.5 -53.5h-199l56 326h-332l-57 -326h-75l123 700h75z"/>
<glyph glyph-name="afii10060" horiz-adv-x="694" unicode="Ћ" d="M428 637l-45 -253q65 46 141 46q67 0 105 -38.5t38 -104.5q0 -22 -4 -42l-43 -245h-75l43 245q2 9 2 26q0 43 -25 68t-69 25q-74 0 -124 -45l-56 -319h-75l112 637h-201l11 63h477l-11 -63h-201z"/>
<glyph glyph-name="afii10061" horiz-adv-x="596" unicode="Ќ" d="M372 775l147 125l31 -38l-147 -125zM468 0l-246 359l349 341h95l-349 -341l248 -359h-97zM73 0l123 700h76l-123 -700h-76z"/>
<glyph glyph-name="uni040D" horiz-adv-x="706" unicode="Ѝ" d="M701 700h52l-123 -700h-76l98 558l-525 -558h-51l123 700h75l-99 -558zM447 900l103 -125l-44 -38l-103 125z"/>
<glyph glyph-name="afii10062" horiz-adv-x="609" unicode="Ў" d="M706 700l-475 -700h-81l157 220l-158 480h81l129 -393l266 393h81zM446 807q63 0 110 42l31 -38q-67 -59 -150 -59q-82 0 -130 59l45 38q32 -42 94 -42z"/>
<glyph glyph-name="afii10145" horiz-adv-x="696" unicode="Џ" d="M313 0h-237l123 700h75l-112 -637h393l112 637h76l-123 -700h-237l-27 -150h-70z"/>
<glyph glyph-name="afii10017" horiz-adv-x="749" unicode="А" d="M481 604l-203 -334h287zM634 0l-53 202h-343l-123 -202h-87l434 700h72l187 -700h-87z"/>
<glyph glyph-name="afii10018" horiz-adv-x="537" unicode="Б" d="M443 196q3 15 3 29q0 47 -29 74t-78 27h-129l-45 -260h129q56 0 97 35.5t52 94.5zM76 0l123 700h356l-11 -63h-279l-43 -246h130q80 0 126 -41.5t46 -113.5q0 -19 -3 -40q-16 -89 -81.5 -142.5t-156.5 -53.5h-207z"/>
<glyph glyph-name="afii10019" horiz-adv-x="545" unicode="В" d="M469 514q3 14 3 27q0 43 -26 68t-72 25h-109l-42 -240h109q52 0 89.5 33t47.5 87zM451 198q3 15 3 30q0 46 -29 73t-78 27h-136l-46 -262h136q57 0 98.5 36t51.5 96zM76 0l123 700h191q74 0 116.5 -38t42.5 -103q0 -11 -4 -39q-18 -106 -108 -151q92 -32 92 -137 q0 -20 -3 -39q-16 -88 -80 -140.5t-153 -52.5h-217z"/>
<glyph glyph-name="afii10020" horiz-adv-x="466" unicode="Г" d="M76 0l123 700h349l-11 -63h-274l-112 -637h-75z"/>
<glyph glyph-name="afii10021" horiz-adv-x="680" unicode="Д" d="M266 215q-17 -103 -83 -152h322l101 574h-266zM574 0h-468l-27 -150h-70l37 211q54 0 91.5 39t50.5 116l86 484h421l-113 -637h73l-38 -213h-70z"/>
<glyph glyph-name="afii10022" horiz-adv-x="498" unicode="Е" d="M263 637l-44 -253h261l-11 -63h-262l-45 -258h299l-11 -63h-374l123 700h369l-11 -63h-294z"/>
<glyph glyph-name="afii10024" horiz-adv-x="904" unicode="Ж" d="M467 359l-347 -359h-90l349 359l-208 341h87zM784 0l-221 359l329 341h87l-329 -341l223 -359h-89zM414 0l123 700h75l-123 -700h-75z"/>
<glyph glyph-name="afii10025" horiz-adv-x="545" unicode="З" d="M242 328l12 66h78q55 0 93.5 33t48.5 91q3 15 3 28q0 44 -27.5 69.5t-77.5 25.5q-87 0 -176 -75l-38 47q111 94 231 94q80 0 122.5 -39t42.5 -105q0 -21 -4 -40q-19 -110 -113 -154q92 -32 92 -138q0 -19 -3 -39q-16 -91 -86 -145t-172 -54q-134 0 -212 101l57 47 q63 -82 161 -82q72 0 119 38t58 100q3 16 3 30q0 47 -29 74t-78 27h-105z"/>
<glyph glyph-name="afii10026" horiz-adv-x="706" unicode="И" d="M701 700h52l-123 -700h-76l98 558l-525 -558h-51l123 700h75l-99 -558z"/>
<glyph glyph-name="afii10027" horiz-adv-x="706" unicode="Й" d="M701 700h52l-123 -700h-76l98 558l-525 -558h-51l123 700h75l-99 -558zM494 807q63 0 110 42l32 -38q-69 -59 -151 -59t-130 59l45 38q34 -42 94 -42z"/>
<glyph glyph-name="afii10028" horiz-adv-x="596" unicode="К" d="M468 0l-246 359l349 341h95l-349 -341l248 -359h-97zM73 0l123 700h76l-123 -700h-76z"/>
<glyph glyph-name="afii10029" horiz-adv-x="658" unicode="Л" d="M38 0l8 49q54 0 91.5 31t47.5 89l94 531h426l-123 -700h-78l112 637h-271l-82 -464q-14 -81 -63.5 -129t-114.5 -48q-35 0 -47 4z"/>
<glyph glyph-name="afii10030" horiz-adv-x="809" unicode="М" d="M658 0l95 545l-304 -384h-34l-168 384l-96 -545h-75l123 700h57l195 -433l347 433h58l-123 -700h-75z"/>
<glyph glyph-name="afii10031" horiz-adv-x="690" unicode="Н" d="M274 700l-55 -316h388l55 316h75l-123 -700h-75l56 321h-388l-56 -321h-75l123 700h75z"/>
<glyph glyph-name="afii10032" horiz-adv-x="805" unicode="О" d="M189 350q-6 -33 -6 -63q0 -103 62 -164.5t168 -61.5q122 0 212.5 80t112.5 209q6 33 6 63q0 103 -61.5 164.5t-167.5 61.5q-122 0 -213 -80t-113 -209zM111 350q29 159 144 258t272 99q137 0 216.5 -76.5t79.5 -204.5q0 -40 -7 -76q-29 -159 -143.5 -258t-271.5 -99 q-137 0 -217 77t-80 205q0 39 7 75z"/>
<glyph glyph-name="afii10033" horiz-adv-x="661" unicode="П" d="M199 700h509l-123 -700h-75l111 637h-358l-112 -637h-75z"/>
<glyph glyph-name="afii10034" horiz-adv-x="519" unicode="Р" d="M480 504q2 10 2 28q0 47 -28 74.5t-78 27.5h-111l-46 -260h111q57 0 98.5 35.5t51.5 94.5zM76 0l123 700h189q80 0 126.5 -42t46.5 -113q0 -22 -4 -41q-16 -89 -81 -142t-157 -53h-111l-54 -309h-78z"/>
<glyph glyph-name="afii10035" horiz-adv-x="699" unicode="С" d="M189 350q-6 -33 -6 -62q0 -103 63 -165t170 -62q126 0 219 80l40 -47q-115 -101 -274 -101q-137 0 -217 77t-80 205q0 39 7 75q29 159 144 258t272 99q158 0 238 -101l-57 -48q-64 81 -190 81q-123 0 -215 -80t-114 -209z"/>
<glyph glyph-name="afii10036" horiz-adv-x="557" unicode="Т" d="M428 637l-112 -637h-75l112 637h-201l11 63h477l-11 -63h-201z"/>
<glyph glyph-name="afii10037" horiz-adv-x="609" unicode="У" d="M706 700l-475 -700h-81l157 220l-158 480h81l129 -393l266 393h81z"/>
<glyph glyph-name="afii10038" horiz-adv-x="769" unicode="Ф" d="M370 136l76 428q-98 0 -169.5 -59.5t-87.5 -154.5q-4 -20 -4 -43q0 -78 49.5 -124.5t135.5 -46.5zM521 564l-76 -428q98 0 169 59t88 155q4 20 4 44q0 78 -49.5 124t-135.5 46zM347 0l11 68q-116 0 -184 61.5t-68 164.5q0 24 5 56q23 126 119 204t228 78l12 68h75 l-12 -68q116 0 183.5 -61.5t67.5 -163.5q0 -32 -5 -57q-22 -125 -117.5 -203.5t-228.5 -78.5l-11 -68h-75z"/>
<glyph glyph-name="afii10039" horiz-adv-x="721" unicode="Х" d="M593 0l-180 303l-286 -303h-96l336 354l-206 346h97l173 -294l277 294h97l-329 -346l214 -354h-97z"/>
<glyph glyph-name="afii10040" horiz-adv-x="725" unicode="Ц" d="M619 0h-543l123 700h75l-112 -637h393l112 637h76l-113 -637h70l-37 -213h-71z"/>
<glyph glyph-name="afii10041" horiz-adv-x="578" unicode="Ч" d="M502 0h-73l55 315q-65 -19 -153 -19q-84 0 -127.5 40t-43.5 116q0 32 5 57l34 191h73l-34 -189q-4 -21 -4 -45q0 -109 123 -109q79 0 138 19l57 324h73z"/>
<glyph glyph-name="afii10042" horiz-adv-x="1014" unicode="Ш" d="M938 0h-862l123 700h75l-112 -637h318l112 637h76l-113 -637h318l113 637h75z"/>
<glyph glyph-name="afii10043" horiz-adv-x="1044" unicode="Щ" d="M938 0h-862l123 700h75l-112 -637h318l112 637h76l-113 -637h318l113 637h75l-112 -637h70l-38 -213h-70z"/>
<glyph glyph-name="afii10044" horiz-adv-x="649" unicode="Ъ" d="M555 196q3 15 3 29q0 47 -29 74t-78 27h-121l-46 -260h122q56 0 97 35.5t52 94.5zM152 637l11 63h233l-54 -309h121q81 0 127 -41.5t46 -113.5q0 -19 -3 -40q-16 -89 -81.5 -142.5t-156.5 -53.5h-199l111 637h-155z"/>
<glyph glyph-name="afii10045" horiz-adv-x="731" unicode="Ы" d="M580 0l123 700h75l-123 -700h-75zM435 196q3 15 3 29q0 46 -28.5 73.5t-77.5 27.5h-122l-45 -260h121q57 0 97.5 35.5t51.5 94.5zM76 0l123 700h78l-55 -309h122q80 0 126 -41.5t46 -113.5q0 -19 -3 -40q-16 -89 -81.5 -142.5t-156.5 -53.5h-199z"/>
<glyph glyph-name="afii10046" horiz-adv-x="529" unicode="Ь" d="M435 196q3 15 3 29q0 46 -28.5 73.5t-77.5 27.5h-122l-45 -260h121q57 0 97.5 35.5t51.5 94.5zM76 0l123 700h78l-55 -309h122q80 0 126 -41.5t46 -113.5q0 -19 -3 -40q-16 -89 -81.5 -142.5t-156.5 -53.5h-199z"/>
<glyph glyph-name="afii10047" horiz-adv-x="699" unicode="Э" d="M187 558l-40 48q115 101 274 101q137 0 216.5 -76.5t79.5 -204.5q0 -40 -7 -76q-29 -159 -143.5 -258t-271.5 -99q-159 0 -239 101l57 47q64 -80 191 -80q116 0 204 71.5t117 188.5h-352l11 63h352q1 10 1 30q0 103 -62 164t-169 61q-127 0 -219 -81z"/>
<glyph glyph-name="afii10048" horiz-adv-x="1029" unicode="Ю" d="M474 350q-6 -36 -6 -70q0 -100 53.5 -159.5t145.5 -59.5q109 0 191 80t104 209q7 35 7 72q0 100 -53.5 158.5t-146.5 58.5q-108 0 -190.5 -80t-104.5 -209zM274 700l-55 -316h185q36 145 139.5 234t238.5 89q123 0 194.5 -74.5t71.5 -199.5q0 -37 -8 -83 q-28 -159 -134.5 -258t-249.5 -99q-124 0 -195 74.5t-71 200.5q0 26 3 53h-186l-56 -321h-75l123 700h75z"/>
<glyph glyph-name="afii10049" horiz-adv-x="544" unicode="Я" d="M217 504q-3 -15 -3 -29q0 -47 28 -74t77 -27h137l46 260h-137q-56 0 -97 -36t-51 -94zM591 700l-123 -700h-77l54 309h-107l-216 -309h-86l227 313q-60 11 -94 50t-34 99q0 22 4 42q15 89 81 142.5t157 53.5h214z"/>
<glyph glyph-name="afii10065" horiz-adv-x="539" unicode="а" d="M160 225q-3 -19 -3 -37q0 -60 35.5 -95t96.5 -35q71 0 122 43l44 256q-38 35 -109 35q-70 0 -121.5 -46.5t-64.5 -120.5zM359 457q123 0 174 -73l-67 -384h-73l6 36q-61 -43 -139 -43q-83 0 -132 49.5t-49 131.5q0 21 5 51q19 104 94.5 168t180.5 64z"/>
<glyph glyph-name="afii10066" horiz-adv-x="565" unicode="б" d="M177 224q-4 -19 -4 -41q0 -57 31.5 -91t90.5 -34q71 0 123.5 46.5t65.5 121.5q3 18 3 36q0 59 -35.5 94.5t-96.5 35.5q-69 0 -116.5 -45.5t-61.5 -122.5zM567 755l33 -41q-37 -35 -82.5 -60t-82 -36t-76 -29t-69.5 -41t-56 -71t-41 -119h5q70 99 181 99q81 0 132 -50.5 t51 -134.5q0 -26 -4 -49q-18 -103 -94 -166.5t-187 -63.5q-84 0 -131.5 44.5t-47.5 152.5q0 54 11 115q17 98 50.5 168t72.5 104.5t87 60t90 37t86 32t72 48.5z"/>
<glyph glyph-name="afii10067" horiz-adv-x="442" unicode="в" d="M192 259h82q29 0 51 19t27 49q1 5 1 14q0 24 -15.5 38.5t-40.5 14.5h-82zM280 208h-98l-27 -152h98q34 0 58.5 21t30.5 55q1 5 1 16q0 27 -17 43.5t-46 16.5zM73 0l79 450h166q51 0 79.5 -25t28.5 -66q0 -7 -2 -23q-11 -66 -71 -98q62 -22 62 -89q0 -16 -2 -25 q-10 -56 -52 -90t-106 -34h-182z"/>
<glyph glyph-name="afii10068" horiz-adv-x="368" unicode="г" d="M214 392l-68 -392h-73l79 450h254l-11 -58h-181z"/>
<glyph glyph-name="afii10069" horiz-adv-x="534" unicode="д" d="M226 164q-12 -66 -61 -106h207l59 334h-165zM505 58l-32 -178h-68l22 120h-322l-22 -120h-68l31 178q38 0 68.5 28.5t37.5 71.5l52 292h310l-69 -392h60z"/>
<glyph glyph-name="afii10070" horiz-adv-x="508" unicode="е" d="M331 393q-57 0 -101.5 -36.5t-61.5 -98.5h269q0 3 0.5 9t0.5 8q0 55 -27.5 86.5t-79.5 31.5zM501 206h-343q-1 -7 -1 -20q0 -59 35.5 -93.5t99.5 -34.5q76 0 128 47l36 -45q-75 -67 -180 -67q-90 0 -143 50t-53 134q0 20 5 50q18 102 89 166t167 64q81 0 124 -47.5 t43 -133.5q0 -26 -7 -70z"/>
<glyph glyph-name="afii10072" horiz-adv-x="664" unicode="ж" d="M549 0l-140 235l-41 -235h-72l41 235l-223 -235h-83l226 237l-131 213h84l128 -212l37 212h72l-37 -211l202 211h84l-206 -213l143 -237h-84z"/>
<glyph glyph-name="afii10073" horiz-adv-x="408" unicode="з" d="M270 457q60 0 93 -26t33 -70q0 -7 -2 -23q-13 -72 -75 -102q62 -22 62 -90q0 -8 -2 -26q-10 -58 -58.5 -92.5t-125.5 -34.5q-95 0 -150 67l49 41q38 -48 104 -48q45 0 74.5 22t35.5 57q1 6 1 16q0 27 -17 42.5t-47 15.5h-69l9 51h52q31 0 54.5 20t29.5 50q1 4 1 12 q0 24 -17.5 41t-51.5 17q-58 0 -107 -44l-34 42q72 62 158 62z"/>
<glyph glyph-name="afii10074" horiz-adv-x="533" unicode="и" d="M225 450l-58 -333l313 333h59l-79 -450h-73l58 333l-313 -333h-59l79 450h73z"/>
<glyph glyph-name="afii10075" horiz-adv-x="533" unicode="й" d="M225 450l-58 -333l313 333h59l-79 -450h-73l58 333l-313 -333h-59l79 450h73zM369 582q61 0 109 42l31 -38q-67 -59 -151 -59q-82 0 -129 60l44 38q35 -43 96 -43z"/>
<glyph glyph-name="afii10076" horiz-adv-x="465" unicode="к" d="M146 0h-73l79 450h73l-37 -208l222 208h87l-228 -213l166 -237h-87l-162 231z"/>
<glyph glyph-name="afii10077" horiz-adv-x="500" unicode="л" d="M38 0l8 49q38 0 64.5 21.5t33.5 63.5l56 316h305l-79 -450h-72l68 392h-160l-46 -261q-11 -64 -49 -99.5t-91 -35.5q-29 0 -38 4z"/>
<glyph glyph-name="afii10078" horiz-adv-x="599" unicode="м" d="M73 0l79 450h70l109 -271l204 271h70l-79 -450h-68l58 335l-180 -245h-42l-94 245l-59 -335h-68z"/>
<glyph glyph-name="afii10079" horiz-adv-x="528" unicode="н" d="M225 450l-34 -193h235l35 193h72l-79 -450h-72l34 198h-236l-34 -198h-73l79 450h73z"/>
<glyph glyph-name="afii10080" horiz-adv-x="555" unicode="о" d="M160 225q-4 -26 -4 -38q0 -59 35.5 -94t95.5 -35q70 0 121.5 46.5t65.5 120.5q3 19 3 36q0 60 -35.5 95.5t-95.5 35.5q-70 0 -121.5 -46.5t-64.5 -120.5zM84 225q19 104 95 168t179 64q90 0 142.5 -50t52.5 -134q0 -25 -4 -48q-19 -104 -94.5 -168t-178.5 -64 q-90 0 -143 50t-53 134q0 25 4 48z"/>
<glyph glyph-name="afii10081" horiz-adv-x="515" unicode="п" d="M369 0l68 392h-223l-68 -392h-73l79 450h369l-79 -450h-73z"/>
<glyph glyph-name="afii10082" horiz-adv-x="541" unicode="р" d="M459 225q3 19 3 37q0 60 -35.5 95t-96.5 35q-73 0 -124 -46l-43 -245q35 -43 108 -43q71 0 123 46.5t65 120.5zM152 450h73l-7 -38q64 45 142 45q83 0 131.5 -49t48.5 -131q0 -22 -5 -52q-19 -104 -93 -168t-175 -64q-72 0 -117 33l-49 -276h-73z"/>
<glyph glyph-name="afii10083" horiz-adv-x="478" unicode="с" d="M160 225q-3 -19 -3 -37q0 -60 35.5 -95t96.5 -35q74 0 126 47l37 -45q-75 -67 -178 -67q-89 0 -141.5 50t-52.5 134q0 25 4 48q19 104 94 168t178 64q102 0 154 -68l-53 -45q-35 48 -109 48q-71 0 -123 -46.5t-65 -120.5z"/>
<glyph glyph-name="afii10084" horiz-adv-x="434" unicode="т" d="M322 392l-68 -392h-73l68 392h-140l10 58h354l-10 -58h-141z"/>
<glyph glyph-name="afii10085" horiz-adv-x="529" unicode="у" d="M582 450l-445 -700h-81l174 250l-125 450h81l94 -363l221 363h81z"/>
<glyph glyph-name="afii10086" horiz-adv-x="678" unicode="ф" d="M160 225q-4 -26 -4 -38q0 -59 35.5 -94t95.5 -35q9 0 25 2l59 330q-16 2 -25 2q-70 0 -121.5 -46.5t-64.5 -120.5zM469 392q-11 0 -25 -2l-59 -330q16 -2 25 -2q70 0 122 46.5t65 120.5q3 19 3 36q0 60 -35.5 95.5t-95.5 35.5zM400 -5q-11 0 -25 2l-44 -247h-73l44 247 q-18 -2 -25 -2q-91 0 -144 49t-53 133q0 25 4 48q19 103 94.5 166.5t179.5 63.5q8 0 24 -2l53 297h73l-53 -297q16 2 26 2q90 0 142.5 -49t52.5 -133q0 -25 -4 -48q-18 -103 -93 -166.5t-179 -63.5z"/>
<glyph glyph-name="afii10087" horiz-adv-x="513" unicode="х" d="M397 0l-109 183l-173 -183h-84l218 229l-132 221h85l102 -173l165 173h85l-211 -221l139 -229h-85z"/>
<glyph glyph-name="afii10088" horiz-adv-x="535" unicode="ц" d="M73 0l79 450h73l-69 -392h223l69 392h73l-69 -392h54l-31 -178h-68l22 120h-356z"/>
<glyph glyph-name="afii10089" horiz-adv-x="475" unicode="ч" d="M402 0h-73l33 188q-50 -17 -107 -17q-64 0 -97.5 31t-33.5 86q0 12 4 38l22 124h73l-22 -121q-2 -16 -2 -22q0 -34 20.5 -55t62.5 -21q55 0 91 20l35 199h73z"/>
<glyph glyph-name="afii10090" horiz-adv-x="710" unicode="ш" d="M574 58l69 392h73l-79 -450h-564l79 450h73l-69 -392h172l70 392h72l-69 -392h173z"/>
<glyph glyph-name="afii10091" horiz-adv-x="730" unicode="щ" d="M73 0l79 450h73l-69 -392h172l70 392h72l-69 -392h173l69 392h73l-70 -392h55l-32 -178h-68l22 120h-550z"/>
<glyph glyph-name="afii10092" horiz-adv-x="512" unicode="ъ" d="M356 204h-87l-26 -148h87q32 0 56.5 20.5t29.5 53.5q1 5 1 15q0 27 -16.5 43t-44.5 16zM323 0h-162l68 392h-120l10 58h193l-33 -190h90q58 0 90.5 -28t32.5 -75q0 -13 -3 -27q-10 -58 -54.5 -94t-111.5 -36z"/>
<glyph glyph-name="afii10093" horiz-adv-x="599" unicode="ы" d="M453 0l79 450h73l-79 -450h-73zM269 204h-88l-26 -148h88q32 0 56.5 20.5t29.5 53.5q1 5 1 15q0 27 -16.5 43t-44.5 16zM73 0l79 450h73l-33 -190h89q59 0 91 -28t32 -76q0 -17 -2 -26q-10 -58 -54.5 -94t-111.5 -36h-163z"/>
<glyph glyph-name="afii10094" horiz-adv-x="425" unicode="ь" d="M269 204h-88l-26 -148h88q32 0 56.5 20.5t29.5 53.5q1 5 1 15q0 27 -16.5 43t-44.5 16zM73 0l79 450h73l-33 -190h89q59 0 91 -28t32 -76q0 -17 -2 -26q-10 -58 -54.5 -94t-111.5 -36h-163z"/>
<glyph glyph-name="afii10095" horiz-adv-x="478" unicode="э" d="M188 201l10 53h201v9q0 59 -35.5 94t-96.5 35q-75 0 -125 -47l-38 45q75 67 179 67q89 0 141 -49.5t52 -133.5q0 -26 -4 -49q-19 -104 -93.5 -168t-177.5 -64q-102 0 -155 67l53 46q35 -48 109 -48q64 0 114 39t68 104h-202z"/>
<glyph glyph-name="afii10096" horiz-adv-x="747" unicode="ю" d="M372 225q-3 -19 -3 -39q0 -59 32 -93.5t88 -34.5q66 0 114.5 46.5t62.5 120.5q3 19 3 38q0 59 -32.5 94t-88.5 35q-65 0 -113.5 -46.5t-62.5 -120.5zM225 450l-34 -193h113q26 90 95.5 145t160.5 55q86 0 136 -49.5t50 -132.5q0 -20 -5 -50q-19 -104 -91.5 -168 t-171.5 -64q-86 0 -136 49.5t-50 131.5q0 16 1 24h-113l-34 -198h-73l79 450h73z"/>
<glyph glyph-name="afii10097" horiz-adv-x="463" unicode="я" d="M256 241h102l27 153h-102q-34 0 -58.5 -21t-30.5 -55q-1 -6 -1 -16q0 -27 17 -44t46 -17zM468 450l-79 -450h-73l33 185h-82l-135 -185h-77l145 190q-82 20 -82 99q0 13 3 28q10 60 55.5 96.5t114.5 36.5h177z"/>
<glyph glyph-name="uni0450" horiz-adv-x="508" unicode="ѐ" d="M316 675l103 -125l-44 -38l-104 125zM331 393q-57 0 -101.5 -36.5t-61.5 -98.5h269q0 3 0.5 9t0.5 8q0 55 -27.5 86.5t-79.5 31.5zM501 206h-343q-1 -7 -1 -20q0 -59 35.5 -93.5t99.5 -34.5q76 0 128 47l36 -45q-75 -67 -180 -67q-90 0 -143 50t-53 134q0 20 5 50 q18 102 89 166t167 64q81 0 124 -47.5t43 -133.5q0 -26 -7 -70z"/>
<glyph glyph-name="afii10071" horiz-adv-x="508" unicode="ё" d="M404 552q4 20 20 33.5t36 13.5q17 0 28 -10.5t11 -27.5q0 -6 -1 -9q-3 -19 -19 -32.5t-36 -13.5q-17 0 -28.5 11t-11.5 28q0 1 0.5 3t0.5 4zM217 552q4 20 20.5 33.5t35.5 13.5q17 0 27.5 -10.5t10.5 -27.5q0 -6 -1 -9q-3 -19 -18.5 -32.5t-35.5 -13.5q-17 0 -28.5 11 t-11.5 28q0 1 0.5 3t0.5 4zM331 393q-57 0 -101.5 -36.5t-61.5 -98.5h269q0 3 0.5 9t0.5 8q0 55 -27.5 86.5t-79.5 31.5zM501 206h-343q-1 -7 -1 -20q0 -59 35.5 -93.5t99.5 -34.5q76 0 128 47l36 -45q-75 -67 -180 -67q-90 0 -143 50t-53 134q0 20 5 50q18 102 89 166 t167 64q81 0 124 -47.5t43 -133.5q0 -26 -7 -70z"/>
<glyph glyph-name="afii10099" horiz-adv-x="538" unicode="ђ" d="M288 -250l9 49q56 0 65 53l75 421q2 9 2 25q0 42 -25.5 68t-69.5 26q-72 0 -123 -45l-60 -347h-73l104 592h-58l10 58h58l18 100h73l-18 -100h173l-10 -58h-174l-31 -180q64 45 140 45q66 0 103 -38t37 -102q0 -24 -4 -44l-74 -423q-9 -48 -40 -76t-74 -28q-24 0 -33 4z "/>
<glyph glyph-name="afii10100" horiz-adv-x="368" unicode="ѓ" d="M214 392l-68 -392h-73l79 450h254l-11 -58h-181zM234 550l147 125l31 -38l-147 -125z"/>
<glyph glyph-name="afii10101" horiz-adv-x="478" unicode="є" d="M348 392q-63 0 -112 -37.5t-69 -100.5h232l-9 -53h-233v-13q0 -60 35.5 -95t96.5 -35q74 0 126 47l37 -45q-75 -67 -178 -67q-89 0 -141.5 50t-52.5 134q0 25 4 48q19 104 94 168t178 64q102 0 154 -68l-53 -45q-35 48 -109 48z"/>
<glyph glyph-name="afii10102" horiz-adv-x="384" unicode="ѕ" d="M395 404l-53 -45q-29 36 -80 36q-34 0 -55 -20t-24 -45q-1 -4 -1 -11q0 -25 28 -43.5t61 -29t61 -35.5t28 -62q0 -5 -2 -21q-9 -55 -55.5 -95t-117.5 -40q-91 0 -137 60l53 45q31 -44 90 -44q41 0 65 23t29 50q1 3 1 9q0 25 -28 43t-61.5 28.5t-61.5 36t-28 63.5 q0 6 2 22q10 53 51.5 90.5t107.5 37.5q85 0 127 -53z"/>
<glyph glyph-name="afii10103" d="M164 585q3 20 20 34.5t37 14.5q19 0 30.5 -12t11.5 -29q0 -1 -0.5 -4t-0.5 -4q-5 -21 -21.5 -35t-37.5 -14q-17 0 -28.5 11t-11.5 28q0 6 1 10zM73 0l79 450h73l-79 -450h-73z" unicode="і"/>
<glyph glyph-name="afii10104" d="M237 560q4 20 20 33.5t35 13.5q18 0 28.5 -10.5t10.5 -27.5q0 -6 -1 -9q-3 -20 -19 -33.5t-36 -13.5q-17 0 -28 10.5t-11 27.5q0 6 1 9zM85 560q4 19 19.5 32.5t35.5 13.5q17 0 28 -10.5t11 -26.5q0 -6 -1 -9q-3 -20 -19 -33.5t-35 -13.5q-17 0 -28.5 11.5t-11.5 28.5 q0 1 0.5 3t0.5 4zM73 0l79 450h73l-79 -450h-73z" unicode="ї"/>
<glyph glyph-name="afii10105" d="M-26 -250l9 49q54 0 64 53l105 598h73l-106 -600q-8 -48 -39 -76t-75 -28q-22 0 -31 4zM164 585q3 20 20 34.5t37 14.5q19 0 30.5 -12t11.5 -29q0 -1 -0.5 -4t-0.5 -4q-5 -21 -21.5 -35t-37.5 -14q-17 0 -28.5 11t-11.5 28q0 6 1 10z" unicode="ј"/>
<glyph glyph-name="afii10106" horiz-adv-x="700" unicode="љ" d="M549 204h-87l-26 -148h87q32 0 56.5 20.5t29.5 53.5q1 5 1 15q0 27 -16.5 43t-44.5 16zM354 0l68 392h-160l-46 -261q-11 -64 -49 -99.5t-91 -35.5q-29 0 -38 4l8 49q38 0 64.5 21.5t33.5 63.5l56 316h305l-33 -190h90q58 0 90.5 -28t32.5 -75q0 -13 -3 -27 q-10 -58 -54.5 -94t-111.5 -36h-162z"/>
<glyph glyph-name="afii10107" horiz-adv-x="728" unicode="њ" d="M577 198h-94l-25 -142h94q31 0 54 19.5t28 51.5q2 12 2 16q0 25 -16 40t-43 15zM225 450l-34 -193h230l34 193h73l-34 -193h96q57 0 88 -27.5t31 -74.5q0 -18 -2 -27q-11 -58 -53.5 -93t-108.5 -35h-169l35 198h-231l-34 -198h-73l79 450h73z"/>
<glyph glyph-name="afii10108" horiz-adv-x="538" unicode="ћ" d="M134 592l10 58h58l18 100h73l-18 -100h173l-10 -58h-174l-31 -180q64 45 140 45q66 0 103 -38t37 -102q0 -24 -4 -44l-47 -273h-73l48 273q2 9 2 25q0 42 -25.5 68t-69.5 26q-72 0 -123 -45l-60 -347h-73l104 592h-58z"/>
<glyph glyph-name="afii10109" horiz-adv-x="465" unicode="ќ" d="M267 550l148 125l31 -38l-147 -125zM146 0h-73l79 450h73l-37 -208l222 208h87l-228 -213l166 -237h-87l-162 231z"/>
<glyph glyph-name="uni045D" horiz-adv-x="533" unicode="ѝ" d="M225 450l-58 -333l313 333h59l-79 -450h-73l58 333l-313 -333h-59l79 450h73zM321 675l103 -125l-44 -38l-104 125z"/>
<glyph glyph-name="afii10110" horiz-adv-x="529" unicode="ў" d="M367 582q62 0 109 42l31 -38q-65 -59 -150 -59q-81 0 -130 60l45 38q33 -43 95 -43zM582 450l-445 -700h-81l174 250l-125 450h81l94 -363l221 363h81z"/>
<glyph glyph-name="afii10193" horiz-adv-x="515" unicode="џ" d="M202 -120l22 120h-151l79 450h73l-69 -392h223l69 392h73l-79 -450h-150l-22 -120h-68z"/>
<glyph glyph-name="afii10050" horiz-adv-x="464" unicode="Ґ" d="M263 637l-112 -637h-75l123 700h276l22 125h58l-33 -188h-259z"/>
<glyph glyph-name="afii10098" horiz-adv-x="365" unicode="ґ" d="M214 392l-68 -392h-73l79 450h186l17 100h58l-28 -158h-171z"/>
<glyph glyph-name="uni04D8" horiz-adv-x="746" unicode="Ә" d="M383 61q102 0 180 70t107 185h-484q-2 -14 -2 -41q0 -98 53.5 -156t145.5 -58zM756 350q-28 -159 -134.5 -258t-250.5 -99q-124 0 -195.5 75t-71.5 201q0 42 7 81l6 29h565q2 22 2 33q0 103 -62.5 165t-169.5 62q-129 0 -219 -81l-40 48q115 101 274 101q137 0 216.5 -76 t79.5 -204q0 -39 -7 -77z"/>
<glyph glyph-name="afii10846" horiz-adv-x="508" unicode="ә" d="M258 57q57 0 101.5 36.5t62.5 98.5h-270q0 -3 -0.5 -8.5t-0.5 -8.5q0 -55 27.5 -86.5t79.5 -31.5zM88 244h343q1 7 1 20q0 59 -35.5 93.5t-99.5 34.5q-76 0 -128 -47l-37 45q76 67 182 67q90 0 142.5 -49.5t52.5 -133.5q0 -21 -5 -51q-18 -102 -88.5 -166t-166.5 -64 q-81 0 -124 47.5t-43 133.5q0 33 6 70z"/>
<glyph glyph-name="endash" horiz-adv-x="500" unicode="–" d="M102 236l10 58h379l-11 -58h-378z"/>
<glyph glyph-name="emdash" horiz-adv-x="700" unicode="—" d="M102 236l10 58h579l-11 -58h-578z"/>
<glyph glyph-name="quoteleft" d="M263 707l22 -26q-48 -39 -60 -73q15 -2 24.5 -13t9.5 -27q0 -2 -0.5 -4t-0.5 -4q-4 -20 -21 -34.5t-38 -14.5q-17 0 -28.5 10.5t-11.5 30.5q0 4 2 16q12 63 102 139z" unicode="‘"/>
<glyph glyph-name="quotesinglbase" d="M63 -105l-22 26q47 40 60 73q-15 2 -24.5 13t-9.5 27q0 2 0.5 4t0.5 4q3 20 20 34.5t37 14.5q17 0 29 -11t12 -33q0 -8 -1 -13q-12 -63 -102 -139z" unicode="‚"/>
<glyph glyph-name="quotedblleft" horiz-adv-x="353" unicode="“" d="M267 731l21 -26q-46 -39 -59 -73q15 -2 24.5 -13t9.5 -27q0 -2 -0.5 -4t-0.5 -4q-4 -20 -20.5 -34.5t-37.5 -14.5q-17 0 -28.5 10.5t-11.5 31.5q0 10 1 15q11 61 102 139zM401 731l21 -26q-48 -40 -59 -73q15 -2 24.5 -13t9.5 -27q0 -2 -0.5 -4t-0.5 -4q-4 -20 -21 -34.5 t-38 -14.5q-17 0 -28.5 10.5t-11.5 30.5q0 4 2 16q10 62 102 139z"/>
<glyph glyph-name="quotedblright" horiz-adv-x="353" unicode="”" d="M309 535l-22 26q47 40 60 73q-34 7 -34 40q0 2 0.5 4t0.5 4q4 21 21 35t38 14q39 0 39 -42q0 -10 -1 -15q-11 -62 -102 -139zM175 535l-21 26q47 40 59 73q-34 7 -34 40q0 2 0.5 4t0.5 4q5 21 21.5 35t37.5 14q17 0 28.5 -10t11.5 -31q0 -4 -2 -16q-11 -62 -102 -139z "/>
<glyph glyph-name="dagger" horiz-adv-x="500" unicode="†" d="M129 392l11 58h153l53 300h72l-53 -300h153l-11 -58h-152l-114 -642h-72l113 642h-153z"/>
<glyph glyph-name="daggerdbl" horiz-adv-x="500" unicode="‡" d="M72 66l10 58h153l47 268h-153l11 58h153l53 300h72l-53 -300h153l-11 -58h-152l-47 -268h153l-11 -58h-152l-57 -316h-72l56 316h-153z"/>
<glyph glyph-name="ellipsis" horiz-adv-x="659" unicode="…" d="M507 42q3 20 20 34.5t37 14.5q18 0 30 -11.5t12 -29.5q0 -2 -0.5 -4t-0.5 -4q-4 -21 -20.5 -35t-36.5 -14q-19 0 -30.5 11.5t-11.5 28.5q0 6 1 9zM287 42q4 20 20.5 34.5t37.5 14.5q18 0 29.5 -11.5t11.5 -28.5q0 -6 -1 -9q-3 -21 -19.5 -35t-37.5 -14q-19 0 -30.5 11.5 t-11.5 29.5q0 2 0.5 4t0.5 4zM68 42q3 20 20 34.5t37 14.5q18 0 30 -12.5t12 -29.5q0 -1 -0.5 -3t-0.5 -4q-4 -21 -20.5 -35t-37.5 -14q-18 0 -29.5 11.5t-11.5 28.5q0 6 1 9z"/>
<glyph glyph-name="perthousand" horiz-adv-x="1247" unicode="‰" d="M962 162q-2 -9 -2 -26q0 -40 22.5 -63.5t62.5 -23.5q46 0 80.5 31.5t43.5 81.5q2 9 2 26q0 40 -23 63.5t-63 23.5q-46 0 -80 -31.5t-43 -81.5zM896 162q13 76 68.5 122.5t130.5 46.5q66 0 104 -36t38 -97q0 -16 -3 -36q-13 -76 -68 -122.5t-130 -46.5q-66 0 -104.5 36 t-38.5 98q0 17 3 35zM570 162q-2 -9 -2 -26q0 -40 22.5 -63.5t62.5 -23.5q46 0 80.5 31.5t43.5 81.5q2 9 2 26q0 40 -22.5 63.5t-62.5 23.5q-46 0 -80.5 -31.5t-43.5 -81.5zM504 162q13 76 68.5 122.5t130.5 46.5q66 0 104.5 -36t38.5 -97q0 -18 -3 -36 q-14 -76 -68.5 -122.5t-130.5 -46.5q-66 0 -104.5 36t-38.5 98q0 17 3 35zM200 538q-2 -9 -2 -25q0 -40 23 -64t63 -24q46 0 80.5 31.5t42.5 81.5q2 9 2 26q0 40 -22.5 63.5t-62.5 23.5q-46 0 -80.5 -31.5t-43.5 -81.5zM134 538q13 75 69 122t131 47q66 0 104 -36t38 -97 q0 -16 -3 -36q-13 -76 -68.5 -122.5t-130.5 -46.5q-66 0 -104.5 36t-38.5 98q0 17 3 35zM207 0l491 700h74l-491 -700h-74z"/>
<glyph glyph-name="guilsinglleft" horiz-adv-x="300" unicode="‹" d="M220 79l-140 171l200 171l31 -38l-155 -133l109 -133z"/>
<glyph glyph-name="guilsinglright" horiz-adv-x="300" unicode="›" d="M304 250l-202 -171l-31 38l157 133l-111 133l46 38z"/>
<glyph glyph-name="fraction" horiz-adv-x="530" unicode="⁄" d="M53 0l491 700h56l-491 -700h-56z"/>
<glyph glyph-name="Euro" horiz-adv-x="747" unicode="€" d="M110 396l7 44h67q48 122 153 194.5t238 72.5q158 0 238 -101l-57 -48q-64 81 -190 81q-100 0 -180.5 -54t-121.5 -145h268l-7 -44h-277q-5 -16 -11 -46q-5 -24 -6 -46h277l-7 -44h-269q8 -92 70 -145.5t162 -53.5q127 0 218 80l41 -47q-117 -101 -274 -101 q-133 0 -212.5 72.5t-84.5 194.5h-66l8 44h59q1 22 6 46q2 17 10 46h-59z"/>
<glyph glyph-name="trademark" horiz-adv-x="684" unicode="™" d="M660 350l45 257l-143 -180h-18l-80 180l-46 -257h-45l62 350h34l95 -207l169 207h35l-62 -350h-46zM284 662l-56 -312h-46l56 312h-98l7 38h240l-6 -38h-97z"/>
<glyph glyph-name="arrowleft" horiz-adv-x="996" unicode="←" d="M406 -4l-354 354l354 354l47 -48l-272 -272h738v-68h-738l273 -271z"/>
<glyph glyph-name="arrowup" horiz-adv-x="811" unicode="↑" d="M372 -162v737l-272 -273l-48 48l354 354l353 -354l-48 -47l-271 272v-737h-68z"/>
<glyph glyph-name="arrowright" horiz-adv-x="996" unicode="→" d="M77 316v68h737l-272 272l48 48l354 -354l-354 -354l-48 49l272 271h-737z"/>
<glyph glyph-name="arrowdown" horiz-adv-x="811" unicode="↓" d="M406 -167l-354 354l48 48l272 -272v737h68v-737l271 272l48 -48z"/>
<glyph glyph-name="minus" horiz-adv-x="436" unicode="−" d="M109 273l10 59h314l-10 -59h-314z"/>
</font>
</defs>
</svg>
