<?xml version="1.0" encoding="utf-8"?>
<!-- Generator: Adobe Illustrator 18.1.0, SVG Export Plug-In . SVG Version: 6.00 Build 0)  -->
<svg version="1.1" id="Capa_1" xmlns="http://www.w3.org/2000/svg" xmlns:xlink="http://www.w3.org/1999/xlink" x="0px" y="0px"
	 viewBox="0 0 1008 612" enable-background="new 0 0 1008 612" xml:space="preserve">
<g>
	<g>
		<path fill="#EBEBEB" d="M645.3,365c23.3-38,35-79.5,35-124.5c0-66.6-23.6-123.2-70.7-169.9s-103.9-70-170.5-70
			S315.8,24,268.7,70.7S198,174,198,240.5s23.6,123.4,70.7,170.5s103.9,70.7,170.5,70.7c44.9,0,86.4-11.7,124.5-35l164.7,164.7
			l81.7-81.7L645.3,365z M544.8,346.2c-29,29-64.2,43.4-105.7,43.4c-40.6,0-75.6-14.5-105-43.4c-29.4-29-44.1-64-44.1-105
			s14.7-76.1,44.1-105s64.4-43.9,105-44.7c41.5,0.9,76.7,15.8,105.7,44.7s43.4,64,43.4,105S573.8,317.2,544.8,346.2z"/>
		<polygon fill="#EBEBEB" points="463.8,132.9 410.6,132.9 410.6,212 331.6,212 331.6,265.2 410.6,265.2 410.6,345.5 463.8,345.5 
			463.8,265.2 544.2,265.2 544.2,212 463.8,212 		"/>
	</g>
</g>
</svg>
